<svg viewBox="0 0 24 24" xmlns="http://www.w3.org/2000/svg" xmlns:xlink="http://www.w3.org/1999/xlink"><defs><path d="M13.792 2.92l9.131 16.06a2 2 0 0 1-1.739 2.99H2.923a2 2 0 0 1-1.739-2.99l9.131-16.06a2 2 0 0 1 3.477 0z" id="Exclamation-tri__a"/><path d="M12 7a1 1 0 0 1 1 1v6a1 1 0 0 1-2 0V8a1 1 0 0 1 1-1zm0 11a1 1 0 1 1 0-2 1 1 0 0 1 0 2z" id="Exclamation-tri__b"/></defs><g fill="none" fill-rule="evenodd"> <use fill="currentColor" xlink:href="#Exclamation-tri__a"/><use fill="#fff" xlink:href="#Exclamation-tri__b"/></g></svg>