<svg viewBox="0 0 24 24" xmlns="http://www.w3.org/2000/svg" xmlns:xlink="http://www.w3.org/1999/xlink"><defs><path d="M8.742 10.02c-1.23.398-2.878-.284-3.995-1.76-1.287-1.724-1.325-3.882-.076-4.81 1.25-.928 3.314-.265 4.601 1.458 1.098 1.458 1.288 3.237.55 4.317l1.722 2.026-1.155 1.325-1.647-2.556zm4.904 3.71l4.146 4.848c.53.625.417 1.552-.227 2.045l-.113.094a1.405 1.405 0 0 1-2.026-.36l-3.03-4.676 1.25-1.95zm6.551-8.69a.427.427 0 0 1 .019.53L17.47 9.434l-.38.492c-.397.511-.927.852-1.457.928l-1.117.151-5.983 9.335c-.455.681-1.382.852-2.026.36l-.114-.095a1.416 1.416 0 0 1-.227-2.045l7.252-8.407-.17-1.098c-.076-.53.094-1.136.473-1.647l.378-.492 2.916-3.75a.45.45 0 0 1 .511-.132.419.419 0 0 1 .17.625s-2.025 2.86-2.612 3.673c-.095.133-.057.284.057.379a.293.293 0 0 0 .378-.057l2.765-3.54a.41.41 0 0 1 .643-.02.427.427 0 0 1 .02.53l-2.595 3.655c-.094.133-.056.284.057.379a.293.293 0 0 0 .379-.057l2.764-3.54a.41.41 0 0 1 .644-.02z" id="food__a"/></defs><g fill="none" fill-rule="evenodd"> <use fill="currentColor" xlink:href="#food__a"/></g></svg>