<svg viewBox="0 0 24 24" xmlns="http://www.w3.org/2000/svg" xmlns:xlink="http://www.w3.org/1999/xlink"><defs><path d="M21.892 6.353H22l-.09.058c.059.186.09.384.09.589v10c0 1.1-.9 2-2 2H4c-1.101 0-2-.9-2-2V7c0-.205.031-.403.09-.59L2 6.354h.108A2.007 2.007 0 0 1 4 5h16c.874 0 1.621.568 1.892 1.353zm-2.076 1.413L12 12.824 4.184 7.766A1.297 1.297 0 0 0 4 8.429v7.142C4 16.357 4.72 17 5.6 17h12.8c.88 0 1.6-.643 1.6-1.429V8.43c0-.24-.066-.465-.184-.663z" id="Mail__a"/></defs><g fill="none" fill-rule="evenodd"> <use fill="currentColor" xlink:href="#Mail__a"/></g></svg>