<svg viewBox="0 0 24 24" xmlns="http://www.w3.org/2000/svg"><g fill="none" fill-rule="evenodd"> <path d="M9 19.981c-2.742 0-5-1.695-5-4.198 0-1.212.806-3.715.806-3.715C5.371 10.211 7.065 9 9 9s3.548 1.292 4.194 3.068c0 0 .806 2.503.806 3.715 0 2.503-2.258 4.198-5 4.198zm-2.903-7.67v1.21c0 .485.322.808.806.808h4.194c.484 0 .806-.323.806-.807V12.31c0-.485-.322-.808-.806-.808H6.903c-.484 0-.806.323-.806.808zm5.322 8.074c.242-.08.404-.161.484-.242L13.597 22h-1.613l-.161-.484H6.097L5.935 22H4.323l1.693-1.857c.161.08.323.161.565.242l-.162.485h5.162l-.162-.485zm0-2.503a.726.726 0 1 0 0-1.453.726.726 0 0 0 0 1.453zm-4.838 0a.726.726 0 1 0-.001-1.453.726.726 0 0 0 0 1.453zM21 4.767v1.246c0 .415-.286.76-.714.76V13h-.643c-.429 0-.786-.346-.786-.761v-.623h-4.202a5.08 5.08 0 0 0-1.106-2.026 4.448 4.448 0 0 0-1.835-1.226v-1.59c-.428-.07-.714-.346-.714-.761V4.767c0-.415.286-.692.714-.692v-.691c0-.761.643-1.384 1.429-1.384h5.714c.786 0 1.429.623 1.429 1.384v.691c.428 0 .714.277.714.692zm-7.857-.692c-.429 0-.714.277-.714.692v2.768c0 .415.285.691.714.691h5.714c.429 0 .714-.276.714-.691V4.767c0-.415-.285-.692-.714-.692h-5.714zm5.714 6.85a.633.633 0 0 0 .643-.623.633.633 0 0 0-.643-.623.633.633 0 0 0-.643.623c0 .344.288.623.643.623z" fill="currentColor"/></g></svg>