<svg viewBox="0 0 24 24" xmlns="http://www.w3.org/2000/svg" xmlns:xlink="http://www.w3.org/1999/xlink"><defs><path d="M20.375 19.232c.08.135-17.456.135-17.375 0l1.237-2.505c.693-1.156 1.325-2.479 1.325-3.826v-2.194c0-2.77 1.848-5.112 4.375-5.867V3.75c0-.965.785-1.75 1.75-1.75s1.75.785 1.75 1.75v1.09c2.527.755 4.375 3.098 4.375 5.867v2.194c0 1.347.614 2.671 1.308 3.827l1.255 2.504zm-8.688 3.288c-1.217 0-2.262-.96-2.755-1.99h5.51c-.493 1.03-1.538 1.99-2.755 1.99z" id="Notification__a"/></defs><g fill="none" fill-rule="evenodd"> <use fill="currentColor" xlink:href="#Notification__a"/></g></svg>