<svg viewBox="0 0 24 24" xmlns="http://www.w3.org/2000/svg" xmlns:xlink="http://www.w3.org/1999/xlink"><defs><path d="M13.917 16.78a1.025 1.025 0 0 1-1.04-1.024 1.051 1.051 0 0 1 1.035-1.065 1.062 1.062 0 0 1 1.045 1.059 1.033 1.033 0 0 1-1.04 1.03m-4.744-3.072c-1.763-.01-4.928-.06-5.136-.277-.151-.158.414-1.835 1.194-2.497.283-.24.743-.33 1.14-.402 1.522-.279 2.842-.298 4.38-.144.52.051.752.08 1.267.173.396.072.776.342 1.037.644.57.66 1.234 2.12 1.04 2.264-.302.223-3.265.248-4.922.239M4.13 16.78a1.023 1.023 0 0 1-1.047-1.02 1.044 1.044 0 0 1 1.028-1.069c.566-.007 1.058.484 1.056 1.053A1.042 1.042 0 0 1 4.13 16.78m9.923-5.823c.141.218 1.454 2.54 1.775 3.737a6.514 6.514 0 0 1-.068 3.483c-.036.117-.04.247-.044.372-.018.41-.025.819-.045 1.227-.007.162-.101.227-.269.222-.401-.01-.803-.01-1.205 0-.182.006-.262-.076-.281-.24-.018-.15-.038-.299-.042-.448-.006-.258 0-.517 0-.802-3.378.142-6.293.142-9.721-.004 0 .316.002.6-.003.882 0 .127-.01.253-.028.378-.024.158-.101.243-.286.236-.378-.015-.756-.003-1.135-.005-.292 0-.339-.034-.36-.335-.02-.284.006-.57-.026-.852-.054-.451-.134-.898-.211-1.347-.244-1.393-.048-2.744.49-4.033.407-.97 1.256-2.248 1.428-2.52.505-.801 1.265-1.149 2.165-1.31.208-.037.472-.07.775-.098v-.895c0-.12.1-.219.22-.219l3.67.005a.22.22 0 0 1 .218.22l-.001.897c.329.032.644.072.933.123.886.128 1.565.574 2.051 1.326zm7.721-5.045c.5 2.789.013 11.306.013 11.306a3.463 3.463 0 0 1-.058.427l-.105.491a2.48 2.48 0 0 0-.046.429v.962a.217.217 0 0 1-.216.216h-1.837a.217.217 0 0 1-.216-.216v-.962a.209.209 0 0 0-.215-.21l-1.952.055a.179.179 0 0 1-.187-.209s.29-2.22-.023-3.479c-.09-.335-.34-.95-.34-.95-.046-.11.015-.195.133-.19l3.745.168a.19.19 0 0 0 .212-.197l-.077-6.084a.255.255 0 0 0-.217-.242s-2.784-.333-5.567-.349c-2.622-.015-5.385.347-5.385.347-.118.015-.323.205-.442.207l-.877.024a.19.19 0 0 1-.2-.207s.062-.607.14-1.221c.075-.58.512-1.405 1.049-1.55C10.333 4.148 12.045 4 14.84 4c3.188 0 4.466.209 5.475.478.985.263 1.354.85 1.46 1.434z" id="public_transport__a"/></defs><g fill="none" fill-rule="evenodd"> <use fill="currentColor" xlink:href="#public_transport__a"/></g></svg>