<svg viewBox="0 0 24 24" xmlns="http://www.w3.org/2000/svg" xmlns:xlink="http://www.w3.org/1999/xlink"><defs><path d="M6.632 5.763L3.757 8.961a.978.978 0 0 1-1.454 0 1.21 1.21 0 0 1 0-1.618l4.499-5.005a1 1 0 0 1 1.487 0l4.397 4.892a1.21 1.21 0 0 1-.073 1.691.978.978 0 0 1-1.38-.073l-2.58-2.869v11.017a1 1 0 0 1-1 1h-.021a1 1 0 0 1-1-1V5.763zm11.022 12.261l2.578-2.868a.978.978 0 0 1 1.454 0 1.21 1.21 0 0 1 0 1.617l-4.397 4.892a1 1 0 0 1-1.487 0l-4.499-5.005a1.21 1.21 0 0 1 0-1.618.978.978 0 0 1 1.454 0l2.875 3.198V7.007a1 1 0 0 1 1-1h.022a1 1 0 0 1 1 1v11.017z" id="Swapper__a"/></defs><g fill="none" fill-rule="evenodd"> <use fill="currentColor" xlink:href="#Swapper__a"/></g></svg>