<svg viewBox="0 0 24 24" xmlns="http://www.w3.org/2000/svg" xmlns:xlink="http://www.w3.org/1999/xlink"><defs><path d="M5.756 17.365l3.198 2.874a.978.978 0 0 1 0 1.454 1.21 1.21 0 0 1-1.617 0l-5.005-4.499a1 1 0 0 1 0-1.487l4.891-4.397a1.21 1.21 0 0 1 1.691.074.978.978 0 0 1-.073 1.38l-2.869 2.578H16.99a1 1 0 0 1 1 1v.023a1 1 0 0 1-1 1H5.756zM18.017 6.342L15.15 3.764a.978.978 0 0 1 0-1.454 1.21 1.21 0 0 1 1.617 0l4.892 4.397a1 1 0 0 1 0 1.487l-5.005 4.5a1.21 1.21 0 0 1-1.618 0 .978.978 0 0 1 0-1.455l3.198-2.874H7a1 1 0 0 1-1-1v-.023a1 1 0 0 1 1-1h11.017z" id="SwapperHorizontal__a"/></defs><g fill="none" fill-rule="evenodd"> <use fill="currentColor" xlink:href="#SwapperHorizontal__a"/></g></svg>