<svg viewBox="0 0 24 24" xmlns="http://www.w3.org/2000/svg" xmlns:xlink="http://www.w3.org/1999/xlink"><defs><path d="M4.46 6.477A1.239 1.239 0 1 1 4.46 4a1.239 1.239 0 0 1 0 2.477zm.557.946s1.598.104 1.904.53v5.581h-.952L5.374 20H3.548l-.595-6.466H2v-5.58c.305-.427 1.905-.531 1.905-.531h1.112zm13.693-.946a1.239 1.239 0 1 1 0-2.477 1.239 1.239 0 0 1 0 2.477zM10.804 20V4.122h1.562V20h-1.562zm9.624-8.254l.742 5.183h-1.325l-.223 3.07H17.8l-.224-3.07h-1.325l.752-5.183h.2-.2l-.522-3.792c.304-.429 1.673-.53 1.673-.53h1.112s1.368.103 1.674.53l-.512 3.792z" id="Wc__a"/></defs><g fill="none" fill-rule="evenodd"> <use fill="currentColor" xlink:href="#Wc__a"/></g></svg>