<svg viewBox="0 0 24 24" xmlns="http://www.w3.org/2000/svg"><g fill="none" fill-rule="evenodd"> <path d="M8.071 14.37a.978.978 0 0 0-.976-.977H1.113L5.04 2h13.92l3.929 11.393h-5.983a.978.978 0 0 0-.976.976v1.583a.19.19 0 0 1-.191.19H8.262a.191.191 0 0 1-.19-.19V14.37zM6.5 3.963V6.32h.786V4.75h9.428v1.571h.786V3.964h-11zM5.321 7.107v2.357h.786V7.893h11.786v1.571h.786V7.107H5.32zm-.392 5.5v-1.571H19.07v1.571h.786V10.25H4.143v2.357h.786zm11.785 1.763c0-.106.086-.191.191-.191H23v6.04c0 .785-.639 1.424-1.424 1.424H2.424A1.426 1.426 0 0 1 1 20.219v-6.04h6.095a.19.19 0 0 1 .19.19v1.583c0 .539.439.977.977.977h7.476a.978.978 0 0 0 .976-.977V14.37z" fill="currentColor"/></g></svg>