<svg viewBox="0 0 64 40" 
  xmlns="http://www.w3.org/2000/svg">
  <path d="M5.555 30.432c.436.039.516-.135.47-.415a7.17 7.17 0 0 1-.155-1.303c0-3.299 2.767-6.065 6.064-6.065S18 25.419 18 28.714a5.98 5.98 0 0 1-.193 1.512c-.15.571-.211.91-.118 1.041.093.132.355.143.82.145l28.678.032c1.208 0 1.174-.111.888-1.178a5.995 5.995 0 0 1-.203-1.552c0-3.299 2.768-6.065 6.064-6.065 3.297 0 6.065 2.77 6.065 6.065 0 .238-.015.477-.043.714-.129 1.033-.396 1.162.43 1.231l1.768-.068a1.49 1.49 0 0 0 .903-.387c.328-.272.498-.632.685-1.373.195-.774.208-1.91.151-2.77-.024-.381.039-.69-.073-.922-.151-.31-.775-.087-.883-.379-.129-.387-.058-1.24-.06-2.434 0-.877 0-2.058-.104-2.785-.129-.882-.774-1.033-1.497-1.29-2.922-1.05-6.114-2-8.202-2.732-.95-1.858-2.561-5.151-4.755-6.72-2.143-1.533-3.907-1.6-6.44-1.614L5.806 7.01c-1.79-.007-2.322-.03-3.113.038-.696.062-1.319.473-1.39 1.22-.31 7.225-.387 11.149-.405 16.981.008.205-.433.297-.7.387-.163.052-.173.309-.173.547 0 1.128-.015 2.71.59 3.337.213.22.73.387 1.381.508 1.094.21 2.481.314 3.558.41v-.006zm36.361-14.308c-.67-.085-1.121-.258-1.306-.986-.387-1.521-.658-4.45-.855-5.548-.06-.328.067-.51.424-.516l2.916-.093c1.791-.057 3.2.112 4.488 1.388 1.368 1.354 2.47 3.471 3.278 4.852.734 1.256.538 1.6-.442 1.649-.312.014-5.459-.359-8.503-.746zm12.02 16.956a4.366 4.366 0 1 1-.003-8.733 4.366 4.366 0 0 1 .002 8.733zm-41.976 0a4.366 4.366 0 1 1-.003-8.733 4.366 4.366 0 0 1 .003 8.733z" fill="currentColor" fill-rule="evenodd"/>
</svg>