<svg viewBox="0 0 28 22" xmlns="http://www.w3.org/2000/svg" xmlns:xlink="http://www.w3.org/1999/xlink"><defs><path d="M10.84 20.68a11.353 11.353 0 0 1-3.658-1.108c-1.018.613-2.433 1.206-4.142 1.206a.366.366 0 0 1-.34-.231.393.393 0 0 1 .07-.42c.013-.015 1.045-1.173 1.671-2.63-1.116-1.26-1.774-2.786-1.774-4.441 0-4.267 4.347-7.723 9.712-7.723 3.915 0 7.289 1.84 8.826 4.493v-.034c4.605.603 8.125 3.775 8.125 7.608 0 1.79-.77 3.431-2.054 4.74a12.303 12.303 0 0 0 1.765 2.644c.294.324.373.797.205 1.207a1.08 1.08 0 0 1-.99.676c-2.502 0-4.515-.98-5.846-1.873-.887.212-1.821.328-2.792.328-3.89 0-7.233-1.82-8.778-4.442zm2.943.018c1.377 1.268 3.489 2.107 5.835 2.107a9.86 9.86 0 0 0 2.288-.27l.929-.222.799.536a9.38 9.38 0 0 0 2.012 1.033 16.553 16.553 0 0 1-.373-.715l-.724-1.5 1.153-1.178c.63-.647 1.387-1.704 1.387-3.09 0-2.314-2.144-4.313-5.038-5.06.027.236.041.475.041.717 0 3.887-3.609 7.102-8.309 7.642z" id="Chat__a"/></defs><g transform="translate(-2 -5)" fill="none" fill-rule="evenodd"><path d="M0 0h32v32H0z"/><use fill="currentColor" xlink:href="#Chat__a"/></g></svg>