<svg viewBox="0 0 24 24" xmlns="http://www.w3.org/2000/svg" xmlns:xlink="http://www.w3.org/1999/xlink"><defs><path d="M9.9 16.605c-.412-.462-.798-.897-1.186-1.33-1.112-1.24-2.227-2.48-3.337-3.723-.292-.327-.241-.535.166-.715.566-.25 1.138-.488 1.702-.744.231-.105.423-.084.644.04 2.29 1.291 4.584 2.571 6.873 3.862.191.107.34.11.534.014 1.15-.565 2.308-1.115 3.461-1.674 1.094-.531 2.284-.106 2.835.724.645.97.468 2.243-.425 2.961-.224.18-.495.316-.764.427-4.378 1.806-8.76 3.602-13.137 5.411-.313.13-.517.112-.768-.136-1.378-1.366-2.776-2.711-4.165-4.065-.422-.411-.382-.616.152-.846.3-.128.604-.246.897-.39.24-.117.449-.094.678.033.875.481 1.76.946 2.633 1.431.181.101.316.115.507.02.883-.437 1.775-.857 2.7-1.3zm9.183-10.42c-.008 1.165-.473 2.144-1.265 2.985-.794.844-1.593 1.683-2.396 2.52-.303.315-.57.314-.864.002-.876-.93-1.763-1.85-2.617-2.8-1.474-1.64-1.404-4.17.196-5.688 1.163-1.104 2.587-1.396 4.121-.926 1.763.54 2.848 2.088 2.825 3.907zm-2.506-.036a1.572 1.572 0 0 0-1.562-1.569c-.883-.006-1.6.672-1.61 1.52-.009.906.679 1.599 1.593 1.604a1.572 1.572 0 0 0 1.579-1.555z" id="DifferentAirport__a"/></defs><g fill="none" fill-rule="evenodd"><path d="M0 0h24v24H0z"/><use fill="currentColor" xlink:href="#DifferentAirport__a"/></g></svg>