<svg viewBox="0 0 24 24" xmlns="http://www.w3.org/2000/svg"><g fill="none" fill-rule="evenodd"><path d="M0 0h24v24H0z"/><path d="M13.875 14.5c0 1.375-.25 2.75-.5 4l1.875 1.75c.25.25.5.625.5 1V22L12 21.125 8.25 22v-.75c0-.375.125-.75.5-1l1.875-1.75c-.375-1.25-.5-2.625-.5-4L2 16.5v-1.125c0-.5.125-.875.5-1.25l7.625-5.375v-5l.75-1.25c.25-.25.625-.5 1.125-.5s.875.25 1.125.5l.75 1.25v5l7.625 5.375c.375.375.5.75.5 1.25V16.5l-8.125-2zM12 3.375c-.375 0-.625.25-.75.5l-.125.75h1.75l-.125-.75c0-.375-.375-.5-.75-.5z" fill="currentColor"/></g></svg>