<svg viewBox="0 0 24 24" xmlns="http://www.w3.org/2000/svg"><g fill="none" fill-rule="evenodd"><path d="M0 0h24v24H0z"/><path d="M7.577 8.362c.752-.002 1.329-.399 1.492-1.028.196-.755-.207-1.491-.939-1.714-.849-.258-1.721.113-1.983.843-.35.977.346 1.901 1.43 1.899zM6.24 17.643h2.678V9.498H6.239v8.145zm12.48.005c.007-.09.016-.15.016-.21 0-1.5.008-3-.007-4.5a5.912 5.912 0 0 0-.126-1.193c-.264-1.211-.93-2.084-2.192-2.36-1.272-.277-2.373-.003-3.161 1.12-.013.018-.036.03-.093.078V9.505h-2.694v8.138h2.699v-.3c0-1.447.002-2.895-.001-4.343-.001-.536.209-.968.63-1.288.782-.592 1.847-.249 2.109.692.087.314.115.653.118.981.013 1.317.005 2.634.006 3.951v.312h2.697zM11.993 0C18.6-.015 23.98 5.346 24 11.966 24.02 18.6 18.643 23.994 12.006 24 5.379 24.005.009 18.64 0 12.005-.009 5.378 5.349.015 11.992 0z" fill="currentColor"/></g></svg>