<svg viewBox="0 0 24 24" xmlns="http://www.w3.org/2000/svg" xmlns:xlink="http://www.w3.org/1999/xlink"><defs><path d="M17 21a1 1 0 0 1-2 0H9a1 1 0 0 1-2 0 2 2 0 0 1-2-2V6.999a2 2 0 0 1 2-2h1V2.8c0-.442.448-.8 1-.8h6c.552 0 1 .358 1 .8v2.199h1a2 2 0 0 1 2 2V19a2 2 0 0 1-2 2zM9 3v2h6V3H9zM7.5 8a.5.5 0 0 0 0 1h9a.5.5 0 1 0 0-1h-9zm0 6a.5.5 0 1 0 0 1h9a.5.5 0 1 0 0-1h-9zm0-3a.5.5 0 1 0 0 1h9a.5.5 0 1 0 0-1h-9zm0 6a.5.5 0 1 0 0 1h9a.5.5 0 1 0 0-1h-9z" id="LuggageCheckIn__a"/></defs><g fill="none" fill-rule="evenodd"><path d="M0 0h24v24H0z"/><use fill="currentColor" xlink:href="#LuggageCheckIn__a"/></g></svg>