<svg viewBox="0 0 24 24" xmlns="http://www.w3.org/2000/svg" xmlns:xlink="http://www.w3.org/1999/xlink"><defs><path d="M8 9a4 4 0 1 1 8 0h4.306a1 1 0 0 1 .945.673c.5 1.442.749 2.885.749 4.327 0 1.442-.25 2.885-.749 4.327a1 1 0 0 1-.945.673H3.694a1 1 0 0 1-.945-.673A13.155 13.155 0 0 1 2 14c0-1.442.25-2.885.749-4.327A1 1 0 0 1 3.694 9H8zm1 0h6a3 3 0 0 0-6 0zm-.5 1a.5.5 0 0 0-.5.5v7a.5.5 0 1 0 1 0v-7a.5.5 0 0 0-.5-.5zm7 0a.5.5 0 0 0-.5.5v7a.5.5 0 1 0 1 0v-7a.5.5 0 0 0-.5-.5z" id="LuggageCarryOn__a"/></defs><g fill="none" fill-rule="evenodd"><path d="M0 0h24v24H0z"/><use fill="currentColor" xlink:href="#LuggageCarryOn__a"/></g></svg>