<svg viewBox="0 0 24 24" xmlns="http://www.w3.org/2000/svg"><g fill="none" fill-rule="evenodd"><path d="M0 0h24v24H0z"/><path d="M6.1 9.4V6.2h3.2v3.2H6.1zm3.2 8.5v-3.2H6.1v3.2h3.2zm2.2-12.8v5.3c0 .6-.5 1.1-1.1 1.1H5.1c-.6 0-1.1-.5-1.1-1.1V5.1C4 4.5 4.5 4 5.1 4h5.3c.6.1 1.1.6 1.1 1.1zm-1.1 0H5.1v5.3h5.3V5.1zm5.3 8.6v2.1h-2.1v-2.1h2.1zm-4.2 0V19c0 .6-.5 1.1-1.1 1.1H5.1c-.6 0-1.1-.5-1.1-1.1v-5.3c0-.6.5-1.1 1.1-1.1h5.3c.6 0 1.1.5 1.1 1.1zm-1.1 0H5.1V19h5.3v-5.3zm7.5 0H20V19c0 .6-.5 1.1-1.1 1.1h-5.3V18h2.1v-2.2h2.1v-2.1h.1zM20 5.1v5.3c0 .6-.5 1.1-1.1 1.1h-5.3c-.6 0-1.1-.5-1.1-1.1V5.1c0-.6.5-1.1 1.1-1.1h5.3c.6.1 1.1.6 1.1 1.1zm-1.1 0h-5.3v5.3h5.3V5.1zm-1 4.3V6.2h-3.2v3.2h3.2z" fill="currentColor"/></g></svg>