<svg viewBox="0 0 24 24" xmlns="http://www.w3.org/2000/svg" xmlns:xlink="http://www.w3.org/1999/xlink"><defs><path d="M21.566 10.684c.394-.384.533-.947.363-1.47a1.426 1.426 0 0 0-1.158-.977l-4.843-.704a.633.633 0 0 1-.476-.346l-2.165-4.388A1.426 1.426 0 0 0 12 2c-.55 0-1.043.306-1.286.8L8.55 7.186a.633.633 0 0 1-.477.347l-4.843.703a1.426 1.426 0 0 0-1.158.977c-.17.523-.03 1.086.363 1.47l3.504 3.415a.63.63 0 0 1 .182.56l-.826 4.823c-.073.425.038.838.313 1.163a1.45 1.45 0 0 0 1.768.35l4.33-2.278a.648.648 0 0 1 .59 0l4.331 2.277c.21.111.435.167.667.167.424 0 .825-.188 1.1-.516.276-.325.387-.739.314-1.163l-.827-4.822a.634.634 0 0 1 .182-.56l3.504-3.416z" id="Rate__a"/></defs><g fill="none" fill-rule="evenodd"><path d="M0 0h24v24H0z"/><use fill="currentColor" xlink:href="#Rate__a"/></g></svg>