<svg viewBox="0 0 24 24" xmlns="http://www.w3.org/2000/svg" xmlns:xlink="http://www.w3.org/1999/xlink"><defs><path d="M8.275 11h7.82c.5 0 .906.448.906 1s-.405 1-.906 1H8.768l.34 1.377a.25.25 0 0 0 .242.19h9.107a1.5 1.5 0 1 1 0 3h-7.983l-.84 2.105a.25.25 0 0 0 .231.342h8.15a1 1 0 0 1 0 2H8.02a1 1 0 0 1-.928-1.37l1.228-3.077h-.34a1.5 1.5 0 0 1-1.457-1.14L4.543 8.4a1.5 1.5 0 0 1-.043-.359V3.507a1.5 1.5 0 0 1 3 0V7.83c0 .02.002.04.007.06L8.275 11z" id="Seat__a"/></defs><g fill="none" fill-rule="evenodd"><path d="M0 0h24v24H0z"/><use fill="currentColor" xlink:href="#Seat__a"/></g></svg>