<svg viewBox="0 0 22 22" xmlns="http://www.w3.org/2000/svg" xmlns:xlink="http://www.w3.org/1999/xlink"><defs><path d="M21.323 16.836c.045.347-.06.648-.316.904l-3.004 2.983a1.69 1.69 0 0 1-.53.384 2.192 2.192 0 0 1-.644.204 1.8 1.8 0 0 0-.136.011 3.073 3.073 0 0 1-.293.011c-.286 0-.75-.049-1.39-.147-.639-.098-1.422-.339-2.348-.723-.926-.384-1.976-.96-3.15-1.729-1.175-.768-2.424-1.823-3.75-3.163-1.053-1.04-1.926-2.034-2.619-2.983-.693-.95-1.25-1.827-1.671-2.633C1.05 9.149.734 8.418.523 7.763a11.84 11.84 0 0 1-.429-1.695C.02 5.593-.01 5.22.004 4.949s.022-.422.022-.452c.03-.21.098-.425.204-.644a1.69 1.69 0 0 1 .384-.531L3.617.316A.994.994 0 0 1 4.34 0c.196 0 .369.056.52.17.15.112.278.252.383.418C6.804 4.525 7.52 6.558 7.39 6.689L6.282 7.797a.377.377 0 0 0-.079.146.558.558 0 0 0-.034.17c.06.316.196.678.407 1.085.18.361.459.802.835 1.322.377.52.911 1.118 1.604 1.796.677.693 1.28 1.232 1.807 1.616.526.384.967.667 1.32.848.355.18.626.29.814.327l.282.057c.03 0 .08-.012.147-.034a.377.377 0 0 0 .147-.08l1.287-1.31c.18-.16 2.16.623 5.94 2.35.316.196.504.445.564.746z" id="Telephone__a"/></defs><use fill="currentColor" xlink:href="#Telephone__a" transform="translate(.333 .333)" fill-rule="evenodd"/></svg>