<svg viewBox="0 0 24 24" xmlns="http://www.w3.org/2000/svg" xmlns:xlink="http://www.w3.org/1999/xlink"><defs><path d="M21.602 4.3l.015.015c.403.403.41 1.054.016 1.465L9.053 18.91a1.047 1.047 0 0 1-1.512 0l-5.25-5.472a1.047 1.047 0 0 1 .016-1.465l.015-.015a1.02 1.02 0 0 1 1.46.019l4.136 4.36a.524.524 0 0 0 .76.001l11.46-12.021a1.022 1.022 0 0 1 1.464-.018z" id="Tick2__a"/></defs><g fill="none" fill-rule="evenodd"><path d="M0 0h24v24H0z"/><use fill="currentColor" xlink:href="#Tick2__a"/></g></svg>