<svg viewBox="0 0 24 24" xmlns="http://www.w3.org/2000/svg" xmlns:xlink="http://www.w3.org/1999/xlink"><defs><path d="M7 8.25A.25.25 0 0 1 7.25 8h9.5a.25.25 0 0 1 .25.25V20a2 2 0 0 1-2 2h-.75c-.138 0-.248-.113-.265-.25a2 2 0 0 0-3.97 0c-.017.137-.127.25-.265.25H9a2 2 0 0 1-2-2V8.25zM7.25 7A.25.25 0 0 1 7 6.75V4a2 2 0 0 1 2-2h.75c.138 0 .248.112.265.25a2 2 0 0 0 3.97 0c.017-.138.127-.25.265-.25H15a2 2 0 0 1 2 2v2.75a.25.25 0 0 1-.25.25h-9.5z" id="Tickets__a"/></defs><g fill="none" fill-rule="evenodd"><path d="M0 0h24v24H0z"/><use fill="currentColor" xlink:href="#Tickets__a"/></g></svg>