<svg viewBox="0 0 24 24" xmlns="http://www.w3.org/2000/svg"><g fill="none" fill-rule="evenodd"><path d="M0 0h24v24H0z"/><path d="M12 16.621c.87 0 1.686.33 2.3.93a.439.439 0 0 1 0 .628l-1.978 1.932a.461.461 0 0 1-.644 0l-1.98-1.932a.436.436 0 0 1 0-.628c.615-.6 1.433-.93 2.302-.93zm-4.94-2.486c2.723-2.659 7.156-2.659 9.88 0 .428.415.428 1.09.001 1.507a1.103 1.103 0 0 1-.773.312c-.279 0-.559-.104-.772-.312-1.873-1.828-4.92-1.827-6.792 0a1.112 1.112 0 0 1-1.545 0 1.048 1.048 0 0 1 0-1.507zm-2.34-3.282c4.014-3.917 10.545-3.917 14.56 0 .426.415.426 1.09 0 1.506a1.103 1.103 0 0 1-.773.313c-.28 0-.559-.104-.772-.312-3.163-3.086-8.308-3.086-11.47 0a1.112 1.112 0 0 1-1.545 0 1.048 1.048 0 0 1 0-1.507zM21.567 7.62a1.048 1.048 0 0 1 0 1.507 1.104 1.104 0 0 1-.772.312c-.28 0-.559-.104-.772-.312-4.425-4.316-11.623-4.316-16.046 0a1.112 1.112 0 0 1-1.545 0 1.048 1.048 0 0 1 0-1.507c5.275-5.147 13.86-5.148 19.135 0z" fill="currentColor"/></g></svg>