<svg viewBox="0 0 24 24" xmlns="http://www.w3.org/2000/svg"><g fill="none" fill-rule="evenodd"><path d="M0 0h24v24H0z"/><path d="M0 11.752C0 5.262 5.272 0 11.775 0c6.504 0 11.776 5.262 11.776 11.752 0 6.49-5.272 11.752-11.776 11.752C5.272 23.504 0 18.243 0 11.752zm11.545 3.903l.002-.038c.234 0 .47.009.703-.001 1.302-.055 2.605-.104 3.905-.178.586-.034 1.337-.473 1.43-1.347.082-.754.154-1.512.18-2.27a13.35 13.35 0 0 0-.18-2.817c-.132-.738-.547-1.173-1.285-1.308a6.508 6.508 0 0 0-.981-.108c-1.34-.04-2.681-.1-4.02-.086-1.23.012-2.46.087-3.686.172-.703.049-1.27.546-1.407 1.167-.07.312-.12.633-.142.952-.088 1.307-.094 2.615.037 3.921.068.677.282 1.267.957 1.555.264.112.559.19.844.208 1.214.075 2.429.121 3.643.178zm2.165-4.1l-2.942 1.803V9.751l2.942 1.804z" fill="currentColor"/></g></svg>