<svg xmlns="http://www.w3.org/2000/svg" viewBox="0 0 1303 361" version="1"><path d="M777 74c0 13-11 23-25 23-13 0-24-10-24-23 0-12 11-22 24-22 14 0 25 10 25 22" fill="#619ad8"/><path d="M644 77v191h46V66h-36c-5 0-10 5-10 11m85 53v138h47V120h-36c-6 0-11 4-11 10m157 125c-10 0-20-9-27-18v-79c7-7 19-18 30-18 15 0 30 22 30 54s-14 61-33 61zm15-139c-21 0-36 11-42 17v-13h-36c-6 0-11 4-11 10v198h47v-66c7 5 16 9 29 9 43 0 76-37 76-84s-34-71-63-71m148 136c-19 0-31-12-31-33s21-34 38-34c9 0 14 3 17 5v52c-5 5-13 10-24 10zm3-136c-40 0-54 9-54 9l5 10s15-5 40-5c28 0 30 15 30 33v8c-6-1-17-4-31-4-21 0-58 8-58 51 0 44 33 53 54 53 13 0 26-6 35-12v9h47V163c0-31-27-47-68-47m251 0h-31l-41 95-2-2-47-93h-48l73 142 2 3-8 17c-12 23-45 22-45 22v19h25c10-1 32-8 43-30l22-48 57-125M550 220h-83l42-88zM529 66h-19l-16 33-82 169h32l16-33h97l15 33h51L535 78l-6-12" fill="#302e2f"/><path d="M361 57v248c0 31-25 56-56 56H57c-32 0-57-25-57-56V57C0 25 25 0 57 0h248c31 0 56 25 56 57" fill="#619ad8"/><path d="M95 278c-49 0-56-27-57-43-1-15 9-41 63-41 21 0 53 10 89 25-21 27-53 59-95 59zm146-75c19-36 31-73 31-73h-71v-25h88V89h-88V49h-41v40H71v16h89v25H85v13h144s-8 25-22 49c-38-12-74-20-102-20-68 0-84 34-80 66 2 25 21 61 78 61 52 0 94-30 120-65 49 23 101 51 138 71v-59c-39-14-80-30-120-43" fill="#fff"/></svg>