<svg viewBox="0 0 220 81" xmlns="http://www.w3.org/2000/svg" xmlns:xlink="http://www.w3.org/1999/xlink"><title>American xpress safe key</title><defs><path id="amex_safe_keya" d="M214.256 26.803V52.94H0V.667h214.256z"/></defs><g fill="none" fill-rule="evenodd"><g transform="translate(3 23)"><mask id="amex_safe_keyb" fill="#fff"><use xlink:href="#amex_safe_keya"/></mask><path d="M110.026 24.564c-.382-4.429-2.568-6.781-6.617-6.781-3.28 0-6.287 1.86-6.944 6.781h13.561zm-20.397 2.845c0-11.048 7.82-15.094 13.836-15.094 6.508 0 12.742 3.882 12.742 15.694v1.586H96.356c.273 5.25 3.5 7.546 7.766 7.546 3.772 0 5.96-1.257 8.148-3.389l3.554 3.499c-3.009 3.336-6.999 5.25-12.195 5.25-7.273 0-14-4.429-14-15.092zm-16.516 14.49V18.222h-5.031v-5.361h5.031V9.91c0-4.867 2.024-8.64 9.407-8.64 1.258 0 3.5.218 3.991.273v5.194c-.437-.11-1.532-.218-2.297-.218-2.404 0-4.374.657-4.374 3.774v2.568h6.343v5.361H79.84v23.677h-6.727zM55.45 33.807v-6.398c-8.039 1.093-12.304 3.062-12.304 6.233 0 2.297 1.586 3.499 4.048 3.499 3.445 0 6.123-1.312 8.256-3.334zm-18.921 1.092c0-6.289 5.361-10.499 18.921-12.03v-.875c0-2.898-1.53-4.155-4.756-4.155-4.048 0-7.329 1.969-9.789 3.937l-3.281-4.212c3.117-2.842 7.984-5.249 13.999-5.249 7.765 0 10.444 3.719 10.444 10.499v11.977c0 3.5.219 5.633.821 7.108h-6.781c-.382-1.203-.657-2.077-.657-3.718-2.953 3.008-6.397 4.156-10.718 4.156-4.703 0-8.203-2.625-8.203-7.438zM0 32.385l5.414-2.843c2.405 4.756 6.124 7.053 11.154 7.053 4.922 0 8.258-1.586 8.258-5.25 0-3.5-2.514-5.14-9.187-7.109-7.82-2.296-14.108-4.428-14.108-12.14C1.531 5.207 7.164.667 15.367.667c7.982 0 12.685 3.938 15.147 8.694l-4.977 3.447c-2.405-4.048-5.851-5.907-10.225-5.907-4.485 0-7.055 1.642-7.055 4.593 0 3.775 2.898 5.031 9.514 7 7.657 2.243 13.781 4.758 13.781 12.359 0 6.618-5.632 11.812-15.256 11.812-8.039 0-13.727-4.157-16.296-10.28z" fill="#454748" mask="url(#amex_safe_keyb)"/><path d="M186.643 52.29l1.092-3.773c.82.218 2.244.491 4.266.491 2.951 0 4.375-1.257 5.521-4.1l1.093-2.845-11.154-29.038h4.977l8.478 23.351h.106l8.478-23.351h4.756l-12.358 32.156C199.93 50.266 197.687 53 192.054 53c-2.571 0-4.155-.327-5.411-.71zm-7.933-27.288c-.381-5.141-2.841-8.641-7.602-8.641-3.879 0-7.544 2.681-8.199 8.641h15.801zm-20.614 2.46c0-10.499 7-15.036 13.07-15.036 6.836 0 12.03 4.811 12.03 15.256v.984h-20.397c.164 6.508 3.937 10.008 8.694 10.008 4.155 0 6.509-1.697 8.695-4.703l2.734 2.405c-2.681 3.829-6.345 6.125-11.756 6.125-6.836 0-13.07-4.978-13.07-15.039zm-33.467 14.437V1.433h4.809v20.89l18.323-20.89h5.796l-13.893 15.421 15.805 25.045h-5.523l-13.451-21.381-7.057 7.709v13.672h-4.809z" fill="#848885" mask="url(#amex_safe_keyb)"/></g><path d="M158.571 8.301h-2.047V6.158h2.055c.815 0 1.402.301 1.402 1.032 0 .734-.605 1.111-1.41 1.111zm.848-4.076h-6.789v9.438h3.894v-3.35h2.546c1.182 0 2.186-.091 3.101-.475 1.064-.447 1.841-1.216 1.841-2.613 0-2.573-2.268-3-4.593-3zm-34.99 0h9.718v1.933h-5.421v1.766h5.421V9.75h-5.421v1.845h5.421v2.068h-9.718V4.225zM90.794 9.668l1.464-3.044 1.457 3.044h-2.921zm-1.041-5.443l-4.832 9.438h3.963l.888-1.858h4.967l.892 1.858h4.197l-4.831-9.438h-5.244zm21.926 0h3.891v9.438h-4.478l-5.741-5.326v5.326h-3.894V4.225h4.431l5.791 5.347V4.225zm60.436 4.247h-2.31V6.236h2.317c.822 0 1.41.396 1.41 1.129 0 .734-.605 1.107-1.417 1.107zm5.44-1.247c0-2.573-2.264-3-4.585-3h-7.057v9.438h3.892v-3.507h.313l2.954 3.507h5.469l-3.977-3.717c1.909-.324 2.991-1.324 2.991-2.721zm39.053 3.626c0 .961-.783 3.113-5.586 3.113-3.952 0-5.39-.799-6.238-1.273l1.264-1.687c1.652.647 2.944.676 3.885.665 1-.014 1.933-.199 1.944-.815.014-.644-.623-.797-2.13-.912-1.395-.106-4.457-.495-4.478-2.717-.025-2.163 2.275-3.216 5.575-3.216 1.795 0 4.002.274 5.561 1.113l-1.342 1.659a8.71 8.71 0 0 0-3.09-.521c-1.019 0-2.066.182-2.066.885 0 .706 1.083.729 1.852.818.986.117 2.258.136 3.279.591 1.221.545 1.57 1.296 1.57 2.297zm-13.091 0c0 .961-.79 3.113-5.593 3.113-3.948 0-5.202-.799-6.046-1.273l1.075-1.687c1.652.647 2.948.676 3.885.665 1.004-.014 1.936-.199 1.94-.815.011-.644-.623-.797-2.129-.912-1.392-.106-4.269-.495-4.29-2.717-.025-2.163 2.082-3.216 5.394-3.216 1.791 0 4.002.274 5.554 1.113l-1.335 1.659a8.764 8.764 0 0 0-3.098-.521c-1.018 0-2.058.182-2.058.885 0 .706 1.076.729 1.848.818.986.117 2.254.136 3.283.591 1.221.545 1.57 1.296 1.57 2.297zm-23.178-6.626h9.72v1.933h-5.422v1.766h5.422V9.75h-5.422v1.845h5.422v2.068h-9.72V4.225zm-34.097 4.569l4.368 4.869h-4.638l-2.549-3.026-2.546 3.026h-4.643l4.379-4.869-3.937-4.569h4.714l2.033 2.517 2.04-2.517h4.714l-3.935 4.569zM35.056 4.225l2.282 9.438h-3.905l-1.289-5.348-2.497 5.348h-2.465l-2.497-5.348-1.289 5.348h-3.664l2.283-9.438h4.181l2.223 4.666 2.213-4.666h4.424zM10.315 9.668l1.459-3.044 1.46 3.044h-2.919zM9.271 4.225l-4.829 9.438h3.959l.891-1.858h4.966l.89 1.858h4.202l-4.833-9.438H9.271zm30.135 0h9.718v1.933h-5.417v1.766h5.417V9.75h-5.417v1.845h5.417v2.068h-9.718V4.225zm26.865 9.438h4.123V4.225h-4.123v9.438zM80.065 4c1.732 0 3.021.253 3.728.521v2.313a12.077 12.077 0 0 0-3.05-.402c-.647 0-3.699.099-3.699 2.589 0 2.488 3.052 2.513 3.699 2.513 1.196 0 2.328-.219 3.05-.406v2.321c-.707.264-1.996.515-3.728.515-2.039 0-7.333-.55-7.333-4.943C72.732 4.627 78.026 4 80.065 4zM58.18 8.472h-2.309V6.236h2.319c.818 0 1.407.396 1.407 1.129 0 .734-.609 1.107-1.417 1.107zm5.44-1.247c0-2.573-2.266-3-4.588-3h-7.056v9.438h3.895v-3.507h.31l2.957 3.507h5.47l-3.979-3.717c1.909-.324 2.991-1.324 2.991-2.721z" fill="#1C2548"/></g></svg>