<svg xmlns="http://www.w3.org/2000/svg" viewBox="0 0 165.52 105.97"><path d="M150.7 0H13.12c-.47 0-.95.01-1.42.03C10.66.04 9.6.1 8.58.3A9.93 9.93 0 0 0 .3 8.59a20.64 20.64 0 0 0-.28 3.1L0 13.14v79.7l.02 1.43c.03 1.04.1 2.08.28 3.11a9.9 9.9 0 0 0 5.32 7.31c.95.48 1.92.79 2.96.98 1.03.18 2.08.24 3.12.27a79.18 79.18 0 0 0 3.12.03H152.4l1.43-.03a21 21 0 0 0 3.1-.27 9.88 9.88 0 0 0 7.3-5.33c.5-.95.8-1.92 1-2.96.18-1.03.24-2.07.27-3.11l.02-1.43V13.12l-.02-1.42a20.64 20.64 0 0 0-.28-3.12A9.97 9.97 0 0 0 156.94.3a20.84 20.84 0 0 0-3.11-.26L152.39 0h-1.7z"/><path fill="#FFF" d="M150.7 3.53h1.67l1.36.03c.8.02 1.72.06 2.58.21a6.4 6.4 0 0 1 5.43 5.44c.16.86.2 1.79.22 2.58.02.45.02.9.02 1.36v79.67c0 .45 0 .9-.02 1.35-.02.8-.06 1.73-.22 2.6a6.4 6.4 0 0 1-5.42 5.43c-.88.15-1.85.2-2.57.21l-1.38.02H13.14a75 75 0 0 1-1.35-.02 18 18 0 0 1-2.58-.22 6.94 6.94 0 0 1-1.99-.65 6.34 6.34 0 0 1-2.8-2.8c-.3-.6-.51-1.23-.65-1.99-.15-.86-.2-1.78-.22-2.57l-.02-1.36V13.15l.02-1.36c.03-.79.07-1.71.23-2.58a6.37 6.37 0 0 1 3.45-4.78c.6-.31 1.23-.52 1.98-.65.86-.16 1.79-.2 2.58-.22.45-.02.9-.02 1.36-.02H150.7"/><path d="M43.5 35.77a9.15 9.15 0 0 0 2.11-6.52 9.07 9.07 0 0 0-6 3.11c-1.31 1.5-2.47 3.96-2.16 6.27 2.3.2 4.6-1.15 6.06-2.86m2.08 3.31c-3.35-.2-6.2 1.9-7.8 1.9-1.6 0-4.05-1.8-6.7-1.75-3.44.05-6.64 2-8.4 5.1-3.59 6.2-.94 15.4 2.56 20.45 1.7 2.5 3.75 5.25 6.44 5.15 2.55-.1 3.55-1.65 6.65-1.65 3.1 0 4 1.65 6.7 1.6 2.8-.05 4.54-2.5 6.24-5 1.95-2.85 2.75-5.6 2.8-5.75-.05-.05-5.4-2.1-5.44-8.25-.06-5.15 4.2-7.6 4.4-7.75-2.4-3.55-6.15-3.95-7.45-4.05m33.38-6.97c7.28 0 12.35 5.02 12.35 12.32 0 7.33-5.17 12.37-12.53 12.37h-8.06v12.82h-5.82V32.1h14.06zm-8.24 19.8h6.68c5.07 0 7.96-2.72 7.96-7.45s-2.89-7.44-7.93-7.44h-6.7v14.9zm22.03 9.94c0-4.81 3.67-7.57 10.43-7.98l7.25-.45v-2.07c0-3.05-2-4.7-5.56-4.7-2.94 0-5.07 1.5-5.51 3.81h-5.25c.15-4.86 4.73-8.4 10.91-8.4 6.66 0 11 3.49 11 8.9v18.66h-5.38v-4.5h-.13c-1.54 2.94-4.92 4.78-8.58 4.78-5.4 0-9.18-3.22-9.18-8.05zm17.68-2.42v-2.1l-6.47.41c-3.64.23-5.54 1.59-5.54 3.95 0 2.29 1.98 3.77 5.07 3.77 3.95 0 6.94-2.52 6.94-6.03zm10.53 20.22v-4.5c.37.06 1.25.1 1.72.1 2.57 0 4.03-1.08 4.91-3.89l.52-1.66-9.85-27.3h6.08l6.87 22.15h.13l6.86-22.15h5.92l-10.21 28.67c-2.34 6.58-5.02 8.74-10.68 8.74-.45 0-1.88-.05-2.27-.16z"/></svg>