<svg xmlns="http://www.w3.org/2000/svg" viewBox="0 0 18 18" xmlns:xlink="http://www.w3.org/1999/xlink"><defs><path id="at-signa" d="M0 0v16h15.98V0H0z"/></defs><g fill="none" fill-rule="evenodd"><path d="M0 0h24v24H0"/><g transform="translate(1 1)"><mask id="at-signb" fill="#fff"><use xlink:href="#at-signa"/></mask><path fill="currentColor" d="M5.96 8.36c0 1.37.56 2.06 1.68 2.06.6 0 1.04-.2 1.34-.62.3-.4.5-1.1.56-2.02l.13-2.16c-.33-.07-.7-.1-1.13-.1-.8 0-1.45.24-1.9.75-.45.5-.68 1.2-.68 2.1m10.02-1.24c0 .94-.15 1.8-.45 2.58-.3.8-.72 1.4-1.27 1.87-.55.44-1.2.66-1.9.66-.5 0-.92-.1-1.3-.33-.36-.25-.63-.55-.8-.93h-.15c-.7.84-1.6 1.26-2.66 1.26-1.16 0-2.07-.33-2.73-1.03-.67-.7-1-1.65-1-2.85 0-1.38.44-2.5 1.3-3.33.88-.85 2.03-1.27 3.44-1.27.56 0 1.17.05 1.85.16.67.1 1.22.25 1.66.4l-.23 4.78c0 .9.25 1.36.75 1.36.4 0 .75-.3 1-.9.24-.62.37-1.42.37-2.4 0-1.06-.22-1.98-.66-2.8-.45-.8-1.06-1.4-1.85-1.83-.8-.43-1.7-.64-2.72-.64-1.32 0-2.46.27-3.43.8C4.2 3.2 3.45 4 2.93 5.02c-.52 1.03-.78 2.2-.78 3.54 0 1.8.48 3.2 1.45 4.15.97.97 2.36 1.45 4.2 1.45.7 0 1.44-.08 2.27-.23.83-.14 1.64-.37 2.45-.66v1.88c-1.4.6-2.95.9-4.65.9-2.48 0-4.4-.65-5.8-1.96C.67 12.74 0 10.92 0 8.6 0 7 .35 5.53 1.06 4.2c.7-1.3 1.72-2.33 3.03-3.08C5.4.37 6.9 0 8.6 0c1.44 0 2.72.3 3.85.88 1.13.6 2 1.42 2.6 2.5.62 1.1.93 2.34.93 3.75" mask="url(#at-signb)"/></g></g></svg>