<svg xmlns="http://www.w3.org/2000/svg" viewBox="0 0 118.6 20.1"><defs><clipPath id="booking_comf"><path d="M589.5 29H684V13h-94.5v16z"/></clipPath><clipPath id="booking_comg"><path d="M589.5 13H684v16h-94.5V13z"/></clipPath><clipPath id="booking_comc"><path d="M589.5 29H684V13h-94.5v16z"/></clipPath><clipPath id="booking_comd"><path d="M589.5 28.7H684V13h-94.5v15.7z"/></clipPath><clipPath id="booking_come"><path d="M589.5 13H684v16h-94.5V13z"/></clipPath><clipPath id="booking_coma"><path d="M589.5 29H684V13h-94.5v16z"/></clipPath><clipPath id="booking_comb"><path d="M589.5 13H684v16h-94.5V13z"/></clipPath></defs><g clip-path="url(#booking_coma)" transform="matrix(1.25 0 0 -1.25 -736.6 36)"><g clip-path="url(#booking_comb)"><path d="M626.6 27.2a1.4 1.4 0 1 0 2.8 0 1.4 1.4 0 0 0-2.8 0" fill="#273b7d"/><path d="M649.2 17.6a1.4 1.4 0 1 0 2.9 0 1.4 1.4 0 0 0-2.9 0" fill="#499fdd"/><path d="M603 18.3c-1.2 0-2.1 1-2.1 2.3 0 1.5.9 2.4 2 2.4 1.3 0 2.2-1 2.2-2.4s-.8-2.3-2.1-2.3zm0 6.8a4.4 4.4 0 0 1-4.5-4.5c0-2.5 1.9-4.4 4.5-4.4s4.5 1.9 4.5 4.4c0 2.6-1.9 4.5-4.5 4.5m20.8-4.7l-.4.5v.2l.4.4 2.3 3.5h-2.8l-1.7-2.7c-.1-.2-.3-.2-.6-.2h-.4v5c0 1-.6 1.2-1.3 1.2H618v-12h2.5v3.6h.2c.3 0 .5 0 .6-.2l1.3-2.6c.4-.7.8-.8 1.5-.8h2l-1.5 2.3-1 1.8m12.2 4.7c-1.2 0-2-.5-2.5-1l-.1-.1v.2c-.2.5-.7.8-1.3.8h-1.2v-8.7h2.5v4c0 .4 0 .7.2 1a2 2 0 0 0 2 1.5c.7 0 1-.4 1-1.4v-3.8c0-.9.5-1.3 1.4-1.3h1.1v5.5c0 2.2-1 3.3-3 3.3M628 25h-1v-8.7h2.4v7.3c0 1-.4 1.4-1.3 1.4m-15.4-6.7c-1.3 0-2.1 1-2.1 2.3 0 1.5.8 2.4 2 2.4 1.3 0 2.2-1 2.2-2.4s-.9-2.3-2.1-2.3zm0 6.8a4.4 4.4 0 0 1-4.5-4.5c0-2.5 1.9-4.4 4.5-4.4s4.5 1.9 4.5 4.4c0 2.6-1.9 4.5-4.5 4.5" fill="#273b7d"/></g></g><g clip-path="url(#booking_comc)" transform="matrix(1.25 0 0 -1.25 -736.6 36)"><g clip-path="url(#booking_comd)"><g clip-path="url(#booking_come)"><path d="M665.6 18.3c-1.3 0-2.1 1-2.1 2.3 0 1.5.8 2.4 2 2.4 1.3 0 2.2-1 2.2-2.4s-.9-2.3-2.1-2.3zm0 6.8a4.4 4.4 0 0 1-4.6-4.5c0-2.5 2-4.4 4.6-4.4 2.6 0 4.5 1.9 4.5 4.4 0 2.6-2 4.5-4.5 4.5" fill="#499fdd"/><path d="M644.1 18.6c-1.3 0-1.8 1.2-1.8 2.3 0 .5.1 2 1.7 2 .8 0 1.8-.1 1.8-2s-.9-2.3-1.7-2.3zm3 6.4c-.5 0-.8-.2-1-.6h-.2c-.4.4-1.1.8-2.3.8-2.3 0-3.8-1.8-3.8-4.3 0-2.6 1.6-4.4 3.9-4.4a3 3 0 0 1 1.9.5l.2.2v-.3c0-1.1-.8-1.8-2.1-1.8a5 5 0 0 0-1.7.4c-.5.1-.8 0-1-.5l-.2-.5-.3-.7.2-.1c.8-.5 2-.8 3-.8 2 0 4.5 1.1 4.5 4.1v8h-1.1" fill="#273b7d"/></g></g></g><g clip-path="url(#booking_comf)" transform="matrix(1.25 0 0 -1.25 -736.6 36)"><g clip-path="url(#booking_comg)"><path d="M593.8 18.4h-2v2.4c0 .5.2.7.6.8h1.4c1 0 1.6-.6 1.6-1.6s-.6-1.6-1.6-1.6zm-2 6.4v.7c0 .5.2.8.7.8h1c1 0 1.5-.5 1.5-1.4 0-.7-.4-1.4-1.4-1.4h-1.8v1.3zm4.6-2.4l-.4.2.3.3c.4.3 1 1 1 2.3 0 1.9-1.5 3-3.7 3h-2.9c-.7 0-1.2-.5-1.2-1.2V16.3h4.2c2.5 0 4 1.4 4 3.5a3 3 0 0 1-1.3 2.6" fill="#273b7d"/><path d="M681.1 25.1c-1 0-2-.5-2.6-1.3l-.2-.2-.2.3c-.4.8-1.2 1.2-2.3 1.2-1.1 0-2-.6-2.3-1l-.2-.3v.4c-.2.5-.6.7-1.3.7h-1v-8.6h2.3v3.8l.1 1c.3 1 .9 2 2 1.8.6 0 .9-.5.9-1.5v-5.1h2.3v3.8c0 .4 0 .7.2 1 .2 1 .8 1.8 1.8 1.8.7 0 1-.4 1-1.5v-3.8c0-1 .4-1.3 1.3-1.3h1v5.5c0 2.2-.9 3.3-2.8 3.3m-21.4-5.8s-1-1-2.4-1c-1.2 0-2.4.7-2.4 2.3 0 1.5 1 2.5 2.3 2.5.4 0 1-.2 1-.5.2-.6.8-.6.9-.6h1.3v1c0 1.6-2 2.1-3.2 2.1-2.7 0-4.7-1.9-4.7-4.5s2-4.5 4.6-4.5c2.4 0 3.7 1.5 3.7 1.6l-1 1.7-.1-.1" fill="#499fdd"/></g></g></svg>