<svg viewBox="0 0 100 91" xmlns="http://www.w3.org/2000/svg"><title>Missing Bus</title><g stroke="currentColor" stroke-width="2" fill="none" fill-rule="evenodd" stroke-linecap="round" stroke-dasharray="5,6"><path d="M72.93 72.967c-2.722 0-4.93-2.232-4.93-4.985C68 65.232 70.208 63 72.93 63c2.723 0 4.93 2.231 4.93 4.982 0 2.753-2.207 4.985-4.93 4.985M24.114 55.509c-.619-.103-1.12-.699-1.114-1.324l.365-37.873c.005-.625.516-1.224 1.134-1.328 0 0 12.132-2.06 25.53-1.982 14.36.082 25.381 1.98 25.381 1.98.618.105 1.13.705 1.135 1.33l.403 37.873c.006.625-.491 1.235-1.107 1.356 0 0-7.626 1.483-25.821 1.483-16.746 0-25.906-1.515-25.906-1.515m4.816 17.458c-2.722 0-4.93-2.232-4.93-4.985C24 65.232 26.208 63 28.93 63c2.723 0 4.93 2.231 4.93 4.982 0 2.753-2.207 4.985-4.93 4.985"/><path d="M86.724 15.89l-3.735-.007c-.588-2.934-2.531-5.805-7.49-7.18C70.509 7.318 63.035 6 50.576 6 38.326 6 30.7 6.819 24.89 8.632c-4.368 1.363-6.358 4.435-6.952 7.32l-3.619-.007a2.283 2.283 0 0 0-2.283 2.27L12 37.148a2.285 2.285 0 0 0 2.276 2.28l2.534.005c-.008 16.753.942 34.07.942 34.07.035.623.263 1.606.509 2.182l.895 2.102c.245.575.445 1.56.445 2.185v4.89c0 .627.513 1.139 1.14 1.139h9.43c.626 0 1.139-.512 1.139-1.138V79.97c0-.625.513-1.117 1.139-1.092 0 0 12.334.502 17.879.502 5.875 0 18.84-.503 18.84-.503a1.09 1.09 0 0 1 1.14 1.093v4.89c0 .627.513 1.139 1.14 1.139h9.429c.626 0 1.14-.512 1.14-1.138V79.97c0-.625.108-1.639.239-2.25l.532-2.473c.132-.611.27-1.624.307-2.249 0 0 1.023-17.353 1.092-33.632l2.495.004a2.285 2.285 0 0 0 2.284-2.27L89 18.168a2.285 2.285 0 0 0-2.276-2.28"/></g></svg>