<svg xmlns="http://www.w3.org/2000/svg" viewBox="0 0 54 54"><path fill="currentColor" fill-rule="evenodd" d="M27.5 6c-6.8 0-11.4.5-14.6 1.4-1.4.4-2.5 2.3-2.8 3.9H8.2c-.6 0-1.2.5-1.2 1.2v10.1c0 .7.6 1.2 1.2 1.2h1.3c0 8.9.5 18.2.5 18.2 0 .3.1.8.3 1.2l.5 1.1c.1.3.2.8.2 1.2v2.6c0 .3.3.6.6.6h5c.3 0 .6-.3.6-.6v-2.6c0-.3.3-.6.6-.6 0 0 6.6.3 9.5.3 3.1 0 10.1-.2 10.1-.2.3 0 .6.2.6.6v2.6c0 .3.3.6.6.6h5c.3 0 .6-.3.6-.6v-2.6c0-.3.1-.9.1-1.2l.4-1.4c.1-.3.1-.9.2-1.2 0 0 .6-9.3.6-18h1.3c.6 0 1.2-.6 1.2-1.2V12.5c0-.7-.6-1.2-1.2-1.2h-2c-.3-1.6-1.4-3.2-4-3.8C37.9 6.6 34.6 6 27.5 6zm0 3.7c7.7 0 13.5 1.1 13.5 1.1.3.1.6.4.6.7l.2 20.2c0 .3-.2.7-.5.7 0 0-4.1.8-13.8.8-8.9 0-13.8-.8-13.8-.8-.3-.1-.6-.4-.6-.7l.2-20.2c0-.3.3-.6.6-.7 0 0 6.5-1.1 13.6-1.1zM15.8 36.5c1.5 0 2.6 1.2 2.6 2.7 0 1.5-1.2 2.7-2.6 2.7-1.5 0-2.6-1.2-2.6-2.7 0-1.5 1.2-2.7 2.6-2.7zm23.4 0c1.5 0 2.6 1.2 2.6 2.7 0 1.5-1.2 2.7-2.6 2.7-1.5 0-2.6-1.2-2.6-2.7 0-1.5 1.2-2.7 2.6-2.7z"/></svg>