<svg viewBox="0 0 160 160" xmlns="http://www.w3.org/2000/svg" xmlns:xlink="http://www.w3.org/1999/xlink"><title>03 Empty States / No buses</title><defs><path d="M28.688 43.378C18.79 31.757 14.742 15.564 1.733 6.621L.347 3.847C1.923 2.637 3.665 1.134 5.885.72c2.784-.52 6.315.292 9.023.692 4.09.605 7.946.824 12.133 1.032C35.316 2.853 43.793 2.77 52 3.5c5.585.496 11.235-.03 16.987-.347 6.777-.373 37.786-2.603 46.494 7.604-15.232 7.398-30.975 17.105-36.19 20.387-2.48 1.56-4.775.893-6.997.225-2.328-.7-4.575-1.4-6.869.464-3.684 2.99-3.758 9.378-6.23 13.258-3.145 4.935-7.81 6.96-12.711 6.959-6.522 0-13.464-3.586-17.796-8.673" id="buses_emptya"/><linearGradient x1="0%" y1="50%" y2="50%" id="buses_emptyc"><stop stop-color="#FBD9D9" offset="0%"/><stop stop-color="#FBD9D9" offset="5.102%"/><stop stop-color="#FBD9D9" offset="69.388%"/><stop stop-color="#FBD9D9" offset="100%"/></linearGradient><path d="M.44 6.616C.266 3.239 2.882.336 6.282.132c3.4-.203 6.298 2.368 6.471 5.745.173 3.377-2.442 6.28-5.843 6.484a6.3 6.3 0 0 1-.377.01C3.297 12.372.606 9.868.44 6.617" id="buses_emptyd"/><radialGradient cx="49.999%" cy="50.002%" fx="49.999%" fy="50.002%" r="50.288%" gradientTransform="scale(.99358 1) rotate(-.254 .502 -.227)" id="buses_emptyf"><stop stop-color="#F6B2B3" offset="0%"/><stop stop-color="#F6B2B3" offset="10.204%"/><stop stop-color="#F6B2B3" offset="13.775%"/><stop stop-color="#F6B2B3" offset="53.981%"/><stop stop-color="#F6B2B3" offset="100%"/></radialGradient><path d="M12.492 43.491c27.68-4.726 13.184-13.752 13.184-13.752L.466 14.965 68.823.494l.473 43.914-56.804-.917z" id="buses_emptyg"/><linearGradient x1="0%" y1="50%" y2="50%" id="buses_emptyi"><stop stop-color="#BFD2E8" offset="0%"/><stop stop-color="#BFD2E8" offset="31.472%"/><stop stop-color="#BFD2E8" offset="72.771%"/><stop stop-color="#BFD2E8" offset="100%"/></linearGradient><path d="M1.715 37.493a248.75 248.75 0 0 1-1.59-.095c13.645-1.864 33.271-3.974 24.594-13.412-5.825-6.337 17.452-17.914 25.363-22.077-1.032 5.886 29.905 26.935 37.735 27.093L84.5 33.094c-9.575 4.28-30.861 5.343-49.654 5.344-15.122 0-28.626-.689-33.132-.945M51.475.613c2.106-.612 1.149-.041-1.393 1.296.106-.605.55-1.05 1.393-1.295" id="buses_emptyj"/><linearGradient x1="16.622%" y1="30.953%" x2="87.476%" y2="125.184%" id="buses_emptyl"><stop stop-color="#F6B2B3" offset="0%"/><stop stop-color="#F48F90" offset="92.894%"/><stop stop-color="#F48F90" offset="100%"/></linearGradient><path d="M18.897 23.937c-4.304-.267-7.926-9.687-11.763-12.584C4.914 9.675 2.902 6.88.924 4.455c-.703-.863-.3-2.634.592-2.587 9.717.512 37.45.436 55.513-1.551.847-.094 1.312 1.518.71 2.463l-.205.323c-.28.44-.702.527-1.062.27-2.005-1.434-3.899.889-5.893 3.212-2.19 2.554-4.5 5.107-7.208 2.674-.373-.333-.835-.238-1.136.241-1.053 1.674-1.918.329-2.965-1.016-.84-1.08-1.797-2.159-3.061-1.678-2.463.933-3.877 3.93-5.92 5.961-2.678 2.662-8.06 11.173-11.282 11.174-.037 0-.073-.002-.11-.004" id="buses_emptym"/><linearGradient x1="0%" y1="50.001%" y2="50.001%" id="buses_emptyo"><stop stop-color="#BFD2E8" offset="0%"/><stop stop-color="#BFD2E8" offset="1.02%"/><stop stop-color="#BFD2E8" offset="71.066%"/><stop stop-color="#BFD2E8" offset="100%"/></linearGradient><path d="M77.95 63.178c-7.129-.007-13.894-17.173-21.004-16.822-.965.047-1.976.011-3-.025-1.175-.04-2.367-.082-3.52.004a9.61 9.61 0 0 1-.258.392 2.69 2.69 0 0 1-.698-.288 9.592 9.592 0 0 0-1.5.34l1.185-.563c-2.71-2.27.06-10.098-.34-13.75-.455-4.149-5.961-3.839-11.363-3.528-2.02.116-4.025.232-5.745.115-5.059-.343-10.866-7.82-30.97-9.287C-2.947 15.16 42.82 8.876 40.312.093c4.534 2.385 9.375 4.673 14.266 6.083 4.981 1.434 9.777.89 14.195.343 9.245-1.14 16.841-2.28 21.044 14.714 1.463 5.915 8.718 5.601 14.652 5.286 2.82-.149 5.342-.298 6.802.222 1.682.6 4.216 1.035 5.604 2.264 1.773 1.57.598 1.726 1.368 3.214 1.583 3.057 4.067 2.984 6.792 5.124 3.735 2.933.33 6.474-3.141 5.72-4.032-.876-13.911 6.984-20.972 8.601-10.745-9.705-13.772-3.209-16.445 3.288-1.693 4.113-3.244 8.227-6.522 8.226h-.004" id="buses_emptyp"/><linearGradient x1="29.136%" y1="89.106%" x2="71.519%" y2="4.365%" id="buses_emptyr"><stop stop-color="#BFD2E8" offset="0%"/><stop stop-color="#BFD2E8" offset="28.934%"/><stop stop-color="#BFD2E8" offset="59.292%"/><stop stop-color="#BFD2E8" offset="100%"/></linearGradient><path d="M2.538 62.671c.37.246.648.443.67.509.001.003 0 .006-.003.006-.032 0-.31-.222-.667-.515M.716 61.47c-.08-.06-.045-.212.05-.217 37.72-1.82 63.376-5.926 55.928-9.598-7.443-4.442-47.08-9.48-51.632-20.203-1.23-2.896 7.229-15.236 49.98-30.807 16.217 9.1 24.687 7.114 33.115 5.128 8.769-2.065 17.492-4.131 34.849 6.29-16.708 2.437-65.894 15.99-78.136 22.26 0 0-7.935 1.815 10.357 8.323 7.728 2.75 28.38 12.92 6.241 16.708-8.646 1.48-32.664 2.183-60.154 1.905-.149-.002-.212.232-.087.333.37.3.894.738 1.31 1.08-.593-.394-1.424-.911-1.82-1.202" id="buses_emptys"/><linearGradient x1="31.804%" y1="124.688%" x2="62.034%" y2="-14.618%" id="buses_emptyu"><stop stop-color="#9CBADC" offset="0%"/><stop stop-color="#5E8EC8" offset="26.087%"/><stop stop-color="#5E8EC8" offset="39.086%"/><stop stop-color="#5E8EC8" offset="43.658%"/><stop stop-color="#9CBADC" offset="69.543%"/><stop stop-color="#9CBADC" offset="81.971%"/><stop stop-color="#FFFFF9" offset="99.492%"/><stop stop-color="#FFFFF9" offset="100%"/></linearGradient><path id="buses_emptyv" d="M0 208h208V0H0z"/><path id="buses_emptyx" d="M.466 23.218H64.36V.393H.466z"/><path d="M64.361 1.024L.466 23.218C1.327 22.995 30.093 9.72 62.756.392c.562.2 1.097.41 1.605.632" id="buses_emptyz"/><linearGradient x1="-1.575%" y1="73.021%" x2="101.352%" y2="25.934%" id="buses_emptyB"><stop stop-color="#F6F8F9" offset="0%"/><stop stop-color="#F6F8F9" offset="34.572%"/><stop stop-color="#F6F8F9" offset="74.564%"/><stop stop-color="#F9D8D8" offset="100%"/></linearGradient><path d="M5.23 46.188c-.146-.607-.055-1.134-.274-1.712a57.788 57.788 0 0 1-.946-2.867c-.8-2.81.315-5.27.22-8.02-.125-3.675-2.411-2.802-3.364-5.608-.604-1.776-.912-6.592-.252-8.37.282-.759.835-1.14.984-1.958.18-.985-.157-2.15-.01-3.167.324-2.25 1.217-3.144 2.171-5.03.895-1.769 1.236-3.711.848-5.83-.114-.618-.17-2.342-.1-2.907C4.8.394 5.325.46 5.816.528c.34.045.665.092.88.007.097 2.283-.25 4.205.192 6.394.955-.067 1.786.126 2.498 1.035.855 1.09.405 2.434 1.002 3.556.722 1.358 1.556.303 2.512-.052 1.032-.382 1.87-.187 2.9.02.577-1.476.009-7.17.075-8.894.647-.047 1.592.095 2.238.147-.63 2.893.256 8.335.335 10.32.958.082 1.884.385 2.274 1.776.19.676-.027 1.458.218 2.071.196.488.831.601 1.102 1.13 1.03 2.013.636 5.39-.631 6.921-.847 1.023-1.453 1.002-1.754 2.633-.253 1.378.2 2.709.28 4.068.08 1.349.118 2.992-.502 4.03-.758 1.27-1.233.983-1.383 2.98-.102 1.373.003 7.358-1.888 6.136-1.203-.779-.777-5.456-1.155-7.149-.588-2.634-.75-4.838-.852-7.748-.04-1.154-.086-2.796-.37-3.864-.364-1.366-1.09-1.119-1.487-2.255-.167 3.015-.2 3.893-1.912 5.768-1.759 1.928-.596 3.43-.873 6.142-.267 2.603-1.915 2.61-1.92 5.422-.002.977 1.181 7.119-.223 7.52a1.408 1.408 0 0 1-.385.057c-.998 0-1.458-1.265-1.758-2.51" id="buses_emptyC"/><linearGradient x1="50.001%" y1="99.999%" x2="50.001%" y2="0%" id="buses_emptyE"><stop stop-color="#435887" offset="0%"/><stop stop-color="#435887" offset="8.629%"/><stop stop-color="#4D6CA1" offset="77.361%"/><stop stop-color="#4D6CA1" offset="86.559%"/><stop stop-color="#4D6CA1" offset="87.214%"/><stop stop-color="#5E8EC8" offset="99.462%"/><stop stop-color="#5E8EC8" offset="100%"/></linearGradient><path d="M5.658 78.408c-.232-1.695-.007-3.483-.863-5.019-.74-1.327-1.845-2.07-2.225-3.652-.713-2.97-.075-6.591-.362-9.635-.305-3.227-.583-6.355-.545-9.635.036-3.257 2.033-5.835 1.634-9.249-.229-1.961-1.504-1.596-2.32-3.126-.593-1.111-.408-3.28-.404-4.582.002-.704-.156-1.633-.004-2.313.174-.776.893-1.278 1.053-1.974.267-1.167-.506-2.911-.504-4.384.006-3.773.393-5.229 3.274-7.275C7.67 15.234 7.134 4.308 7.32.426c2.024-.44 3.106-.331 2.697 1.705-.055.274-.428 6.947.363 11.146.245 1.301.027 3.27.767 4.39.812 1.226 2.056 1.324 2.73 2.889.583 1.359.357 2.725 1.221 3.945.915 1.294 1.88 1.587 2.325 3.27.82 3.103-.403 6.418.04 9.593.222 1.587 1.23 2.495 1.644 4.047.367 1.379.011 2.998-.187 4.432-.21 1.524-.547 3.088-1.271 4.422-.783 1.443-2.409 2.238-3.142 3.617-1.295 2.439.102 6.719-.308 9.496-.232 1.563-1.396 2.697-1.684 4.197-.285 1.48.292 2.983.226 4.475-.117 2.62-1.779 3.874-1.644 6.744.06 1.294.44 2.745.059 4.057-.398 1.363-1.07 1.815-.981 3.429-.232.05-.293.14-.521.222-.404.145-.76.213-1.075.213-2.593 0-2.411-4.574-2.92-8.307" id="buses_emptyF"/><linearGradient x1="50%" y1="100%" x2="50%" y2="0%" id="buses_emptyH"><stop stop-color="#425685" offset="0%"/><stop stop-color="#425685" offset="41.793%"/><stop stop-color="#425685" offset="88.305%"/><stop stop-color="#425685" offset="100%"/></linearGradient><path d="M5.658 44.435c-.232-1.695-.007-3.483-.863-5.019-.74-1.327-1.845-2.07-2.225-3.652-.713-2.97-.075-6.591-.362-9.635-.305-3.228-.583-6.356-.545-9.635.036-3.257 2.033-5.835 1.634-9.25-.229-1.96-1.504-1.595-2.32-3.126C.496 3.221.526 1.634.556.37 1.425.304 2.332.64 3.27 1.512c1.778 1.657.68 3.587.579 5.602-.05.982.13 2.019.547 2.83.487.945 1.305 1.255 1.075 2.504-.126.684-.63.797-.795 1.33-.135.433-.017 1.142-.017 1.604a55.134 55.134 0 0 0 .11 3.926c.272 3.915 1.036 7.566 1.136 10.586.034 1.029.104 2.266-.096 3.217-.212 1.016-.739 1.495-.315 2.54.422 1.042 1.253 1.465 1.452 2.668.191 1.153.027 2.525.027 3.701 0 1.17-.035 2.359.115 3.5.12.915.704 1.821.784 2.697.1 1.082-.533 1.878.228 2.91.64.866 1.671.4 1.996.66h.078a4.74 4.74 0 0 0 0 .52c-.23.05-.292.14-.521.221-.404.146-.76.214-1.075.214-2.592 0-2.41-4.574-2.92-8.307" id="buses_emptyI"/><linearGradient x1="49.998%" y1="99.999%" x2="49.998%" y2="0%" id="buses_emptyK"><stop stop-color="#5E8EC8" offset="0%"/><stop stop-color="#5E8EC8" offset="9.14%"/><stop stop-color="#5E8EC8" offset="98.387%"/><stop stop-color="#5E8EC8" offset="100%"/></linearGradient><path d="M5.658 44.435c-.232-1.695-.007-3.483-.863-5.019-.74-1.327-1.845-2.07-2.225-3.652-.713-2.97-.075-6.591-.362-9.635-.305-3.228-.583-6.356-.545-9.635.036-3.257 2.033-5.835 1.634-9.25-.229-1.96-1.504-1.595-2.32-3.126C.496 3.221.526 1.634.556.37 1.425.304 2.332.64 3.27 1.512c1.778 1.657.68 3.587.579 5.602-.05.982.13 2.019.547 2.83.487.945 1.305 1.255 1.075 2.504-.126.684-.63.797-.795 1.33-.135.433-.017 1.142-.017 1.604a55.134 55.134 0 0 0 .11 3.926c.272 3.915 1.036 7.566 1.136 10.586.034 1.029.104 2.266-.096 3.217-.212 1.016-.739 1.495-.315 2.54.422 1.042 1.253 1.465 1.452 2.668.191 1.153.027 2.525.027 3.701 0 1.17-.035 2.359.115 3.5.12.915.704 1.821.784 2.697.1 1.082-.533 1.878.228 2.91.64.866 1.671.4 1.996.66h.078a4.74 4.74 0 0 0 0 .52c-.23.05-.292.14-.521.221-.404.146-.76.214-1.075.214-2.592 0-2.41-4.574-2.92-8.307" id="buses_emptyL"/><path d="M.387.455v.61a4.986 4.986 0 0 1 0-.61" id="buses_emptyN"/><linearGradient x1="49.309%" y1="49.968%" x2="50.632%" y2="49.968%" id="buses_emptyP"><stop stop-color="#5E8EC8" offset="0%"/><stop stop-color="#5E8EC8" offset="9.14%"/><stop stop-color="#5E8EC8" offset="98.387%"/><stop stop-color="#5E8EC8" offset="100%"/></linearGradient><path d="M.387.383a5.2 5.2 0 0 0 .015.218L.387.626V.383z" id="buses_emptyQ"/><linearGradient x1="48.875%" y1="49.948%" x2="51.184%" y2="49.948%" id="buses_emptyS"><stop stop-color="#5E8EC8" offset="0%"/><stop stop-color="#5E8EC8" offset="9.14%"/><stop stop-color="#5E8EC8" offset="98.387%"/><stop stop-color="#5E8EC8" offset="100%"/></linearGradient><path d="M1.44 15.091l-.014-.085.048.084c.013.145.014.197.008.197a.83.83 0 0 1-.043-.196m-.013-.085c-.986-1.83-1.21-7.115.776-8.09.381-.187.874-.112 1.368-.038.503.076 1.009.152 1.401-.047.724-.37.963-1.233 1.114-1.962.312-1.511.712-3.094.692-4.734.055 1.121-.186 2.321-.337 3.415-.21 1.524-.547 3.087-1.271 4.422-.783 1.443-2.409 2.237-3.142 3.617-.505.953-.6 2.187-.553 3.501-.064-.279-.065-.212-.048-.084" id="buses_emptyT"/><linearGradient x1="0%" y1="50.002%" x2="100.006%" y2="50.002%" id="buses_emptyV"><stop stop-color="#5E8EC8" offset="0%"/><stop stop-color="#5E8EC8" offset="9.14%"/><stop stop-color="#5E8EC8" offset="98.387%"/><stop stop-color="#5E8EC8" offset="100%"/></linearGradient><path d="M.633 6.514c.306-1.026 1.094-1.603 1.372-2.66.262-.99.74-1.829.995-2.78.035-.132.064-.263.087-.392.093 1.105.152 2.167.018 3.069-.232 1.563-1.395 2.697-1.684 4.197a4.86 4.86 0 0 0-.078.928C.658 8.586.247 7.81.633 6.514" id="buses_emptyW"/><linearGradient x1="-.001%" y1="50.002%" x2="99.992%" y2="50.002%" id="buses_emptyY"><stop stop-color="#5E8EC8" offset="0%"/><stop stop-color="#5E8EC8" offset="9.14%"/><stop stop-color="#5E8EC8" offset="98.387%"/><stop stop-color="#5E8EC8" offset="100%"/></linearGradient><path id="buses_emptyZ" d="M0 208h208V0H0z"/><path id="buses_emptyab" d="M.242 13.835h54.633V.145H.242z"/><path d="M54.875 6.922c-4.607.744-9.299.69-10.16.866-1.423.29-3.897-1.814-5.067-1.51-1.386.361-.873.377-1.208.623-.502.37 1.435 1.95-1.41 2.352-.746.106-3.801.724-4.448.823-.81.125-3.511.42-4.341.56-1.704.287-2.32-.1-3.178-.111-2.23.463-8.672 2.9-11.11 3.31-.576-.01-1.759-.119-2.238-.149 1.67-.374 9.51-2.902 10.517-3.239-1.042.013-3.709-.787-4.164-.901-.422-.107-.044-.36-1.985-.09-1.606.224-2.58.527-4.365.736-1.484.173-2.351.19-3.058.145-2.478.444-3.561.973-6.115 1.507-.22-.061-2.622.044-2.267-.142.154-.08 2.12-.466 3.236-.724 2.088-.482 4.093-.874 5.134-1.283 1.109-.436 1.278-.657 3.262-1.152.897-.224 2.332-.465 3.171-.683.696-.181.629-.28 1.157-.452 1.242-.405 6.3-1.434 8.563-1.798 3.574-.575 6.796-.826 10.568-1.614 2.015-.421 11.068-2.738 18.563-3.852a72.43 72.43 0 0 1 .943 6.778" id="buses_emptyad"/><linearGradient x1="22.788%" y1="175.652%" x2="82.54%" y2="-62.79%" id="buses_emptyaf"><stop stop-color="#425685" offset="0%"/><stop stop-color="#425685" offset="41.793%"/><stop stop-color="#425685" offset="82.234%"/><stop stop-color="#425685" offset="100%"/></linearGradient></defs><g fill="none" fill-rule="evenodd"><g transform="matrix(1 0 0 -1 17.987 78.387)"><mask id="buses_emptyb" fill="#fff"><use xlink:href="#buses_emptya"/></mask><g mask="url(#buses_emptyb)"><path d="M28.688 43.378C18.79 31.757 14.742 15.564 1.733 6.621L.347 3.847C1.923 2.637 3.665 1.134 5.885.72c2.784-.52 6.315.292 9.023.692 4.09.605 7.946.824 12.133 1.032C35.316 2.853 43.793 2.77 52 3.5c5.585.496 11.235-.03 16.987-.347 6.777-.373 37.786-2.603 46.494 7.604-15.232 7.398-30.975 17.105-36.19 20.387-2.48 1.56-4.775.893-6.997.225-2.328-.7-4.575-1.4-6.869.464-3.684 2.99-3.758 9.378-6.23 13.258-3.145 4.935-7.81 6.96-12.711 6.959-6.522 0-13.464-3.586-17.796-8.673" fill="url(#buses_emptyc)"/></g></g><g transform="matrix(1 0 0 -1 62.36 54.813)"><mask id="buses_emptye" fill="#fff"><use xlink:href="#buses_emptyd"/></mask><g mask="url(#buses_emptye)" fill="url(#buses_emptyf)"><path d="M.44 6.616C.266 3.239 2.882.336 6.282.132c3.4-.203 6.298 2.368 6.471 5.745.173 3.377-2.442 6.28-5.843 6.484a6.3 6.3 0 0 1-.377.01C3.297 12.372.606 9.868.44 6.617"/></g></g><g transform="matrix(1 0 0 -1 53.347 116.52)"><mask id="buses_emptyh" fill="#fff"><use xlink:href="#buses_emptyg"/></mask><g mask="url(#buses_emptyh)"><path d="M12.492 43.491c27.68-4.726 13.184-13.752 13.184-13.752L.466 14.965 68.823.494l.473 43.914-56.804-.917z" fill="url(#buses_emptyi)"/></g></g><g transform="matrix(1 0 0 -1 -3.507 112.36)"><mask id="buses_emptyk" fill="#fff"><use xlink:href="#buses_emptyj"/></mask><g mask="url(#buses_emptyk)"><path d="M1.715 37.493a248.75 248.75 0 0 1-1.59-.095c13.645-1.864 33.271-3.974 24.594-13.412-5.825-6.337 17.452-17.914 25.363-22.077-1.032 5.886 29.905 26.935 37.735 27.093L84.5 33.094c-9.575 4.28-30.861 5.343-49.654 5.344-15.122 0-28.626-.689-33.132-.945M51.475.613c2.106-.612 1.149-.041-1.393 1.296.106-.605.55-1.05 1.393-1.295" fill="url(#buses_emptyl)" fill-rule="nonzero"/></g></g><g transform="matrix(1 0 0 -1 18.68 76.307)"><mask id="buses_emptyn" fill="#fff"><use xlink:href="#buses_emptym"/></mask><g mask="url(#buses_emptyn)"><path d="M18.897 23.937c-4.304-.267-7.926-9.687-11.763-12.584C4.914 9.675 2.902 6.88.924 4.455c-.703-.863-.3-2.634.592-2.587 9.717.512 37.45.436 55.513-1.551.847-.094 1.312 1.518.71 2.463l-.205.323c-.28.44-.702.527-1.062.27-2.005-1.434-3.899.889-5.893 3.212-2.19 2.554-4.5 5.107-7.208 2.674-.373-.333-.835-.238-1.136.241-1.053 1.674-1.918.329-2.965-1.016-.84-1.08-1.797-2.159-3.061-1.678-2.463.933-3.877 3.93-5.92 5.961-2.678 2.662-8.06 11.173-11.282 11.174-.037 0-.073-.002-.11-.004" fill="url(#buses_emptyo)"/></g></g><g transform="matrix(1 0 0 -1 32.547 119.293)"><mask id="buses_emptyq" fill="#fff"><use xlink:href="#buses_emptyp"/></mask><g mask="url(#buses_emptyq)"><path d="M77.95 63.178c-7.129-.007-13.894-17.173-21.004-16.822-.965.047-1.976.011-3-.025-1.175-.04-2.367-.082-3.52.004a9.61 9.61 0 0 1-.258.392 2.69 2.69 0 0 1-.698-.288 9.592 9.592 0 0 0-1.5.34l1.185-.563c-2.71-2.27.06-10.098-.34-13.75-.455-4.149-5.961-3.839-11.363-3.528-2.02.116-4.025.232-5.745.115-5.059-.343-10.866-7.82-30.97-9.287C-2.947 15.16 42.82 8.876 40.312.093c4.534 2.385 9.375 4.673 14.266 6.083 4.981 1.434 9.777.89 14.195.343 9.245-1.14 16.841-2.28 21.044 14.714 1.463 5.915 8.718 5.601 14.652 5.286 2.82-.149 5.342-.298 6.802.222 1.682.6 4.216 1.035 5.604 2.264 1.773 1.57.598 1.726 1.368 3.214 1.583 3.057 4.067 2.984 6.792 5.124 3.735 2.933.33 6.474-3.141 5.72-4.032-.876-13.911 6.984-20.972 8.601-10.745-9.705-13.772-3.209-16.445 3.288-1.693 4.113-3.244 8.227-6.522 8.226h-.004" fill="url(#buses_emptyr)"/></g></g><g transform="matrix(1 0 0 -1 23.533 135.24)"><mask id="buses_emptyt" fill="#fff"><use xlink:href="#buses_emptys"/></mask><g mask="url(#buses_emptyt)"><path d="M2.538 62.671c.37.246.648.443.67.509.001.003 0 .006-.003.006-.032 0-.31-.222-.667-.515M.716 61.47c-.08-.06-.045-.212.05-.217 37.72-1.82 63.376-5.926 55.928-9.598-7.443-4.442-47.08-9.48-51.632-20.203-1.23-2.896 7.229-15.236 49.98-30.807 16.217 9.1 24.687 7.114 33.115 5.128 8.769-2.065 17.492-4.131 34.849 6.29-16.708 2.437-65.894 15.99-78.136 22.26 0 0-7.935 1.815 10.357 8.323 7.728 2.75 28.38 12.92 6.241 16.708-8.646 1.48-32.664 2.183-60.154 1.905-.149-.002-.212.232-.087.333.37.3.894.738 1.31 1.08-.593-.394-1.424-.911-1.82-1.202" fill="url(#buses_emptyu)" fill-rule="nonzero"/></g></g><g transform="matrix(1 0 0 -1 -25 181)"><mask id="buses_emptyw" fill="#fff"><use xlink:href="#buses_emptyv"/></mask><g mask="url(#buses_emptyw)"><g transform="translate(78.347 52)"><mask id="buses_emptyy" fill="#fff"><use xlink:href="#buses_emptyx"/></mask><g opacity=".5" mask="url(#buses_emptyy)"><mask id="buses_emptyA" fill="#fff"><use xlink:href="#buses_emptyz"/></mask><g mask="url(#buses_emptyA)"><path d="M64.361 1.024L.466 23.218C1.327 22.995 30.093 9.72 62.756.392c.562.2 1.097.41 1.605.632" fill="url(#buses_emptyB)"/></g></g></g></g></g><g transform="matrix(1 0 0 -1 77.613 101.267)"><mask id="buses_emptyD" fill="#fff"><use xlink:href="#buses_emptyC"/></mask><g mask="url(#buses_emptyD)"><path d="M5.23 46.188c-.146-.607-.055-1.134-.274-1.712a57.788 57.788 0 0 1-.946-2.867c-.8-2.81.315-5.27.22-8.02-.125-3.675-2.411-2.802-3.364-5.608-.604-1.776-.912-6.592-.252-8.37.282-.759.835-1.14.984-1.958.18-.985-.157-2.15-.01-3.167.324-2.25 1.217-3.144 2.171-5.03.895-1.769 1.236-3.711.848-5.83-.114-.618-.17-2.342-.1-2.907C4.8.394 5.325.46 5.816.528c.34.045.665.092.88.007.097 2.283-.25 4.205.192 6.394.955-.067 1.786.126 2.498 1.035.855 1.09.405 2.434 1.002 3.556.722 1.358 1.556.303 2.512-.052 1.032-.382 1.87-.187 2.9.02.577-1.476.009-7.17.075-8.894.647-.047 1.592.095 2.238.147-.63 2.893.256 8.335.335 10.32.958.082 1.884.385 2.274 1.776.19.676-.027 1.458.218 2.071.196.488.831.601 1.102 1.13 1.03 2.013.636 5.39-.631 6.921-.847 1.023-1.453 1.002-1.754 2.633-.253 1.378.2 2.709.28 4.068.08 1.349.118 2.992-.502 4.03-.758 1.27-1.233.983-1.383 2.98-.102 1.373.003 7.358-1.888 6.136-1.203-.779-.777-5.456-1.155-7.149-.588-2.634-.75-4.838-.852-7.748-.04-1.154-.086-2.796-.37-3.864-.364-1.366-1.09-1.119-1.487-2.255-.167 3.015-.2 3.893-1.912 5.768-1.759 1.928-.596 3.43-.873 6.142-.267 2.603-1.915 2.61-1.92 5.422-.002.977 1.181 7.119-.223 7.52a1.408 1.408 0 0 1-.385.057c-.998 0-1.458-1.265-1.758-2.51" fill="url(#buses_emptyE)"/></g></g><g transform="matrix(1 0 0 -1 103.96 106.12)"><mask id="buses_emptyG" fill="#fff"><use xlink:href="#buses_emptyF"/></mask><g mask="url(#buses_emptyG)"><path d="M5.658 78.408c-.232-1.695-.007-3.483-.863-5.019-.74-1.327-1.845-2.07-2.225-3.652-.713-2.97-.075-6.591-.362-9.635-.305-3.227-.583-6.355-.545-9.635.036-3.257 2.033-5.835 1.634-9.249-.229-1.961-1.504-1.596-2.32-3.126-.593-1.111-.408-3.28-.404-4.582.002-.704-.156-1.633-.004-2.313.174-.776.893-1.278 1.053-1.974.267-1.167-.506-2.911-.504-4.384.006-3.773.393-5.229 3.274-7.275C7.67 15.234 7.134 4.308 7.32.426c2.024-.44 3.106-.331 2.697 1.705-.055.274-.428 6.947.363 11.146.245 1.301.027 3.27.767 4.39.812 1.226 2.056 1.324 2.73 2.889.583 1.359.357 2.725 1.221 3.945.915 1.294 1.88 1.587 2.325 3.27.82 3.103-.403 6.418.04 9.593.222 1.587 1.23 2.495 1.644 4.047.367 1.379.011 2.998-.187 4.432-.21 1.524-.547 3.088-1.271 4.422-.783 1.443-2.409 2.238-3.142 3.617-1.295 2.439.102 6.719-.308 9.496-.232 1.563-1.396 2.697-1.684 4.197-.285 1.48.292 2.983.226 4.475-.117 2.62-1.779 3.874-1.644 6.744.06 1.294.44 2.745.059 4.057-.398 1.363-1.07 1.815-.981 3.429-.232.05-.293.14-.521.222-.404.145-.76.213-1.075.213-2.593 0-2.411-4.574-2.92-8.307" fill="url(#buses_emptyH)"/></g></g><g transform="matrix(1 0 0 -1 103.96 72.147)"><mask id="buses_emptyJ" fill="#fff"><use xlink:href="#buses_emptyI"/></mask><g mask="url(#buses_emptyJ)"><path d="M5.658 44.435c-.232-1.695-.007-3.483-.863-5.019-.74-1.327-1.845-2.07-2.225-3.652-.713-2.97-.075-6.591-.362-9.635-.305-3.228-.583-6.356-.545-9.635.036-3.257 2.033-5.835 1.634-9.25-.229-1.96-1.504-1.595-2.32-3.126C.496 3.221.526 1.634.556.37 1.425.304 2.332.64 3.27 1.512c1.778 1.657.68 3.587.579 5.602-.05.982.13 2.019.547 2.83.487.945 1.305 1.255 1.075 2.504-.126.684-.63.797-.795 1.33-.135.433-.017 1.142-.017 1.604a55.134 55.134 0 0 0 .11 3.926c.272 3.915 1.036 7.566 1.136 10.586.034 1.029.104 2.266-.096 3.217-.212 1.016-.739 1.495-.315 2.54.422 1.042 1.253 1.465 1.452 2.668.191 1.153.027 2.525.027 3.701 0 1.17-.035 2.359.115 3.5.12.915.704 1.821.784 2.697.1 1.082-.533 1.878.228 2.91.64.866 1.671.4 1.996.66h.078a4.74 4.74 0 0 0 0 .52c-.23.05-.292.14-.521.221-.404.146-.76.214-1.075.214-2.592 0-2.41-4.574-2.92-8.307" fill="url(#buses_emptyK)"/></g></g><g transform="matrix(1 0 0 -1 103.96 72.147)"><mask id="buses_emptyM" fill="#fff"><use xlink:href="#buses_emptyL"/></mask><g mask="url(#buses_emptyM)"><path d="M5.658 44.435c-.232-1.695-.007-3.483-.863-5.019-.74-1.327-1.845-2.07-2.225-3.652-.713-2.97-.075-6.591-.362-9.635-.305-3.228-.583-6.356-.545-9.635.036-3.257 2.033-5.835 1.634-9.25-.229-1.96-1.504-1.595-2.32-3.126C.496 3.221.526 1.634.556.37 1.425.304 2.332.64 3.27 1.512c1.778 1.657.68 3.587.579 5.602-.05.982.13 2.019.547 2.83.487.945 1.305 1.255 1.075 2.504-.126.684-.63.797-.795 1.33-.135.433-.017 1.142-.017 1.604a55.134 55.134 0 0 0 .11 3.926c.272 3.915 1.036 7.566 1.136 10.586.034 1.029.104 2.266-.096 3.217-.212 1.016-.739 1.495-.315 2.54.422 1.042 1.253 1.465 1.452 2.668.191 1.153.027 2.525.027 3.701 0 1.17-.035 2.359.115 3.5.12.915.704 1.821.784 2.697.1 1.082-.533 1.878.228 2.91.64.866 1.671.4 1.996.66h.078a4.74 4.74 0 0 0 0 .52c-.23.05-.292.14-.521.221-.404.146-.76.214-1.075.214-2.592 0-2.41-4.574-2.92-8.307" fill="url(#buses_emptyK)"/></g></g><g transform="matrix(1 0 0 -1 117.133 52.04)"><mask id="buses_emptyO" fill="#fff"><use xlink:href="#buses_emptyN"/></mask><g mask="url(#buses_emptyO)"><path d="M.387.455v.61a4.986 4.986 0 0 1 0-.61" fill="url(#buses_emptyP)"/></g></g><g transform="matrix(1 0 0 -1 117.133 51.347)"><mask id="buses_emptyR" fill="#fff"><use xlink:href="#buses_emptyQ"/></mask><g mask="url(#buses_emptyR)"><path d="M.387.383a5.2 5.2 0 0 0 .015.218L.387.626V.383z" fill="url(#buses_emptyS)"/></g></g><g transform="matrix(1 0 0 -1 116.44 63.827)"><mask id="buses_emptyU" fill="#fff"><use xlink:href="#buses_emptyT"/></mask><g mask="url(#buses_emptyU)"><path d="M1.44 15.091l-.014-.085.048.084c.013.145.014.197.008.197a.83.83 0 0 1-.043-.196m-.013-.085c-.986-1.83-1.21-7.115.776-8.09.381-.187.874-.112 1.368-.038.503.076 1.009.152 1.401-.047.724-.37.963-1.233 1.114-1.962.312-1.511.712-3.094.692-4.734.055 1.121-.186 2.321-.337 3.415-.21 1.524-.547 3.087-1.271 4.422-.783 1.443-2.409 2.237-3.142 3.617-.505.953-.6 2.187-.553 3.501-.064-.279-.065-.212-.048-.084" fill="url(#buses_emptyV)" fill-rule="nonzero"/></g></g><g transform="matrix(1 0 0 -1 115.053 46.493)"><mask id="buses_emptyX" fill="#fff"><use xlink:href="#buses_emptyW"/></mask><g mask="url(#buses_emptyX)"><path d="M.633 6.514c.306-1.026 1.094-1.603 1.372-2.66.262-.99.74-1.829.995-2.78.035-.132.064-.263.087-.392.093 1.105.152 2.167.018 3.069-.232 1.563-1.395 2.697-1.684 4.197a4.86 4.86 0 0 0-.078.928C.658 8.586.247 7.81.633 6.514" fill="url(#buses_emptyY)"/></g></g><g transform="matrix(1 0 0 -1 -25 181)"><mask id="buses_emptyaa" fill="#fff"><use xlink:href="#buses_emptyZ"/></mask><g mask="url(#buses_emptyaa)"><g transform="translate(106.773 68.64)"><mask id="buses_emptyac" fill="#fff"><use xlink:href="#buses_emptyab"/></mask><g opacity=".58" mask="url(#buses_emptyac)"><mask id="buses_emptyae" fill="#fff"><use xlink:href="#buses_emptyad"/></mask><g mask="url(#buses_emptyae)"><path d="M54.875 6.922c-4.607.744-9.299.69-10.16.866-1.423.29-3.897-1.814-5.067-1.51-1.386.361-.873.377-1.208.623-.502.37 1.435 1.95-1.41 2.352-.746.106-3.801.724-4.448.823-.81.125-3.511.42-4.341.56-1.704.287-2.32-.1-3.178-.111-2.23.463-8.672 2.9-11.11 3.31-.576-.01-1.759-.119-2.238-.149 1.67-.374 9.51-2.902 10.517-3.239-1.042.013-3.709-.787-4.164-.901-.422-.107-.044-.36-1.985-.09-1.606.224-2.58.527-4.365.736-1.484.173-2.351.19-3.058.145-2.478.444-3.561.973-6.115 1.507-.22-.061-2.622.044-2.267-.142.154-.08 2.12-.466 3.236-.724 2.088-.482 4.093-.874 5.134-1.283 1.109-.436 1.278-.657 3.262-1.152.897-.224 2.332-.465 3.171-.683.696-.181.629-.28 1.157-.452 1.242-.405 6.3-1.434 8.563-1.798 3.574-.575 6.796-.826 10.568-1.614 2.015-.421 11.068-2.738 18.563-3.852a72.43 72.43 0 0 1 .943 6.778" fill="url(#buses_emptyaf)"/></g></g></g></g></g></g></svg>