<svg viewBox="0 0 16 16"><g fill="currentColor" fill-rule="evenodd"><path d="M13.964.985v.97c0 1.066-.873 1.94-1.94 1.94a1.947 1.947 0 0 1-1.94-1.94v-.97H6.207v.97c0 1.066-.873 1.94-1.94 1.94a1.947 1.947 0 0 1-1.94-1.94v-.97A1.944 1.944 0 0 0 .39 2.925V13.59c0 1.067.873 1.94 1.94 1.94h11.636c1.066 0 1.94-.873 1.94-1.94V2.925c0-1.066-.874-1.94-1.94-1.94zM2.327 4.865h11.637v8.726H2.327V4.865z"/><path d="M4.267 6.803h1.94v1.94h-1.94v-1.94zm2.91 0h1.938v1.94h-1.94v-1.94zm2.908 0h1.94v1.94h-1.94v-1.94zm1.94-3.88c.533 0 .97-.435.97-.97V.986a.973.973 0 0 0-.97-.97.973.973 0 0 0-.97.97v.97c0 .533.436.97.97.97zm-7.758 0c.533 0 .97-.435.97-.97V.986a.973.973 0 0 0-.97-.97.973.973 0 0 0-.97.97v.97c0 .533.437.97.97.97zm0 6.79h1.94v1.938h-1.94V9.713zm2.91 0h1.938v1.938h-1.94V9.713zm2.908 0h1.94v1.938h-1.94V9.713z"/></g></svg>