<svg viewBox="0 0 20 18" xmlns="http://www.w3.org/2000/svg"><title>carleg</title><g fill="none" fill-rule="evenodd"><path d="M8.223 14.794a.705.705 0 0 1-.718-.702.722.722 0 0 1 .714-.73c.39 0 .72.334.72.727-.01.39-.32.7-.72.7l.004.005zM4.95 12.69c-1.217-.007-3.4-.04-3.544-.19-.105-.108.285-1.257.823-1.71.19-.165.51-.226.78-.276 1.05-.19 1.96-.204 3.02-.1.36.036.51.056.87.12.27.05.53.234.71.44.39.454.85 1.454.72 1.552-.21.153-2.26.17-3.4.163l.021.001zm-3.48 2.104a.704.704 0 0 1-.723-.698.719.719 0 0 1 .71-.733c.39-.004.73.332.728.72 0 .392-.32.708-.715.71v.001zm6.846-3.99a1.941 1.941 0 0 0-1.415-.906 7.247 7.247 0 0 0-.64-.085v-.616c0-.082-.06-.15-.15-.15l-2.53-.003c-.08 0-.15.067-.15.15v.613c-.21.02-.39.042-.53.067-.62.11-1.14.35-1.49.898-.12.186-.7 1.06-.98 1.726-.37.883-.5 1.808-.34 2.763.06.31.11.62.15.93.03.2.01.39.02.59.02.21.05.23.25.23.26 0 .52-.01.78.01.13.01.18-.05.2-.16.02-.08.02-.17.02-.26.01-.19 0-.38 0-.6 2.37.1 4.38.1 6.71.01v.55c0 .1.02.205.03.307.01.11.07.165.19.16.28-.01.56-.01.83 0 .12 0 .18-.04.19-.15.02-.28.02-.563.03-.843.01-.084.01-.174.03-.254.24-.79.25-1.586.05-2.383-.22-.82-1.12-2.41-1.22-2.56l-.035-.034zm5.528-3.494c-.073-.4-.328-.803-1.007-.982C12.14 6.143 11.26 6 9.06 6c-1.93 0-3.11.102-3.958.328-.37.098-.67.663-.723 1.06-.06.422-.1.838-.1.838-.01.08.05.144.14.14l.6-.015c.08 0 .22-.13.3-.14 0 0 1.9-.25 3.71-.23 1.92.01 3.84.24 3.84.24.08.01.14.09.15.17l.05 4.17c0 .08-.07.14-.15.14l-2.58-.11c-.08 0-.12.06-.09.13 0 0 .17.42.23.65.21.86.01 2.39.01 2.39-.01.08.045.145.13.14l1.343-.033c.082-.005.15.06.15.14v.66c0 .08.066.147.15.147h1.266c.085 0 .15-.067.15-.15V16c0-.08.016-.214.03-.294l.075-.34c.02-.08.04-.21.04-.295 0 0 .34-5.83-.006-7.74l.027-.021zm-2.716.095s-.797-.11-2.105-.11c-1.177 0-1.906.108-1.906.108a.114.114 0 0 1-.136-.126l.03-.344a.25.25 0 0 1 .16-.192s.48-.14 1.85-.13c1.47.01 2.08.14 2.08.14.08.02.15.1.16.18l.03.37c.01.08-.06.14-.14.13l-.023-.026zm1.27 7.33a.661.661 0 0 1-.66-.663c0-.368.296-.665.66-.665.364 0 .66.297.66.665a.662.662 0 0 1-.66.664v-.001z" fill="#425486" fill-rule="nonzero"/><path d="M14.5 0C17.543 0 20 2.457 20 5.5S17.543 11 14.463 11C11.457 11 9 8.543 9 5.5S11.457 0 14.5 0z" fill="#F7AF48"/><path d="M15.013 6.233h-1.026l-.22-4.033h1.466l-.22 4.033zM13.767 7.7c0-.257.073-.44.183-.55a.901.901 0 0 1 .55-.183c.22 0 .403.073.55.183.11.147.183.33.183.55 0 .22-.073.403-.183.55a.901.901 0 0 1-.55.183.901.901 0 0 1-.55-.183.901.901 0 0 1-.183-.55z" fill="#FFF" fill-rule="nonzero"/></g></svg>