<svg xmlns="http://www.w3.org/2000/svg" viewBox="0 0 44 28"><path fill="currentColor" fill-rule="evenodd" d="M21.57 1c-2.8 0-5.4.2-6.8.5-2.4.4-4.3 1.3-5.6 3.3-.5.7-2.6 3.9-3.7 6.4-1.4 3.3-1.8 6.8-1.2 10.3.2 1.2.4 2.3.5 3.4.1.8 0 1.5.1 2.2 0 .8.2.9.9.9h2.9c.5 0 .7-.2.7-.6.1-.3.1-.6.1-1v-2.2c8.8.4 16.3.3 25 0v2.1c0 .3 0 .7.1 1.1 0 .4.2.6.7.6h3.1c.4 0 .6-.2.7-.6 0-1 0-2.1.1-3.1 0-.3 0-.7.1-1 .9-2.9.9-5.9.2-8.8-.9-3.1-4.2-9-4.6-9.6-1.2-1.9-3-3-5.2-3.4-2.4-.4-5.4-.5-8.1-.5zm-.8 2.3c1.8-.1 3.7 0 5.7.2 1.3.1 1.9.2 3.2.4 1 .2 2 .9 2.7 1.7 1.4 1.6 3.1 5.4 2.6 5.7-.7.6-8.3.7-12.6.6-4.5 0-12.6-.1-13.2-.6-.4-.5 1.1-4.7 3.1-6.4.7-.6 1.9-.9 2.9-1.1 2-.3 3.8-.5 5.6-.5zM9.37 14.4c1.5 0 2.7 1.3 2.7 2.7 0 1.5-1.2 2.7-2.6 2.7-1.5 0-2.7-1.1-2.7-2.6s1.1-2.7 2.6-2.8zm25.2 0c1.4 0 2.7 1.3 2.7 2.8-.1 1.4-1.2 2.6-2.7 2.6-1.5 0-2.7-1.2-2.7-2.6 0-1.5 1.2-2.8 2.7-2.8z"/></svg>