<svg viewBox="0 0 170 141" xmlns="http://www.w3.org/2000/svg" xmlns:xlink="http://www.w3.org/1999/xlink"><defs><path d="M119.256 139.968L4.436 80a6.256 6.256 0 0 1-2.647-8.441l34.985-66.99a6.255 6.255 0 0 1 8.441-2.648L160.036 61.89a6.26 6.26 0 0 1 2.65 8.44L127.7 137.319a6.256 6.256 0 0 1-8.443 2.65" id="card_errora"/><linearGradient x1="0%" y1="50%" y2="50%" id="card_errorc"><stop stop-color="#F6B2B3" offset="0%"/><stop stop-color="#F6B2B3" offset="16.326%"/><stop stop-color="#F48F90" offset="50%"/><stop stop-color="#F06B6C" offset="89.796%"/><stop stop-color="#F06B6C" offset="100%"/></linearGradient><path id="card_errord" d="M0 479.5h479.5V0H0z"/><path d="M6.737 88.164A6.255 6.255 0 0 1 .481 81.91V6.334c0-3.454 2.8-6.256 6.256-6.256h129.537a6.256 6.256 0 0 1 6.256 6.256V81.91c0 3.454-2.8 6.254-6.256 6.254H6.737z" id="card_errorf"/><linearGradient x1="10.787%" y1="113.236%" x2="89.213%" y2="-13.235%" id="card_errorh"><stop stop-color="#BFD3EA" offset="0%"/><stop stop-color="#BFD3EA" offset="16.467%"/><stop stop-color="#7DA5D4" offset="82.143%"/><stop stop-color="#7DA5D4" offset="100%"/></linearGradient><path id="card_errori" d="M.481.481H142.53v18.843H.48z"/><linearGradient x1="0%" y1="49.999%" y2="49.999%" id="card_errork"><stop stop-color="#717FA2" offset="0%"/><stop stop-color="#717FA2" offset="12.755%"/><stop stop-color="#242F65" offset="100%"/></linearGradient><path id="card_errorl" d="M0 479.5h479.5V0H0z"/></defs><g fill="none" fill-rule="evenodd"><g transform="matrix(1 0 0 -1 6.333 141.577)"><mask id="card_errorb" fill="#fff"><use xlink:href="#card_errora"/></mask><g mask="url(#card_errorb)" fill="url(#card_errorc)"><path d="M119.256 139.968L4.436 80a6.256 6.256 0 0 1-2.647-8.441l34.985-66.99a6.255 6.255 0 0 1 8.441-2.648L160.036 61.89a6.26 6.26 0 0 1 2.65 8.44L127.7 137.319a6.256 6.256 0 0 1-8.443 2.65"/></g></g><g transform="matrix(1 0 0 -1 -153.5 311)"><mask id="card_errore" fill="#fff"><use xlink:href="#card_errord"/></mask><g mask="url(#card_errore)"><path d="M294.766 271.415h-88.388l-42.108-21.993a6.255 6.255 0 0 1-2.648-8.44l30.11-57.652h36.264l72.115 37.663-.288 44.397c0 3.454-1.601 6.025-5.057 6.025" fill="#425685"/></g></g><g transform="matrix(1 0 0 -1 -.06 123.995)"><mask id="card_errorg" fill="#fff"><use xlink:href="#card_errorf"/></mask><g mask="url(#card_errorg)" fill="url(#card_errorh)"><path d="M6.737 88.164A6.255 6.255 0 0 1 .481 81.91V6.334c0-3.454 2.8-6.256 6.256-6.256h129.537a6.256 6.256 0 0 1 6.256 6.256V81.91c0 3.454-2.8 6.254-6.256 6.254H6.737z"/></g></g><g transform="matrix(1 0 0 -1 -.06 76.045)"><mask id="card_errorj" fill="#fff"><use xlink:href="#card_errori"/></mask><g mask="url(#card_errorj)" fill="url(#card_errork)"><path d="M.481.481H142.53v18.843H.48z"/></g></g><g transform="matrix(1 0 0 -1 -153.5 311)"><mask id="card_errorm" fill="#fff"><use xlink:href="#card_errorl"/></mask><g mask="url(#card_errorm)"><path d="M219.893 222.978a3.787 3.787 0 0 0-3.788-3.786 3.787 3.787 0 1 0 0 7.574 3.788 3.788 0 0 0 3.788-3.788m17.681 0a3.787 3.787 0 0 0-3.788-3.786 3.787 3.787 0 1 0 0 7.574 3.788 3.788 0 0 0 3.788-3.788m-12.629-9.443c-5.18 0-9.98-2.597-12.84-6.946a1.817 1.817 0 0 1 .544-2.53 1.862 1.862 0 0 1 2.56.537c2.173 3.307 5.812 5.28 9.736 5.28 3.924 0 7.563-1.973 9.739-5.28a1.862 1.862 0 0 1 2.559-.537 1.82 1.82 0 0 1 .543 2.53c-2.86 4.349-7.66 6.946-12.84 6.946" fill="#252E65"/></g></g></g></svg>