<svg viewBox="0 0 14 20" xmlns="http://www.w3.org/2000/svg" xmlns:xlink="http://www.w3.org/1999/xlink"><defs><path fill="currentColor" d="M12 19a1 1 0 0 1-2 0H4a1 1 0 0 1-2 0 2 2 0 0 1-2-2V5c0-1.1.9-2 2-2h1V.8c0-.4.4-.8 1-.8h6c.6 0 1 .4 1 .8V3h1a2 2 0 0 1 2 2v12a2 2 0 0 1-2 2zM4 1v2h6V1H4zM2.5 6a.5.5 0 0 0 0 1h9a.5.5 0 1 0 0-1h-9zm0 6a.5.5 0 1 0 0 1h9a.5.5 0 1 0 0-1h-9zm0-3a.5.5 0 0 0 0 1h9a.5.5 0 1 0 0-1h-9zm0 6a.5.5 0 1 0 0 1h9a.5.5 0 1 0 0-1h-9z" id="checkin2a"/></defs><use xlink:href="#checkin2a" fill-rule="evenodd"/></svg>