<svg viewBox="0 0 17 16" xmlns="http://www.w3.org/2000/svg" xmlns:xlink="http://www.w3.org/1999/xlink"><title>Group</title><defs><path d="M9.95 2.157l.006.007c.176.177.18.461.007.641L4.456 8.553a.458.458 0 0 1-.662 0L1.496 6.158a.458.458 0 0 1 .007-.642l.006-.006a.446.446 0 0 1 .64.008l1.81 1.909a.23.23 0 0 0 .332 0L9.31 2.165a.448.448 0 0 1 .64-.008z" id="circle-ticka"/></defs><g transform="translate(.568)" fill="none" fill-rule="evenodd"><ellipse fill="currentColor" cx="7.784" cy="8" rx="7.784" ry="8"/><g transform="translate(1.946 3)"><mask id="circle-tickb" fill="#fff"><use xlink:href="#circle-ticka"/></mask><use fill="#979797" fill-rule="nonzero" xlink:href="#circle-ticka"/><g mask="url(#circle-tickb)" fill="#FFF"><path d="M0 0h11v11H0z"/></g></g></g></svg>