<svg viewBox="0 0 18 13" xmlns="http://www.w3.org/2000/svg"><title>Icon/Discount card</title><g fill="currentColor" fill-rule="evenodd"><path d="M3 1a2 2 0 0 0-2 2v7a2 2 0 0 0 2 2h12a2 2 0 0 0 2-2V3a2 2 0 0 0-2-2H3zm0-1h12a3 3 0 0 1 3 3v7a3 3 0 0 1-3 3H3a3 3 0 0 1-3-3V3a3 3 0 0 1 3-3z" fill-rule="nonzero"/><path d="M4 4.086c0-.545.209-1.018.626-1.42.425-.403.915-.604 1.472-.604.571 0 1.063.203 1.477.609.414.402.62.883.62 1.444a1.95 1.95 0 0 1-.62 1.449 2.066 2.066 0 0 1-1.494.603 2.008 2.008 0 0 1-1.472-.615A2.01 2.01 0 0 1 4 4.086zm.981.017c0 .316.11.583.327.801.218.218.483.327.795.327.305 0 .566-.109.784-.327.218-.218.327-.481.327-.79a1.07 1.07 0 0 0-.327-.783 1.076 1.076 0 0 0-.79-.327c-.308 0-.57.109-.789.327a1.056 1.056 0 0 0-.327.772zM11.043 2l.614.35L6.673 11l-.62-.373L11.043 2zM9.509 8.857c0-.542.209-1.013.626-1.416.425-.402.915-.603 1.472-.603.575 0 1.07.203 1.483.61.413.401.62.882.62 1.443a1.93 1.93 0 0 1-.626 1.449c-.41.398-.908.597-1.494.597a2.017 2.017 0 0 1-1.472-.609 2.005 2.005 0 0 1-.609-1.471zm.987.022c0 .316.107.583.321.801.218.218.483.327.795.327.309 0 .57-.109.784-.327.218-.218.327-.481.327-.79 0-.308-.109-.57-.327-.789a1.064 1.064 0 0 0-.79-.327 1.07 1.07 0 0 0-.783.327 1.063 1.063 0 0 0-.327.778z"/></g></svg>