<svg viewBox="0 0 19 20" xmlns="http://www.w3.org/2000/svg"><title>Combined Shape</title><path d="M13.537 16.706c.832.823 1.9 1.294 3.088 1.412v1.176c-1.306 0-2.613-.47-3.563-1.294-.95.824-2.256 1.294-3.562 1.294S6.888 18.824 5.937 18c-.95.824-2.256 1.294-3.562 1.294v-1.176c1.188 0 2.256-.589 3.088-1.412l.474-.47.475.47c.713.941 1.9 1.412 3.088 1.412 1.188 0 2.256-.589 3.088-1.412l.475-.47.474.47zm3.92-7.294c.593.235.95.823.712 1.412l-2.257 5.764c-.83-.117-1.78-.588-2.375-1.294l-.475-.47-.474.47c-.713.941-1.9 1.412-3.088 1.412-1.188 0-2.256-.588-3.088-1.412l-.474-.47-.475.47a3.678 3.678 0 0 1-2.376 1.294L.832 10.824c-.237-.589.119-1.295.713-1.412l1.068-.236 1.663-6.47C4.394 2 4.987 1.529 5.7 1.529h2.256l.475-.705C8.67.588 9.025.353 9.5.353s.831.235 1.069.47l.475.706H13.3c.594 0 1.306.589 1.425 1.177l1.662 6.47 1.07.236zm-3.207-.706h-.119v-2.47a1.06 1.06 0 0 0-1.069-1.06H5.82a1.06 1.06 0 0 0-1.069 1.06v2.47L9.5 7.529l4.75 1.177zM7.125 12c.59 0 1.069-.474 1.069-1.059s-.479-1.059-1.069-1.059-1.069.474-1.069 1.06c0 .584.479 1.058 1.069 1.058zm4.75 0c.59 0 1.069-.474 1.069-1.059s-.479-1.059-1.069-1.059-1.069.474-1.069 1.06c0 .584.479 1.058 1.069 1.058z" fill="#132968" fill-rule="evenodd"/></svg>