<svg viewBox="0 0 25 17"><g fill="none"><path fill="red" d="M0 0h25v16.67H0z"/><path fill="#060" d="M0 0h10v16.67H0z"/><g fill="#FF0" stroke="#000"><path d="M13.26 10.92C12 10.88 6.23 7.28 6.19 6.7l.32-.53c.57.83 6.47 4.34 7.05 4.21l-.3.54"/><path d="M6.44 6.1c-.11.3 1.5 1.3 3.46 2.49 1.94 1.18 3.62 1.92 3.75 1.81l.05-.1c-.02.03-.08.04-.16.02-.53-.15-1.9-.78-3.6-1.82-1.7-1.03-3.18-1.98-3.41-2.38A.24.24 0 0 1 6.5 6l-.05.09v.01zm6.85 4.83c-.02.04-.06.05-.14.04-.47-.06-1.9-.75-3.59-1.76C7.6 8.03 5.97 6.96 6.15 6.68l.05-.09c-.15.48 3.21 2.4 3.4 2.53 1.96 1.2 3.6 1.9 3.74 1.72l-.05.1z"/><path d="M10 7.05c1.27 0 2.82-.17 3.72-.53l-.2-.31c-.53.3-2.09.48-3.52.51-1.7-.01-2.9-.17-3.5-.57l-.18.33c1.1.47 2.23.57 3.69.57"/><path d="M13.77 6.53a5.4 5.4 0 0 1-1.48.4 16.26 16.26 0 0 1-4.49.03c-.9-.15-1.36-.34-1.53-.41l.04-.09c.5.2.96.32 1.51.4a16.07 16.07 0 0 0 4.46-.03c.88-.14 1.36-.32 1.43-.4l.06.1zm-.17-.32c-.1.08-.57.25-1.41.38a15.16 15.16 0 0 1-4.28.02c-.85-.11-1.3-.31-1.47-.37l.05-.09a5 5 0 0 0 1.43.37 15.06 15.06 0 0 0 4.25-.03c.85-.11 1.3-.33 1.37-.38l.06.1zM5.87 8.57c.77.42 2.5.63 4.12.64 1.49 0 3.42-.23 4.14-.61l-.02-.42c-.22.35-2.3.7-4.13.68-1.84-.01-3.54-.3-4.11-.67v.38"/><path d="M14.17 8.5v.1c-.1.14-.79.33-1.64.47a16.96 16.96 0 0 1-4.98.01c-.98-.14-1.6-.4-1.73-.47V8.5c.38.25 1.4.43 1.75.49.61.1 1.4.16 2.4.16 1.06 0 1.9-.07 2.54-.17a5.27 5.27 0 0 0 1.66-.47zm0-.34v.1c-.1.12-.79.32-1.64.46a16.96 16.96 0 0 1-4.98 0c-.98-.14-1.6-.39-1.73-.46v-.12c.38.25 1.4.44 1.75.5.61.09 1.4.16 2.4.16 1.06 0 1.9-.07 2.55-.17a5.27 5.27 0 0 0 1.65-.47zM10 10.85c-1.8-.01-3.32-.49-3.64-.57l.23.37c.57.24 2.06.6 3.42.56a8.73 8.73 0 0 0 3.37-.55l.24-.38c-.57.26-2.5.56-3.63.57"/><path d="M13.47 10.57l-.1.16a11.54 11.54 0 0 1-3.37.52 10.05 10.05 0 0 1-3.49-.6l-.05-.08.01-.01.09.03a11.19 11.19 0 0 0 5.5.38c.9-.18 1.27-.32 1.38-.38l.03-.02zm.21-.34l-.08.14c-.2.07-.78.24-1.61.35-.55.08-.89.15-1.98.17a13.57 13.57 0 0 1-3.68-.55l-.04-.09c1.18.31 2.39.53 3.72.55 1-.02 1.42-.1 1.97-.17.97-.15 1.45-.31 1.6-.36l.1-.04z"/><path d="M13.7 8.24c0 1.17-.6 2.22-1.08 2.69a3.88 3.88 0 0 1-2.64 1.1 3.93 3.93 0 0 1-2.6-1.09A3.95 3.95 0 0 1 6.3 8.3a3.73 3.73 0 0 1 3.81-3.67c.93.03 2.02.49 2.77 1.4.5.59.7 1.23.82 2.21zM10 4.23a4.14 4.14 0 0 1 4.13 4.1 4.14 4.14 0 0 1-8.26 0A4.13 4.13 0 0 1 10 4.24z"/><path d="M10 4.21a4.13 4.13 0 0 1 0 8.25 4.13 4.13 0 0 1 0-8.25zM5.96 8.34A4.05 4.05 0 0 0 10 12.37a4.05 4.05 0 0 0 4.03-4.03A4.05 4.05 0 0 0 10 4.3a4.05 4.05 0 0 0-4.04 4.04z"/><path d="M10 4.55a3.8 3.8 0 0 1 3.78 3.78A3.8 3.8 0 0 1 10 12.11a3.8 3.8 0 0 1-3.78-3.78A3.8 3.8 0 0 1 10 4.55zM6.31 8.33a3.7 3.7 0 0 0 3.69 3.7 3.7 3.7 0 0 0 3.69-3.7A3.7 3.7 0 0 0 10 4.65a3.7 3.7 0 0 0-3.69 3.68z"/><path d="M14.12 8.5v-.3l-.25-.24-1.4-.38-2.05-.2-2.46.12-1.75.42-.36.25v.32l.9-.4 2.12-.34h2.05l1.5.17 1.04.25z"/><path d="M10 7.7c.97 0 1.92.1 2.67.24.77.15 1.32.35 1.5.56v.11c-.22-.27-.96-.47-1.52-.58a14.76 14.76 0 0 0-5.36 0c-.59.12-1.37.35-1.47.58V8.5c.05-.16.64-.4 1.46-.56.74-.14 1.69-.24 2.72-.24zm0-.36c.97 0 1.92.1 2.67.24.77.16 1.32.35 1.5.57v.1c-.22-.26-.96-.46-1.52-.58a14.7 14.7 0 0 0-5.36 0c-.56.12-1.38.36-1.47.59v-.11c.05-.16.65-.4 1.46-.56.74-.15 1.69-.24 2.72-.25zm-.02-1.8c1.53 0 2.87.21 3.49.53l.22.39a8.96 8.96 0 0 0-3.7-.55c-1.42.01-2.93.16-3.68.56l.26-.44c.62-.32 2.09-.49 3.4-.49"/><path d="M10 5.86c.87 0 1.72.05 2.4.17.62.11 1.22.29 1.3.38l.07.12a4.8 4.8 0 0 0-1.39-.41c-.67-.13-1.51-.17-2.38-.17-1 0-1.76.05-2.42.17-.7.13-1.18.31-1.3.4l.07-.12c.23-.12.6-.26 1.21-.37.69-.13 1.46-.17 2.44-.17zm0-.35c.84 0 1.66.04 2.3.16.52.1 1.02.25 1.2.39l.1.15c-.16-.18-.78-.36-1.33-.45-.64-.11-1.43-.16-2.27-.16-.88 0-1.7.05-2.32.17-.6.11-1 .25-1.16.35L6.61 6c.22-.11.59-.22 1.05-.31.64-.12 1.45-.17 2.34-.17zm2.05 4.54c-.76-.14-1.52-.16-2.05-.15-2.56.03-3.39.52-3.49.67l-.19-.31c.65-.47 2.04-.74 3.7-.71.85.01 1.58.07 2.2.2l-.17.3"/><path d="M9.98 9.85c.71.01 1.41.04 2.09.17l-.05.08c-.63-.11-1.3-.16-2.04-.15-.94 0-1.9.08-2.73.32-.26.07-.7.24-.74.38l-.05-.08c.02-.08.28-.25.77-.4a9.9 9.9 0 0 1 2.75-.32zm.03-.36c.74.02 1.5.05 2.24.2l-.05.09c-.67-.13-1.3-.18-2.18-.2-.95.01-1.95.08-2.87.34-.3.09-.8.27-.82.42l-.05-.08c.01-.14.46-.31.85-.43.92-.27 1.93-.33 2.88-.34z"/><path d="M13.65 10.3l-.3.48-.89-.77-2.29-1.56-2.59-1.4-1.34-.47.3-.53.08-.05.84.2 2.75 1.42 1.58 1 1.33.96.55.62z"/><path d="M6.2 6.6c.23-.16 1.96.6 3.77 1.7 1.8 1.1 3.53 2.33 3.37 2.56l-.05.08-.03.02c.01 0 .04-.04 0-.12-.07-.26-1.3-1.23-3.33-2.46C7.96 7.2 6.31 6.5 6.14 6.7l.05-.1zm7.51 3.7c.15-.3-1.45-1.5-3.44-2.68C8.24 6.47 6.77 5.8 6.5 6l-.06.11.02-.02c.05-.04.13-.03.16-.04.46.01 1.78.62 3.63 1.68.8.47 3.42 2.14 3.4 2.61 0 .04.01.05 0 .07l.06-.1z"/></g><path fill="#FFF" stroke="#000" d="M7.53 8.8a2.46 2.46 0 1 0 4.95 0V5.5l-4.96-.01v3.3z"/><path fill="red" stroke="#000" d="M7.62 8.8a2.37 2.37 0 0 0 4.75 0V5.6H7.61v3.2zm3.79-2.24V8.8l-.01.18a1.42 1.42 0 0 1-1.4 1.24 1.4 1.4 0 0 1-1-.43 1.42 1.42 0 0 1-.42-1V6.55h2.83z"/><path d="M9.7 8.43c0 .1.03.18.09.24.05.06.13.1.22.1a.3.3 0 0 0 .22-.1.37.37 0 0 0 .09-.24V8h-.63v.44m.01-1.09c0 .1.03.18.09.24.05.06.13.1.22.1a.3.3 0 0 0 .22-.1c.05-.06.09-.15.09-.24V6.9h-.63v.45m-.86 1.08c0 .1.03.18.09.24s.13.1.22.1a.3.3 0 0 0 .22-.1c.06-.06.1-.14.1-.24V8h-.63v.44m1.73-.01c0 .1.03.18.09.24s.13.1.22.1a.3.3 0 0 0 .22-.1c.06-.06.1-.14.1-.24V8h-.63v.44M9.7 9.5c0 .1.03.18.09.25.05.06.13.1.22.1a.3.3 0 0 0 .22-.1c.05-.07.09-.15.09-.24v-.45h-.63v.45" fill="#039"/></g></svg>