<svg viewBox="0 0 21 15"><g fill="none"><mask id="flag_UKa" fill="#fff"><path d="M0 0h21v15H0z"/></mask><path fill="#22438B" d="M0 0h21v15H0z"/><path fill="#FFF" d="M3 1l-2.03.03L1 3l16.98 11.03 2.04-.04-.04-1.96z" mask="url(#flag_UKa)"/><path fill="#C7152A" d="M2 1L1 2l18 12 1-1z" mask="url(#flag_UKa)"/><path fill="#FFF" d="M18 1h2v2S8.25 10.4 3.02 14.03c-.07.04-2 0-2 0l-.16-1.9L18 1z" mask="url(#flag_UKa)"/><path fill="#C7152A" d="M19.04.97L20 2 2 14l-1-1z" mask="url(#flag_UKa)"/><path fill="#FFF" d="M8 1h5v4h7v5h-7v4H8v-4H1V5h7z" mask="url(#flag_UKa)"/><path fill="#C7152A" d="M9 1h3v5h8v3h-8v5H9V9H1V6h8z" mask="url(#flag_UKa)"/><rect width="20" height="14" x=".5" y=".5" stroke="#2F343A" rx="1"/></g></svg>