<svg viewBox="0 0 130 90" xmlns="http://www.w3.org/2000/svg" xmlns:xlink="http://www.w3.org/1999/xlink"><title>Icon / error / link</title><defs><filter x="-9%" y="-6.4%" width="117.9%" height="117.9%" filterUnits="objectBoundingBox" id="linka"><feOffset dy="2" in="SourceAlpha" result="shadowOffsetOuter1"/><feGaussianBlur stdDeviation="2" in="shadowOffsetOuter1" result="shadowBlurOuter1"/><feColorMatrix values="0 0 0 0 0 0 0 0 0 0 0 0 0 0 0 0 0 0 0.2 0" in="shadowBlurOuter1" result="shadowMatrixOuter1"/><feMerge><feMergeNode in="shadowMatrixOuter1"/><feMergeNode in="SourceGraphic"/></feMerge></filter><path id="linkb" d="M.565.13h46.293v50.854H.565z"/></defs><g fill="none" fill-rule="evenodd"><path d="M79 78V65m20-6H86M48 9v13m-20 6h13" stroke="#F7A600" stroke-width="4" stroke-linecap="round"/><g filter="url(#linka)" transform="translate(23 4)"><path d="M39.59 54.467c-.154.125-.3.26-.432.407L26.655 67.298c-4.378 4.35-11.503 4.35-15.884 0-2.133-2.12-3.308-4.923-3.308-7.892 0-2.967 1.175-5.77 3.31-7.89l13.888-13.8c4.354-4.328 11.43-4.352 15.816-.066a3.716 3.716 0 0 0 2.382 1.208c.99.106 1.97-.18 2.747-.802a3.689 3.689 0 0 0 1.373-2.496 3.684 3.684 0 0 0-.817-2.743 3.544 3.544 0 0 0-.406-.425C42.218 28.914 37.554 27 32.616 27c-4.992 0-9.695 1.94-13.24 5.465l-13.89 13.8C1.95 49.78 0 54.448 0 59.405c0 4.96 1.948 9.63 5.487 13.144A18.65 18.65 0 0 0 18.714 78c4.99 0 9.688-1.936 13.226-5.45l12.5-12.42a3.69 3.69 0 0 0 1.222-2.37 3.679 3.679 0 0 0-.808-2.733 3.763 3.763 0 0 0-5.263-.56" fill="#FFF"/><g transform="translate(31)"><mask id="linkc" fill="#fff"><use xlink:href="#linkb"/></mask><path d="M41.453 5.58C37.96 2.067 33.33.13 28.41.13c-4.898 0-9.518 1.936-13.012 5.45L3.158 17.898a2.103 2.103 0 0 0-.125.105l-.28.282a3.715 3.715 0 0 0-.876 2.704c.075.99.53 1.892 1.278 2.538.75.645 1.69.955 2.687.883a3.66 3.66 0 0 0 2.43-1.183L20.6 10.82c4.314-4.342 11.333-4.342 15.646 0 2.103 2.114 3.26 4.91 3.26 7.87s-1.157 5.755-3.26 7.87l-13.68 13.764c-2.1 2.116-4.88 3.28-7.822 3.28-2.913 0-5.663-1.14-7.756-3.214a3.677 3.677 0 0 0-5.055-.403c-1.58 1.285-1.828 3.624-.563 5.202.128.16.27.31.422.448a18.31 18.31 0 0 0 12.952 5.346c4.72 0 9.436-1.807 13.028-5.422L41.454 31.8a18.484 18.484 0 0 0 5.404-13.11c0-4.947-1.92-9.603-5.405-13.11" fill="#FFF" mask="url(#linkc)"/></g></g></g></svg>