<svg xmlns="http://www.w3.org/2000/svg" viewBox="0 0 92 56"><g fill="none" fill-rule="evenodd"><path fill="#009CDC" d="M46.11 48.75c5.566-5.12 9.067-12.52 9.067-20.75 0-8.232-3.5-15.63-9.067-20.75C41.212 2.74 34.716 0 27.587 0 12.357 0 0 12.534 0 28c0 15.462 12.356 28 27.587 28 7.13 0 13.625-2.744 18.523-7.25"/><path fill="#009CDC" d="M46.11 48.75c5.566-5.12 9.066-12.522 9.066-20.75 0-8.233-3.5-15.63-9.067-20.752"/><path stroke="#009CDC" stroke-width=".1" d="M46.11 48.75c5.566-5.12 9.066-12.522 9.066-20.75 0-8.233-3.5-15.63-9.067-20.752"/><path fill="#ED2233" d="M64.626 0C57.5 0 51 2.74 46.11 7.25c-1 .914-1.932 1.906-2.787 2.964h5.57a28.19 28.19 0 0 1 2.102 2.958h-9.778a29.394 29.394 0 0 0-1.588 2.968h12.95c.44.962.83 1.948 1.17 2.968H38.46a29.944 29.944 0 0 0-.8 2.962h16.896c.407 1.91.622 3.895.622 5.93 0 3.108-.5 6.098-1.422 8.892H38.458a28.809 28.809 0 0 0 1.17 2.968h12.955a28.816 28.816 0 0 1-1.588 2.968h-9.778a27.933 27.933 0 0 0 2.106 2.958h5.57a27.817 27.817 0 0 1-2.784 2.965C51 53.26 57.5 56 64.62 56c15.24 0 27.59-12.538 27.59-28 0-15.465-12.35-28-27.586-28"/><path fill="#ED2233" d="M88.54 43.61c0-.502.398-.907.89-.907.495 0 .89.405.89.906 0 .49-.395.9-.89.9a.902.902 0 0 1-.89-.91zm.89.686c.375 0 .68-.308.68-.687 0-.38-.305-.69-.68-.69a.685.685 0 0 0 0 1.37zm-.118-.292h-.184v-.793h.328c.07 0 .14 0 .202.04.065.04.098.12.098.2 0 .09-.05.17-.135.21l.15.35h-.2l-.12-.31h-.13v.32zm0-.45h.098c.037 0 .08.002.113-.014.03-.02.046-.06.046-.09a.098.098 0 0 0-.05-.084c-.03-.02-.08-.012-.12-.012h-.09v.2z"/><path fill="#003873" d="M23.282 35.79h-3.467l2.04-10.914-4.7 10.914h-2.9l-.57-10.855L11.41 35.79H8.257l2.664-14.196h5.46l.06 8.786 3.78-8.786H26m35.65 14.053c-.943.26-1.675.377-2.47.377-1.756 0-2.716-.896-2.716-2.54 0-.323.034-.668.104-1.032l.206-1.132.162-.915 1.59-8.81h3.416l-.492 2.647h1.75l-.472 2.81H60.97l-.908 4.815c-.04.212-.056.367-.056.476 0 .597.355.856 1.17.856.393 0 .696-.04.926-.11l-.454 2.55m-13.634-7.75c0 1.46.81 2.46 2.645 3.21 1.4.58 1.62.75 1.62 1.27 0 .72-.62 1.04-1.99 1.04-1.04 0-2-.15-3.12-.46l-.47 2.66.15.02.63.12c.2.04.5.07.9.1.83.06 1.46.1 1.91.1 3.66 0 5.35-1.23 5.35-3.86 0-1.58-.7-2.52-2.44-3.21-1.46-.59-1.63-.72-1.63-1.26 0-.62.573-.94 1.7-.94.68 0 1.61.07 2.492.17l.5-2.66c-.9-.13-2.265-.23-3.06-.23-3.88 0-5.228 1.773-5.216 3.91m-13.62 7.9h-2.86l.07-1.2c-.87.944-2.03 1.39-3.605 1.39-1.853 0-3.13-1.28-3.13-3.15 0-2.81 2.22-4.45 6.03-4.45.394 0 .887.03 1.4.09.107-.38.134-.545.134-.75 0-.766-.597-1.05-2.2-1.05-.98 0-2.088.124-2.85.32l-.477.124-.31.073.47-2.594c1.717-.443 2.85-.61 4.117-.61 2.95 0 4.516 1.174 4.516 3.386 0 .57-.06 1.005-.285 2.29-.29 2.01-.78 4.09-1.012 6.13m-2.313-5.14c-.36-.04-.52-.05-.77-.05-1.94 0-2.93.59-2.93 1.756 0 .71.48 1.17 1.23 1.17 1.4 0 2.41-1.18 2.465-2.88m13.6 4.89c-1.18.32-2.316.47-3.52.47-3.84 0-5.837-1.778-5.837-5.17 0-3.968 2.54-6.88 5.995-6.88 2.824 0 4.63 1.63 4.63 4.19 0 .85-.13 1.68-.42 2.85H39.7c-.03.18-.04.26-.04.362 0 1.34 1.02 2.02 3.017 2.02 1.22 0 2.33-.226 3.56-.733l-.57 2.885zM44 28.662c.023-.24.03-.44.03-.585 0-.936-.6-1.49-1.623-1.49-1.097 0-1.875.74-2.19 2.07l3.78.01zm38.32 1.88c-.51 3.84-3.153 5.55-6.666 5.55-3.884 0-5.46-2.392-5.46-5.32 0-4.094 2.66-6.87 6.766-6.87 3.57 0 5.46 2.28 5.46 5.21 0 .71 0 .76-.094 1.43m-3.484-1.38c0-1.21-.485-2.35-1.89-2.35-1.75 0-2.84 2.1-2.84 3.96 0 1.56.745 2.61 1.97 2.59.746 0 2.33-1.03 2.646-2.82.07-.42.11-.89.11-1.38"/><path fill="#FFF" d="M82.706 34.07c0-.502.398-.906.892-.906.487 0 .892.404.892.905 0 .5-.405.9-.892.9a.902.902 0 0 1-.892-.91zm.892.683a.677.677 0 0 0 .674-.684c0-.38-.3-.69-.674-.69a.684.684 0 0 0 .003 1.37zm-.123-.29h-.18v-.792h.33c.068 0 .14 0 .2.04.064.05.1.13.1.2 0 .09-.05.17-.137.21l.144.35h-.202l-.12-.31h-.135v.31zm0-.45h.102c.036 0 .08.003.11-.013.03-.018.05-.06.05-.093 0-.03-.023-.062-.047-.078-.03-.03-.083-.02-.117-.02h-.098v.2zm-59.333.96H20.71l2.04-10.913-4.7 10.914h-3.13l-.574-10.854-2.048 10.854H9.184l2.663-14.196h5.358l.282 8.79 3.78-8.79h5.582M62.51 34.83c-.938.26-1.674.376-2.465.376-1.76 0-2.72-.896-2.72-2.535 0-.32.038-.67.103-1.03l.21-1.12.16-.91 1.592-8.81h3.42l-.49 2.66h1.76l-.47 2.8h-1.77l-.9 4.82c-.04.22-.055.37-.055.48 0 .6.353.86 1.17.86.39 0 .694-.04.924-.11l-.46 2.56"/><path fill="#003873" d="M71.337 26.742l-.08-.367.687-1.807c-.162-.02-.23-.022-.264-.032l-.294-.065c-.104-.01-.217-.03-.346-.03-1.128 0-1.94.51-2.99 1.88l.363-2.05h-3.56L62.74 35.79h3.41c.47-2.648.678-4.154.954-5.402.457-2.08 1.983-3.024 3.07-2.812.12.022.228.025.385.087l.2.08.57-1"/><path fill="#FFF" d="M72.54 23.523c-.287-.115-.35-.115-.388-.127-.184-.038-.28-.063-.294-.066a2.04 2.04 0 0 0-.347-.03c-1.12 0-1.94.51-2.98 1.875l.31-1.745h-3.11l-2.1 11.545h3.44c1.24-7.062 1.76-8.3 3.41-8.3.12 0 .27.01.43.028l.41.084 1.25-3.264M48.9 27.075c0 1.46.813 2.464 2.65 3.217 1.406.578 1.62.75 1.62 1.275 0 .72-.618 1.042-1.992 1.042-1.036 0-2-.15-3.114-.46l-.475 2.66.15.03.64.12c.2.03.51.06.9.09.82.07 1.46.1 1.91.1 3.66 0 5.35-1.22 5.35-3.85 0-1.59-.71-2.52-2.45-3.22-1.46-.59-1.63-.72-1.63-1.26 0-.62.57-.94 1.7-.94.68 0 1.61.06 2.5.17l.49-2.68c-.9-.13-2.26-.23-3.06-.23-3.89 0-5.24 1.77-5.23 3.9M35.3 34.97h-2.85l.065-1.2c-.867.946-2.026 1.397-3.6 1.397-1.862 0-3.137-1.288-3.137-3.154 0-2.814 2.217-4.45 6.027-4.45.39 0 .89.028 1.4.087.105-.38.133-.543.133-.75 0-.763-.594-1.05-2.2-1.05-.978 0-2.09.125-2.854.32l-.472.125-.31.075.476-2.6c1.713-.44 2.844-.61 4.113-.61 2.95 0 4.51 1.174 4.51 3.386 0 .573-.05 1.005-.28 2.287-.27 2.018-.79 4.084-1.01 6.134m-2.51-5.145a6.422 6.422 0 0 0-.76-.046c-1.94 0-2.93.59-2.93 1.753 0 .72.48 1.18 1.23 1.18 1.4 0 2.42-1.18 2.47-2.89m13.78 4.9c-1.18.31-2.31.47-3.52.47-3.83-.01-5.83-1.78-5.83-5.17 0-3.97 2.55-6.89 6-6.89 2.83 0 4.63 1.63 4.63 4.19 0 .85-.12 1.68-.42 2.85H40.6a1.98 1.98 0 0 0-.037.36c0 1.33 1.02 2.02 3.012 2.02 1.23 0 2.335-.23 3.567-.73l-.57 2.88zm-1.83-6.87c.02-.24.03-.44.03-.59 0-.94-.6-1.49-1.62-1.49-1.09 0-1.87.74-2.19 2.07h3.79zm38.48 1.88c-.51 3.84-3.15 5.54-6.67 5.54-3.88 0-5.45-2.4-5.45-5.33 0-4.09 2.66-6.86 6.76-6.86 3.56 0 5.46 2.28 5.46 5.2 0 .71 0 .76-.09 1.43m-3.54-1.47c0-1.21-.48-2.35-1.89-2.35-1.75 0-2.84 2.1-2.84 3.95 0 1.56.75 2.61 1.98 2.59.74 0 2.33-1.03 2.65-2.83.07-.42.11-.88.11-1.38"/></g></svg>