<svg viewBox="0 0 232 85" xmlns="http://www.w3.org/2000/svg" xmlns:xlink="http://www.w3.org/1999/xlink"><title>Mastercard Securecode</title><defs><path id="mastercard_secure_codea" d="M0 .815V37.88h22.501V.815z"/><path id="mastercard_secure_codec" d="M5.4 6.554V.795H.377v5.76H5.4z"/></defs><g fill="none" fill-rule="evenodd"><path d="M220.651 33.537h.488c.18 0 .39.006.538-.083.15-.097.214-.289.214-.459 0-.149-.085-.328-.214-.397-.13-.09-.393-.07-.547-.07h-.479v1.01zm0 2.227h-.876v-3.963h1.59c.322 0 .685.02.965.22.303.221.477.596.477.995 0 .438-.249.85-.647 1l.687 1.748h-.975l-.578-1.553h-.643v1.553zm.583 1.464c1.798 0 3.267-1.544 3.267-3.436 0-1.882-1.469-3.412-3.267-3.412-1.793 0-3.267 1.53-3.267 3.412 0 1.892 1.474 3.436 3.267 3.436zm-4.282-3.436c0-2.486 1.927-4.498 4.282-4.498 2.365 0 4.272 2.012 4.272 4.498 0 2.49-1.907 4.502-4.272 4.502-2.355 0-4.282-2.012-4.282-4.502zM155.747 3.88l-1.17 7.628c-2.545-1.354-4.417-1.885-6.414-1.885-5.332 0-9.102 5.421-9.102 13.158 0 5.345 2.53 8.565 6.693 8.565 1.767 0 3.709-.568 6.084-1.813l-1.25 8.027c-2.63.757-4.342 1.026-6.328 1.026-7.723 0-12.53-5.826-12.53-15.177 0-12.578 6.639-21.362 16.134-21.362 1.226 0 2.32.12 3.212.38l2.953.772c.876.35 1.075.402 1.718.681m-23.772 5.228a3.902 3.902 0 0 0-.73-.073c-2.362 0-3.697 1.248-5.887 4.654l.638-4.345h-6.489l-4.398 28.594h7.196c2.575-17.477 3.233-20.495 6.683-20.495.21 0 .23 0 .522.03.638-3.446 1.51-5.978 2.71-8.288l-.245-.077zM89.097 37.59c-1.947.647-3.484.943-5.138.943-3.654 0-5.651-2.228-5.651-6.291 0-.796.06-1.656.203-2.562l.444-2.79.329-2.276L82.39 5.102h7.12l-.816 4.242h3.665l-1.005 6.952h-3.656l-1.891 11.933c-.066.528-.12.916-.12 1.185 0 1.464.746 2.118 2.44 2.118.826 0 1.449-.086 1.927-.266l-.957 6.324zM60.865 18.387c0 3.608 1.663 6.104 5.428 7.97 2.883 1.434 3.341 1.852 3.341 3.154 0 1.775-1.28 2.599-4.098 2.599-2.127 0-4.113-.355-6.403-1.145l-.992 6.595.324.07 1.314.279c.424.09 1.046.169 1.867.259 1.708.159 3.018.236 3.945.236 7.513 0 10.99-3.035 10.99-9.547 0-3.914-1.45-6.228-5.03-7.961-2.988-1.424-3.327-1.76-3.327-3.087 0-1.55 1.185-2.347 3.486-2.347 1.404 0 3.306.166 5.124.425l1.02-6.602c-1.867-.32-4.64-.565-6.284-.565-7.972 0-10.735 4.389-10.705 9.667m141.359 12.82c3.346 0 5.687-3.974 5.687-9.633 0-3.635-1.335-5.614-3.81-5.614-3.246 0-5.553 3.99-5.553 9.617 0 3.745 1.24 5.63 3.675 5.63zm10.57 6.732h-6.776l.352-2.802c-1.97 2.215-3.998 3.18-6.617 3.18-5.237 0-8.668-4.72-8.668-11.87 0-9.511 5.332-17.54 11.665-17.54 2.786 0 4.89 1.204 6.873 3.913l1.559-10.045h7.06l-5.447 35.164zm-105.03-17.627c.04-.598.05-1.085.05-1.447 0-2.337-1.26-3.7-3.39-3.7-2.27 0-3.899 1.821-4.567 5.127l7.907.02zm4.02 17.026c-2.452.77-4.822 1.158-7.36 1.148-7.987 0-12.16-4.395-12.16-12.8 0-9.826 5.309-17.059 12.523-17.059 5.885 0 9.664 4.053 9.664 10.407 0 2.105-.252 4.156-.89 7.054H99.32c-.06.435-.072.634-.072.886 0 3.343 2.133 5.026 6.3 5.026 2.554 0 4.855-.554 7.43-1.819l-1.195 7.157zm-79.674.6h-7.155l4.097-27.02-9.157 27.02h-4.904l-.593-26.86-4.317 26.86H3.38L8.97 2.776h10.313l.284 21.76 6.961-21.76h11.128zm23.647 0h-5.931l.129-2.968c-1.806 2.367-4.221 3.467-7.503 3.467-3.894 0-6.552-3.186-6.552-7.791 0-6.982 4.645-11.035 12.586-11.035.812 0 1.848.063 2.914.212.224-.945.284-1.354.284-1.854 0-1.89-1.245-2.607-4.602-2.607-2.026 0-4.351.31-5.955.817l-.995.288-.628.186.986-6.413c3.576-1.112 5.93-1.54 8.584-1.54 6.155 0 9.416 2.905 9.416 8.385 0 1.424-.104 2.48-.592 5.673l-1.5 10.131-.244 1.83-.183 1.456-.125.996-.09.767zm-5.21-12.737c-.756-.09-1.09-.123-1.602-.123-4.058 0-6.115 1.479-6.115 4.366 0 1.78 1.01 2.915 2.574 2.915 2.914 0 5.025-2.916 5.144-7.158zm122.752 12.737h-5.94l.139-2.968c-1.807 2.367-4.227 3.467-7.504 3.467-3.893 0-6.562-3.186-6.562-7.791 0-6.982 4.64-11.035 12.597-11.035.807 0 1.853.063 2.914.212.218-.945.283-1.354.283-1.854 0-1.89-1.244-2.607-4.601-2.607-2.036 0-4.356.31-5.945.817l-1.021.288-.617.186.995-6.413c3.58-1.112 5.93-1.54 8.565-1.54 6.164 0 9.426 2.905 9.426 8.385 0 1.424-.125 2.48-.587 5.673l-1.51 10.131-.224 1.83-.2 1.456-.128.996-.08.767zm-5.213-12.737c-.747-.09-1.091-.123-1.594-.123-4.073 0-6.134 1.479-6.134 4.366 0 1.78 1.02 2.915 2.585 2.915 2.927 0 5.013-2.916 5.143-7.158zm25.219-16.093a3.593 3.593 0 0 0-.722-.073c-2.35 0-3.695 1.248-5.894 4.654l.637-4.345h-6.478l-4.383 28.594h7.175c2.575-17.477 3.253-20.495 6.679-20.495.223 0 .209-.02.502.03.647-3.446 1.524-5.978 2.728-8.288l-.244-.077z" fill="#EC1C2D"/><path d="M170.296 65.62c0-7.207-3.56-12.813-10.252-12.813-7.703 0-12.692 6.818-12.692 16.86 0 7.186 2.948 13.065 10.243 13.065 7.359 0 12.7-5.211 12.7-17.112m-7.044-.12c0 6.484-2.007 10.3-5.17 10.3-2.31.07-3.708-2.502-3.708-6.352 0-4.552 2.046-9.71 5.327-9.71 2.64 0 3.55 2.795 3.55 5.763m-13.598-17.753l-1.096 7.618c-2.38-1.344-4.112-1.902-5.985-1.902-5.004 0-8.499 5.444-8.499 13.182 0 5.34 2.34 8.574 6.24 8.574 1.662 0 3.48-.567 5.691-1.812l-1.16 8.02c-2.476.763-4.094 1.026-5.93 1.026-7.21 0-11.702-5.83-11.702-15.181 0-12.584 6.2-21.367 15.077-21.367 1.15 0 2.166.146 3.007.378l2.74.777c.846.335 1.02.395 1.617.687m-44.287 5.235a2.586 2.586 0 0 0-.687-.08c-2.17 0-3.446 1.255-5.483 4.65l.593-4.338h-6.055l-4.088 28.597h6.688c2.404-17.493 3.042-20.505 6.248-20.505.19 0 .21 0 .488.033.603-3.459 1.414-5.995 2.54-8.308l-.244-.05zm77.469 21.799c3.152 0 5.323-3.97 5.323-9.637 0-3.644-1.24-5.6-3.54-5.6-3.043 0-5.204 3.974-5.204 9.62 0 3.725 1.16 5.617 3.42 5.617zm9.889 6.725h-6.32l.325-2.791c-1.837 2.2-3.75 3.176-6.194 3.176-4.875 0-8.092-4.727-8.092-11.877 0-9.494 4.995-17.547 10.9-17.547 2.604 0 4.58 1.23 6.408 3.94l1.475-10.054h6.582l-5.084 35.153zM38.911 64.375c.03-.604.05-1.085.05-1.454 0-2.33-1.175-3.694-3.161-3.694-2.137 0-3.656 1.835-4.268 5.118l7.379.03zm3.74 17.013c-2.276.786-4.492 1.165-6.851 1.165-7.47 0-11.368-4.406-11.368-12.807 0-9.812 4.959-17.052 11.691-17.052 5.512 0 9.027 4.046 9.027 10.4 0 2.101-.239 4.16-.811 7.057H31.01a8.97 8.97 0 0 0-.055.89c0 3.333 1.996 5.015 5.875 5.015 2.391 0 4.551-.557 6.946-1.812l-1.125 7.144zm75.796-17.013c.045-.604.07-1.085.07-1.454 0-2.33-1.185-3.694-3.164-3.694-2.136 0-3.655 1.835-4.272 5.118l7.366.03zm3.76 17.013c-2.28.786-4.502 1.165-6.854 1.165-7.484 0-11.378-4.406-11.378-12.807 0-9.812 4.965-17.052 11.692-17.052 5.513 0 9.04 4.046 9.04 10.4 0 2.101-.25 4.16-.843 7.057h-13.3c-.04.428-.065.641-.065.89 0 3.333 1.991 5.015 5.872 5.015 2.39 0 4.555-.557 6.951-1.812l-1.116 7.144zm89.577-17.013c.029-.604.049-1.085.049-1.454 0-2.33-1.17-3.694-3.161-3.694-2.137 0-3.651 1.835-4.268 5.118l7.38.03zm3.759 17.013c-2.311.786-4.501 1.165-6.871 1.165-7.469 0-11.378-4.406-11.378-12.807 0-9.812 4.974-17.052 11.701-17.052 5.513 0 9.022 4.046 9.022 10.4 0 2.101-.228 4.16-.821 7.057h-13.314a7.649 7.649 0 0 0-.055.89c0 3.333 1.996 5.015 5.875 5.015 2.395 0 4.551-.557 6.951-1.812l-1.11 7.144z" fill="#FBB131"/><g transform="translate(2 44.732)"><mask id="mastercard_secure_codeb" fill="#fff"><use xlink:href="#mastercard_secure_codea"/></mask><path d="M20.853 9.545c-1.31-.876-3.082-1.643-5.587-1.643-2.704 0-4.88.56-4.88 3.439 0 5.079 9.86 3.183 9.86 14.06 0 9.91-6.508 12.479-12.394 12.479-2.619 0-5.632-.866-7.853-1.852l1.6-7.283c1.338 1.218 4.042 2.05 6.253 2.05 2.106 0 5.407-.573 5.407-4.25 0-5.757-9.853-3.616-9.853-13.72 0-9.242 5.756-12.01 11.307-12.01 3.127 0 6.065.458 7.788 1.603l-1.648 7.127z" fill="#FBB131" mask="url(#mastercard_secure_codeb)"/></g><path d="M62.234 81.377c-1.379.665-3.222 1.103-5.94 1.103-5.846 0-9.47-5.843-9.47-12.957 0-9.31 5.242-16.736 12.96-16.736 1.683 0 4.253.727 6.28 1.901l-1.479 6.83c-1.435-.944-2.928-1.541-4.467-1.541-3.575 0-6.13 3.276-6.13 9.149 0 3.378 1.852 6.153 4.78 6.153 1.743 0 2.968-.367 4.467-1.245l-1 7.343zm25.016-7.16c-.343 2.46-.662 4.85-.852 7.416H79.96l.543-4.62h-.066c-2.016 3.14-4.102 5.277-7.748 5.277-4.043 0-6.233-4.252-6.233-9.806 0-1.915.119-2.997.548-5.988l1.822-13.235h7.165L74.07 66.536c-.194 1.427-.467 2.841-.467 4.315 0 1.673.76 3.366 2.693 3.263 2.937 0 4.67-3.59 5.163-7.784l1.978-13.069h6.935L87.25 74.217zm134.968 7.069h-1.083v-4.74h-1.565v-1.019h4.215v1.02h-1.567z" fill="#FBB131"/><g transform="translate(224 74.732)"><mask id="mastercard_secure_coded" fill="#fff"><use xlink:href="#mastercard_secure_codec"/></mask><path fill="#FBB131" mask="url(#mastercard_secure_coded)" d="M5.4 6.554H4.39V1.742h-.015l-.967 4.812H2.346l-.945-4.812h-.015v4.812H.377V.795h1.58l.938 4.54h.015l.924-4.54H5.4z"/></g></g></svg>