<svg xmlns="http://www.w3.org/2000/svg" viewBox="0 0 40 40"><path fill="currentColor" fill-rule="evenodd" d="M27.78 36.196c-8.924 4.334-19.66.592-23.98-8.357-4.322-8.95-.592-19.72 8.33-24.05a17.812 17.812 0 0 1 11.077-1.488c-.672.214-1.34.46-1.994.776-7.27 3.532-10.31 12.304-6.788 19.596 3.522 7.29 12.27 10.34 19.54 6.81.652-.32 1.258-.693 1.842-1.09-1.725 3.277-4.45 6.06-8.028 7.798zm7.486-11.968h-.068a2.64 2.64 0 0 0-2.283-2.29v-.067a2.635 2.635 0 0 0 2.283-2.29h.068a2.63 2.63 0 0 0 2.283 2.29v.07a2.632 2.632 0 0 0-2.288 2.29zm-11.69-8.198a4.025 4.025 0 0 0 3.487 3.5v.102a4.027 4.027 0 0 0-3.488 3.498h-.103a4.03 4.03 0 0 0-3.488-3.498v-.103a4.036 4.036 0 0 0 3.488-3.5h.103zm.863-6.483c2.36-.3 4.21-2.16 4.51-4.527h.132a5.213 5.213 0 0 0 4.513 4.527v.133a5.213 5.213 0 0 0-4.514 4.527h-.132a5.214 5.214 0 0 0-4.514-4.527v-.133z"/></svg>