<svg xmlns="http://www.w3.org/2000/svg" viewBox="0 0 102 27"><g fill="none" fill-rule="evenodd"><path fill="#0016C7" d="M18.556 1.98C17.366.595 15.213 0 12.46 0H4.466c-.563 0-1.042.418-1.13.986L.008 22.535a.696.696 0 0 0 .678.81H5.62l1.24-8.026-.04.251a1.15 1.15 0 0 1 1.127-.985h2.345c4.607 0 8.213-1.91 9.266-7.437.032-.163.059-.322.083-.477-.134-.072-.134-.072 0 0 .313-2.042-.002-3.433-1.085-4.691z"/><path fill="#3FC2FF" d="M78.962 12.235c-.301 2.022-1.813 2.022-3.277 2.022h-.832l.583-3.775a.462.462 0 0 1 .455-.397h.381c.997 0 1.937 0 2.422.58.29.346.378.86.268 1.57zm-.636-5.276h-5.518a.77.77 0 0 0-.757.66L69.82 22.066a.466.466 0 0 0 .453.543h2.832a.54.54 0 0 0 .53-.462l.633-4.097c.059-.38.38-.66.757-.66h1.746c3.634 0 5.732-1.796 6.28-5.356.247-1.555.01-2.778-.704-3.635-.784-.941-2.175-1.439-4.021-1.439z"/><path fill="#0066B2" d="M39.608 12.235c-.301 2.022-1.813 2.022-3.277 2.022h-.832l.583-3.775a.462.462 0 0 1 .455-.397h.381c.997 0 1.937 0 2.422.58.29.346.378.86.268 1.57zm-.637-5.276h-5.517a.77.77 0 0 0-.757.66l-2.231 14.446a.466.466 0 0 0 .453.543h2.635c.378 0 .698-.28.758-.66l.602-3.899c.059-.38.38-.66.757-.66h1.746c3.634 0 5.732-1.796 6.28-5.356.247-1.555.01-2.778-.704-3.635-.785-.941-2.175-1.439-4.022-1.439zm12.81 10.462c-.255 1.54-1.454 2.576-2.982 2.576-.766 0-1.38-.252-1.774-.729-.39-.471-.538-1.145-.414-1.893.237-1.529 1.455-2.596 2.96-2.596.75 0 1.36.253 1.762.734.405.485.564 1.161.448 1.908zm3.682-5.25h-2.641a.464.464 0 0 0-.455.396l-.117.754-.184-.273c-.572-.848-1.848-1.132-3.121-1.132-2.919 0-5.412 2.259-5.897 5.427-.253 1.58.105 3.09.984 4.144.805.968 1.956 1.371 3.326 1.371 2.354 0 3.659-1.542 3.659-1.542l-.118.749a.466.466 0 0 0 .454.543h2.38c.377 0 .697-.28.757-.66l1.428-9.236a.466.466 0 0 0-.455-.542z"/><path fill="#3FC2FF" d="M91.135 17.42c-.255 1.542-1.453 2.577-2.982 2.577-.766 0-1.38-.252-1.774-.729-.391-.471-.538-1.145-.414-1.893.237-1.529 1.456-2.596 2.961-2.596.75 0 1.359.253 1.761.734.405.485.564 1.161.448 1.908zm3.683-5.25h-2.642a.464.464 0 0 0-.455.397l-.116.754-.185-.273c-.572-.848-1.847-1.132-3.121-1.132-2.918 0-5.412 2.259-5.897 5.427-.252 1.58.106 3.09.984 4.144.805.968 1.956 1.371 3.327 1.371 2.353 0 3.658-1.542 3.658-1.542l-.118.749a.466.466 0 0 0 .454.543h2.38a.77.77 0 0 0 .757-.66l1.429-9.236a.466.466 0 0 0-.455-.542z"/><path fill="#0066B2" d="M69.536 12.17H66.88a.76.76 0 0 0-.634.344l-3.663 5.509-1.553-5.294a.77.77 0 0 0-.735-.559h-2.61a.469.469 0 0 0-.436.621l2.924 8.765-2.75 3.96c-.215.312.002.742.376.742h2.653a.764.764 0 0 0 .63-.336l8.831-13.015c.211-.312-.006-.737-.377-.737z"/><path fill="#3FC2FF" d="M97.932 7.356l-2.264 14.71a.467.467 0 0 0 .454.542H98.4a.77.77 0 0 0 .756-.66l2.234-14.446a.467.467 0 0 0-.455-.543h-2.548a.462.462 0 0 0-.455.397z"/><path fill="#0016C7" d="M18.556 1.98C17.366.595 15.213 0 12.46 0H4.466c-.563 0-1.042.418-1.13.986L.008 22.535a.696.696 0 0 0 .678.81H5.62l1.24-8.026-.04.251a1.15 1.15 0 0 1 1.127-.985h2.345c4.607 0 8.213-1.91 9.266-7.437.032-.163.059-.322.083-.477-.134-.072-.134-.072 0 0 .313-2.042-.002-3.433-1.085-4.691z"/><path fill="#1C548E" d="M8.191 6.699c.053-.341.268-.621.556-.763a.994.994 0 0 1 .433-.1h6.265c.743 0 1.435.05 2.067.154a8.42 8.42 0 0 1 1.263.308c.31.106.6.23.866.374.313-2.043-.002-3.433-1.085-4.691C17.364.595 15.213 0 12.46 0H4.466c-.563 0-1.042.418-1.13.986L.008 22.536a.695.695 0 0 0 .678.808H5.62l1.24-8.024 1.33-8.621z"/><path fill="#3FC2FF" d="M19.64 6.672c-.024.156-.05.314-.082.477-1.053 5.526-4.66 7.437-9.266 7.437H7.946c-.562 0-1.037.418-1.124.985L5.62 23.344l-.34 2.206a.61.61 0 0 0 .592.708h4.16c.492 0 .911-.365.988-.862l.04-.216.784-5.073.051-.28c.077-.496.496-.862.988-.862h.622c4.03 0 7.185-1.671 8.107-6.505.385-2.02.186-3.707-.832-4.891a3.99 3.99 0 0 0-1.14-.897z"/><path fill="#000C8E" d="M18.537 6.223a7.38 7.38 0 0 0-.497-.13 9.15 9.15 0 0 0-.527-.103 12.803 12.803 0 0 0-2.068-.154H9.18a.968.968 0 0 0-.432.1c-.29.142-.504.42-.556.763l-1.333 8.62-.037.252a1.147 1.147 0 0 1 1.124-.985h2.346c4.607 0 8.213-1.91 9.267-7.437.032-.163.058-.32.082-.477a5.604 5.604 0 0 0-1.104-.45z"/></g></svg>