<svg id="Layer_1" 
  xmlns="http://www.w3.org/2000/svg" viewBox="0 0 316 512">
  <style>.st7{fill:#252e65}</style>
  <linearGradient id="SVGID_1_" gradientUnits="userSpaceOnUse" x1="-2121.826" y1="181.309" x2="-1879.657" y2="423.478" gradientTransform="matrix(1.0239 0 0 1 2261.274 0)">
    <stop offset=".335" stop-color="#a1a7c2"/>
    <stop offset=".574" stop-color="#a1a7c2"/>
  </linearGradient>
  <path d="M247.9 25.9l19.7.1c12.3.1 22.2 10.4 22.1 23.1v409.5c.2 12.2-13.9 31-35.8 31H66.8c-8.4 0-16-4.8-19.8-12.5l-15.2-33.9L247.9 25.9z" opacity=".65" fill="url(#SVGID_1_)"/>
  <linearGradient id="SVGID_2_" gradientUnits="userSpaceOnUse" x1="251.849" y1="-120.18" x2="251.849" y2="334.828" gradientTransform="matrix(.9898 .00423 -.00427 1 -95.389 141.888)">
    <stop offset="0" stop-color="#f6b2b3"/>
    <stop offset=".362" stop-color="#edb0b4"/>
    <stop offset=".549" stop-color="#8d99c1"/>
    <stop offset=".652" stop-color="#5e8ec8"/>
  </linearGradient>
  <path d="M279 448.2c-.1 16.7-13.7 30.1-30.4 30l-192.1-.8c-16.7-.1-30.3-13.6-30.2-30.3L28 52.4c.1-16.7 13.7-30.1 30.4-30l192.1.8c16.7.1 30.3 13.6 30.2 30.3L279 448.2z" fill="url(#SVGID_2_)"/>
  <linearGradient id="SVGID_3_" gradientUnits="userSpaceOnUse" x1="201.338" y1="54.861" x2="201.338" y2="509.037" gradientTransform="matrix(.986 -.01533 .01517 .9927 -49.357 -27.185)">
    <stop offset="0" stop-color="#242f65"/>
    <stop offset=".329" stop-color="#273368"/>
    <stop offset=".637" stop-color="#303e71"/>
    <stop offset=".935" stop-color="#3e5181"/>
    <stop offset="1" stop-color="#425685"/>
  </linearGradient>
  <path d="M274.2 444.2c-.1 16.4-13.2 29.6-29.3 29.5L60 472.9c-16.1-.1-29.1-13.4-29-29.8l1.7-388c.1-16.4 13.2-29.6 29.3-29.5l184.9.8c16.1.1 29.1 13.4 29 29.8l-1.7 388z" fill="url(#SVGID_3_)"/>
  <path d="M178.1 40.6c0 .9-.9 1.7-2 1.7l-35.8-.2c-1.1 0-1.9-.8-1.9-1.7 0-.9.9-1.7 2-1.7l35.8.2c1 .1 1.9.8 1.9 1.7z" fill="#5e8ec8"/>
  <linearGradient id="SVGID_4_" gradientUnits="userSpaceOnUse" x1="153.532" y1="64.073" x2="153.532" y2="433.705">
    <stop offset=".305" stop-color="#7da4d2"/>
    <stop offset="1" stop-color="#5e8ec8"/>
  </linearGradient>
  <path fill="url(#SVGID_4_)" d="M40.2 64.1h226.7v369.6H40.2z"/>
  <linearGradient id="SVGID_5_" gradientUnits="userSpaceOnUse" x1="153.532" y1="115.88" x2="153.532" y2="433.705">
    <stop offset=".043" stop-color="#9dbbde"/>
    <stop offset="1" stop-color="#9dbbde" stop-opacity="0"/>
  </linearGradient>
  <path fill="url(#SVGID_5_)" d="M266.9 386.6L40.2 115.9v317.8h226.7z"/>
  <path d="M218.8 254.4H87.4c-2.6 0-4.6-1.8-4.6-4v-29.8c0-2.2 2.1-4 4.6-4h131.4c2.6 0 4.6 1.8 4.6 4v29.8c.1 2.2-2 4-4.6 4z" fill="#f7f9fa"/>
  <circle class="st7" cx="97" cy="236.1" r="4.9"/>
  <circle class="st7" cx="113.7" cy="236.1" r="4.9"/>
  <circle class="st7" cx="130.3" cy="236.1" r="4.9"/>
  <circle class="st7" cx="147" cy="236.1" r="4.9"/>
  <circle class="st7" cx="163.6" cy="236.1" r="4.9"/>
  <circle class="st7" cx="180.3" cy="236.1" r="4.9"/>
  <path fill="#ef4849" d="M83.8 200h138v10.7h-138z"/>
  <path d="M83.6 251.1v-29.8c0-2.2 2.1-4 4.6-4h131.4c1.1 0 2 .3 2.8.8-.8-.9-2.1-1.5-3.6-1.5H87.4c-2.6 0-4.6 1.8-4.6 4v29.8c0 1.3.7 2.4 1.8 3.2-.6-.7-1-1.6-1-2.5z" fill="#425585"/>
  <linearGradient id="SVGID_6_" gradientUnits="userSpaceOnUse" x1="66.793" y1="139.126" x2="85.268" y2="139.126">
    <stop offset=".086" stop-color="#f7f9fa"/>
    <stop offset=".246" stop-color="#f7f9fa"/>
  </linearGradient>
  <path d="M85.3 106.4v65.4h-9.2v-55.4l-9.3 5.7v-9.5l9.3-6.2h9.2z" fill="url(#SVGID_6_)"/>
  <linearGradient id="SVGID_7_" gradientUnits="userSpaceOnUse" x1="100.103" y1="139.126" x2="137.413" y2="139.126">
    <stop offset=".086" stop-color="#f7f9fa"/>
    <stop offset=".246" stop-color="#f7f9fa"/>
  </linearGradient>
  <path d="M118.8 172.6c-6.2 0-10.9-1.7-14-5-3.1-3.3-4.7-7.9-4.7-13.6v-29.8c0-5.8 1.6-10.3 4.7-13.6 3.1-3.3 7.8-4.9 13.9-4.9 6.2 0 10.8 1.6 14 4.9 3.1 3.3 4.7 7.8 4.7 13.6V154c0 5.8-1.6 10.3-4.7 13.6-3.2 3.4-7.8 5-13.9 5zm0-8.7c3.4 0 5.8-.9 7.3-2.6 1.5-1.8 2.2-4.2 2.2-7.2v-29.8c0-3.1-.7-5.5-2.2-7.2-1.5-1.7-3.9-2.6-7.3-2.6s-5.8.9-7.3 2.6c-1.5 1.7-2.2 4.2-2.2 7.2v29.8c0 3.1.7 5.5 2.2 7.2 1.5 1.7 3.9 2.6 7.3 2.6z" fill="url(#SVGID_7_)"/>
  <linearGradient id="SVGID_8_" gradientUnits="userSpaceOnUse" x1="149.999" y1="138.721" x2="159.169" y2="138.721">
    <stop offset=".086" stop-color="#f7f9fa"/>
    <stop offset=".246" stop-color="#f7f9fa"/>
  </linearGradient>
  <path d="M150 124.6v-9.2h9.2v9.2H150zm0 37.5v-9.2h9.2v9.2H150z" fill="url(#SVGID_8_)"/>
  <linearGradient id="SVGID_9_" gradientUnits="userSpaceOnUse" x1="170.518" y1="139.126" x2="188.993" y2="139.126">
    <stop offset=".086" stop-color="#f7f9fa"/>
    <stop offset=".246" stop-color="#f7f9fa"/>
  </linearGradient>
  <path d="M189 106.4v65.4h-9.2v-55.4l-9.3 5.7v-9.5l9.3-6.2h9.2z" fill="url(#SVGID_9_)"/>
  <linearGradient id="SVGID_10_" gradientUnits="userSpaceOnUse" x1="201.13" y1="139.126" x2="239.474" y2="139.126">
    <stop offset=".086" stop-color="#f7f9fa"/>
    <stop offset=".246" stop-color="#f7f9fa"/>
  </linearGradient>
  <path d="M220.7 172.6c-5.5 0-10-1.4-13.4-4.3s-5.5-6.9-6.2-12.2h9.4c.4 2.5 1.5 4.4 3.3 5.7 1.8 1.3 4.1 2 6.9 2 3 0 5.4-.8 7.1-2.4 1.7-1.6 2.5-3.9 2.5-6.8v-2.1c0-3.3-.8-5.8-2.4-7.6-1.6-1.8-3.8-2.7-6.7-2.7h-4.6v-8.7h4.6c2.6 0 4.6-.8 6-2.3 1.4-1.5 2.1-3.7 2.1-6.5v-2.2c0-2.6-.7-4.6-2.2-6-1.5-1.4-3.6-2.1-6.3-2.1-2.3 0-4.3.6-5.9 1.9-1.6 1.3-2.7 3-3.3 5.3h-9.3c.9-5.1 3-9 6.2-11.8 3.2-2.8 7.3-4.2 12.2-4.2 5.6 0 10 1.5 13.1 4.5 3.1 3 4.7 7.1 4.7 12.5v2.1c0 3.1-.9 5.7-2.7 8-1.8 2.3-4.3 3.9-7.5 5 3.6.7 6.3 2.4 8.3 4.9 2 2.6 2.9 5.9 2.9 9.8v2.1c0 5.7-1.6 10.2-4.9 13.3-3.3 3.2-7.9 4.8-13.9 4.8z" fill="url(#SVGID_10_)"/>
</svg>