<svg viewBox="0 0 24 24" xmlns="http://www.w3.org/2000/svg"><title>Public transport</title><g fill="none" fill-rule="evenodd"><path d="M14.053 10.957c.141.218 1.454 2.54 1.775 3.737a6.514 6.514 0 0 1-.068 3.483c-.036.117-.04.247-.044.372-.018.41-.025.819-.045 1.227-.007.162-.101.227-.269.222-.401-.01-.803-.01-1.205 0-.182.006-.262-.076-.281-.24-.018-.15-.038-.299-.042-.448-.006-.258 0-.517 0-.802-3.378.142-6.293.142-9.721-.004 0 .316.002.6-.003.882 0 .127-.01.253-.028.378-.024.158-.101.243-.286.236-.378-.015-.756-.003-1.135-.005-.292 0-.339-.034-.36-.335-.02-.284.006-.57-.026-.852-.054-.451-.134-.898-.211-1.347-.244-1.393-.048-2.744.49-4.033.407-.97 1.256-2.248 1.428-2.52.505-.801 1.265-1.149 2.165-1.31.208-.037.472-.07.775-.098v-.895c0-.12.1-.219.22-.219l3.67.005a.22.22 0 0 1 .218.22l-.001.897c.329.032.644.072.933.123.886.128 1.565.574 2.051 1.326zm-4.88 2.75c1.657.01 4.62-.015 4.923-.238.193-.143-.47-1.603-1.04-2.264-.262-.302-.642-.572-1.038-.644a12.872 12.872 0 0 0-1.266-.173c-1.539-.154-2.859-.135-4.382.144-.396.072-.856.162-1.14.402-.779.662-1.344 2.339-1.193 2.497.208.217 3.373.267 5.136.277zm4.744 3.073a1.033 1.033 0 0 0 1.04-1.03 1.062 1.062 0 0 0-1.045-1.059 1.051 1.051 0 0 0-1.036 1.065 1.025 1.025 0 0 0 1.041 1.024zm-9.787 0a1.042 1.042 0 0 0 1.037-1.036c.002-.569-.49-1.06-1.056-1.053a1.044 1.044 0 0 0-1.028 1.07c.01.581.465 1.023 1.047 1.019zM21.774 5.912c.5 2.789.013 11.306.013 11.306a3.463 3.463 0 0 1-.058.427l-.105.491a2.48 2.48 0 0 0-.046.429v.962a.217.217 0 0 1-.216.216h-1.837a.217.217 0 0 1-.216-.216v-.962a.209.209 0 0 0-.215-.21l-1.952.055a.179.179 0 0 1-.187-.209s.29-2.22-.023-3.479c-.09-.335-.34-.95-.34-.95-.046-.11.015-.195.133-.19l3.745.168a.19.19 0 0 0 .212-.197l-.077-6.084a.255.255 0 0 0-.217-.242s-2.784-.333-5.567-.349c-2.622-.015-5.385.347-5.385.347-.118.015-.323.205-.442.207l-.877.024a.19.19 0 0 1-.2-.207s.062-.607.14-1.221c.075-.58.512-1.405 1.049-1.55C10.333 4.148 12.045 4 14.84 4c3.188 0 4.466.209 5.475.478.985.263 1.354.85 1.46 1.434z" fill="currentColor" fill-rule="nonzero"/><path d="M0 0h24v24H0z"/></g></svg>