<svg viewBox="0 0 96 64" xmlns="http://www.w3.org/2000/svg" xmlns:xlink="http://www.w3.org/1999/xlink"><defs><rect id="soforta" width="96" height="64" rx="5"/></defs><g fill="none" fill-rule="evenodd"><mask id="sofortb" fill="#fff"><use xlink:href="#soforta"/></mask><g mask="url(#sofortb)" fill="#EB6F93"><path d="M0 0h96v64H0z"/></g><path d="M28.8 57.2c2.2 0 3.8-1.4 3.8-3.6 0-2-1.4-2.8-3-3.4-1.2-.3-1.9-.5-1.9-1.3 0-.7.5-1.2 1.3-1.2.6 0 1 .4 1.4 1l1.8-1.2c-.5-1.2-1.8-1.9-3.2-1.9-2.2 0-3.5 1.6-3.5 3.4 0 1.5.8 2.6 3 3.2 1.1.3 1.9.6 1.9 1.5s-.6 1.4-1.6 1.4-1.7-.6-2.1-1.2l-1.5 1.5c.8 1.1 2 1.8 3.6 1.8zm8.8 0c-2.3 0-4.2-1.8-4.2-4s1.9-4.2 4.2-4.2c2.3 0 4.2 1.9 4.2 4.1s-1.9 4.1-4.2 4.1zm0-2a2 2 0 0 0 2-2c0-1.2-.9-2.1-2-2.1s-2 .9-2 2c0 1.2.9 2 2 2zm9.6-7.4v-2h-.4c-2.6 0-3.9 1.8-3.9 3.8V57h2.2v-3.2c0-1.1.8-1.9 2-1.9v-2c-.9 0-1.5.2-2 .7v-.8c0-1.4.9-2 2-2zm4.7 9.4c-2.3 0-4.2-1.8-4.2-4s2-4.2 4.2-4.2c2.3 0 4.2 1.9 4.2 4.1s-1.9 4.1-4.2 4.1zm0-2a2 2 0 0 0 2-2C54 52 53 51 52 51s-2 .9-2 2c0 1.2.9 2 2 2zm7.5-5v-1h-2.1V57h2.1v-3.5c0-1.3.8-2 2.1-2V49c-1 0-1.7.3-2.1 1zm5.5 2.8v-1.8c.5.5 1.2.7 2 .7v-2c-1.1 0-2-.9-2-2v-1.1h-2.1v6.4c0 2 1.2 3.8 3.9 3.8h.3v-2c-1.2 0-2-.6-2-2zm4.7 4.1c.8 0 1.5-.6 1.5-1.4 0-.8-.7-1.5-1.5-1.5s-1.4.7-1.4 1.5.6 1.4 1.4 1.4z" fill="#FFF"/><g fill-rule="nonzero" fill="#FFF"><path d="M44.6 29.7c.6.7.6 1.8 0 2.5l-.1.1a1.7 1.7 0 0 1-2.5 0l-3.8-3.7c-1-1.1-1.2-2.4-.6-3.1l.2-.2a1.6 1.6 0 0 1 2 0 .7.7 0 0 0 1-1.2 3 3 0 0 0-4 .3l-.2.1c-1.2 1.3-1 3.5.6 5l3.8 3.8a3.1 3.1 0 0 0 4.4 0l.2-.2a3.1 3.1 0 0 0 0-4.3.7.7 0 0 0-1 1zM42.3 9.1l1.5 13a.7.7 0 0 0 1.4-.2l-1.6-13c-.3-1.1.4-2.3 1.3-2.5a2 2 0 0 1 2.3 1.5l2.7 11.6a.7.7 0 0 0 1.3-.3L48.5 7.6A3.3 3.3 0 0 0 44.6 5c-1.7.4-2.8 2.3-2.3 4.1z"/><path d="M56.7 24.3l3.1-15.5A3.3 3.3 0 0 0 57.5 5a3.4 3.4 0 0 0-4.1 2.4l-3.5 11.8a.7.7 0 1 0 1.3.4l3.5-11.8a2 2 0 0 1 2.5-1.5c.9.3 1.5 1.3 1.2 2.2l-3 15.5a.7.7 0 1 0 1.3.3zm-7.8 15c-5 0-9-3.7-9-8.8a.7.7 0 0 0-1.5 0c0 6 4.8 10.1 10.5 10.1a.7.7 0 1 0 0-1.4zm-2.5-12.1a1.7 1.7 0 0 1-.6 1h-.2a1.7 1.7 0 0 1-2.4-.5l-3-4.5c-.8-1.2-.7-2.5 0-3l.2-.2c1-.5 1.9-.1 2.8 1.2l2.5 3.8a.7.7 0 0 0 1.1-.8l-2.5-3.8c-1.2-1.8-2.8-2.6-4.6-1.5l-.2.1c-1.5 1-1.7 3.2-.5 5l3 4.5a3.1 3.1 0 0 0 4.4.9l.1-.1a3.1 3.1 0 0 0 1.3-1.8.7.7 0 1 0-1.4-.3z"/><path d="M51 29.4c-1.4.8-2.3 2.4-2.4 4.6a.7.7 0 0 0 1.3.1c.1-2 1-3.2 2.3-3.7a4.7 4.7 0 0 1 2.2-.2c1 .2 1.2-1.1.3-1.3l-5.3-1.2C47 27 46.5 26 47 24.5c.2-.6.6-1 1.2-1.1a3.4 3.4 0 0 1 1.6 0l8 2h.2l.4.3c.6.6.8 1.6.7 3.4-.5 6.3-3.5 10.2-10.4 10.1a.7.7 0 1 0 0 1.4c7.8 0 11.2-4.4 11.8-11.4.2-2.1-.2-3.6-1-4.5-.5-.5-1-.7-1.4-.7l-8-1.9a3.7 3.7 0 0 0-.3 0c-.6-.2-1.3-.2-1.9 0-1 .2-1.9.9-2.2 2-.7 2.3 0 4 3.4 5l2 .3z"/></g></g></svg>