<svg viewBox="0 0 130 90" xmlns="http://www.w3.org/2000/svg" xmlns:xlink="http://www.w3.org/1999/xlink"><title>Icon / error / soldout</title><defs><path d="M75 60H3.994A4.002 4.002 0 0 1 0 55.993V4.007A3.998 3.998 0 0 1 3.994 0H75c0 2.21 1.79 4 4 4s4-1.79 4-4h11.006A4.002 4.002 0 0 1 98 4.007v51.986A3.998 3.998 0 0 1 94.006 60H83c0-2.21-1.79-4-4-4s-4 1.79-4 4z" id="soldoutb"/><filter x="-6.6%" y="-9.2%" width="113.3%" height="121.7%" filterUnits="objectBoundingBox" id="soldouta"><feOffset dy="1" in="SourceAlpha" result="shadowOffsetOuter1"/><feGaussianBlur stdDeviation="2" in="shadowOffsetOuter1" result="shadowBlurOuter1"/><feColorMatrix values="0 0 0 0 0 0 0 0 0 0 0 0 0 0 0 0 0 0 0.2 0" in="shadowBlurOuter1"/></filter></defs><g fill="none" fill-rule="evenodd"><path d="M0 0h130v90H0z"/><g transform="translate(17 19)"><g transform="matrix(-1 0 0 1 98 0)"><use fill="#000" filter="url(#soldouta)" xlink:href="#soldoutb"/><use fill="#FFF" xlink:href="#soldoutb"/></g><rect fill="#D8D8D8" x="33" y="13" width="34" height="4" rx="2"/><path d="M33 30c0-1.105.895-2 1.994-2h12.012c1.1 0 1.994.888 1.994 2 0 1.105-.895 2-1.994 2H34.994c-1.1 0-1.994-.888-1.994-2z" fill="#D8D8D8"/><rect fill="#D8D8D8" x="33" y="23" width="8" height="4" rx="2"/></g><g transform="translate(98 10)" stroke="#F7A600" stroke-width="4"><circle cx="15" cy="15" r="15"/><path d="M4.355 24.677L24.34 4.692" stroke-linecap="square"/></g></g></svg>