<svg viewBox="0 0 312 235" xmlns="http://www.w3.org/2000/svg"><title>error-results-outdated</title><defs><linearGradient x1="48.854%" y1="4.893%" x2="51.175%" y2="94.034%" id="timeouta"><stop stop-color="#BFD2E8" offset="0%"/><stop stop-color="#B4CAE4" offset="2.154%"/><stop stop-color="#99B8DC" offset="8.438%"/><stop stop-color="#83A8D4" offset="15.67%"/><stop stop-color="#729CCF" offset="24.1%"/><stop stop-color="#6794CB" offset="34.55%"/><stop stop-color="#608FC9" offset="49.19%"/><stop stop-color="#5E8EC8" offset="89.84%"/></linearGradient><linearGradient x1="50.552%" y1="5.65%" x2="49.449%" y2="94.319%" id="timeoutb"><stop stop-color="#F6B2B3" offset="0%"/><stop stop-color="#EDB0B4" offset="36.17%"/><stop stop-color="#8D99C1" offset="54.95%"/><stop stop-color="#5E8EC8" offset="65.17%"/></linearGradient><linearGradient x1="48.77%" y1="5.471%" x2="51.232%" y2="94.498%" id="timeoutc"><stop stop-color="#242F65" offset="0%"/><stop stop-color="#273368" offset="32.94%"/><stop stop-color="#303E71" offset="63.68%"/><stop stop-color="#3E5181" offset="93.47%"/><stop stop-color="#425685" offset="100%"/></linearGradient><linearGradient x1="48.91%" y1="6.759%" x2="51.075%" y2="92.544%" id="timeoutd"><stop stop-color="#7DA4D2" offset="0%"/><stop stop-color="#9DBCDF" offset="11.16%"/><stop stop-color="#B6D0E9" offset="22.69%"/><stop stop-color="#C6DCF0" offset="33.15%"/><stop stop-color="#CBE0F2" offset="41.49%"/><stop stop-color="#DDE9F6" offset="87.77%"/></linearGradient><linearGradient x1="17.89%" y1="-24.3%" x2="75.406%" y2="110.103%" id="timeoute"><stop stop-color="#BFD2E8" offset="39.57%"/><stop stop-color="#BFD2E8" stop-opacity="0" offset="76.47%"/></linearGradient><linearGradient x1="0%" y1="49.961%" y2="49.961%" id="timeoutf"><stop stop-color="#BFD2E8" offset="56.15%"/><stop stop-color="#BFD2E8" stop-opacity="0" offset="98.4%"/></linearGradient><linearGradient x1="0%" y1="49.966%" y2="49.966%" id="timeoutg"><stop stop-color="#B9CEE6" stop-opacity="0" offset="0%"/><stop stop-color="#BDD1E7" stop-opacity=".208" offset="8.252%"/><stop stop-color="#BFD2E8" offset="39.57%"/><stop stop-color="#BFD2E8" stop-opacity="0" offset="88.77%"/></linearGradient><linearGradient x1="0%" y1="49.973%" y2="49.973%" id="timeouth"><stop stop-color="#5E8EC8" offset="10.16%"/><stop stop-color="#6593CA" offset="13.56%"/><stop stop-color="#89ADD6" offset="33.02%"/><stop stop-color="#A4BFDF" offset="51.2%"/><stop stop-color="#B3CAE4" offset="67.48%"/><stop stop-color="#B9CEE6" offset="80.21%"/><stop stop-color="#B9CEE6" stop-opacity="0" offset="100%"/></linearGradient><linearGradient x1="50.002%" y1="-.118%" x2="50.002%" y2="99.882%" id="timeouti"><stop stop-color="#425685" offset="12.3%"/><stop stop-color="#5E8EC8" offset="56.68%"/><stop stop-color="#5E8EC8" stop-opacity="0" offset="100%"/></linearGradient><linearGradient x1="50.002%" y1="-.108%" x2="50.002%" y2="100.052%" id="timeoutj"><stop stop-color="#425685" offset="12.3%"/><stop stop-color="#5E8EC8" offset="56.68%"/><stop stop-color="#5E8EC8" stop-opacity="0" offset="100%"/></linearGradient><linearGradient x1="50.001%" y1="-.097%" x2="50.001%" y2="99.903%" id="timeoutk"><stop stop-color="#5E8EC8" offset="13.9%"/><stop stop-color="#7DA4D2" offset="58.82%"/><stop stop-color="#91B3DA" stop-opacity="0" offset="100%"/></linearGradient><linearGradient x1=".002%" y1="53.95%" x2="100.18%" y2="45.474%" id="timeoutl"><stop stop-color="#F06B6C" offset="20.32%"/><stop stop-color="#F06C6D" offset="20.8%"/><stop stop-color="#F38586" offset="39.22%"/><stop stop-color="#F48F90" offset="50.26%"/></linearGradient><linearGradient x1=".001%" y1="49.847%" x2="100.001%" y2="49.847%" id="timeoutm"><stop stop-color="#F48F90" offset="31.02%"/><stop stop-color="#F6B2B3" offset="94.65%"/></linearGradient><linearGradient x1="43.22%" y1="7.403%" x2="56.869%" y2="95.151%" id="timeoutn"><stop stop-color="#717FA2" offset="2.151%"/><stop stop-color="#425685" offset="26.88%"/></linearGradient><linearGradient x1="93.913%" y1="41.637%" x2="7.079%" y2="66.058%" id="timeouto"><stop stop-color="#F6B2B3" offset="27.69%"/><stop stop-color="#F48F90" offset="50.26%"/></linearGradient><linearGradient x1="43.439%" y1="8.701%" x2="57.314%" y2="93.61%" id="timeoutp"><stop stop-color="#7DA4D2" offset="29.03%"/><stop stop-color="#5E8EC8" offset="51.61%"/><stop stop-color="#425685" offset="88.17%"/></linearGradient><linearGradient x1="36.984%" y1="-5.433%" x2="63.192%" y2="95.488%" id="timeoutq"><stop stop-color="#242F65" offset="3.774%"/><stop stop-color="#425685" offset="100%"/></linearGradient><linearGradient x1="100.837%" y1="18.179%" x2="-.968%" y2="84.294%" id="timeoutr"><stop stop-color="#F6B2B3" offset="12.37%"/><stop stop-color="#F6B2B3" offset="100%"/></linearGradient><linearGradient x1="30.082%" y1="2.811%" x2="78.669%" y2="98.181%" id="timeouts"><stop stop-color="#425685" offset="0%"/><stop stop-color="#425685" stop-opacity=".077" offset="92.3%"/><stop stop-color="#425685" stop-opacity="0" offset="100%"/></linearGradient><linearGradient x1="38.469%" y1="1.842%" x2="59.837%" y2="105.278%" id="timeoutt"><stop stop-color="#F48F90" offset="0%"/><stop stop-color="#F6B2B3" offset="10.75%"/><stop stop-color="#F6B2B3" offset="22.85%"/></linearGradient><linearGradient x1="81.515%" y1="46.319%" x2="19.404%" y2="52.99%" id="timeoutu"><stop stop-color="#425685" offset="46.24%"/><stop stop-color="#425685" stop-opacity="0" offset="81.18%"/></linearGradient><linearGradient x1="48.232%" y1="7.347%" x2="51.926%" y2="96.101%" id="timeoutv"><stop stop-color="#F06B6C" offset="22.58%"/><stop stop-color="#F48F90" stop-opacity="0" offset="65.59%"/></linearGradient><linearGradient x1="98.004%" y1="19.543%" x2="1.389%" y2="84.932%" id="timeoutw"><stop stop-color="#F9D8D8" offset="0%"/><stop stop-color="#F9D8D8" offset="30.22%"/><stop stop-color="#F8C4C4" offset="52.87%"/><stop stop-color="#F49091" offset="99.13%"/><stop stop-color="#F48F90" offset="100%"/></linearGradient><linearGradient x1="98.004%" y1="19.543%" x2="1.389%" y2="84.932%" id="timeoutx"><stop stop-color="#FCFDFF" offset="0%"/><stop stop-color="#F9D8D8" offset="30.22%"/><stop stop-color="#F8C4C4" offset="52.87%"/><stop stop-color="#F49091" offset="99.13%"/><stop stop-color="#F48F90" offset="100%"/></linearGradient><linearGradient x1="46.341%" y1="13.32%" x2="54.569%" y2="89.288%" id="timeouty"><stop stop-color="#F06B6C" offset="22.58%"/><stop stop-color="#F48F90" stop-opacity="0" offset="65.59%"/></linearGradient><linearGradient x1="-3.06%" y1="62.453%" x2="102.808%" y2="34.84%" id="timeoutz"><stop stop-color="#F9D8D8" offset="0%"/><stop stop-color="#F9D8D8" offset="30.22%"/><stop stop-color="#F8C4C4" offset="52.87%"/><stop stop-color="#F49091" offset="99.13%"/><stop stop-color="#F48F90" offset="100%"/></linearGradient><linearGradient x1="-3.718%" y1="62.591%" x2="105.877%" y2="35.006%" id="timeoutA"><stop stop-color="#FCFDFF" offset="0%"/><stop stop-color="#F9D8D8" offset="30.22%"/><stop stop-color="#F8C4C4" offset="52.87%"/><stop stop-color="#F49091" offset="99.13%"/><stop stop-color="#F48F90" offset="100%"/></linearGradient><linearGradient x1="99.131%" y1="59.58%" x2=".447%" y2="39.583%" id="timeoutB"><stop stop-color="#242F65" offset="31.72%"/><stop stop-color="#242F65" offset="90.32%"/></linearGradient><linearGradient x1="-62.037%" y1="-16.546%" x2="163.824%" y2="115.814%" id="timeoutC"><stop stop-color="#242F65" offset="35.48%"/><stop stop-color="#717FA2" offset="100%"/></linearGradient><linearGradient x1="-42.472%" y1="-13.691%" x2="152.657%" y2="118.614%" id="timeoutD"><stop stop-color="#425685" offset="24.73%"/><stop stop-color="#F6B2B3" offset="100%"/></linearGradient><linearGradient x1="100.998%" y1="55.373%" x2="-.483%" y2="37.913%" id="timeoutE"><stop stop-color="#242F65" stop-opacity="0" offset="0%"/><stop stop-color="#242F65" stop-opacity=".86" offset="85.98%"/><stop stop-color="#242F65" offset="100%"/></linearGradient><linearGradient x1="-121.493%" y1="-25.672%" x2="230.057%" y2="128.284%" id="timeoutF"><stop stop-color="#242F65" offset="0%"/><stop stop-color="#717FA2" offset="29.03%"/><stop stop-color="#242F65" offset="76.34%"/></linearGradient><linearGradient x1="-113.573%" y1="-27.196%" x2="203.25%" y2="120.513%" id="timeoutG"><stop stop-color="#425685" offset="29.57%"/><stop stop-color="#242F65" offset="100%"/></linearGradient><linearGradient x1="50.002%" y1="21.68%" x2="50.002%" y2="76.749%" id="timeoutH"><stop stop-color="#717FA2" offset="2.151%"/><stop stop-color="#425685" offset="26.88%"/></linearGradient><linearGradient x1="51.65%" y1="23.974%" x2="48.429%" y2="79.855%" id="timeoutI"><stop stop-color="#425685" offset="10.75%"/><stop stop-color="#717FA2" offset="30.65%"/><stop stop-color="#A1A7C2" offset="57.53%"/></linearGradient><linearGradient x1=".143%" y1="49.686%" x2="100.003%" y2="49.686%" id="timeoutJ"><stop stop-color="#FCFDFF" offset="0%"/><stop stop-color="#F9D8D8" offset="30.22%"/><stop stop-color="#F8C4C4" offset="52.87%"/><stop stop-color="#F49091" offset="99.13%"/><stop stop-color="#F48F90" offset="100%"/></linearGradient><linearGradient x1=".001%" y1="49.926%" x2="100.001%" y2="49.926%" id="timeoutK"><stop stop-color="#242F65" offset="1.075%"/><stop stop-color="#242F65" stop-opacity=".987" offset="2.393%"/><stop stop-color="#242F65" stop-opacity="0" offset="100%"/></linearGradient><linearGradient x1="-.468%" y1="10.681%" x2="100.468%" y2="89.224%" id="timeoutL"><stop stop-color="#5E8EC8" stop-opacity="0" offset="0%"/><stop stop-color="#5E8EC8" offset="35.29%"/><stop stop-color="#5E8EC8" stop-opacity="0" offset="100%"/></linearGradient><linearGradient x1="-.469%" y1="10.695%" x2="100.469%" y2="89.21%" id="timeoutM"><stop stop-color="#5E8EC8" stop-opacity="0" offset="0%"/><stop stop-color="#5E8EC8" offset="35.29%"/><stop stop-color="#5E8EC8" stop-opacity="0" offset="100%"/></linearGradient><linearGradient x1="36.869%" y1="-39.055%" x2="63.909%" y2="137.113%" id="timeoutN"><stop stop-color="#BFD2E8" offset="70.43%"/><stop stop-color="#5E8EC8" offset="88.39%"/><stop stop-color="#4F70A4" offset="93.37%"/><stop stop-color="#455D8D" offset="97.42%"/><stop stop-color="#425685" offset="100%"/></linearGradient><linearGradient x1="-.104%" y1="49.881%" x2="99.896%" y2="49.881%" id="timeoutO"><stop stop-color="#F48F90" offset="31.02%"/><stop stop-color="#F6B2B3" offset="94.65%"/></linearGradient><linearGradient x1="50.006%" y1="-2.031%" x2="50.006%" y2="98.985%" id="timeoutP"><stop stop-color="#425685" offset="73.94%"/><stop stop-color="#425685" offset="89.89%"/></linearGradient><linearGradient x1="0%" y1="49.885%" y2="49.885%" id="timeoutQ"><stop stop-color="#717FA2" offset="2.151%"/><stop stop-color="#425685" offset="26.88%"/></linearGradient><linearGradient x1="-.144%" y1="49.658%" x2="100.041%" y2="49.658%" id="timeoutR"><stop stop-color="#425685" offset="26.88%"/><stop stop-color="#425685" offset="44.39%"/></linearGradient><linearGradient x1="42.925%" y1="-4.89%" x2="57.875%" y2="151.028%" id="timeoutS"><stop stop-color="#DDE9F6" stop-opacity="0" offset="0%"/><stop stop-color="#CBE0F2" offset="100%"/></linearGradient><linearGradient x1="50.924%" y1=".831%" x2="48.138%" y2="96.715%" id="timeoutT"><stop stop-color="#F48F90" offset="12.83%"/><stop stop-color="#F06B6C" offset="39.57%"/></linearGradient><linearGradient x1="-.564%" y1="48.737%" x2="99.266%" y2="50.794%" id="timeoutU"><stop stop-color="#717FA2" offset="2.151%"/><stop stop-color="#425685" offset="26.88%"/></linearGradient><linearGradient x1="-1.539%" y1="52.538%" x2="100.603%" y2="46.566%" id="timeoutV"><stop stop-color="#425685" offset="73.94%"/><stop stop-color="#425685" offset="89.89%"/></linearGradient><linearGradient x1="51.611%" y1="15.263%" x2="48.186%" y2="85.746%" id="timeoutW"><stop stop-color="#DDE9F6" offset="34.22%"/><stop stop-color="#CDD7E8" offset="44.58%"/><stop stop-color="#A3AAC4" offset="65.2%"/><stop stop-color="#A1A7C2" offset="66.31%"/></linearGradient><linearGradient x1="33.06%" y1="120.682%" x2="73.074%" y2="-6.738%" id="timeoutX"><stop stop-color="#5E8EC8" offset="0%"/><stop stop-color="#425685" offset="88.17%"/></linearGradient><linearGradient x1="50.916%" y1="1.135%" x2="48.13%" y2="97.018%" id="timeoutY"><stop stop-color="#F48F90" offset="12.83%"/><stop stop-color="#F06B6C" offset="39.57%"/></linearGradient><linearGradient x1="1.689%" y1="42.431%" x2="97.789%" y2="56.703%" id="timeoutZ"><stop stop-color="#F48F90" offset="31.02%"/><stop stop-color="#F6B2B3" offset="94.65%"/></linearGradient><linearGradient x1=".294%" y1="48.754%" x2="100.124%" y2="50.811%" id="timeoutaa"><stop stop-color="#717FA2" offset="2.151%"/><stop stop-color="#425685" offset="26.88%"/></linearGradient><linearGradient x1="-.396%" y1="52.485%" x2="100.975%" y2="46.512%" id="timeoutab"><stop stop-color="#425685" offset="73.94%"/><stop stop-color="#425685" offset="89.89%"/></linearGradient><linearGradient x1="-.528%" y1="45.596%" x2="100.323%" y2="54.946%" id="timeoutac"><stop stop-color="#F48F90" offset="31.02%"/><stop stop-color="#F6B2B3" offset="94.65%"/></linearGradient><linearGradient x1=".218%" y1="45.932%" x2="99.86%" y2="55.506%" id="timeoutad"><stop stop-color="#F6B2B3" offset="5.348%"/><stop stop-color="#F5A9AA" offset="9.974%"/><stop stop-color="#F59A9B" offset="20.25%"/><stop stop-color="#F49293" offset="32.6%"/><stop stop-color="#F48F90" offset="52.41%"/></linearGradient><linearGradient x1="-4.663%" y1="84.236%" x2="109.322%" y2="9.192%" id="timeoutae"><stop stop-color="#5E8EC8" offset="0%"/><stop stop-color="#425685" offset="88.17%"/></linearGradient><linearGradient x1="-7.931%" y1="86.384%" x2="106.054%" y2="11.335%" id="timeoutaf"><stop stop-color="#5E8EC8" offset="0%"/><stop stop-color="#425685" offset="88.17%"/></linearGradient><linearGradient x1="-6.372%" y1="85.361%" x2="107.613%" y2="10.313%" id="timeoutag"><stop stop-color="#5E8EC8" offset="0%"/><stop stop-color="#425685" offset="88.17%"/></linearGradient><linearGradient x1="-4.823%" y1="84.343%" x2="109.162%" y2="9.3%" id="timeoutah"><stop stop-color="#5E8EC8" offset="0%"/><stop stop-color="#425685" offset="88.17%"/></linearGradient><linearGradient x1="-3.273%" y1="83.32%" x2="110.711%" y2="8.277%" id="timeoutai"><stop stop-color="#5E8EC8" offset="0%"/><stop stop-color="#425685" offset="88.17%"/></linearGradient><linearGradient x1="-6.532%" y1="85.469%" x2="107.453%" y2="10.425%" id="timeoutaj"><stop stop-color="#5E8EC8" offset="0%"/><stop stop-color="#425685" offset="88.17%"/></linearGradient><linearGradient x1="-5.004%" y1="84.461%" x2="108.971%" y2="9.412%" id="timeoutak"><stop stop-color="#5E8EC8" offset="0%"/><stop stop-color="#425685" offset="88.17%"/></linearGradient><linearGradient x1="-3.434%" y1="83.428%" x2="110.551%" y2="8.38%" id="timeoutal"><stop stop-color="#5E8EC8" offset="0%"/><stop stop-color="#425685" offset="88.17%"/></linearGradient><linearGradient x1="-6.702%" y1="85.576%" x2="107.282%" y2="10.533%" id="timeoutam"><stop stop-color="#5E8EC8" offset="0%"/><stop stop-color="#425685" offset="88.17%"/></linearGradient><linearGradient x1="-5.153%" y1="84.553%" x2="108.842%" y2="9.51%" id="timeoutan"><stop stop-color="#5E8EC8" offset="0%"/><stop stop-color="#425685" offset="88.17%"/></linearGradient><linearGradient x1="-3.594%" y1="83.536%" x2="110.391%" y2="8.487%" id="timeoutao"><stop stop-color="#5E8EC8" offset="0%"/><stop stop-color="#425685" offset="88.17%"/></linearGradient><linearGradient x1="-2.045%" y1="82.513%" x2="111.94%" y2="7.465%" id="timeoutap"><stop stop-color="#5E8EC8" offset="0%"/><stop stop-color="#425685" offset="88.17%"/></linearGradient><linearGradient x1="-5.313%" y1="84.661%" x2="108.672%" y2="9.613%" id="timeoutaq"><stop stop-color="#5E8EC8" offset="0%"/><stop stop-color="#425685" offset="88.17%"/></linearGradient><linearGradient x1="-7.418%" y1="86.044%" x2="106.567%" y2="11.006%" id="timeoutar"><stop stop-color="#5E8EC8" offset="0%"/><stop stop-color="#425685" offset="88.17%"/></linearGradient><linearGradient x1="-5.869%" y1="85.026%" x2="108.116%" y2="9.983%" id="timeoutas"><stop stop-color="#5E8EC8" offset="0%"/><stop stop-color="#425685" offset="88.17%"/></linearGradient><linearGradient x1="-9.128%" y1="87.175%" x2="104.857%" y2="12.131%" id="timeoutat"><stop stop-color="#5E8EC8" offset="0%"/><stop stop-color="#425685" offset="88.17%"/></linearGradient><linearGradient x1="-7.579%" y1="86.162%" x2="106.407%" y2="11.108%" id="timeoutau"><stop stop-color="#5E8EC8" offset="0%"/><stop stop-color="#425685" offset="88.17%"/></linearGradient><linearGradient x1="-6.029%" y1="85.134%" x2="107.956%" y2="10.091%" id="timeoutav"><stop stop-color="#5E8EC8" offset="0%"/><stop stop-color="#425685" offset="88.17%"/></linearGradient><linearGradient x1="-4.48%" y1="84.111%" x2="109.505%" y2="9.068%" id="timeoutaw"><stop stop-color="#5E8EC8" offset="0%"/><stop stop-color="#425685" offset="88.17%"/></linearGradient><linearGradient x1="-7.739%" y1="86.259%" x2="106.246%" y2="11.216%" id="timeoutax"><stop stop-color="#5E8EC8" offset="0%"/><stop stop-color="#425685" offset="88.17%"/></linearGradient><linearGradient x1="-6.189%" y1="85.242%" x2="107.796%" y2="10.193%" id="timeoutay"><stop stop-color="#5E8EC8" offset="0%"/><stop stop-color="#425685" offset="88.17%"/></linearGradient><linearGradient x1="-4.64%" y1="84.224%" x2="109.345%" y2="9.175%" id="timeoutaz"><stop stop-color="#5E8EC8" offset="0%"/><stop stop-color="#425685" offset="88.17%"/></linearGradient><linearGradient x1="-7.899%" y1="86.372%" x2="106.086%" y2="11.324%" id="timeoutaA"><stop stop-color="#5E8EC8" offset="0%"/><stop stop-color="#425685" offset="88.17%"/></linearGradient><linearGradient x1="-6.35%" y1="85.349%" x2="107.625%" y2="10.306%" id="timeoutaB"><stop stop-color="#5E8EC8" offset="0%"/><stop stop-color="#425685" offset="88.17%"/></linearGradient><linearGradient x1="-4.8%" y1="84.326%" x2="109.184%" y2="9.283%" id="timeoutaC"><stop stop-color="#5E8EC8" offset="0%"/><stop stop-color="#425685" offset="88.17%"/></linearGradient><linearGradient x1="-3.251%" y1="83.309%" x2="110.734%" y2="8.26%" id="timeoutaD"><stop stop-color="#5E8EC8" offset="0%"/><stop stop-color="#425685" offset="88.17%"/></linearGradient><linearGradient x1="-6.51%" y1="85.457%" x2="107.475%" y2="10.409%" id="timeoutaE"><stop stop-color="#5E8EC8" offset="0%"/><stop stop-color="#425685" offset="88.17%"/></linearGradient><linearGradient x1=".903%" y1="47.62%" x2="100.032%" y2="50.802%" id="timeoutaF"><stop stop-color="#EF4849" offset="0%"/><stop stop-color="#F48F90" offset="77.01%"/></linearGradient><linearGradient x1=".224%" y1="45.804%" x2="99.865%" y2="55.563%" id="timeoutaG"><stop stop-color="#F48F90" offset="65.78%"/><stop stop-color="#EF4849" offset="100%"/></linearGradient></defs><g fill="none" fill-rule="evenodd"><path d="M65.71 149.621c0 5.924-3.58 12.169-7.84 13.85L8.437 183.004c-.853.32 2.982 3.122 2.215 3.042-3.068-.24-10.056-6.004-9.971-10.727l.596-140.736c0-5.924 3.58-12.168 7.841-13.849L58.551 1.201c4.347-1.681 12.87.24 12.87 6.164l-5.71 142.256z" fill="url(#timeouta)" transform="translate(40)"/><path d="M72.443 152.023c0 6.004-3.58 12.248-8.011 13.93l-50.455 19.933c-4.432 1.761-7.926-1.681-7.926-7.685l.682-141.536c0-6.004 3.58-12.248 8.011-13.93L65.2 2.802c4.432-1.761 7.926 1.681 7.926 7.685l-.682 141.536z" fill="url(#timeoutb)" transform="translate(40)"/><path d="M71.847 151.062c0 5.924-3.58 12.169-7.841 13.85l-49.432 19.533c-4.347 1.681-7.756-1.761-7.756-7.685l.597-140.736c0-5.924 3.58-12.168 7.84-13.849L64.689 2.642c4.346-1.681 7.755 1.761 7.755 7.685l-.596 140.735z" fill="url(#timeoutc)" transform="translate(40)"/><path fill="url(#timeoutd)" d="M67.585 144.338l-56.761 22.415.511-124.004 56.762-21.455z" transform="translate(40)"/><path d="M86.193 16.651c0 .32-.256.72-.511.8l-9.375 3.683c-.256.08-.512-.08-.512-.4s.256-.72.512-.8l9.375-3.683c.255-.16.511 0 .511.4z" fill="#5E8EC8"/><path fill="url(#timeoute)" d="M10.91 138.974l50.624-20.173 237.784 61.081-85.824 54.917L10.74 175.48z" transform="translate(40)"/><path fill="url(#timeoutf)" d="M43.977 149.862l174.801 49.713-.255-38.266-153.324-35.304z" transform="translate(40)"/><path fill="url(#timeoutg)" d="M11.25 81.896L274.176 148.5l-19.517 17.692-243.58-64.044z" transform="translate(40)"/><path d="M11.08 101.829l-.17 37.145 33.238 10.808c2.897-17.372 13.892-27.139 26.25-22.336 11.165 4.403 20.113 19.374 22.585 36.185l13.551 3.843c2.13-19.133 13.636-30.261 26.676-25.138 11.847 4.644 21.137 21.215 22.926 39.227l12.87 3.683c1.278-20.895 13.21-33.463 26.846-28.1 12.529 4.884 22.245 23.136 23.182 42.27l34.517 8.245 1.279-41.548-243.75-64.284z" fill="url(#timeouth)" transform="translate(40)"/><path d="M43.977 149.862l-.255-.08v.64l10.653-5.844s3.494-16.731 13.551-17.772c-11.42-2.882-21.221 6.725-23.949 23.056z" fill="url(#timeouti)" transform="translate(40)"/><path d="M106.278 167.554l10.569-6.325s3.58-18.812 13.892-19.533c-12.103-3.122-22.415 7.765-24.46 25.858z" fill="url(#timeoutj)" transform="translate(40)"/><path d="M168.75 185.326l10.653-7.045s3.836-22.095 15-21.455c-13.21-4.162-24.46 8.246-25.653 28.5z" fill="url(#timeoutk)" transform="translate(40)"/><path d="M120.54 183.484c-2.216.881-5.796.8-8.097.08-5.454-1.68-15.596-4.803-17.045-5.203-13.722-3.683-34.176-9.927-34.432-10.007-3.153-1.44 14.233-6.244 15.085-5.764-2.216-.08-7.33 6.565-7.756 4.723-4.176-.16-6.136-3.122-4.346-3.922.937-.4 3.75-5.124 4.943-5.124 6.051-.24 12.614 2.962 18.92 4.724 12.188 3.522 17.472 6.164 16.876 5.924.426.24.852.4 1.107.72.256.32 0 .88.341 1.12 2.557 2.162 35.455 2.963 28.637 6.485l-14.233 6.244z" fill="#242F65"/><path d="M48.239 16.972c2.13-1.922 19.005-4.804 20.369-3.363 0 0 2.045 1.441 2.642 3.603.597 2.161 3.239 9.126 3.58 16.57v2.082c-.17 1.441-3.41 2.882-3.836 3.122-6.647 2.882-9.971 4.483-12.358 4.884-.085 0-2.216.64-3.238.16-.17-.96-3.154-22.656-3.58-24.817-.085.24-4.09-1.761-3.58-2.241z" fill="url(#timeoutl)" transform="translate(59.602 137.693)"/><path d="M68.864 13.61L19.432.88c-.341-.08-.597-.16-.938-.16-1.278-.08-4.602-.24-7.159.64-6.136 2.162-7.67 4.404-7.67 4.404l50.454 13.53 14.745-5.685z" fill="url(#timeoutm)" transform="translate(59.602 137.693)"/><path d="M72.955 28.74c-.341.24-.341 1.12-.512 1.36-.255.4-7.074 3.203-10.142 4.323-.852.32-1.704.32-2.471.16a6.509 6.509 0 0 0-1.45-.16h-.937c-.852.08-1.534-.48-1.62-1.28l-1.618-12.009s-.256-1.12.596-1.76c1.193-.641 10.994-5.124 13.977-5.765 0 0 .938 0 1.875 1.761 1.108 2.082 2.302 5.924 3.41 11.528 0 .8-.427 1.361-1.108 1.841z" fill="url(#timeoutn)" transform="translate(59.602 137.693)"/><path d="M130 152.984l1.705-.48s2.215-.961 2.897.48c.682 1.44.767 3.442.767 3.442s-.17.4-1.108.72c0 0-.596-2.721-1.448-3.842l-2.216.64-.597-.96z" fill="#F06B6C"/><path d="M70.568 15.61l-.17-.32 1.704-.48s2.216-.96 2.898.48c.682 1.441.767 3.443.767 3.443s-.17.32-1.023.64c-.426-3.362-1.278-3.923-1.278-3.923l.511-.16c-.426-.24-1.108-.32-1.108-.32s-1.875.48-2.3.64z" fill="url(#timeouto)" transform="translate(59.602 137.693)"/><path d="M54.716 19.453l1.96 13.13.085.08 7.245-2.883.426 1.681 5.284-1.84-.341-1.602 2.386-.96s-.511-7.045-3.068-13.37l-13.977 5.764z" fill="url(#timeoutp)" transform="translate(59.602 137.693)"/><path d="M55.483 25.137c.085.16 2.13 4.563 2.983 6.084.852 1.521 2.13 2.082 2.13 2.082l-3.664.88-1.449-9.046z" fill="url(#timeoutq)" transform="translate(59.602 137.693)"/><path d="M73.38 36.425s-.596.64-.937.8c-.426.16-9.886 4.003-9.886 4.003s-.341.08-.767 0l11.59-4.803z" fill="url(#timeoutr)" transform="translate(59.602 137.693)"/><path d="M70.398 15.29c-.085.08-1.193 2.962-1.193 3.523v.56s.426 1.681.51 1.761c0 .08.342.16.683-.16.255-.4.426-1.04.426-1.04-.085-.32-.426-1.762-.426-1.762l.511-1.921c-.085-.08-.511-.96-.511-.96z" fill="url(#timeouts)" transform="translate(59.602 137.693)"/><path d="M128.892 153.144s-10.994 4.243-14.403 5.844l-.17-1.922c.084-.08 10.056-5.043 13.976-5.763l.597 1.84z" fill="#717FA2"/><path d="M114.403 159.948s.086.801.427.801c.34 0 .852-.16.937.16.085.32.597 3.843 1.534 3.923.938.16-.852-4.964-.852-5.044 0 0-1.96 0-2.046.16z" fill="#F06B6C"/><path d="M.256 1.441S2.898-.56 3.409.881c.511 1.36 1.193 5.523 1.193 5.523s-1.534.4-1.875-.48c-.34-.88-.767-2.962-.767-3.202C1.875 2.082 1.62 1.2.938 1.44c-.853.24-.682 0-.682 0z" fill="url(#timeoutt)" transform="translate(114.148 158.507)"/><path d="M68.693 13.85s2.13.8 4.006 9.526c0 .08-1.79-9.447-4.006-9.527z" fill="url(#timeoutu)" transform="translate(59.602 137.693)"/><g transform="translate(115 174.518)"><path d="M.767 1.521s-.085-.08.17-.24c.256-.08 1.705-.4 3.069-.56C5.54.56 6.392.4 6.392.48c0 0 .511-.08.852.56.341.72.426.8.341.88-.085.08-.085.16-.596.24-.512.08-3.324.56-4.091.64-.853.081-1.279-.08-1.534-.48-.341-.24-.597-.8-.597-.8z" fill="url(#timeoutv)"/><path d="M7.244 2.001L6.733.961S6.563.72 5.966.8c-.597.08-5.029.8-5.029.8s.427.8.682.88c.512.16.853.32 2.131.08C5.028 2.4 7.244 2 7.244 2z" fill="url(#timeoutw)"/><path d="M5.71 1.2s.17-.24.512-.32c.426-.08.596.4.426.561l-.341.32s.17-.16.085-.32c0-.16-.17-.56-.682-.24z" fill="#F6B2B3"/><path d="M4.858 2.161s.34-.16.597-.48c.085-.16 0-.4-.17-.56-.257-.08-.512 0-.768.24l.341.8zm-2.045-.56s.17-.16.51-.32c.427-.16.597.08.683.24.085.16 0 .4-.597.72 0 0-.511.24-.682-.08-.17-.32.086-.56.086-.56z" fill="#F48F90"/><ellipse fill="#F48F90" transform="rotate(-19.305 1.96 1.926)" cx="1.959" cy="1.926" rx="1" ry="1"/><g transform="translate(.852 .8)" fill="#F9D8D8"><circle transform="rotate(-4.307 3.924 .886)" cx="3.924" cy=".886" r="1"/><path d="M4.858.88c.085.24.34.32.511.24.17-.08.256-.32.17-.56C5.456.32 5.2.24 5.03.32c-.171.08-.256.32-.171.56zM2.045.8s.341-.16.512.16c.17.32-.085.641-.341.641-.256-.08-.597-.48-.17-.8zM.938.88c.085 0 .255-.08.34.16.086.16 0 .32-.17.401-.256.08-.511 0-.511-.16s.17-.32.34-.4z"/></g><path d="M7.244 2.001L6.733.961S6.563.72 5.966.8c-.597.08-5.029.8-5.029.8s.427.8.682.88c.512.16.853.32 2.131.08C5.028 2.4 7.244 2 7.244 2z" fill="url(#timeoutx)" opacity=".41"/></g><g transform="translate(132.045 168.114)"><path d="M2.301.64C1.45 1.441.681 2.081.681 2.081s-.17.16-.425 1.041C0 4.162 0 4.483.086 4.483c.084.08.17 0 .51-.24.342-.24 1.023-.8 1.45-1.2C2.13 2.401 2.3 1.04 2.3.64z" fill="url(#timeouty)"/><path d="M.256 4.403L.51 2.802s.086-.4.341-.64c.256-.24 1.108-.961 1.364-1.121H2.3c0 .32 0 1.44-.34 2.001-.683.64-1.705 1.361-1.705 1.361z" fill="url(#timeoutz)"/><path d="M1.023 2.322s.255-.24.511-.08c.256.16.085.8-.085.96-.17.16-.426.24-.426.24s.17-.08.255-.4c.086-.24.17-.88-.255-.72z" fill="#F6B2B3"/><ellipse fill="#F9D8D8" transform="rotate(-75.889 1.792 2.128)" cx="1.792" cy="2.128" rx="1" ry="1"/><path d="M.767 2.882c-.085.32 0 .64.17.64.171 0 .341-.24.427-.56.085-.32 0-.64-.17-.64-.171-.08-.342.16-.427.56z" fill="#F9D8D8"/><path d="M.256 4.403L.51 2.882s.086-.4.341-.64c.341-.32 1.364-1.201 1.364-1.201s.085.64-.17 1.68a.438.438 0 0 1-.256.401C1.277 3.682.255 4.403.255 4.403z" fill="url(#timeoutA)" opacity=".41"/></g><path d="M7.16 28.82c0 2.08 1.363 4.002 3.067 4.322 1.705.32 3.068-1.04 3.068-3.122 0-2.081-1.363-4.002-3.068-4.323-1.704-.32-3.068 1.041-3.068 3.123z" fill="url(#timeoutB)" transform="translate(59.602 137.693)"/><path d="M115.256 181.883s-5.71-1.44-7.841-2.241c-1.023-.4-9.12-2.802-9.034-2.802l-.853-4.563s-.085-1.121-1.108-1.441c-.937-.24-2.045-.56-2.556-.64-1.279-.16-1.364.72-1.364 1.12v3.763l-21.989-6.325c0-.4-.34-2.882-.681-4.323-.086-.48-.427-.96-.938-1.12-1.023-.4-2.727-.8-2.812-.08-.086.96 0 4.243 0 4.243l-.341-.08-4.432-1.842s-1.108-.56-1.023-1.6c.085-.481.085-3.763 0-5.364-.085-9.607 2.557-14.81 2.557-14.81.085-.4.767-.641 1.704-.48l7.074 1.84.853-.64 16.79 4.563 1.79 1.441s22.414 5.924 22.414 6.725c.426 2.161 1.79 24.656 1.79 24.656z" fill="#F06B6C"/><path d="M.085 1.921C.17 2.962.767 3.843 1.364 4.003c.681.08 1.108-.64 1.108-1.681S1.79.4 1.193.24C.511.08 0 .88.085 1.921z" fill="url(#timeoutC)" transform="translate(67.273 164.912)"/><path d="M.511 1.921c.086.72.512 1.361 1.023 1.441.511.08.938-.4.852-1.12C2.301 1.52 1.875.88 1.364.8.852.72.51 1.28.51 1.92z" fill="url(#timeoutD)" transform="translate(67.273 164.912)"/><path d="M69.148 166.033c.085 0 .085 0 .17.08.256.24.426.64.426 1.12 0 .4-.085.8-.34.961h-.086c-.34-.08-.682-.56-.682-1.12-.085-.641.17-1.041.512-1.041z" fill="#425685"/><path d="M11.165 31.221l-.426-5.283s-.17-1.361-1.279-1.602c-1.193-.32-3.324-.88-3.324.48v4.964l.341.08v-3.442s-.085-.8.597-.88c1.023-.08 2.386.4 2.386.4s.512.24.597.56c.17.8.767 4.643.767 4.643l.34.08z" fill="url(#timeoutE)" opacity=".57" transform="translate(59.602 137.693)"/><path d="M1.023 3.122c.17 1.441.937 2.722 1.875 2.802.937.08 1.449-.96 1.363-2.322-.17-1.44-.937-2.721-1.875-2.801C1.45.72.937 1.68 1.023 3.122z" fill="url(#timeoutF)" transform="translate(92.84 171.316)"/><path d="M.767 3.042c.085 1.04.767 2.001 1.449 2.162.682.08 1.193-.64 1.108-1.762-.085-1.04-.767-2.001-1.449-2.161C1.108 1.2.597 2 .767 3.042z" fill="url(#timeoutG)" transform="translate(92.84 171.316)"/><path d="M54.205 34.183l-7.756-5.924c-1.279-1.2-3.92-2.081-5.88-2.642l-33.41-9.366c-1.704-.32-3.494-.72-4.09.88 0 0-.853-1.12-.853-2.961 0-1.922 1.79-7.926 1.79-7.926l42.102 11.928s6.136 2.162 6.818 3.603" fill="url(#timeoutH)" transform="translate(59.602 137.693)"/><path d="M7.33.64c.085-.08.255 0 .255 0s.085.08.085.16v1.602c0 .16-.085.32-.426.48-.255.16-4.005 1.681-6.05 2.482 0 0-.597.24-.768.08C.256 5.284 0 4.483 0 4.083s.085-.56.34-.72C.598 3.282 6.393.96 7.33.64z" fill="url(#timeoutI)" transform="translate(123.523 170.516)"/><path d="M130.426 171.556s.426-.16.341.08c0 .32 0 .72-.085 1.121-.085.4-.17.4-.597.56-.426.16-5.028 2.002-5.454 2.242-.426.24-.597.16-.682.16 0 0-.256-.16-.341-.8-.085-.64 0-.48.085-.64.085-.161 6.733-2.723 6.733-2.723z" fill="#717FA2"/><path d="M12.955 6.725c.17-.08 16.619 4.723 16.79 4.563.17-.24 11.25-4.804 11.25-4.804l-16.79-4.242-11.25 4.483z" fill="url(#timeoutJ)" opacity=".41" transform="translate(59.602 137.693)"/><path d="M55.653 44.19s-5.71-1.441-7.84-2.242c-1.023-.4-9.12-2.801-9.035-2.801l-.852-4.564s-.085-1.12-1.108-1.44c-.937-.24-2.045-.56-2.557-.641-1.278-.16-1.363.72-1.363 1.12v3.763l-21.989-6.324c0-.4-.34-2.882-.682-4.323-.085-.48-.426-.96-.937-1.12-1.023-.4-2.727-.801-2.813-.08-.085.96 0 4.242 0 4.242l-.34-.08-4.432-1.841s-.938-.48-1.023-1.2c-.085-.882 0-4.164 0-5.765-.085-9.606 2.557-14.81 2.557-14.81.085-.4.767-.64 1.704-.48l7.074 1.841.852-.64 16.79 4.563 1.79 1.44s22.415 5.925 22.415 6.725c.426 2.162 1.79 24.657 1.79 24.657z" fill="url(#timeoutK)" opacity=".29" transform="translate(59.602 137.693)"/><path d="M46.562 95.425l233.182 58.36"/><path fill="url(#timeoutL)" d="M233.778 60.04L.511 1.682l.426-1.6L234.206 58.44z" transform="translate(45.966 94.464)"/><path d="M48.864 89.34L282.13 147.7"/><path fill="url(#timeoutM)" d="M233.352 60.441L.17 2.081l.427-1.6L233.778 58.84z" transform="translate(48.523 88.06)"/><path d="M78.864 102.31s-.512.72-.938.64c-1.023-.16-2.13-.4-2.557-.56-.34-.16.256-.561.256-.561l-.597-.16s-.767.8-2.045.64c-2.813-.64-21.989-5.043-21.903-5.043v-1.12l21.306 5.043c.341.08 1.108.08 1.875-.16l2.472-1.041c0 .08 2.642.96 2.642.96.085-.08-.511 1.361-.511 1.361z" fill="#242F65"/><path d="M76.903 99.828l-2.471 1.2c-.512.24-1.108.32-1.705.16L51.08 95.986l.085-25.377 33.153 6.885" fill="#F06B6C"/><path d="M85.256 79.414s.511-2.082-1.79-1.921c-2.301.16-10.568 3.922-10.994 5.763-.427 1.762-1.023 19.213 1.534 18.013 6.306-2.482 17.471-11.128 14.914-8.646" fill="#EF4849"/><path d="M94.63 80.935s-5.965-1.281-9.374-1.921c-1.023-.24-2.131-.16-3.069.24-2.471 1.04-7.5 2.642-7.926 5.043-.511 2.802-.426 16.812 1.194 16.731 0 0 7.159 1.922 8.437 1.682" fill="#242F65"/><path d="M186.59 122.563c-3.067-4.003-20.368-4.163-9.715-16.491-4.006-2.242-29.233 4.883-29.915 5.043-.682.16-6.05 2.002-4.943 6.165-27.955-6.805-63.324-15.21-63.324-15.37 0 0-1.108 1.36.682 2 1.875.64 95.114 24.177 96.562 24.177 1.45 0 10.74-.88 10.91-4.003v-.08c.17-.4.085-.96-.256-1.44z" fill="#242F65"/><path d="M179.688 105.752c-5.71-6.325-11.08-9.527-17.216-11.048-15.682-3.442-55.995-13.049-68.779-15.21 0 0-2.642 0-7.074.24-4.687.96-8.352 3.522-9.034 4.403-.34.96-.852 16.251 1.023 18.252 5.454 1.281 0 0 63.75 16.091l-.085-2.321c0-1.521 1.704-2.562 3.409-2.082l14.574 4.163c.426.16.767.32 1.108.64 1.022 1.041 3.75 3.443 4.858 3.683 2.13.4 6.221 1.441 8.778 1.681 2.813.32 8.523-2.161 9.12-2.401 1.193-.4 1.96-1.281 1.96-2.402 0-2.402-.512-7.205-6.392-13.69z" fill="#F06B6C"/><path d="M106.278 31.862c-.937-2.082-.511-1.762-2.983-4.483-7.159-7.846-12.017-9.527-17.983-11.048C69.035 12.168 30.767 5.204 17.898 2.962c0 0 3.324-1.04-5.284 1.521-.512.96-3.324-1.44-3.58 0l53.352 14.09c17.131 2 10.569-.801 21.392 7.204l12.87 9.527c1.79.88 9.545.96 9.63-3.442z" fill="url(#timeoutN)" transform="translate(76.648 78.453)"/><path d="M82.074 24.497s2.216-7.606 12.87-4.323c0 0-.683-.4-1.961-1.201-2.216-1.201-4.688-2.162-7.074-2.722C74.148 13.449 23.182 1.921 16.193.721c0 0-2.557-.721-6.903.32C4.517 2 1.449 5.123 1.023 5.764" fill="url(#timeoutO)" transform="translate(76.648 78.453)"/><path d="M102.188 45.15c-.086 0 0-2 0-2s-.256-1.842.852-2.002c1.96-.4 4.943-1.921 4.943-1.921s1.023 0 1.023 1.28v1.842s-.597 1.52-6.819 2.802z" fill="url(#timeoutP)" transform="translate(76.648 78.453)"/><path d="M.597 11.047c1.193.16 68.522 15.451 79.943 19.294.085.08 5.113 2.801 6.818 5.523C82.244 33.623 6.307 15.851.597 14.89" fill="url(#timeoutQ)" transform="translate(76.648 78.453)"/><path fill="url(#timeoutR)" d="M20.028 17.372l-.085 3.682L0 16.331V12.73z" transform="translate(51.08 70.448)"/><path d="M89.148 26.498c-1.79-.48-89.574-8.886-88.722-8.566L37.33 3.362l56.59 17.372" fill="url(#timeoutS)" transform="translate(57.045 22.415)"/><path d="M8.097.24c.426 0 4.517 1.12 5.54 1.921l1.022.801 3.92.64s2.387.56 2.302 3.443c-.086 2.962-2.472 4.803-4.517 4.483-2.131-.32-9.716-.96-14.574-5.684 0 0 .17-1.681.596-2.322C1.96 3.042.17.881.17.881L8.097.24z" fill="url(#timeoutT)" transform="translate(205.34 48.833)"/><path d="M6.136 7.445C4.943 3.602 8.267 2.081 8.267 2.081c-1.875-.24-3.835-.32-5.625-.32.341.4.597.72.767.88-.426.641-.596 2.322-.596 2.322a13.643 13.643 0 0 0 3.323 2.482z" fill="url(#timeoutU)" transform="translate(205.34 48.833)"/><path d="M21.307 7.285c-.341 1.681-1.534 2.802-2.727 2.562-1.108-.24-1.705-1.762-1.364-3.363.34-1.68 1.534-2.802 2.727-2.561 1.108.16 1.705 1.68 1.364 3.362z" fill="url(#timeoutV)" transform="translate(205.34 48.833)"/><path d="M153.011 44.03l9.205-6.084s2.557 1.36 2.301 1.76c-.34.401-3.665 4.004-3.665 4.004l-7.84.32z" fill="#F06B6C"/><path d="M100.994 20.894s65.796 8.326 66.137 8.486c.34.16 7.244 2.241 12.443 7.125 5.199 4.883 6.988 7.045 3.665 8.806-3.41 1.76-11.591 1.04-21.307 0-9.716-1.041-12.87-1.922-12.87-1.922s-7.244.881-11.164.08c-3.92-.8-6.307-1.28-6.648-1.28-.34 0-15.597-5.204-15.597-5.204s-9.29-.16-15.17-3.682c-5.88-3.523-16.193-8.726-16.62-10.247-.425-1.521 1.109-3.203 4.432-2.802 3.24.48 11.762 2.241 12.7.64z" fill="url(#timeoutW)" transform="translate(57.045 22.415)"/><path d="M176.761 34.343c-.17-.16 1.705 2.242-1.96 2.402-3.665.16-8.267.8-8.267.8s2.046 1.762 6.733 2.002c4.602.16 10.142-.48 3.494-5.204z" fill="url(#timeoutX)" transform="translate(57.045 22.415)"/><path d="M143.38 46.672s-19.431 4.323-19.175 4.403c.255.08.852.88 4.858.48 3.92-.4 19.943-2.802 19.943-2.802s-2.131-1.921-5.625-2.081z" fill="#F06B6C"/><path d="M125.625 40.267c.426 0 4.517 1.121 5.54 1.922l1.023.8 3.92.64s2.386.561 2.301 3.443c-.085 2.962-2.471 4.803-4.517 4.483-2.13-.32-9.716-.96-14.574-5.684 0 0 .17-1.681.597-2.321-.426-.48-2.216-2.642-2.216-2.642l7.926-.64z" fill="url(#timeoutY)" transform="translate(57.045 22.415)"/><path d="M138.58 48.273c-.512 2.161-2.131 3.602-3.75 3.362-1.62-.24-2.557-2.322-2.046-4.483.511-2.161 2.13-3.602 3.75-3.362 1.534.32 2.472 2.321 2.046 4.483z" fill="url(#timeoutZ)" transform="translate(57.045 22.415)"/><path d="M122.472 48.273c-1.194-3.843 2.13-5.364 2.13-5.364-1.875-.24-3.835-.32-5.625-.32.341.4.597.72.767.88-.426.64-.596 2.322-.596 2.322a17.91 17.91 0 0 0 3.324 2.482z" fill="url(#timeoutaa)" transform="translate(57.045 22.415)"/><path d="M137.642 48.113c-.34 1.68-1.534 2.802-2.727 2.561-1.108-.24-1.705-1.76-1.364-3.362.341-1.601 1.534-2.802 2.727-2.562 1.108.16 1.79 1.681 1.364 3.363z" fill="url(#timeoutab)" transform="translate(57.045 22.415)"/><path d="M132.102 42.99c-.426 1.12-9.63-.561-9.63-.561s-.597 1.44-2.642 1.12l-2.216-2.641 8.096-.56c-.085-.08 5.2.72 6.392 2.641z" fill="url(#timeoutac)" transform="translate(57.045 22.415)"/><path d="M158.295 43.79l-15.852-19.774s-1.704-1.6-5.199-1.52l8.779 20.813s12.102 2.002 12.272.48z" fill="#F06B6C"/><path d="M117.528 35.864l4.432 1.441S66.818 48.673 67.244 49.073c.426.4 4.517 2.802 9.972 1.361 5.454-1.44 64.432-11.608 64.517-11.127-.426 0-2.642-2.882-12.273-3.923-9.716-1.12-11.335-.64-11.932.48z" fill="url(#timeoutad)" transform="translate(57.045 22.415)"/><path d="M1.62 1.761c0 .24-.171.4-.427.4s-.426-.16-.426-.4v-.8c0-.24.17-.4.426-.4s.426.16.426.4v.8z" fill="url(#timeoutae)" transform="translate(157.614 48.833)"/><path d="M3.92 2.081c0 .24-.17.4-.426.4-.255 0-.426-.16-.426-.4v-.8c0-.24.17-.4.426-.4s.426.16.426.4v.8z" fill="url(#timeoutaf)" transform="translate(157.614 48.833)"/><path d="M6.222 2.482c0 .24-.17.4-.427.4-.255 0-.426-.16-.426-.4v-.8c0-.241.17-.401.426-.401s.427.16.427.4v.8z" fill="url(#timeoutag)" transform="translate(157.614 48.833)"/><path d="M8.523 2.882c0 .24-.17.4-.426.4s-.427-.16-.427-.4v-.8c0-.24.17-.4.427-.4.255 0 .426.16.426.4v.8z" fill="url(#timeoutah)" transform="translate(157.614 48.833)"/><path d="M10.824 3.282c0 .24-.17.4-.426.4s-.426-.16-.426-.4v-.8c0-.24.17-.4.426-.4.255 0 .426.16.426.4v.8z" fill="url(#timeoutai)" transform="translate(157.614 48.833)"/><path d="M13.125 3.602c0 .24-.17.4-.426.4s-.426-.16-.426-.4v-.8c0-.24.17-.4.426-.4s.426.16.426.4v.8z" fill="url(#timeoutaj)" transform="translate(157.614 48.833)"/><path d="M15.426 4.003c0 .24-.17.4-.426.4s-.426-.16-.426-.4v-.8c0-.241.17-.401.426-.401s.426.16.426.4v.8z" fill="url(#timeoutak)" transform="translate(157.614 48.833)"/><path d="M17.727 4.403c0 .24-.17.4-.426.4s-.426-.16-.426-.4v-.8c0-.24.17-.4.426-.4s.426.16.426.4v.8z" fill="url(#timeoutal)" transform="translate(157.614 48.833)"/><path d="M20.028 4.723c0 .24-.17.4-.426.4-.255 0-.426-.16-.426-.4v-.8c0-.24.17-.4.426-.4s.426.16.426.4v.8z" fill="url(#timeoutam)" transform="translate(157.614 48.833)"/><path d="M22.33 5.123c0 .24-.17.4-.427.4-.255 0-.426-.16-.426-.4v-.8c0-.24.17-.4.426-.4s.427.16.427.4v.8z" fill="url(#timeoutan)" transform="translate(157.614 48.833)"/><path d="M24.63 5.524c0 .24-.17.4-.425.4-.256 0-.427-.16-.427-.4v-.8c0-.241.17-.401.427-.401.255 0 .426.16.426.4v.8z" fill="url(#timeoutao)" transform="translate(157.614 48.833)"/><path d="M26.932 5.924c0 .24-.17.4-.426.4s-.426-.16-.426-.4v-.8c0-.24.17-.4.426-.4.255 0 .426.16.426.4v.8z" fill="url(#timeoutap)" transform="translate(157.614 48.833)"/><path d="M29.233 6.244c0 .24-.17.4-.426.4s-.426-.16-.426-.4v-.8c0-.24.17-.4.426-.4s.426.16.426.4v.8z" fill="url(#timeoutaq)" transform="translate(157.614 48.833)"/><path d="M31.62 6.645c0 .24-.171.4-.427.4s-.426-.16-.426-.4v-.801c0-.24.17-.4.426-.4s.426.16.426.4v.8z" fill="url(#timeoutar)" transform="translate(157.614 48.833)"/><path d="M33.92 7.045c0 .24-.17.4-.426.4-.255 0-.426-.16-.426-.4v-.8c0-.24.17-.401.426-.401s.426.16.426.4v.8z" fill="url(#timeoutas)" transform="translate(157.614 48.833)"/><path d="M36.222 7.365c0 .24-.17.4-.427.4-.255 0-.426-.16-.426-.4v-.8c0-.24.17-.4.426-.4s.427.16.427.4v.8z" fill="url(#timeoutat)" transform="translate(157.614 48.833)"/><path d="M38.523 7.765c0 .24-.17.4-.426.4s-.427-.16-.427-.4v-.8c0-.24.17-.4.427-.4.255 0 .426.16.426.4v.8z" fill="url(#timeoutau)" transform="translate(157.614 48.833)"/><path d="M40.824 8.166c0 .24-.17.4-.426.4s-.426-.16-.426-.4v-.801c0-.24.17-.4.426-.4.255 0 .426.16.426.4v.8z" fill="url(#timeoutav)" transform="translate(157.614 48.833)"/><path d="M43.125 8.566c0 .24-.17.4-.426.4s-.426-.16-.426-.4v-.8c0-.24.17-.401.426-.401s.426.16.426.4v.8z" fill="url(#timeoutaw)" transform="translate(157.614 48.833)"/><path d="M45.426 8.886c0 .24-.17.4-.426.4s-.426-.16-.426-.4v-.8c0-.24.17-.4.426-.4s.426.16.426.4v.8z" fill="url(#timeoutax)" transform="translate(157.614 48.833)"/><path d="M47.727 9.286c0 .24-.17.4-.426.4s-.426-.16-.426-.4v-.8c0-.24.17-.4.426-.4s.426.16.426.4v.8z" fill="url(#timeoutay)" transform="translate(157.614 48.833)"/><path d="M50.028 9.687c0 .24-.17.4-.426.4-.255 0-.426-.16-.426-.4v-.801c0-.24.17-.4.426-.4s.426.16.426.4v.8z" fill="url(#timeoutaz)" transform="translate(157.614 48.833)"/><path d="M52.33 10.007c0 .24-.17.4-.427.4-.255 0-.426-.16-.426-.4v-.8c0-.24.17-.401.426-.401s.427.16.427.4v.8z" fill="url(#timeoutaA)" transform="translate(157.614 48.833)"/><path d="M54.63 10.407c0 .24-.17.4-.425.4-.256 0-.427-.16-.427-.4v-.8c0-.24.17-.4.427-.4.255 0 .426.16.426.4v.8z" fill="url(#timeoutaB)" transform="translate(157.614 48.833)"/><path d="M56.932 10.807c0 .24-.17.4-.426.4s-.426-.16-.426-.4v-.8c0-.24.17-.4.426-.4.255 0 .426.16.426.4v.8z" fill="url(#timeoutaC)" transform="translate(157.614 48.833)"/><path d="M59.233 11.208c0 .24-.17.4-.426.4s-.426-.16-.426-.4v-.8c0-.241.17-.401.426-.401.255 0 .426.16.426.4v.8z" fill="url(#timeoutaD)" transform="translate(157.614 48.833)"/><path d="M61.534 11.528c0 .24-.17.4-.426.4s-.426-.16-.426-.4v-.8c0-.24.17-.401.426-.401s.426.16.426.4v.8z" fill="url(#timeoutaE)" transform="translate(157.614 48.833)"/><path d="M157.5 28.019l-12.102-1.521 19.432-13.289s4.005 1.761 3.323 3.042c-.681 1.28-10.483 11.688-10.483 11.688" fill="url(#timeoutaF)" transform="translate(57.045 22.415)"/><path d="M117.528 35.864l4.432 1.441S66.818 48.673 67.244 49.073c.426.4 4.347 2.002 9.972 1.361 10.653-1.2 62.045-7.765 64.517-11.127-.426 0-2.642-2.882-12.273-3.923-9.716-1.12-11.335-.64-11.932.48z" fill="url(#timeoutaG)" transform="translate(57.045 22.415)"/></g></svg>