<svg viewBox="0 0 24 24" xmlns="http://www.w3.org/2000/svg"><title>Train</title><g fill="none" fill-rule="evenodd"><path fill-rule="nonzero" d="M0 0h24v24H0z"/><path d="M12.5 19.584c-4.661 0-8.5-2.87-8.5-7.106 0-2.05 1.371-6.285 1.371-6.285C6.331 3.05 9.21 1 12.5 1c3.29 0 6.032 2.186 7.129 5.193 0 0 1.371 4.236 1.371 6.285 0 4.236-3.839 7.106-8.5 7.106zM7.565 6.602v2.05c0 .82.548 1.367 1.37 1.367h7.13c.822 0 1.37-.547 1.37-1.367v-2.05c0-.82-.548-1.366-1.37-1.366h-7.13c-.822 0-1.37.547-1.37 1.366zm9.048 13.665c.411-.137.685-.273.822-.41L20.315 23h-2.742l-.275-.82H7.565L7.29 23H4.548l2.88-3.143c.274.137.548.273.96.41l-.275.82h8.774l-.274-.82zm0-4.236c.681 0 1.234-.55 1.234-1.23 0-.679-.553-1.23-1.234-1.23-.682 0-1.234.551-1.234 1.23 0 .68.552 1.23 1.234 1.23zm-8.226 0c.682 0 1.234-.55 1.234-1.23 0-.679-.552-1.23-1.234-1.23-.681 0-1.234.551-1.234 1.23 0 .68.553 1.23 1.234 1.23z" fill="currentColor"/></g></svg>