<svg viewBox="0 0 40 40" xmlns="http://www.w3.org/2000/svg"><path d="M30.963 15.66c0 2.533-1.428 2.652-11.01 2.652-9.664 0-11.322-.12-11.322-2.653v-4.24c0-3.06 5-5.04 11.167-5.04 6.17 0 11.166 1.98 11.166 5.04v4.24zm-3.65 9.4c-1.145 0-2.074-.94-2.074-2.1 0-1.16.928-2.1 2.073-2.1 1.146 0 2.074.94 2.074 2.1 0 1.16-.928 2.1-2.074 2.1zm-15.008 0c-1.146 0-2.074-.94-2.074-2.1 0-1.16.93-2.1 2.075-2.1 1.146 0 2.074.94 2.074 2.1 0 1.16-.93 2.1-2.075 2.1zM33.25 10.61h-.02c-.17-3.56-4.02-5.946-9.267-6.77V1.41S22.11 1 19.953 1c-2.154 0-4.137.407-4.137.407v2.377c-5.38.772-9.282 3.184-9.453 6.824h-.017S6 13.438 6 17.734c0 4.405.346 7.37.346 7.37h.013c.084 2.52 1.602 4.794 4.004 6.442 0 0 .327.242 1.015.555-.754 1.422-3.62 5.577-3.874 6.49.695 0 2.81.032 3.398-.02.153-.01.372-.183.447-.404.18-.53 2.115-3.312 3.207-5.076 1.367.28 3.073.32 5.216.32 2.183 0 3.95-.07 5.347-.37 1.064 1.787 2.872 4.678 3.174 5.256.073.14.197.275.305.278.63.027 2.825.012 3.49.012-1.56-2.84-3.208-5.28-3.87-6.513.66-.295 1.01-.527 1.01-.527 2.403-1.648 3.922-3.92 4.008-6.442h.013s.337-3.736.337-7.536c0-3.634-.336-6.96-.336-6.96z" fill="currentColor" fill-rule="evenodd"/></svg>