<svg xmlns="http://www.w3.org/2000/svg" viewBox="0 0 102 91"><path d="M1.9 43.6L70.7.6a3 3 0 0 1 4.3 1l25.8 41.3a3 3 0 0 1-1 4.3L31 90.2a3 3 0 0 1-4.3-1L.9 47.9a3.2 3.2 0 0 1 1-4.3z" fill="#2c83b6"/><path d="M.3 77.7L.5 29c0-1.7 1.4-3.1 3.1-3.1l81.1.3c1.7 0 3.1 1.4 3.1 3.1L87.6 78c0 1.7-1.4 3.1-3.1 3.1l-81.1-.2a3.1 3.1 0 0 1-3.1-3.2z" fill="#8ac4e5"/><path d="M.4 47.2v-14l87.4.4v14L.4 47.2z" fill="#0f4263"/><circle fill="#4e90ba" cx="36" cy="58" r="3"/><circle fill="#4e90ba" cx="50" cy="58" r="3"/><path d="M50 67c-4.4 4-9 4-14 0" fill="none" stroke="#4e90ba" stroke-width="3" stroke-linecap="round"/></svg>