<svg viewBox="0 0 102 91" xmlns="http://www.w3.org/2000/svg"><g transform="translate(-1 -1)" fill="none" fill-rule="evenodd"><rect fill="#2C83B6" fill-rule="nonzero" transform="rotate(-32 51.8 46.4)" x="8.2" y="19" width="87.3" height="54.9" rx="3.1"/><rect fill="#8AC4E5" fill-rule="nonzero" transform="rotate(-89.8 45 54.6)" x="17.6" y="11" width="54.9" height="87.3" rx="3.1"/><path fill="#0F4263" fill-rule="nonzero" d="M1.4 48.2v-14l87.4.4v14z"/><text font-family="OpenSans-Bold, Open Sans" font-size="8" font-weight="bold" letter-spacing=".2" fill="#2C83B6"><tspan x="41.1" y="59">124359385</tspan></text><path d="M39.3 59.7c-.1.2-.4.3-.6.3l-.8-.1c-1-.3-2.1-1-3-1.8-.9-.9-1.5-2-1.8-3l-.1-.8c0-.2.1-.5.3-.6l1-.6c.2-.2.5 0 .6.2l.7 1.4v.6l-.7.5c.2.5.5.9 1 1.4l1.3 1 .5-.7c.2-.2.4-.3.6-.1l1.4.7c.3.1.4.4.2.7l-.6.9z" fill="#2C83B6" fill-rule="nonzero"/></g></svg>