<svg viewBox="0 0 211 96" xmlns="http://www.w3.org/2000/svg"><title>Visa Verified</title><g fill="none" fill-rule="evenodd"><path d="M84.896 52L74.63 79.998l-1.093-5.69C70.98 67.335 65.447 60.017 59 57.05L68.39 93l11.102-.005L96 52H84.896zM94 92l6.543-41H111l-6.547 41zm50-39.287c-2.107-.82-5.432-1.713-9.556-1.713-10.547 0-17.959 5.524-18.024 13.426-.068 5.852 5.3 9.117 9.333 11.061 4.164 1.99 5.555 3.267 5.542 5.047-.04 2.727-3.33 3.969-6.39 3.969-4.262 0-6.533-.613-10.028-2.127l-1.385-.648L112 90.833c2.496 1.134 7.1 2.115 11.887 2.167 11.195 0 18.478-5.461 18.565-13.896.045-4.641-2.803-8.156-8.962-11.057-3.717-1.885-6.016-3.135-5.982-5.048.003-1.688 1.93-3.498 6.11-3.498 3.492-.056 6.003.733 7.98 1.565l.952.467 1.45-8.82zm13.385 25.727a4039.92 4039.92 0 0 0 4.215-11.47c-.065.112.867-2.373 1.407-3.908l.704 3.537 2.457 11.84h-8.783zM170.432 52h-8.174c-2.534 0-4.433.723-5.552 3.405L141 93h11.112s1.818-5.059 2.229-6.169c1.21 0 12.004.025 13.545.025.327 1.43 1.288 6.144 1.288 6.144H179l-8.568-41z" fill="#005EA3"/><path d="M65.387 52H48.1l-.1.696C61.44 56.046 70.308 64.272 74 74l-3.757-18.592c-.646-2.559-2.526-3.318-4.856-3.408" fill="#F3A744"/><path fill="#005EA3" d="M16.31 41H9.663L2 6.235 9.344 5l5.243 27.206L27.946 5.36H35zm25.63-20.71c-2.507 0-4.849 1.964-5.954 6.047h10.026c.185-3.876-1.043-6.047-4.072-6.047m9.529 9.924H35.278c-.443 4.859 1.84 6.978 5.704 6.978 3.239 0 6.087-1.189 9.153-3.102l-.026 4.859C47.104 40.81 43.63 42 39.556 42c-7.05 0-11.706-3.982-10.308-12.976C30.51 20.91 36.183 16 42.763 16c7.573 0 10.092 5.634 8.99 12.716-.08.516-.228 1.136-.284 1.498m10.929-2.822L60.198 42H54l3.84-25.473h5.266l.004 5.116c2.097-2.954 4.95-5.432 8.853-5.643L72 22.276c-3.913.264-7.432 2.373-9.602 5.116m17.308-15.315c-2.085 0-3.528-1.436-3.207-3.486C76.828 6.488 78.727 5 80.813 5c2.033 0 3.47 1.488 3.14 3.59-.322 2.05-2.214 3.487-4.247 3.487zM72 41l3.875-24.769h6.256L78.257 41H72zM98.507 9.085c-2.07 0-3.32.934-3.654 3.166l-.552 3.684h4.644l-.004 5.085h-5.4L90.547 41H84.54l2.992-19.98H84l.761-5.085h3.533l.645-4.307C89.77 6.075 93.514 4 98.511 4c1.06 0 1.852.104 2.443.207L101 9.293a14.866 14.866 0 0 0-2.493-.208m8.199 2.992c-2.085 0-3.53-1.436-3.208-3.486.33-2.103 2.23-3.591 4.315-3.591 2.034 0 3.469 1.488 3.14 3.59-.322 2.05-2.214 3.487-4.247 3.487zM99 41l3.875-24.769h6.256L105.256 41H99zm24.94-20.71c-2.508 0-4.85 1.964-5.954 6.047h10.026c.185-3.876-1.044-6.047-4.072-6.047m9.528 9.924h-16.19c-.443 4.859 1.838 6.978 5.704 6.978 3.238 0 6.087-1.189 9.153-3.102l-.026 4.859C129.103 40.81 125.628 42 121.555 42c-7.05 0-11.705-3.982-10.307-12.976C112.508 20.91 118.183 16 124.762 16c7.573 0 10.093 5.634 8.992 12.716-.081.516-.23 1.136-.286 1.498m20.568-7.993c-1.434-.727-2.564-1.09-4.676-1.09-3.245 0-6.02 2.648-6.858 8.15-.745 4.88.966 7.164 3.696 7.164 2.268 0 4.224-1.35 6.189-3.426l1.65-10.798zm-2.065 19.26l.016-3.479C149.91 40.131 147.203 42 143.753 42c-5.204 0-8.78-3.894-7.487-12.356 1.426-9.343 7.158-13.497 12.928-13.497 2.37 0 4.213.416 5.628.935l1.847-12.096L163 4l-5.724 37.48h-5.305zm28.188-15.137c-1.586 0-3.176 1.076-4.586 2.51l-1.336 8.724c.937.358 1.586.517 2.933.517 3.012 0 5.116-1.832 5.787-6.214.568-3.704-.658-5.537-2.798-5.537M176.651 42c-2.973 0-5.396-.48-7.651-1.275l4.13-26.968L178 13l-1.786 11.672c1.424-1.275 3.402-2.55 5.82-2.55 4.043 0 6.75 3.029 5.762 9.48C186.71 38.692 182.359 42 176.65 42m21.304-.035c-2.355 4.603-4.688 6.035-8.263 6.035-.807 0-1.255-.077-1.66-.193l-.031-3.83a7.9 7.9 0 0 0 2.112.27c1.345 0 2.516-.618 3.299-1.973l.611-1.238-3.91-18.418 4.9-.618 2.27 13.31 6.143-13.04H208l-10.046 19.695z"/></g></svg>