<svg viewBox="0 0 16 13" xmlns="http://www.w3.org/2000/svg" xmlns:xlink="http://www.w3.org/1999/xlink"><defs><path fill="currentColor" d="M10 11.7c.86 0 1.68.34 2.3.94a.44.44 0 0 1 0 .62l-1.98 1.93a.46.46 0 0 1-.65 0L7.7 13.26a.44.44 0 0 1 0-.62c.62-.6 1.44-.93 2.3-.93zM5.04 9.23a7.12 7.12 0 0 1 9.89 0c.42.41.42 1.09 0 1.5a1.1 1.1 0 0 1-1.55 0 4.9 4.9 0 0 0-6.8 0c-.42.42-1.11.42-1.54 0a1.05 1.05 0 0 1 0-1.5zM2.71 5.94a10.49 10.49 0 0 1 14.56 0c.43.41.43 1.09 0 1.5a1.1 1.1 0 0 1-1.54 0 8.26 8.26 0 0 0-11.47 0c-.43.42-1.12.42-1.55 0a1.05 1.05 0 0 1 0-1.5z" id="wifia"/></defs><use xlink:href="#wifia" transform="translate(-2 -3)"/></svg>