<svg xmlns="http://www.w3.org/2000/svg" viewBox="0 0 18 18"><path fill="none" stroke="currentColor" stroke-linecap="round" stroke-linejoin="round" d="M15.5 9c0 1 .6 1.8 1.5 2.3l-.7 1.6c-1-.3-1.8.2-2.5.9s-1 1.5-.7 2.5l-1.6.7A3 3 0 0 0 9 15.5c-1 0-2 .6-2.5 1.5l-1.6-.7c.3-1 0-1.8-.7-2.5s-1.5-1-2.5-.7L1 11.5A3 3 0 0 0 2.5 9C2.5 8 2 7.2 1 6.7L1.7 5c1 .3 1.8-.2 2.5-.9s1-1.5.7-2.5L6.5 1A3 3 0 0 0 9 2.5c1 0 2-.6 2.5-1.5l1.6.7c-.3 1 0 1.8.7 2.5s1.5 1.2 2.5.9l.7 1.6C16 7.2 15.5 8 15.5 9zM9 12.5a3.5 3.5 0 1 0 0-7 3.5 3.5 0 0 0 0 7z"/></svg>