<svg viewBox="0 0 24 24" xmlns="http://www.w3.org/2000/svg"><g fill="none" fill-rule="evenodd"> <path d="M18.12 17.048c-1.371 0-2.528-.914-2.87-2.152 3.094.003 3.37.159 3.413-.366-.005-.153-.063-.259-1.41-3.177.275-.082.565-.126.867-.126 1.638 0 2.971 1.306 2.971 2.91 0 1.605-1.333 2.91-2.971 2.91zm-1.626-5.346l1.12 2.431-2.467-.006a2.896 2.896 0 0 1 1.347-2.425zm-2.256 2.422l-.721-.002 1.874-4.815.726 1.578a3.785 3.785 0 0 0-1.879 3.239zm-1.552-.105L7.99 9.009l6.604-.012-1.908 5.022zm-3.833.18c0 1.606-1.333 2.911-2.972 2.911-1.64 0-2.973-1.305-2.973-2.91 0-1.605 1.334-2.91 2.972-2.91.149 0 .294.01.436.031-.947 2.923-.834 2.59-.839 2.838-.006.207.167.373.382.386.387-.038.3.024 1.265-2.987 1.02.461 1.73 1.471 1.73 2.642zm9.267-3.861c-.434 0-.852.07-1.242.2-.302-.656-.656-1.423-1.07-2.325l.265-.71.906-.017V6.74h-3.414c-.3.402.12.4 1.633.728l-.264.729H8.185c.455-1.556.198-1.444 2.245-1.439V6c-2.817.027-2.328-.284-3.837 4.467a3.88 3.88 0 0 0-.713-.067C3.741 10.4 2 12.105 2 14.2 2 16.295 3.741 18 5.88 18c2.14 0 3.882-1.705 3.882-3.8 0-1.568-.975-2.917-2.362-3.496l.271-.835c5.678 5.864 3.548 4.913 6.603 5.03h.043c.362 1.731 1.93 3.037 3.803 3.037 2.139 0 3.88-1.704 3.88-3.799 0-2.095-1.741-3.799-3.88-3.799z" fill="currentColor"/></g></svg>