<svg viewBox="0 0 163 121" xmlns="http://www.w3.org/2000/svg" xmlns:xlink="http://www.w3.org/1999/xlink"><defs><path id="booking-successa" d="M135.3.1v69.7H.2V.1h135.1z"/><path id="booking-successc" d="M4.4.4v5.1H0V.4h4.3z"/><path id="booking-successe" d="M0 1h7.8V0H0v1z"/><path id="booking-successg" d="M7.5 0v2H0V0h7.5z"/><path id="booking-successi" d="M5.4.3V5H.1V.3h5.3z"/><path id="booking-successk" d="M4.4 0v11.5h-4V0h4z"/><path id="booking-successm" d="M7.5.3v7.5H.2V.3h7.3z"/><ellipse id="booking-successo" cx="15.4" cy="15.1" rx="15.4" ry="15.1"/><path d="M24.2 9.2c.4.3.4.9 0 1.2L12.9 22a1 1 0 0 1-1.4 0l-4.8-4.7a.9.9 0 0 1 0-1.3 1 1 0 0 1 1.4 0l3.8 3.8a.5.5 0 0 0 .6 0L23 9.2a1 1 0 0 1 1.3 0z" id="booking-successq"/></defs><g fill="none" fill-rule="evenodd"><path d="M3.6 120H129a3.6 3.6 0 1 0 0-7.1H3.6a3.6 3.6 0 1 0 0 7.1z" fill="#DEEBF9" fill-rule="nonzero"/><path d="M98.7 41.8c-1 0-2-.8-2.2-2-6.4-35-20.7-35.7-20.9-35.7C62.4 5.4 61 26.7 60.4 35.8c-.3 4.3-.4 5.8-2.1 5.8-1 0-2-1-2.2-2 0-.6 0-1 .3-1.4l.3-3.3c.7-10 2.2-33.3 18.2-34.9 1.2 0 18.1.7 25.3 39.7.2 1.1-.5 2.1-1.5 2.1z" fill="#5E90CC"/><path d="M106.2 46c.7 4.8-1.6 8.6-5 8.6-3.5 0-7-3.8-7.6-8.5-.7-4.7 1.6-8.5 5-8.5 3.6 0 7 3.8 7.6 8.5m-42.8 1.3c-.2 4.6-3.3 7.7-6.8 7-3.5-.7-6.1-5-5.9-9.6.3-4.6 3.4-7.7 6.9-7 3.5.7 6.1 5 5.8 9.6" fill="#5E90CC"/><path d="M86.6 41.9c-1 0-1.7-.9-1.7-2C86 5.1 71.8 4.4 71.6 4.4c-13.5 1.3-19.4 22.4-22 31.5-1.1 4.3-1.5 5.7-3.3 5.7-1 0-1.8-.9-1.7-2a55.6 55.6 0 0 0 1.6-4.7C48.9 25.1 55.4 2 71.7.3c1.2 0 18 .8 17 39.4-.1 1.2-1 2.1-2 2.2z" fill="#9EBCE0"/><path d="M93.3 46c-.3 4.7-3.4 8.5-6.9 8.5-3.5 0-6-3.8-5.7-8.4.3-4.7 3.4-8.5 6.9-8.5 3.4 0 6 3.8 5.7 8.5m-43 1.2c-1.3 4.6-5 7.7-8.4 7-3.3-.7-5-5-3.8-9.5 1.2-4.6 5-7.7 8.3-7 3.4.7 5.1 5 3.9 9.5" fill="#5E90CC"/><g transform="translate(4.2 44.1)"><mask id="booking-successb" fill="#fff"><use xlink:href="#booking-successa"/></mask><path d="M125.6 16.3A22 22 0 0 0 105 .1H39.6L28.2.3l-.7-.2h-8.7C14.6.1 10.6 3 9.7 7L.9 46.4a29.3 29.3 0 0 0-.1 12l.2 1 .6 1.8c1.8 5 5.3 8.6 10 8.6h105.8c11.8 0 18.6-11.1 15.5-23.6l-7.3-29.9z" fill="#9EBCE0" mask="url(#booking-successb)"/></g><path d="M11.9 61.7c.9-4 5-6.8 9.1-6.8h8.6l.8.1h76.7a22 22 0 0 1 20.6 16l7.3 30c.3 1.1.4 2.3.5 3.4 1.8-4 2.3-9 1-14.1l-7.3-29.9a22 22 0 0 0-20.6-16.1H43.3l-11.4.1-.7-.1h-8.6c-4.3 0-8.3 2.8-9.2 6.7L4.6 90.5C4.1 92.7 4 95 4 97l8-35.3z" fill="#BFD3EB"/><path d="M124.4 101.6H17.5c-5 0-8.5-3.4-10.3-8.2a14.4 14.4 0 0 1-.8-2.6L6 88.4a27 27 0 0 1-.1-4l-1.6 6.9a29.1 29.1 0 0 0-.1 12l.2 1L5 106c1.8 5.1 5.4 8.7 10.3 8.7h106.9c11 0 17.7-9.5 16.2-20.7a15.7 15.7 0 0 1-14 7.6" fill="#7EA6D6"/><path d="M138.2 91.3l-9-39.5c-.8-4-5-6.8-9.2-6.8h-8.7c-4.3 0-8.4 2.8-9.3 6.8l-8.9 39.5c-2.6 11.7 2 23.4 11 23.4h23.1c9 0 13.6-11.7 11-23.4" fill="#5E90CC"/><path d="M61.9 57.2h-14c-.7 0-1.3-.6-1.3-1.3v-1c0-.8.6-1.4 1.4-1.4h13.9c.7 0 1.3.6 1.3 1.3V56c0 .7-.6 1.3-1.3 1.3" fill="#CDE2F5"/><g transform="translate(135.1 109.7)"><mask id="booking-successd" fill="#fff"><use xlink:href="#booking-successc"/></mask><path d="M.5.4L0 .9.5.4" fill="#CB0000" mask="url(#booking-successd)"/></g><g transform="translate(127.2 114.3)"><mask id="booking-successf" fill="#fff"><use xlink:href="#booking-successe"/></mask><path d="M1.2.6c.3-.2.5-.4.9-.5C1.4.3.7.6 0 .6h1.2z" fill="#343434" mask="url(#booking-successf)"/></g><g transform="translate(132 113.2)"><mask id="booking-successh" fill="#fff"><use xlink:href="#booking-successg"/></mask><path d="M.2 0L0 .1h.2" fill="#343434" mask="url(#booking-successh)"/></g><g transform="translate(134 110.2)"><mask id="booking-successj" fill="#fff"><use xlink:href="#booking-successi"/></mask><path d="M1.1.3l-1 1 1-1" fill="#343434" mask="url(#booking-successj)"/></g><g transform="translate(135.1 98.6)"><mask id="booking-successl" fill="#fff"><use xlink:href="#booking-successk"/></mask><path d="M.4 11.5C4 6.6 3.8 0 3.8 0A21 21 0 0 1 .3 11.5" fill="#343434" mask="url(#booking-successl)"/></g><path d="M30 91l8.9-39.9c.9-4 5-6.8 9.2-6.8h-7.9C36 44.3 32 47 31 51l-9 40c-2.6 11.7 2 23.6 11 23.6h8c-9 0-13.7-11.9-11-23.7" fill="#5E90CC"/><path d="M97.3 91.3c0-.4.3-.7.7-.7h33.5c.4 0 .7.3.7.7 0 .4-.3.7-.7.7H98a.7.7 0 0 1-.7-.7" fill="#BAD2E2"/><g transform="translate(132 90.2)"><mask id="booking-successn" fill="#fff"><use xlink:href="#booking-successm"/></mask><path d="M.2 1.1c0-.5.5-.8 1-.8.6 0 1.1.3 1.1.8s-.5.9-1 .9c-.6 0-1-.4-1-.9z" fill="#BAD2E2" mask="url(#booking-successn)"/></g><path d="M128.5 95.6c-.5-.4-.4-.9 0-1.1l3.9-2.5c.1-.1.4 0 .6.1.2.2.3.5.2.6l-3.4 3c-.3.2-1 .2-1.3 0" fill="#BAD2E2"/><path d="M81 51.1c.8-4 5-6.8 9.2-6.8h-7.9C78 44.3 74 47 73.1 51l-9 40c-2.6 11.7 2 23.6 11 23.6H83c-9 0-13.6-11.9-11-23.7L81 51z" fill="#5E90CC"/><path d="M112.6 45v27.1c0 1.9 1.5 3.4 3.4 3.4h.7c1.9 0 3.4-1.5 3.4-3.4v-27h-7.5z" fill="#7EA6D6"/><path d="M115.6 45v24.5c0 .4.4.8.8.8.5 0 1-.4 1-.8V45h-1.8zm-.2 26.5c0-.7.5-1.2 1-1.2.6 0 1 .5 1 1.2 0 .6-.4 1.2-1 1.2-.5 0-1-.6-1-1.2m-3.4 6.8h-.2c-.6-.2-.7-.7-.4-1.1l3.3-4.4c.1-.1.5-.2.8 0 .3 0 .5.2.4.4l-2.4 4.6c-.3.5-1 .7-1.6.5" fill="#BAD2E2"/><g transform="translate(128.1 87.1)"><mask id="booking-successp" fill="#fff"><use xlink:href="#booking-successo"/></mask><use stroke="#F5F6F9" stroke-width="7" fill="#D8D8D8" fill-rule="nonzero" xlink:href="#booking-successo"/><g mask="url(#booking-successp)" fill="#24C89A"><path d="M-2.7-2.7h37.3v36.4H-2.7z"/></g><use fill="#FFF" fill-rule="nonzero" xlink:href="#booking-successq"/></g></g></svg>