<svg viewBox="0 0 24 24" xmlns="http://www.w3.org/2000/svg"><g fill="none" fill-rule="evenodd"> <path d="M21 7.031v2.265c0 .754-.514 1.383-1.286 1.383V22h-1.157c-.771 0-1.414-.629-1.414-1.384v-1.132H6.857v1.132c0 .755-.643 1.384-1.414 1.384H4.286V10.68C3.514 10.552 3 10.05 3 9.295V7.03c0-.754.514-1.257 1.286-1.257V4.516C4.286 3.132 5.443 2 6.857 2h10.286c1.414 0 2.571 1.132 2.571 2.516v1.258c.772 0 1.286.503 1.286 1.257zM6.857 5.774c-.771 0-1.286.503-1.286 1.257v5.032c0 .755.515 1.258 1.286 1.258h10.286c.771 0 1.286-.503 1.286-1.258V7.03c0-.754-.515-1.257-1.286-1.257H6.857zm10.286 12.452c.639 0 1.157-.506 1.157-1.132 0-.625-.518-1.132-1.157-1.132-.64 0-1.157.507-1.157 1.132 0 .626.518 1.132 1.157 1.132zm-10.286 0c.64 0 1.157-.506 1.157-1.132 0-.625-.518-1.132-1.157-1.132S5.7 16.47 5.7 17.094c0 .626.518 1.132 1.157 1.132z" fill="currentColor"/></g></svg>