<svg viewBox="0 0 24 24" xmlns="http://www.w3.org/2000/svg"><g fill="none" fill-rule="evenodd"> <path d="M18.287 17.84a1.32 1.32 0 0 1-1.335-1.324c-.006-.753.593-1.374 1.328-1.376.73-.003 1.346.628 1.341 1.369a1.33 1.33 0 0 1-1.334 1.33m-6.085-3.97c-2.261-.012-6.322-.076-6.59-.357-.193-.205.532-2.372 1.532-3.227.363-.31.953-.426 1.462-.519 1.953-.36 3.647-.384 5.62-.187.668.067.964.104 1.625.224.507.094.995.443 1.33.833.732.854 1.583 2.74 1.335 2.925-.388.289-4.189.321-6.314.309m-6.47 3.97a1.316 1.316 0 0 1-1.343-1.317 1.344 1.344 0 0 1 1.32-1.383c.725-.01 1.357.626 1.354 1.36a1.341 1.341 0 0 1-1.33 1.34m15.005-2.696c.37 1.503.355 3.008-.087 4.5-.046.152-.05.32-.057.481-.023.53-.032 1.058-.057 1.586-.01.209-.13.293-.345.287a30.385 30.385 0 0 0-1.546 0c-.233.007-.335-.098-.36-.31-.023-.194-.049-.386-.054-.579-.008-.334-.002-.669-.002-1.037-4.332.183-8.071.183-12.468-.005 0 .408.002.774-.003 1.14a3.61 3.61 0 0 1-.037.488c-.031.205-.13.315-.367.304-.485-.018-.97-.003-1.455-.005-.376 0-.435-.044-.463-.434-.025-.366.008-.736-.033-1.1-.069-.583-.172-1.161-.271-1.74-.313-1.801-.062-3.546.63-5.211.521-1.255 1.61-2.905 1.83-3.256.648-1.036 1.624-1.485 2.778-1.694 1.47-.265 5.117-.376 7.46.043 1.136.166 2.007.742 2.63 1.713.181.283 1.865 3.281 2.277 4.829zm-.389-8.178H15.62c-.066-.726.158-1.363.879-1.709a1.29 1.29 0 0 1 .557-.125c.608 0 1.216-.003 1.824.001.722.005 1.332.54 1.437 1.263.027.186.022.377.032.57zm-2.374-2.282a1.34 1.34 0 0 1-1.328-1.35A1.337 1.337 0 0 1 18.01 2c.708.004 1.302.622 1.298 1.35a1.34 1.34 0 0 1-1.332 1.334zM14.37 6.966H9.64c-.066-.726.157-1.363.879-1.709a1.29 1.29 0 0 1 .557-.125c.608 0 1.216-.003 1.824.001.721.005 1.332.54 1.437 1.263.027.186.022.377.032.57zm-2.374-2.282a1.34 1.34 0 0 1-1.328-1.35A1.338 1.338 0 0 1 12.03 2c.708.004 1.302.622 1.298 1.35a1.34 1.34 0 0 1-1.332 1.334zM8.39 6.966H3.66c-.065-.726.158-1.363.88-1.709a1.29 1.29 0 0 1 .557-.125c.608 0 1.216-.003 1.824.001.721.005 1.332.54 1.437 1.263.027.186.022.377.032.57zM6.016 4.684a1.34 1.34 0 0 1-1.328-1.35A1.338 1.338 0 0 1 6.05 2c.709.004 1.303.622 1.299 1.35a1.34 1.34 0 0 1-1.333 1.334z" fill="currentColor"/></g></svg>