<svg viewBox="0 0 24 24" xmlns="http://www.w3.org/2000/svg"><title>Car</title><g fill="none" fill-rule="evenodd"><path d="M17.7 14.6a1.278 1.278 0 0 1-1.3-1.275A1.311 1.311 0 0 1 17.694 12c.71-.003 1.31.604 1.306 1.318a1.289 1.289 0 0 1-1.3 1.282m-11.394 0A1.274 1.274 0 0 1 5 13.332 1.3 1.3 0 0 1 6.283 12c.705-.009 1.32.602 1.317 1.31a1.298 1.298 0 0 1-1.294 1.29m5.896-3.923c-2.261-.013-6.322-.078-6.59-.366-.193-.21.532-2.427 1.532-3.303.363-.317.953-.436 1.462-.531 1.953-.369 3.647-.394 5.62-.191.668.068.964.106 1.625.229.507.095.995.452 1.33.852.732.874 1.583 2.805 1.335 2.994-.388.296-4.189.33-6.314.316m8.536 1.305c-.412-1.584-2.096-4.654-2.277-4.943-.623-.994-1.494-1.584-2.63-1.753-2.343-.43-5.99-.316-7.46-.045-1.154.214-2.13.673-2.777 1.734-.221.36-1.31 2.049-1.831 3.333-.692 1.704-.943 3.49-.63 5.334.1.593.202 1.185.271 1.781.041.373.008.752.033 1.127.028.399.087.444.463.444.485.002.97-.014 1.455.005.237.01.336-.102.367-.312a3.76 3.76 0 0 0 .037-.5c.005-.373.003-.748.003-1.166 4.397.193 8.136.193 12.468.006 0 .376-.006.719.002 1.061.005.197.03.394.054.592.025.217.127.325.36.319.516-.015 1.03-.014 1.546-.002.215.007.335-.08.345-.293.025-.54.034-1.081.057-1.623.007-.165.011-.337.057-.492.442-1.528.456-3.069.087-4.607" fill="currentColor" fill-rule="nonzero"/><path d="M0 0h24v24H0z"/></g></svg>