<svg xmlns="http://www.w3.org/2000/svg" id="Layer_1" viewBox="0 0 28 18"><style>.st0{fill:#fff}.st1{fill:none;stroke:#999;stroke-width:.5}.st2{fill:#999}.st3{display:none;fill:#e04242}</style><g id="GUI-Library"><g id="Icn_Card"><g id="Box"><path id="path-1" d="M1.7 0h23.6c1 0 1.7.8 1.7 1.7v14.6c0 1-.8 1.7-1.7 1.7H1.7c-1 0-1.7-.8-1.7-1.7V1.7C0 .7.8 0 1.7 0z" class="st0"/><path d="M2 .2h23c1 0 1.8.8 1.8 1.8v14c0 1-.8 1.7-1.7 1.7H2C1 17.7.2 17 .2 16V2C.2 1 1 .2 2 .2z" class="st1"/></g><path id="Line" d="M0 4h27v4H0z" class="st2"/><path id="Red" d="M20 10h4v3h-4z" class="st3"/></g></g></svg>