<svg viewBox="0 0 130 90" xmlns="http://www.w3.org/2000/svg" xmlns:xlink="http://www.w3.org/1999/xlink"><title>Icon / error / card secure</title><defs><filter x="-11.2%" y="-13.3%" width="122.4%" height="136.7%" filterUnits="objectBoundingBox" id="card_securea"><feOffset dy="2" in="SourceAlpha" result="shadowOffsetOuter1"/><feGaussianBlur stdDeviation="2" in="shadowOffsetOuter1" result="shadowBlurOuter1"/><feColorMatrix values="0 0 0 0 1 0 0 0 0 1 0 0 0 0 1 0 0 0 1 0" in="shadowBlurOuter1" result="shadowMatrixOuter1"/><feMerge><feMergeNode in="shadowMatrixOuter1"/><feMergeNode in="SourceGraphic"/></feMerge></filter><rect id="card_securec" width="98" height="60" rx="4"/><filter x="-6.6%" y="-9.2%" width="113.3%" height="121.7%" filterUnits="objectBoundingBox" id="card_secureb"><feOffset dy="1" in="SourceAlpha" result="shadowOffsetOuter1"/><feGaussianBlur stdDeviation="2" in="shadowOffsetOuter1" result="shadowBlurOuter1"/><feColorMatrix values="0 0 0 0 0 0 0 0 0 0 0 0 0 0 0 0 0 0 0.2 0" in="shadowBlurOuter1"/></filter></defs><g fill="none" fill-rule="evenodd"><path d="M0 0h130v90H0z"/><path d="M0 0h130v90H0z"/><g filter="url(#card_securea)" transform="translate(17 19)"><g transform="matrix(-1 0 0 1 98 0)"><use fill="#000" filter="url(#card_secureb)" xlink:href="#card_securec"/><use fill="#FFF" xlink:href="#card_securec"/></g><path fill="#D8D8D8" d="M0 13h98v15H0z"/></g><path d="M110 7c5.05 3.943 10.42 6.76 16 8.82 0 20.765-8.437 25.262-16 30.18-7.564-4.918-16-9.415-16-30.18 5.58-2.06 10.95-4.877 16-8.82" fill="#F7A600"/></g></svg>