<svg viewBox="0 0 64 40" xmlns="http://www.w3.org/2000/svg"><path d="M.473 27.652c.272.87.844 1.05 1.662 1.05h2.492c1.08 0 .956-.007 1.062-1.157.304-3.24 3.094-5.902 6.403-5.902 3.343 0 6.177 2.703 6.384 5.994.062.965 0 1.06.961 1.06h26.214c1.375 0 1.05-.243 1.26-1.586.462-2.951 3.173-5.456 6.326-5.468 3.257 0 6.033 2.573 6.363 5.745.111 1.084.043 1.28 1.075 1.28h1.968c.073-.034.145-.071.213-.113 1.368-1.02 1.001-3.466.882-5.107-.027-.36.04-.656-.078-.868-.118-.213-.13-.118-.484-.149-.223-.535-.03-1.42-.524-2.36-.447-.867-.763-1.435-2.22-1.796-4.499-1.116-8.972-1.524-13.414-1.994-3.672-1.734-6.436-5.847-10.306-7.082-1.397-.445-3.218-.691-5.046-.827-5.137-.376-13.029-.313-18.288-.148-2.141.066-4.135.263-5.196.748-.665.278.402.936-.312 1.521-.848.694-5.968 6.033-6.076 7.076a86.842 86.842 0 0 0-.385 4.506c-.008.13-.33.203-.647.262-.525.109-.63.456-.632.986-.008 1.228.017 3.279.34 4.311l.003.018zm11.619 5.004a4.602 4.602 0 1 1-.003-9.204 4.602 4.602 0 0 1 .003 9.204zm41.145 0a4.602 4.602 0 1 1-.005-9.204 4.602 4.602 0 0 1 .005 9.204zM30.445 16.904c-.713-.041-.88-.172-.987-.87-.223-1.443-.387-4.287-.718-5.276-.101-.299-.06-.47.316-.467l2.086.045c1.624.034 4.197.387 5.063.663 2.516.803 4.065 3.148 5.912 4.521 1.37 1.095 1.521 1.72-1.847 1.72 0 0-6.11-.124-9.825-.336zm-10.916-.167c2.65.12 4.929.08 7.274.155.964.031.971.025.897-.673-.29-2.704-.433-4.721-.626-5.486-.122-.483-.429-.612-.64-.616-2.6-.04-4.109-.291-6.434.63a1.335 1.335 0 0 0-.776.81c-.463 1.214-.656 2.911-.656 4.216-.003.602.239.931.961.964z" fill="currentColor" fill-rule="evenodd"/></svg>