<svg viewBox="0 0 64 40" xmlns="http://www.w3.org/2000/svg"><path fill="currentColor" d="M12.012 21.073a4.293 4.293 0 0 0-3.278 3.224c-.448 1.88.427 3.826 2.145 4.765 1.717.94 3.86.645 5.25-.722a4.27 4.27 0 0 0 .731-5.16c-.956-1.689-2.935-2.548-4.848-2.107zm39.84 0a4.29 4.29 0 0 0-3.28 3.224c-.448 1.88.427 3.826 2.144 4.765 1.718.94 3.86.645 5.25-.72a4.27 4.27 0 0 0 .733-5.161c-.955-1.688-2.934-2.549-4.847-2.108z"/><path d="M62.889 23.227c-.025-.337.038-.61-.076-.815-.114-.206-.12-.112-.458-.14-.213-.502-.434-1.333-.898-2.217-.428-.813-1.034-1.447-2.424-1.787a108.119 108.119 0 0 0-11.38-2.12 10.938 10.938 0 0 1-3.971-1.242c-2.76-1.431-5.52-2.923-8.475-3.846-3.862-1.207-10.036-1.003-14.173-.72-2.656.18-4.37.826-6.743 1.993-2.267 1.115-2.952 2.46-4.723 2.829-2.477.514-7.909.654-8.11 2.543-.17 1.573-1.078 7.716.43 8.359a30.75 30.75 0 0 0 3.88 1.238c.872.195 1.288.179 1.177-1.18a9.572 9.572 0 0 1-.029-.701c-.033-3.368 2.845-6.225 6.27-6.138 3.249.082 5.952 2.79 5.952 6.005 0 .342-.009.677-.036 1.003-.142 1.66-.217 1.493 1.126 1.672l25.056.027c1.831-.09 1.64.257 1.5-1.73a11.79 11.79 0 0 1-.03-.89c-.014-3.492 2.963-6.302 6.507-6.08 3.139.2 5.74 2.86 5.74 5.994 0 .18 0 .36-.014.535-.06 1.176-.237 1.295.702 1.465l1.57-.05c.356-.012.536-.154.785-.338.33-.242.5-.561.69-1.217.198-.684.21-1.69.155-2.452zm-22.272-5.88a6.278 6.278 0 0 1-1.333.13s-6.387-.293-9.874-.404c-.346-.012-9.198.073-10.718-.247-.392-.083-.417-.686-.417-.686s-.188-2.39-.216-2.892c-.067-1.219 1.486-1.104 4.055-1.404 2.569-.3 8.014 0 8.014 0 1.55.032 3.793.386 4.614.653 2.345.799 5.088 1.93 6.852 3.225.66.494.446 1.313-.977 1.626z"/></svg>