<svg viewBox="0 0 24 24" xmlns="http://www.w3.org/2000/svg"><g fill="none" fill-rule="evenodd"> <path d="M9.692 8.818l.688.636-1.376 1.273-.688-.636A3.04 3.04 0 0 0 6.253 9.3h-2.28C3.435 9.3 3 8.897 3 8.4c0-.498.435-.9.973-.9h2.28c1.29 0 2.527.473 3.44 1.318zm0 6.364c-.913.844-2.15 1.317-3.44 1.317H3.974c-.538 0-.973-.402-.973-.9 0-.496.435-.9.973-.9h2.28a3.04 3.04 0 0 0 2.063-.79l5.503-5.091c.913-.844 2.15-1.319 3.44-1.319h.822V6l1.46 1.2L21 8.4l-1.46 1.2-1.459 1.2V9.3h-.821c-.774 0-1.516.284-2.064.79l-5.504 5.092zm8.389-.482v-1.5L21 15.6 18.08 18v-1.5h-.82c-1.298 0-2.52-.468-3.44-1.318l-.688-.636 1.376-1.274.688.637c.552.51 1.284.79 2.065.79h.82z" fill="currentColor"/></g></svg>