<svg viewBox="0 0 24 24" xmlns="http://www.w3.org/2000/svg" xmlns:xlink="http://www.w3.org/1999/xlink"><defs><path d="M8.13 15.51a8.515 8.515 0 0 1-2.743-.831c-.764.46-1.825.905-3.107.905a.274.274 0 0 1-.255-.174.295.295 0 0 1 .052-.315c.01-.01.785-.88 1.254-1.973C2.494 12.177 2 11.033 2 9.792 2 6.592 5.26 4 9.285 4c2.936 0 5.466 1.38 6.619 3.37v-.026c3.454.452 6.094 2.831 6.094 5.706 0 1.343-.578 2.574-1.541 3.555a9.227 9.227 0 0 0 1.324 1.983c.22.243.28.598.154.905a.81.81 0 0 1-.743.507c-1.877 0-3.386-.735-4.384-1.405a8.983 8.983 0 0 1-2.095.247c-2.917 0-5.425-1.366-6.583-3.332zm2.207.014c1.033.95 2.617 1.58 4.376 1.58.578 0 1.156-.069 1.716-.203l.697-.166.6.402c.493.33.997.59 1.509.774-.095-.17-.19-.35-.28-.535l-.543-1.126.865-.883c.472-.486 1.04-1.278 1.04-2.317 0-1.737-1.608-3.236-3.779-3.796.02.177.031.356.031.538 0 2.916-2.707 5.326-6.232 5.732z" id="Chat__a"/></defs><g fill="none" fill-rule="evenodd"> <use fill="currentColor" xlink:href="#Chat__a"/></g></svg>