<svg viewBox="0 0 130 90" xmlns="http://www.w3.org/2000/svg" xmlns:xlink="http://www.w3.org/1999/xlink"><title>Icon / error / cloud</title><defs><filter x="-11.2%" y="-11.7%" width="122.4%" height="136.7%" filterUnits="objectBoundingBox" id="clouda"><feOffset dy="2" in="SourceAlpha" result="shadowOffsetOuter1"/><feGaussianBlur stdDeviation="2" in="shadowOffsetOuter1" result="shadowBlurOuter1"/><feColorMatrix values="0 0 0 0 1 0 0 0 0 1 0 0 0 0 1 0 0 0 1 0" in="shadowBlurOuter1" result="shadowMatrixOuter1"/><feMerge><feMergeNode in="shadowMatrixOuter1"/><feMergeNode in="SourceGraphic"/></feMerge></filter><path d="M41.084 12.187a18.256 18.256 0 0 0-10.01-2.957c-9.9 0-17.926 7.75-17.926 17.308 0 .513.027 1.014.074 1.514C5.642 29.596 0 36.055 0 43.846 0 52.794 7.462 60 16.732 60h64.536C90.538 60 98 52.794 98 43.846c0-7.56-5.31-13.87-12.55-15.65.388-1.647.6-3.358.6-5.12C86.05 10.333 75.347 0 62.145 0 53.03 0 45.113 4.94 41.084 12.187z" id="cloudc"/><filter x="-7.1%" y="-8.3%" width="114.3%" height="123.3%" filterUnits="objectBoundingBox" id="cloudb"><feOffset dy="2" in="SourceAlpha" result="shadowOffsetOuter1"/><feGaussianBlur stdDeviation="2" in="shadowOffsetOuter1" result="shadowBlurOuter1"/><feColorMatrix values="0 0 0 0 0 0 0 0 0 0 0 0 0 0 0 0 0 0 0.2 0" in="shadowBlurOuter1"/></filter></defs><g fill="none" fill-rule="evenodd"><path d="M0 0h130v90H0z"/><path d="M0 0h130v90H0z"/><g filter="url(#clouda)" transform="translate(17 15)"><use fill="#000" filter="url(#cloudb)" xlink:href="#cloudc"/><use fill="#FFF" xlink:href="#cloudc"/></g><g transform="translate(91 24)" stroke="#F7A600" stroke-width="4"><circle cx="15" cy="15" r="15"/><path d="M4.355 24.677L24.34 4.692m.337 19.985L4.692 4.692" stroke-linecap="square"/></g></g></svg>