<svg viewBox="0 0 20 20" xmlns="http://www.w3.org/2000/svg" xmlns:xlink="http://www.w3.org/1999/xlink"><defs><path fill="currentColor" d="M7.9 14.6l-1.19-1.32-3.33-3.73c-.3-.33-.24-.53.16-.71l1.7-.75c.24-.1.43-.08.65.04 2.29 1.3 4.58 2.57 6.87 3.86.2.11.34.11.54.02 1.15-.57 2.3-1.12 3.46-1.68 1.1-.53 2.28-.1 2.83.73a2.2 2.2 0 0 1-.42 2.96c-.23.18-.5.32-.77.43l-13.13 5.4c-.32.14-.52.12-.77-.13-1.38-1.36-2.78-2.71-4.17-4.06-.42-.41-.38-.62.16-.85l.9-.39c.23-.12.44-.1.67.03l2.63 1.43c.18.1.32.12.51.02l2.7-1.3zm9.18-10.4c0 1.16-.47 2.14-1.26 2.98a355.78 355.78 0 0 1-2.4 2.52c-.3.32-.57.31-.86 0-.88-.93-1.77-1.85-2.62-2.8A4.09 4.09 0 0 1 14.26.28a3.94 3.94 0 0 1 2.82 3.9zm-2.5-.04A1.57 1.57 0 0 0 13 2.58c-.88 0-1.6.67-1.6 1.52-.01.9.67 1.6 1.59 1.6a1.57 1.57 0 0 0 1.58-1.55z" id="differentAirporta"/></defs><use xlink:href="#differentAirporta"/></svg>