<svg viewBox="0 0 18 18" xmlns="http://www.w3.org/2000/svg"><title>Combined Shape</title><path d="M12.375 12.375c2.025 0 3.825-.9 5.063-2.25H18v6.75C18 17.55 17.55 18 16.875 18H1.125C.45 18 0 17.55 0 16.875v-6.75h7.313c1.237 1.35 3.037 2.25 5.062 2.25zm-6.75-6.75c0 .787.113 1.575.338 2.25H0v-2.25C0 4.95.45 4.5 1.125 4.5h4.613c-.113.338-.113.787-.113 1.125zm6.75 5.625c-3.037 0-5.625-2.475-5.625-5.625S9.225 0 12.375 0 18 2.475 18 5.625s-2.475 5.625-5.625 5.625zm1.913-8.662L9.562 7.762l.788.788 4.725-5.175-.787-.787zm.337 6.3a1.013 1.013 0 1 0 0-2.026 1.013 1.013 0 0 0 0 2.025zm-4.5-4.5a1.013 1.013 0 1 0 0-2.026 1.013 1.013 0 0 0 0 2.026z" fill="currentColor" fill-rule="evenodd"/></svg>