<svg viewBox="0 0 240 189" xmlns="http://www.w3.org/2000/svg"><defs><linearGradient x1="-.01%" y1="49.93%" x2="99.98%" y2="49.93%" id="error-conea"><stop stop-color="#252E65" offset="0%"/><stop stop-color="#252E65" stop-opacity="0" offset="100%"/></linearGradient><linearGradient x1="-.02%" y1="49.98%" x2="100.01%" y2="49.98%" id="error-coneb"><stop stop-color="#F48F90" offset="22.99%"/><stop stop-color="#F48C8D" offset="25.87%"/><stop stop-color="#F05B5C" offset="75.45%"/><stop stop-color="#EF4849" offset="100%"/></linearGradient><linearGradient x1="-.02%" y1="50.04%" x2="99.98%" y2="50.04%" id="error-conec"><stop stop-color="#252E65" stop-opacity=".5" offset="32.62%"/><stop stop-color="#252E65" stop-opacity="0" offset="100%"/></linearGradient><linearGradient x1=".09%" y1="50%" x2="100.12%" y2="50%" id="error-coned"><stop stop-color="#F16B6C" offset="11.23%"/><stop stop-color="#EF4849" offset="58.82%"/><stop stop-color="#EF4B4C" offset="69.77%"/><stop stop-color="#F05657" offset="79.02%"/><stop stop-color="#F16768" offset="87.67%"/><stop stop-color="#F38081" offset="95.9%"/><stop stop-color="#F48F90" offset="100%"/></linearGradient><linearGradient x1="-.01%" y1="49.99%" x2="99.95%" y2="49.99%" id="error-conee"><stop stop-color="#F7B3B4" offset="25.67%"/><stop stop-color="#F49192" offset="44.11%"/><stop stop-color="#F1696A" offset="68.56%"/><stop stop-color="#F05152" offset="88.05%"/><stop stop-color="#EF4849" offset="100%"/></linearGradient><linearGradient x1=".06%" y1="49.98%" x2="99.97%" y2="49.98%" id="error-conef"><stop stop-color="#DEEAF7" offset="35.29%"/><stop stop-color="#A1A8C3" offset="63.64%"/></linearGradient><linearGradient x1=".03%" y1="50%" x2="100.02%" y2="50%" id="error-coneg"><stop stop-color="#DEEAF7" offset="35.29%"/><stop stop-color="#A1A8C3" offset="63.64%"/></linearGradient></defs><g fill="none" fill-rule="evenodd"><path d="M0 0h240v189H0z"/><path d="M144 187.97l3.25.24a8.48 8.48 0 0 0 5.32-1.38c3.74-2.46 10.83-7.2 14.52-9.8 21.17-1.93 72.86-7.74 72.86-7.74l-62.28-7c-4.82-3.8-12.9-1.73-13-1.68-.93.1-28.4-3.4-28.4-3.4" fill="url(#error-conea)"/><path d="M95.95 188l-3.25.25a8.48 8.48 0 0 1-5.32-1.38 682.12 682.12 0 0 1-14.52-9.8C51.7 175.14 0 169.33 0 169.33l62.28-7c4.82-3.8 12.9-1.72 13-1.68.93.1 28.4-3.4 28.4-3.4"/><path d="M147.05 187.13c-1.28.84-4.67 1.23-7.63.84l-73.5-10.6c-2.95-.34-3.2-.99-3.05-2.12l.05-3.35 36.28-16.07c1.28-.83 4.68-1.23 7.63-.83l73.5 5.81s.35 3.8-.93 4.63l-32.35 21.69z" fill="#EF4849"/><path d="M147.6 183.23c-1.29.84-4.68 1.24-7.64.84l-73.55-10.6c-2.95-.34-4.33-1.32-3.05-2.11l36.33-19.47c1.28-.84 4.68-1.23 7.63-.84l69.47 8.28c2.95.35 4.33 1.33 3.05 2.12l-32.25 21.78z" fill="url(#error-coneb)"/><path d="M176.79 159.33L140.65 155l-37.12 19.12s30.13 5.76 53.47 1.92l11.47-6.85 11.42-7.69c1.23-.89-.15-1.82-3.1-2.17z" fill="url(#error-conec)"/><path d="M66.17 155.64L41.1.49H30.08L5.02 155.64c-.34.49-.5 1.03-.5 1.57 0 4.93 13.9 8.92 31.02 8.92 17.14 0 31.02-3.99 31.02-8.92a2.3 2.3 0 0 0-.4-1.57z" fill="url(#error-coned)" transform="translate(87.88)"/><path d="M65.53 151.9c-12.02 8.42-52.93 7.14-60.02.14a27.02 27.02 0 0 0-5.26 14.49c0 4.93 15.85 8.92 35.4 8.92 19.54 0 35.39-4 35.39-8.92-.4-6.56-5.51-14.64-5.51-14.64z" fill="url(#error-conee)" transform="translate(87.88)"/><path fill="url(#error-conef)" d="M18.7 71.12h33.83l-6.84-42.34H25.55z" transform="translate(87.88)"/><path d="M14.13 99.6l-6.9 42.58c8.43 4.1 36.68 6.4 56.77-.1l-7-43.51c-6.88 2.76-33.57 3.1-42.87 1.03z" fill="url(#error-coneg)" transform="translate(87.88)"/><path fill="#F7F9FA" opacity=".44" d="M120.47.2L102.5 153.42l-5.61 18.92 12.4 2.47 4.33-19.57L123.42.5z"/></g></svg>