<svg viewBox="0 0 24 24" xmlns="http://www.w3.org/2000/svg"><g fill="none" fill-rule="evenodd"> <path d="M16.538 18.706c.83.823 1.9 1.294 3.087 1.412v1.176c-1.306 0-2.613-.47-3.563-1.294-.95.824-2.256 1.294-3.562 1.294S9.887 20.824 8.937 20c-.95.824-2.256 1.294-3.562 1.294v-1.176c1.188 0 2.256-.589 3.088-1.412l.475-.47.474.47c.713.941 1.9 1.412 3.088 1.412 1.188 0 2.256-.589 3.088-1.412l.475-.47.475.47zm3.918-7.294c.594.235.95.823.713 1.412l-2.256 5.764c-.832-.117-1.782-.588-2.375-1.294l-.476-.47-.475.47c-.712.941-1.9 1.412-3.087 1.412-1.188 0-2.256-.588-3.088-1.412l-.475-.47-.474.47a3.678 3.678 0 0 1-2.375 1.294L3.83 12.824c-.237-.589.119-1.295.713-1.412l1.069-.236 1.662-6.47C7.394 4 7.987 3.529 8.7 3.529h2.256l.475-.705c.238-.236.594-.471 1.069-.471s.831.235 1.069.47l.475.706H16.3c.594 0 1.306.589 1.425 1.177l1.662 6.47 1.07.236zm-3.206-.706h-.119v-2.47a1.06 1.06 0 0 0-1.069-1.06H8.82a1.06 1.06 0 0 0-1.069 1.06v2.47l4.75-1.177 4.75 1.177zM10.125 14c.59 0 1.069-.474 1.069-1.059s-.479-1.059-1.069-1.059-1.069.474-1.069 1.06c0 .584.479 1.058 1.069 1.058zm4.75 0c.59 0 1.069-.474 1.069-1.059s-.479-1.059-1.069-1.059-1.069.474-1.069 1.06c0 .584.479 1.058 1.069 1.058z" fill="currentColor"/></g></svg>