<svg viewBox="0 0 24 24" xmlns="http://www.w3.org/2000/svg" xmlns:xlink="http://www.w3.org/1999/xlink"><defs><path d="M20 7.17a3.001 3.001 0 0 1 0 5.66V21a1 1 0 0 1-2 0v-8.17a3.001 3.001 0 0 1 0-5.66V3a1 1 0 0 1 2 0v4.17zm-7 4a3.001 3.001 0 0 1 0 5.66V21a1 1 0 0 1-2 0v-4.17a3.001 3.001 0 0 1 0-5.66V3a1 1 0 0 1 2 0v8.17zm-7-7a3.001 3.001 0 0 1 0 5.66V21a1 1 0 0 1-2 0V9.83a3.001 3.001 0 0 1 0-5.66V3a1 1 0 1 1 2 0v1.17z" id="Filter__a"/></defs><g fill="none" fill-rule="evenodd"> <use fill="currentColor" xlink:href="#Filter__a"/></g></svg>