<svg viewBox="0 0 100 91" xmlns="http://www.w3.org/2000/svg"><title>Missing Flight</title><path d="M78.847 26.716c2.667-2.73 8.077-12.393 5.454-15.017-2.622-2.623-12.285 2.786-15.018 5.453l-.002-.002-.062.061c-.002.003-.005.004-.006.005l-.004.005-6.417 6.416c-3.405-.63-9.62-1.728-14.978-2.398-10.113-1.265-23.02-1.988-27.078-1.913-.854.018-1.171.087-1.484.213-.293.116-.76.646-.76.646l-2.804 2.804s-.297.355-.229.707c.108.561.849.858.849.858L49 35.45s.626.453.637.895a1.19 1.19 0 0 1-.187.651L30.59 59.165l-12.372-.346L15 62.037s9.122 4.986 11.55 7.41C28.975 71.873 33.964 81 33.964 81l3.218-3.217-.35-12.376L58.63 46.846h.016s.025-.03.07-.073l.017-.015c.147-.141.478-.398.927-.386.441.01.894.638.894.638L71.453 79.7s.296.743.857.848c.354.068.708-.227.708-.227l2.803-2.806s.54-.5.657-.793c.124-.315.196-.598.203-1.449.034-4.09-.649-16.965-1.912-27.08-.672-5.364-1.772-11.586-2.402-14.99l6.484-6.483-.004-.003z" stroke="currentColor" stroke-width="2" fill="none" fill-rule="evenodd" stroke-linecap="round" stroke-dasharray="5,6"/></svg>