<svg viewBox="0 0 786 229" xmlns="http://www.w3.org/2000/svg"><title>GoEuro / brand</title><g fill="none" fill-rule="evenodd"><path d="M295.66.52c-14.314 0-26.026 10.42-27.327 25.006-1.301 15.107 9.89 28.39 25.246 29.693h2.602c14.315 0 26.287-10.68 27.589-25.005 1.3-15.367-9.89-28.39-25.246-29.693h-2.863" fill="#FA6B6B"/><path d="M719.893 126.847c-17.959 0-27.328-13.284-27.328-28.391 0-15.368 9.37-28.39 27.328-28.39s27.588 13.022 27.588 28.39c0 15.107-9.63 28.39-27.588 28.39m0-90.641c-37.739 0-65.327 26.307-65.327 62.25 0 35.945 27.328 62.252 65.327 62.252 38.519 0 65.586-25.526 65.586-62.251 0-36.465-27.067-62.251-65.586-62.251m-510.9 90.642c-17.959 0-27.328-13.284-27.328-28.391 0-15.368 9.37-28.39 27.328-28.39s27.588 13.022 27.588 28.39c0 15.107-9.63 28.39-27.588 28.39m0-90.641c-37.739 0-65.327 26.307-65.327 62.25 0 35.945 27.328 62.252 65.327 62.252 38.519 0 65.586-25.526 65.586-62.251 0-36.465-27.067-62.251-65.586-62.251" fill="#132968" fill-rule="nonzero"/><path d="M655.868 42.456c.26-1.303-.521-2.605-1.822-2.865-3.904-.782-7.808-1.303-11.712-1.303-31.232 0-56.478 24.484-58.04 55.219l-.26 61.21a2.334 2.334 0 0 0 2.343 2.343h32.012a2.334 2.334 0 0 0 2.343-2.344V100.54c0-8.596 3.904-17.191 11.191-21.88 4.945-3.386 9.37-3.907 13.534-3.125 1.041.26 2.342-.521 2.603-1.823l7.808-31.256z" fill="#132968"/><path d="M439.848 108.874h-82.504c-1.302 0-2.603 1.303-2.343 2.605.781 6.512 3.384 11.46 7.548 15.107 4.945 4.167 11.452 6.251 19.78 6.251 10.931 0 17.958-3.125 21.342-9.377.52-.78 1.04-1.302 2.082-1.302h32.533c1.562 0 2.603 1.302 2.342 2.865-2.342 10.419-8.588 18.754-18.478 25.265-10.931 7.033-24.205 10.68-39.82 10.68-20.302 0-36.178-5.47-47.63-16.41-11.451-10.94-17.177-26.307-17.177-45.842 0-12.763 2.603-23.702 7.808-33.34 5.205-9.376 12.753-16.669 22.383-21.618 9.63-4.949 20.821-7.553 33.574-7.553 11.972 0 22.903 2.344 32.273 7.032 9.37 4.689 16.657 11.46 21.862 19.796 5.205 8.595 7.808 18.232 7.808 29.172 0 4.428-.26 9.116-.78 14.325-.521 1.303-1.302 2.344-2.603 2.344zM403.41 85.693c1.3 0 2.342-1.042 2.342-2.605-.52-6.511-2.603-11.72-6.507-15.367-4.164-4.168-10.41-6.251-18.478-6.251-8.069 0-14.315 2.083-19 6.511-4.164 3.907-6.506 8.856-7.027 15.107-.26 1.303 1.041 2.605 2.342 2.605h46.328z" fill="#132968" fill-rule="nonzero"/><path d="M535.365 44.28v60.167c0 11.2-8.329 21.358-19.52 22.4-12.753 1.302-23.684-8.856-23.684-21.359V44.28a2.334 2.334 0 0 0-2.342-2.344h-32.013a2.334 2.334 0 0 0-2.342 2.344l.26 61.21c1.561 30.734 27.067 55.218 58.039 55.218 31.232 0 56.477-24.484 58.039-55.219l.26-61.209a2.334 2.334 0 0 0-2.342-2.344h-32.013a2.334 2.334 0 0 0-2.342 2.344z" fill="#132968"/><path d="M129.872 34.902H116.86c-7.808 0-14.835 4.168-18.74 10.419-8.588-5.47-19.259-8.856-32.012-8.856-13.273 0-24.725 2.605-34.875 8.075-9.89 5.209-17.698 12.762-22.904 22.14C3.123 76.055.26 86.734.26 98.715c0 11.982 2.603 22.66 8.068 32.037 5.206 9.377 13.014 16.93 22.904 22.14 9.89 5.21 21.602 8.074 34.875 8.074 10.41 0 20.3-2.865 28.63-6.772v8.596c-.26 8.595-2.603 15.628-7.548 20.837-4.945 5.73-11.972 8.335-20.561 8.335-8.85 0-15.616-2.865-20.821-8.335-3.124-3.386-5.206-7.554-6.247-12.502-.26-1.042-1.04-1.824-2.342-1.824H3.904c-1.301 0-2.603 1.303-2.342 2.605 1.04 7.814 3.383 15.107 7.027 21.619 5.205 9.376 13.013 16.93 22.903 22.14 9.89 5.208 21.602 8.074 34.876 8.074 13.273 0 24.725-2.605 34.615-8.075 9.89-5.21 17.438-12.763 22.903-22.14 4.945-8.595 7.288-18.492 7.808-29.172V37.247c.52-1.303-.52-2.345-1.822-2.345zm-42.944 85.954c-4.945 5.73-11.972 8.335-20.56 8.335-8.85 0-15.616-2.865-20.822-8.335-4.945-5.73-7.547-13.023-7.547-22.14 0-9.116 2.602-16.67 7.547-22.14 4.945-5.73 11.973-8.334 20.822-8.334 8.588 0 15.615 2.865 20.56 8.335 4.946 5.73 7.548 13.023 7.548 22.14 0 9.116-2.602 16.409-7.548 22.139z" fill="#132968" fill-rule="nonzero"/></g></svg>