<svg viewBox="0 0 24 24" xmlns="http://www.w3.org/2000/svg"><g fill="none" fill-rule="evenodd"> <path d="M6.921 11.973V9.47a2.49 2.49 0 0 1 .497-1.517 2.5 2.5 0 0 1 1.5-.974 2.55 2.55 0 0 1 .576-.06l5.03.001a2.543 2.543 0 0 1 2.522 2.56c0 1.66.004 3.322-.003 4.982-.004.916-.396 1.636-1.156 2.15a2.412 2.412 0 0 1-1.2.404 4.043 4.043 0 0 1-.262.007H9.473a2.543 2.543 0 0 1-2.552-2.515v-2.535zm9.204-3.674a.46.46 0 1 0-.92-.002.46.46 0 0 0 .92.002zm-.92 3.676a3.224 3.224 0 0 0-3.17-3.217 3.225 3.225 0 0 0-3.273 3.21 3.227 3.227 0 0 0 3.21 3.219 3.226 3.226 0 0 0 3.233-3.212zM11.775 0c6.504 0 11.776 5.262 11.776 11.752 0 6.49-5.272 11.752-11.776 11.752C5.272 23.504 0 18.243 0 11.752 0 5.262 5.272 0 11.775 0zm6.191 11.972V9.483a3.431 3.431 0 0 0-1.345-2.751 3.353 3.353 0 0 0-2.1-.729c-1.676-.006-3.351-.001-5.026-.002A3.473 3.473 0 0 0 6 9.47c0 1.668 0 3.335.003 5.002a3.402 3.402 0 0 0 1.305 2.708c.619.497 1.33.757 2.122.76 1.703.007 3.406.003 5.109.001.278 0 .552-.038.821-.108a3.4 3.4 0 0 0 1.461-.79c.737-.677 1.125-1.518 1.142-2.518.013-.85.003-1.703.003-2.553zm-8.284-.005a2.297 2.297 0 0 1 2.328-2.293 2.299 2.299 0 0 1 2.274 2.302 2.294 2.294 0 0 1-2.305 2.292 2.294 2.294 0 0 1-2.297-2.3z" fill="currentColor"/></g></svg>