<svg xmlns="http://www.w3.org/2000/svg" viewBox="0 0 92 56"><g fill="none" fill-rule="evenodd"><path fill="#FBB231" d="M64.346 55.888l1.412-.037 1.396-.1 1.368-.17 1.357-.24 1.32-.3 1.3-.37 1.27-.43 1.24-.49 1.22-.56 1.18-.6 1.14-.67 1.12-.71 1.07-.77 1.03-.81 1-.86.95-.91.91-.96.86-1 .81-1.04.76-1.07.71-1.12.66-1.15.6-1.19.55-1.22.49-1.25.43-1.28.37-1.3.3-1.33.24-1.36.17-1.38.1-1.4.03-1.42-.03-1.41-.11-1.39-.18-1.37-.24-1.34-.31-1.32-.37-1.3-.44-1.28-.49-1.24-.56-1.22-.6-1.19-.67-1.14-.7-1.12-.77-1.08-.81-1.03-.86-1-.92-.96-.95-.91-1-.86-1.04-.82-1.07-.77-1.12-.71-1.14-.66-1.18-.6-1.22-.56-1.25-.49-1.28-.44-1.3-.37-1.32-.3-1.36-.24-1.33-.2L65.7.95 64.3.91l-1.41.03-1.39.1-1.37.176-1.35.24-1.32.31-1.3.37-1.268.436-1.24.49-1.21.56-1.17.6-1.14.65-1.11.71L48 6.3l-1.037.82-.99.86-.952.91-.9.96-.86 1-.81 1.03-.75 1.077-.71 1.122-.65 1.14-.61 1.19-.54 1.21-.49 1.24-.42 1.28-.37 1.3-.3 1.32-.24 1.35-.17 1.37-.1 1.39-.03 1.41.04 1.42.1 1.4.18 1.37.24 1.36.31 1.32.37 1.31.43 1.28.49 1.25.55 1.22.61 1.19.66 1.15.71 1.12.76 1.07.82 1.04.86 1 .91.96.96.91.99.86 1.03.83 1.07.77 1.11.71 1.15.67 1.17.6 1.21.56 1.25.49 1.27.44 1.3.37 1.32.3 1.35.24 1.36.17 1.4.1"/><path fill="#EC1C2E" d="M27.705 55.888l1.402-.037 1.396-.1 1.368-.17 1.35-.24 1.33-.3 1.3-.37 1.27-.43 1.25-.49 1.21-.56 1.18-.6 1.15-.67 1.11-.72 1.08-.77 1.04-.81.99-.86.95-.91.91-.96.86-1 .81-1.04.76-1.07.71-1.12.66-1.15.61-1.19.55-1.22.49-1.26.43-1.28.37-1.3.31-1.33.24-1.36.18-1.37.1-1.4.04-1.42-.04-1.41-.1-1.39-.18-1.37-.24-1.34-.31-1.33-.37-1.3-.42-1.28-.49-1.24-.54-1.22-.6-1.19-.65-1.14L50.4 13l-.76-1.08-.81-1.03-.86-1-.905-.96-.95-.91-.99-.866-1.035-.82-1.08-.77-1.11-.71-1.147-.66-1.175-.6-1.21-.56-1.246-.49-1.265-.44-1.3-.37-1.32-.307-1.35-.24-1.38-.2-1.397-.11-1.403-.034L26.29.88l-1.394.104-1.368.178-1.358.24-1.322.306-1.302.372-1.275.435-1.24.492-1.22.56-1.18.602-1.14.65-1.12.71-1.07.77-1.03.82-1 .86-.95.91-.91.96-.86 1-.81 1.03-.76 1.07-.71 1.12-.66 1.14L3 16.4l-.555 1.21-.49 1.24-.435 1.28-.37 1.3-.3 1.33-.24 1.35-.18 1.374-.1 1.39-.04 1.41.034 1.42.1 1.4.18 1.377.24 1.37.3 1.33.37 1.31.436 1.29.49 1.26.553 1.22.6 1.19.67 1.15.71 1.13.77 1.08.81 1.04.86 1 .91.96.95.92.997.87 1.032.82 1.073.77 1.12.72 1.147.67 1.19.6 1.22.56 1.244.49 1.277.44 1.3.37 1.32.31 1.36.25 1.37.18 1.394.1"/><path fill="#FBB231" d="M42.82 11.4h14.55V9.906H44.077m-3.437 4.818h16.73v-1.496H41.517m-2.503 4.812H57.37v-1.497H39.66m-1.765 4.82H57.37v-1.496H38.356m.186 17.557h18.874V35.93H38.08m1.856 4.817h17.48v-1.495h-18.17m2.648 4.808h15.522v-1.493H40.963m3.63 4.818h12.824V45.88H43.29m-6.05-21.204h20.13v-1.494H37.527m11.98 10.928h7.678v-1.496h-7.4m.333-1.82h7.067V29.29h-6.79m-13.665 0h1.998v1.504h-1.903"/><path fill="#FFF" d="M33.006 27.48l-.127-.01-.13-.018-.13-.018-.12-.02-.12-.017-.12-.02-.12-.017-.14-.02-.13-.016-.15-.01-.17-.01-.18-.01h-.19l-.22.01-.24.02-.27.017-.19.03-.18.03-.16.06-.14.06-.13.07-.12.08-.1.09-.09.09-.05.1-.05.1-.02.12v.11l.03.12.03.12.07.12.09.12.18.18.23.14.25.12.28.1.29.1.3.1.3.11.29.12.28.16.26.2.23.23.19.29.15.35.09.42.03.5-.04.59-.06.44-.11.38-.15.35-.19.31-.21.27-.24.23-.26.21-.29.18-.3.14-.31.12-.31.09-.32.08-.32.06-.3.03-.31.02-.29.01h-.4l-.37-.01h-.32l-.3-.01-.28-.01-.247-.02-.22-.02-.21-.02-.2-.02-.18-.03-.18-.03-.16-.05-.16-.04-.15-.06-.15-.05-.16-.06.41-2.05.08.02.1.03.13.04.153.04.17.04.19.03.2.04.22.04.23.03.24.04.25.02.26.03.27.01.27.01h.26l.27-.01.266-.05.21-.08.17-.1.13-.13.09-.13.075-.15.04-.15.04-.14.02-.27-.08-.23-.16-.19-.23-.16-.28-.13-.32-.14-.36-.13-.36-.15-.37-.17-.35-.19-.33-.24-.294-.28-.23-.35-.17-.42-.08-.49.01-.59.05-.36.07-.34.09-.31.11-.29.14-.28.16-.24.197-.23.23-.2.27-.17.29-.15.33-.14.37-.1.42-.082.45-.06.49-.03.55-.01h.34l.318.01.285.01.26.01.23.014.21.02.18.02.16.02.15.02.13.03.12.02.12.02.09.02.09.01.08.02.072.01"/><path stroke="#FFF" stroke-width=".5" d="M33.006 27.48l-.127-.01-.13-.018-.13-.018-.12-.02-.12-.017-.12-.02-.12-.017-.14-.02-.13-.016-.15-.01-.17-.01-.18-.01h-.19l-.22.01-.24.02-.27.017-.19.03-.18.03-.16.06-.14.06-.13.07-.12.08-.1.09-.09.09-.05.1-.05.1-.02.12v.11l.03.12.03.12.07.12.09.12.18.18.23.14.25.12.28.1.29.1.3.1.3.11.29.12.28.16.26.2.23.23.19.29.15.35.09.42.03.5-.04.59-.06.44-.11.38-.15.35-.19.31-.21.27-.24.23-.26.21-.29.18-.3.14-.31.12-.31.09-.32.08-.32.06-.3.03-.31.02-.29.01h-.4l-.37-.01h-.32l-.3-.01-.28-.01-.247-.02-.22-.02-.21-.02-.2-.02-.18-.03-.18-.03-.16-.05-.16-.04-.15-.06-.15-.05-.16-.06.41-2.05.08.02.1.03.13.04.153.04.17.04.19.03.2.04.22.04.23.03.24.04.25.02.26.03.27.01.27.01h.26l.27-.01.266-.05.21-.08.17-.1.13-.13.09-.13.075-.15.04-.15.04-.14.02-.27-.08-.23-.16-.19-.23-.16-.28-.13-.32-.14-.36-.13-.36-.15-.37-.17-.35-.19-.33-.24-.294-.28-.23-.35-.17-.42-.08-.49.01-.59.05-.36.07-.34.09-.31.11-.29.14-.28.16-.24.197-.23.23-.2.27-.17.29-.15.33-.14.37-.1.42-.082.45-.06.49-.03.55-.01h.34l.318.01.285.01.26.01.23.014.21.02.18.02.16.02.15.02.13.03.12.02.12.02.09.02.09.01.08.02.072.01-.47 2.09"/><path fill="#FFF" d="M35.197 23.09h2.56l-.38 2.246h1.544l-.33 2.098-1.63-.047-.88 5.18-.01.186.05.16.1.12.12.1.17.066.19.05.2.03.23.02.2-.01.19-.02.17-.03.15-.04.12-.04.09-.03.05-.02.02-.01-.32 1.72-.06.04-.07.03-.07.03-.07.04-.06.02-.07.03-.08.03-.08.02-.09.02-.09.02-.11.02-.11.02-.12.02-.14.02-.15.01-.16.02h-.7l-.37-.03-.32-.04-.29-.06-.25-.07-.21-.09-.18-.09-.15-.12-.12-.12-.09-.13-.06-.16-.05-.16-.03-.17-.01-.2v-.2l.03-.21.03-.23"/><path stroke="#FFF" stroke-width=".5" d="M35.197 23.09h2.56l-.38 2.246h1.544l-.33 2.098-1.63-.047-.88 5.18-.01.186.05.16.1.12.12.1.17.066.19.05.2.03.23.02.2-.01.19-.02.17-.03.15-.04.12-.04.09-.03.05-.02.02-.01-.32 1.72-.06.04-.07.03-.07.03-.07.04-.06.02-.07.03-.08.03-.08.02-.09.02-.09.02-.11.02-.11.02-.12.02-.14.02-.15.01-.16.02h-.7l-.37-.03-.32-.04-.29-.06-.25-.07-.21-.09-.18-.09-.15-.12-.12-.12-.09-.13-.06-.16-.05-.16-.03-.17-.01-.2v-.2l.03-.21.03-.23 1.75-10.1"/><path stroke="#FFF" stroke-width=".5" d="M40.963 30.934l-.028.156-.01.168.018.176.038.177.07.18.08.17.1.18.11.16.13.16.14.14.15.14.17.11.17.11.19.08.19.07.19.04.24.04.23.03.24.03.24.02.24.01h.25l.24-.01.25-.02.25-.03.25-.05.26-.05.25-.08.26-.1.27-.11.26-.14.27-.16-.37 2.29-.14.07-.14.08-.14.06-.14.06-.14.05-.15.05-.15.04-.15.03-.17.03-.18.02-.2.02-.21.02-.24.01h-.25l-.29.01h-.31l-.45-.01-.46-.04-.46-.06-.46-.11-.45-.14-.43-.17-.41-.23-.39-.27-.38-.33-.32-.38-.27-.43-.22-.49-.15-.55-.1-.62-.03-.69.04-.76.03-.3.05-.34.08-.36.1-.39.14-.39.17-.4.21-.41.26-.39.3-.38.36-.35.41-.32.46-.28.54-.23.61-.17.66-.11.75-.04.36.01.38.04.38.06.38.1.37.14.36.17.33.23.3.26.28.32.23.38.18.43.13.5.08.55.01.63-.07.7-.14.78-.05.57h-6.8l.43-1.83h4.05l.02-.23-.01-.22-.02-.21-.03-.18-.06-.17-.066-.16-.096-.14-.09-.13-.11-.11-.12-.09-.14-.08-.14-.07-.144-.06-.15-.04-.15-.03-.16-.02-.17.01-.16.03-.15.03-.16.06-.16.07-.14.08-.14.11-.12.11-.12.13-.11.14-.1.15-.08.16-.08.17-.06.19-.05.19-.03.19-.37 1.93"/><path fill="#FFF" d="M62.996 25.893l-.12-.065-.12-.056-.13-.065-.138-.065-.14-.055-.154-.056-.16-.05-.163-.05-.17-.04-.18-.03-.19-.04-.19-.03-.21-.01-.21-.01h-.68l-.24.02-.24.03-.26.05-.26.07-.26.11-.26.13-.26.17-.24.21-.24.24-.23.3-.22.35-.2.41-.19.46-.17.52-.14.59-.06.33-.03.32-.02.33.01.32.02.32.07.3.08.28.1.28.14.25.17.24.2.22.23.2.25.17.29.14.32.12.35.09.12.03.14.03.17.02.18.02.2.02H60l.23-.02.24-.03.24-.04.24-.07.23-.07.23-.1.21-.12.19-.14.19-.17-.41 2.48-.055.04-.053.06-.08.07-.08.05-.103.08-.13.07-.15.07-.17.06-.21.07-.24.05-.28.04-.33.04-.36.02-.42.01-.47-.01-.52-.03-.42-.04-.43-.09-.42-.14-.42-.18-.41-.22-.39-.28-.37-.33-.34-.37-.31-.42-.26-.46-.22-.52-.17-.56-.11-.62-.04-.66.02-.72.1-.77.08-.38.08-.37.09-.36.09-.35.1-.323.12-.32.12-.31.13-.29.14-.29.14-.27.15-.26.17-.24.17-.24.19-.22.18-.21.19-.192.21-.19.21-.18.22-.15.23-.15.25-.14.25-.12.26-.11.27-.1.28-.09.29-.07.3-.07.31-.05.31-.05.33-.04.34-.02.35-.01.3.01.28.02.28.03.27.04.26.037.25.06.24.05.22.05.22.05.18.05.17.06.14.05.13.05.11.04.08.03.05.02"/><path stroke="#FFF" stroke-width=".5" d="M62.996 25.893l-.12-.065-.12-.056-.13-.065-.138-.065-.14-.055-.154-.056-.16-.05-.163-.05-.17-.04-.18-.03-.19-.04-.19-.03-.21-.01-.21-.01h-.68l-.24.02-.24.03-.26.05-.26.07-.26.11-.26.13-.26.17-.24.21-.24.24-.23.3-.22.35-.2.41-.19.46-.17.52-.14.59-.06.33-.03.32-.02.33.01.32.02.32.07.3.08.28.1.28.14.25.17.24.2.22.23.2.25.17.29.14.32.12.35.09.12.03.14.03.17.02.18.02.2.02H60l.23-.02.24-.03.24-.04.24-.07.23-.07.23-.1.21-.12.19-.14.19-.17-.41 2.48-.055.04-.053.06-.08.07-.08.05-.103.08-.13.07-.15.07-.17.06-.21.07-.24.05-.28.04-.33.04-.36.02-.42.01-.47-.01-.52-.03-.42-.04-.43-.09-.42-.14-.42-.18-.41-.22-.39-.28-.37-.33-.34-.37-.31-.42-.26-.46-.22-.52-.17-.56-.11-.62-.04-.66.02-.72.1-.77.08-.38.08-.37.09-.36.09-.35.1-.323.12-.32.12-.31.13-.29.14-.29.14-.27.15-.26.17-.24.17-.24.19-.22.18-.21.19-.192.21-.19.21-.18.22-.15.23-.15.25-.14.25-.12.26-.11.27-.1.28-.09.29-.07.3-.07.31-.05.31-.05.33-.04.34-.02.35-.01.3.01.28.02.28.03.27.04.26.037.25.06.24.05.22.05.22.05.18.05.17.06.14.05.13.05.11.04.08.03.05.02-.46 2.57"/><path fill="#FFF" d="M85.742 35.278h-2.558l.185-1.03v-.092l-.15.185-.16.17-.16.15-.17.13-.17.12-.17.1-.17.09-.18.09-.18.07-.18.05-.18.05-.19.03-.19.03-.18.02-.19.01h-.18l-.48-.04-.45-.1-.41-.15-.37-.21-.33-.27-.29-.31-.26-.34-.22-.39-.19-.42-.15-.43-.1-.45-.08-.48-.03-.47.01-.48.04-.47.08-.47.14-.55.16-.52.2-.47.23-.45.24-.42.27-.37.29-.34.3-.3.32-.27.34-.23.35-.2.35-.15.37-.13.37-.08.37-.05.38-.02.27.01.25.03.24.05.22.07.21.08.19.08.18.1.17.1.15.11.14.12.12.12.11.12.09.12.08.13.07.11.05.11.65-3.65h2.51"/><path stroke="#FFF" stroke-width=".5" d="M85.742 35.278h-2.558l.185-1.03v-.092l-.15.185-.16.17-.16.15-.17.13-.17.12-.17.1-.17.09-.18.09-.18.07-.18.05-.18.05-.19.03-.19.03-.18.02-.19.01h-.18l-.48-.04-.45-.1-.41-.15-.37-.21-.33-.27-.29-.31-.26-.34-.22-.39-.19-.42-.15-.43-.1-.45-.08-.48-.03-.47.01-.48.04-.47.08-.47.14-.55.16-.52.2-.47.23-.45.24-.42.27-.37.29-.34.3-.3.32-.27.34-.23.35-.2.35-.15.37-.13.37-.08.37-.05.38-.02.27.01.25.03.24.05.22.07.21.08.19.08.18.1.17.1.15.11.14.12.12.12.11.12.09.12.08.13.07.11.05.11.65-3.65h2.51l-2.04 12.1"/><path fill="#FBB231" d="M81.557 33.032l.258-.018.24-.056.224-.065.21-.102.19-.11.18-.14.17-.15.15-.17.13-.18.13-.2.12-.21.1-.22.09-.23.07-.24.06-.25.05-.25.04-.25.03-.27v-.25l-.01-.26-.03-.24-.04-.23-.06-.22-.08-.21-.09-.18-.11-.18-.12-.15-.14-.13-.16-.11-.17-.07-.18-.05-.2-.02-.25.02-.23.04-.22.08-.21.09-.18.12-.19.15-.16.16-.16.18-.14.21-.13.22-.12.22-.1.24-.1.25-.08.25-.08.27-.06.27-.05.41.02.45.06.45.12.44.18.38.24.31.3.21"/><path fill="#FFF" d="M24.823 33.217l-.37 2.06h-2.33l.065-.38.05-.343.033-.26.04-.138-.13.148-.15.15-.17.138-.19.13-.22.13-.23.11-.24.112-.25.093-.27.083-.26.066-.27.056-.27.037-.27.01-.26.01-.26-.03-.25-.04-.32-.09-.29-.09-.26-.12-.23-.14-.2-.15-.18-.17-.15-.18-.13-.19-.11-.2-.09-.21-.07-.2-.06-.2-.03-.22-.02-.22-.02-.21v-.2l.03-.36.06-.34.1-.33.12-.32.15-.3.17-.27.2-.26.22-.24.24-.22.26-.2.27-.18.28-.15.3-.12.3-.1.31-.08.33-.06h.02l.05-.01.06-.01.1-.01.11-.02.13-.01.14-.02.16-.02.16-.02.16-.02.17-.01.15-.02.15-.01.14-.01.13-.01h.55l.2.01h.2l.17.01.13.01.09.01H23l.02-.07.05-.17.04-.2.02-.17-.034-.2-.08-.19-.11-.17-.15-.14-.175-.12-.19-.09-.22-.06-.24-.02-.26-.01-.28-.01H21l-.293.01-.306.02-.29.03-.29.03-.28.04-.28.04-.26.04-.24.04-.22.04-.2.05-.16.05-.12.06-.1.05.66-2.24.21-.08.2-.08.23-.07.22-.05.23-.04.24-.03.24-.04.25-.02.26-.02.27-.01.27-.01h.89l.32.01.32.01.26.02.28.04.28.06.3.09.28.11.28.13.28.15.26.17.23.21.21.23.19.25.14.28.09.3.06.31v.36l-.05.37"/><path stroke="#FFF" stroke-width=".5" d="M24.823 33.217l-.37 2.06h-2.33l.065-.38.05-.343.033-.26.04-.138-.13.148-.15.15-.17.138-.19.13-.22.13-.23.11-.24.112-.25.093-.27.083-.26.066-.27.056-.27.037-.27.01-.26.01-.26-.03-.25-.04-.32-.09-.29-.09-.26-.12-.23-.14-.2-.15-.18-.17-.15-.18-.13-.19-.11-.2-.09-.21-.07-.2-.06-.2-.03-.22-.02-.22-.02-.21v-.2l.03-.36.06-.34.1-.33.12-.32.15-.3.17-.27.2-.26.22-.24.24-.22.26-.2.27-.18.28-.15.3-.12.3-.1.31-.08.33-.06h.02l.05-.01.06-.01.1-.01.11-.02.13-.01.14-.02.16-.02.16-.02.16-.02.17-.01.15-.02.15-.01.14-.01.13-.01h.55l.2.01h.2l.17.01.13.01.09.01H23l.02-.07.05-.17.04-.2.02-.17-.034-.2-.08-.19-.11-.17-.15-.14-.175-.12-.19-.09-.22-.06-.24-.02-.26-.01-.28-.01H21l-.293.01-.306.02-.29.03-.29.03-.28.04-.28.04-.26.04-.24.04-.22.04-.2.05-.16.05-.12.06-.1.05.66-2.24.21-.08.2-.08.23-.07.22-.05.23-.04.24-.03.24-.04.25-.02.26-.02.27-.01.27-.01h.89l.32.01.32.01.26.02.28.04.28.06.3.09.28.11.28.13.28.15.26.17.23.21.21.23.19.25.14.28.09.3.06.31v.36l-.05.37-.93 4.9"/><path fill="#EC1C2E" d="M22.595 30.794l-.01-.046-.037-.046-.055-.03-.09-.016-.103-.02-.12-.01h-.278l-.146.01-.157.02-.15.017-.15.02-.14.02-.13.026-.11.02-.11.02-.07.02-.08.03-.11.03-.1.04-.12.05-.12.06-.13.06-.12.07-.13.09-.12.09-.11.11-.1.11-.1.12-.07.13-.06.14-.03.15-.01.31.04.25.09.19.12.14.14.09.15.05.14.03.15.01.27-.01.25-.03.24-.04.21-.06.18-.07.18-.09.16-.09.14-.1.12-.1.11-.11.09-.1.07-.11.07-.12.06-.11.05-.1.02-.1.07-.27.06-.31.05-.3"/><path fill="#FFF" d="M5.382 35.278h-2.51l2.096-12.19h4.37l.416 7.233 3.02-7.23h4.565l-2.15 12.19h-2.51l1.59-9.1h-.1l-3.76 9.11H7.57l-.02-.38-.064-1.01-.084-1.43-.092-1.66-.093-1.66-.08-1.45-.067-1.06-.02-.44h-.138"/><path stroke="#FFF" stroke-width=".5" d="M5.382 35.278h-2.51l2.096-12.19h4.37l.416 7.233 3.02-7.23h4.565l-2.15 12.19h-2.51l1.59-9.1h-.1l-3.76 9.11H7.57l-.02-.38-.064-1.01-.084-1.43-.092-1.66-.093-1.66-.08-1.45-.067-1.06-.02-.44h-.138l-1.53 9.1"/><path fill="#FFF" d="M70.676 33.217l-.38 2.06h-2.32l.02-.38.01-.333v-.25l.016-.11-.118.137-.14.14-.166.13-.185.13-.192.12-.22.12-.23.11-.23.1-.25.08-.26.08-.25.05-.26.04-.26.02-.26.01-.25-.03-.25-.04-.33-.08-.29-.09-.26-.12-.24-.14-.2-.14-.17-.17-.14-.17-.13-.18-.11-.19-.08-.2-.07-.2-.04-.2-.04-.21-.03-.21-.02-.2v-.21l.02-.36.05-.34.09-.32.12-.32.14-.3.18-.27.19-.26.21-.23.24-.21.25-.2.27-.17.29-.15.29-.13.3-.1.31-.08.31-.06h.02l.04-.01.07-.01.1-.01.12-.01.13-.01.14-.02.15-.02.16-.02.17-.02.16-.01.16-.02h.15l.13-.01.13-.01h.32l.23.01.21.01h.21l.17.01.15.01.08.01h.04l.02-.06.03-.17.03-.19.01-.17-.04-.2-.07-.19-.12-.17-.14-.14-.17-.12-.19-.09-.2-.06-.22-.02h-.26l-.28-.01h-.29l-.29.01-.3.02-.3.03-.29.03-.28.04-.28.038-.26.04-.24.04-.22.05-.2.06-.16.06-.13.06-.1.05.65-2.24.2-.08.22-.077.21-.06.22-.05.24-.04.23-.04.24-.04.25-.01.25-.02.27-.01.27-.01H68l.31.01.32.01.26.02.28.05.29.066.29.08.28.11.28.13.28.158.26.18.23.21.21.22.19.25.14.28.1.298.07.31v.3l-.05.37"/><path fill="#FFF" d="M64.475 35.428l.258.036.25.027h.258l.27-.02.27-.03.26-.05.26-.07.26-.07.23-.09.24-.11.23-.11.19-.13.2-.13.17-.13.15-.14.12-.14-.09-.07-.12.14-.13.13-.16.13-.17.13-.19.11-.22.12-.22.11-.23.09-.24.08-.26.08-.26.05-.24.04-.27.02-.25.01-.25-.02-.24-.03m-2.26-2.71l.01.21.02.2.03.23.04.22.05.2.07.21.09.21.12.2.13.2.15.17.19.18.22.15.24.15.27.12.3.09.33.09.02-.11-.33-.08-.28-.09-.25-.12-.24-.13-.19-.15-.16-.16-.15-.17-.13-.17-.1-.2-.08-.19-.07-.19-.05-.21-.04-.22-.03-.21-.02-.2.01-.21m3.19-3.56l-.32.06-.32.08-.31.1-.3.13-.29.15-.27.19-.25.2-.24.22-.22.23-.19.26-.18.28-.14.31-.12.31-.08.33-.05.35-.02.36h.13l.01-.36.06-.33.09-.31.12-.32.14-.29.17-.26.2-.26.2-.23.24-.21.25-.19.25-.17.29-.15.27-.12.3-.1.29-.084.31-.057m2.14-1.74l.2.01.18.044.17.07.15.09.12.1.1.13.07.133.04.16h.1l-.04-.17-.06-.16-.12-.14-.14-.12-.16-.11-.19-.07-.19-.04-.212-.02m4 1l.043-.38v-.36l-.07-.328-.1-.305-.15-.28-.185-.26-.22-.23-.23-.203-.27-.18-.28-.162-.29-.13-.29-.11-.3-.08-.29-.06-.283-.05-.26-.02v.11l.26.02.27.04.28.06.29.08.29.11.27.13.28.15.25.17.23.2.2.216.18.24.13.27.1.29.064.31V28l-.04.36m-.88 4.92l.804-4.9-.09-.02-.8 4.9"/><path fill="#FBB231" d="M68.438 30.794l-.018-.055-.035-.05-.066-.03-.1-.03-.1-.01-.12-.01h-.14l-.14.01-.15.02-.15.01-.15.02-.14.02-.14.03-.12.01-.12.03-.09.02-.07.01-.08.03-.09.03-.1.03-.12.05-.11.06-.13.06-.12.08-.12.08-.12.1-.1.1-.1.12-.09.13-.07.14-.06.15-.03.15-.01.32.04.25.07.19.11.14.14.09.16.05.15.03.16.01.27-.01.25-.03.24-.05.21-.07.2-.08.17-.09.17-.09.15-.11.13-.11.1-.12.1-.11.08-.13.06-.11.04-.11.04-.11.03-.1.04-.26.05-.27.04-.26"/><path fill="#FFF" d="M87.47 34.006l.02-.215.072-.25.13-.22.156-.19.196-.16.222-.11.24-.07.258-.02.26.03.24.08.22.11.196.16.157.2.13.22.072.25.01.22h-.28l-.01-.17-.06-.2-.09-.18-.12-.16-.15-.13-.18-.09-.2-.06-.22-.02-.21.02-.21.06-.18.1-.15.13-.12.16-.09.18-.06.21-.02.17m-.27 0l-.01.06.03.27.07.25.13.23.15.19.19.16.22.12.24.08.26.03.26-.03.24-.07.22-.12.19-.15.16-.18.13-.22.07-.25.02-.27-.01-.05h-.28l.01.06-.02.22-.06.2-.09.18-.13.16-.15.13-.18.1-.2.07-.22.02-.21-.02-.2-.06-.18-.1-.15-.13-.12-.15-.09-.18-.06-.2-.02-.22v-.05"/><path stroke="#FFF" stroke-width=".5" d="M88.764 35.14l.213-.02.203-.065.176-.1.146-.133.12-.155.093-.177.058-.204.017-.223-.017-.223-.058-.205-.092-.185-.12-.16-.147-.128-.176-.092-.203-.066-.213-.02-.212.02-.202.066-.177.092-.15.13-.12.158-.09.185-.056.205-.018.223.01.223.05.204.09.177.12.155.15.133.17.1.2.066.21.02m0-1.12l.08-.02.06-.01.05-.02.04-.01.04-.03.02-.03.01-.04v-.06l-.01-.04-.02-.04-.03-.01-.03-.02-.05-.01h-.42v.37h.23m-.23.56h-.23v-1.13h.51l.11.01.1.02.07.03.06.04.05.06.03.06.02.06.01.07-.01.08-.02.07-.03.06-.04.05-.05.04-.06.02-.07.02h-.07l.27.47H89l-.28-.46h-.23v.46m-1.07-.51l.028-.27.07-.25.13-.22.16-.19.19-.16.225-.11.24-.08.256-.02.26.03.24.07.22.12.19.16.15.2.13.22.07.25.02.27-.03.27-.08.25-.13.22-.16.19-.2.16-.22.13-.24.07-.26.03-.26-.03-.24-.07-.22-.12-.2-.16-.16-.19-.13-.22-.07-.25-.03-.27"/><path fill="#FFF" d="M71.37 35.278h2.605l.932-5.282.035-.203.057-.206.05-.204.07-.204.09-.21.11-.2.12-.19.15-.18.16-.16.18-.15.21-.14.24-.11.26-.09.29-.08.32-.06.36-.02h.23l.42-2.39-.26.02-.25.02-.23.04-.22.06-.21.07-.19.09-.19.1-.17.11-.17.13-.16.13-.15.15-.15.14-.14.15-.14.17-.14.16-.13.19.27-1.68h-2.59"/><path stroke="#FFF" stroke-width=".5" d="M71.37 35.278h2.605l.932-5.282.035-.203.057-.206.05-.204.07-.204.09-.21.11-.2.12-.19.15-.18.16-.16.18-.15.21-.14.24-.11.26-.09.29-.08.32-.06.36-.02h.23l.42-2.39-.26.02-.25.02-.23.04-.22.06-.21.07-.19.09-.19.1-.17.11-.17.13-.16.13-.15.15-.15.14-.14.15-.14.17-.14.16-.13.19.27-1.68h-2.59l-1.73 9.94"/><path fill="#FFF" d="M46.903 35.278h2.65l.888-5.282.04-.203.05-.196.05-.194.07-.187.08-.185.1-.17.11-.16.13-.15.15-.14.17-.14.21-.11.22-.1.26-.08.29-.07.31-.04.36-.02h.03l.04.01.05.01h.05l.05.01.04.01.03.01h.01l.01-.04.02-.11.04-.17.05-.21.06-.24.06-.26.08-.26.09-.26.08-.17.09-.18.09-.17.09-.15.09-.14.07-.11.05-.07.02-.02h-.01l-.04-.01-.04-.01-.06-.01h-.06l-.07-.01-.06-.01h-.07l-.29.02-.26.03-.24.04-.22.06-.21.07-.19.1-.17.09-.17.11-.16.12-.15.14-.13.14-.14.16-.14.16-.13.18-.14.19-.14.19.33-1.68H48.7"/><path stroke="#FFF" stroke-width=".5" d="M46.903 35.278h2.65l.888-5.282.04-.203.05-.196.05-.194.07-.187.08-.185.1-.17.11-.16.13-.15.15-.14.17-.14.21-.11.22-.1.26-.08.29-.07.31-.04.36-.02h.03l.04.01.05.01h.05l.05.01.04.01.03.01h.01l.01-.04.02-.11.04-.17.05-.21.06-.24.06-.26.08-.26.09-.26.08-.17.09-.18.09-.17.09-.15.09-.14.07-.11.05-.07.02-.02h-.01l-.04-.01-.04-.01-.06-.01h-.06l-.07-.01-.06-.01h-.07l-.29.02-.26.03-.24.04-.22.06-.21.07-.19.1-.17.09-.17.11-.16.12-.15.14-.13.14-.14.16-.14.16-.13.18-.14.19-.14.19.33-1.68H48.7l-1.725 9.94"/><path fill="#FBB231" d="M87.49 44.83v-.03l.07-.19.132-.168.157-.148.19-.117.22-.09.24-.05.26-.023.26.024.24.05.22.09.19.116.15.148.13.168.07.19v.03h-.27l-.06-.152-.09-.14-.12-.126-.15-.103-.18-.09-.21-.05-.21-.02-.21.01-.21.05-.18.08-.15.1-.12.12-.09.14-.06.15m-.29.42v.02l.03.27.07.25.13.22.15.19.2.16.22.11.24.07.26.02.26-.03.24-.07.22-.11.19-.16.15-.2.13-.22.07-.25.02-.27v-.02h-.28v.03l-.02.22-.06.2-.1.17-.12.16-.15.13-.18.1-.21.07-.22.02-.21-.02-.21-.07-.18-.1-.15-.13-.12-.15-.09-.17-.06-.2-.02-.23v-.03"/><path fill="#FFF" d="M44.685 29.15H41.31l.004-.007h-.006l.023-.13.04-.195.06-.186.07-.186.09-.166.09-.16.1-.148.12-.14.12-.13.12-.11.14-.102.14-.085.16-.073.16-.055.16-.038.17-.03.18-.01.17.02.16.03.15.03.15.05.14.07.14.08.13.09.11.11.09.13.1.14.07.16.07.17.04.18.02.2.01.22-.02.23zm2.505-.854l-.074-.554-.13-.493-.184-.43-.233-.37-.28-.32-.31-.26-.34-.22-.36-.17-.37-.14-.38-.1-.38-.07-.38-.04-.36-.01-.75.03-.67.11-.6.17-.54.23-.47.28-.41.31-.36.35-.29.37-.26.39-.21.4-.17.4-.14.4-.1.39-.08.36-.06.34-.04.3-.05.76.03.68.1.62.15.55.22.49.26.43.31.38.36.31.39.27.41.23.43.18.45.13.46.11.46.07.46.04.45.01h.3l.29-.01H44l.24-.01.21-.02.19-.02.183-.02.166-.03.16-.03.15-.04.15-.05.14-.05.13-.06.15-.06.14-.08.15-.08.37-2.29-.27.16-.26.14-.27.11-.26.1-.25.08-.26.05-.25.05-.25.03-.25.02-.24.01h-.25l-.24-.01-.24-.02-.24-.03-.23-.03-.24-.04-.19-.03-.19-.07-.19-.08-.17-.1-.17-.11-.15-.14-.14-.14-.13-.16-.11-.16-.1-.18-.07-.17-.07-.18-.03-.18-.02-.18v-.16l.02-.12h5.99l.04-.57.14-.78.06-.71-.01-.63z"/></g></svg>