<svg viewBox="0 0 24 24" xmlns="http://www.w3.org/2000/svg"><g fill="none" fill-rule="evenodd"> <path d="M16.598 2H8.402C7.625 2 7 2.58 7 3.3v17.4c0 .72.625 1.3 1.402 1.3h8.196c.777 0 1.402-.58 1.402-1.3V3.3c0-.72-.625-1.3-1.402-1.3zm-4.53 1.599h.863c.302 0 .54.22.54.5s-.238.5-.54.5h-.862c-.302 0-.54-.22-.54-.5s.238-.5.54-.5zM13.364 20.2h-1.726c-.302 0-.539-.22-.539-.5s.237-.5.54-.5h1.725c.302 0 .539.22.539.5s-.237.5-.54.5zm-.514-6.013h1.032v1H12.85v-1zm2.064-2.002h1.032v1.001h-1.032v-1zm0 2.002h1.032v1h-1.032v-1zm-1.032-1.001h1.032v1h-1.032v-1zM9.064 8.515h1.032v1.001H9.064v-1zm0 2.002h1.032v1H9.064v-1zm2.064-2.002h1.032v1.001h-1.032v-1zm0 2.002h1.032v1h-1.032v-1zm-1.032-1h1.032v1h-1.032v-1zm-1.03 2.67h3.096v3.001H9.066v-3.002zm3.783-3.67h3.096v3.002H12.85V8.517zm4.073 9.486H8.078V5.598h8.844v12.405z" fill="currentColor"/></g></svg>