<svg viewBox="0 0 238 197" xmlns="http://www.w3.org/2000/svg"><defs><linearGradient x1="0%" y1="50.1%" y2="50.1%" id="payment-card-happya"><stop stop-color="#F6B2B3" offset="16.3%"/><stop stop-color="#F48F90" offset="50%"/><stop stop-color="#F06B6C" offset="89.8%"/></linearGradient><linearGradient x1="10.8%" y1="-13.2%" x2="89.2%" y2="113.3%" id="payment-card-happyb"><stop stop-color="#BFD3EA" offset="0%"/><stop stop-color="#B3CAE6" offset="21.3%"/><stop stop-color="#93B4DB" offset="59.9%"/><stop stop-color="#7DA5D4" offset="82.1%"/></linearGradient><linearGradient x1="0%" y1="49.8%" x2="99.9%" y2="49.8%" id="payment-card-happyc"><stop stop-color="#717FA2" offset="12.8%"/><stop stop-color="#242F65" offset="100%"/></linearGradient></defs><g fill="none" fill-rule="evenodd"><path d="M233 111.3l-161 84a8.7 8.7 0 0 1-11.9-3.9L11 97.6a8.7 8.7 0 0 1 3.8-11.9l161-84a8.7 8.7 0 0 1 12 3.9l49 93.8c2.3 4.5.5 9.6-3.8 11.9z" fill="url(#payment-card-happya)"/><path d="M197.8 55.3h-124l-59 30.9A8.9 8.9 0 0 0 11 98l42.2 80.8H104L205.2 126l-.4-62.2c.2-5-2.3-8.5-7-8.5z" fill="#425685"/><path d="M190.7 173.3H9c-5 0-8.8-4-8.8-8.8V58.7c0-5 4-8.8 8.8-8.8h181.7c4.9 0 8.7 4 8.7 8.8v105.8c0 5-3.8 8.8-8.7 8.8z" fill="url(#payment-card-happyb)"/><path fill="url(#payment-card-happyc)" d="M.2 79.2h199.4v26.4H.2z"/><g transform="translate(80.7 123.1)" fill="#252E65"><ellipse cx="6.7" cy="5.6" rx="5.4" ry="5.4"/><ellipse cx="31.4" cy="5.6" rx="5.4" ry="5.4"/></g><path d="M99.8 155.8c-7.2 0-13.9-3.6-18-9.8-.6-1.2-.4-3 .7-3.6 1.2-.7 3-.5 3.6.6 3.2 4.8 8.1 7.4 13.7 7.4s10.6-2.7 13.7-7.4c.7-1 2.5-1.5 3.6-.6 1.1.6 1.6 2.4.7 3.6-4 6-10.8 9.8-18 9.8z" fill="#252E65"/></g></svg>