<svg id="Layer_1" data-name="Layer 1" xmlns="http://www.w3.org/2000/svg" xmlns:xlink="http://www.w3.org/1999/xlink" viewBox="0 0 148.38 148.38"><defs><style>.cls-1{fill:none}.cls-2{fill:#f5832f}.cls-3{clip-path:url(#clip-path)}.cls-4{fill:url(#linear-gradient)}.cls-5{clip-path:url(#clip-path-2)}.cls-6{fill:url(#radial-gradient)}.cls-7{clip-path:url(#clip-path-3)}.cls-8{fill:url(#radial-gradient-2)}.cls-9{clip-path:url(#clip-path-4)}.cls-10{fill:url(#radial-gradient-3)}.cls-11{clip-path:url(#clip-path-5)}.cls-12{fill:url(#linear-gradient-2)}.cls-13{clip-path:url(#clip-path-6)}.cls-14{fill:url(#linear-gradient-3)}.cls-15{clip-path:url(#clip-path-7)}.cls-16{fill:url(#linear-gradient-4)}.cls-17{fill:#333132}.cls-18{fill:#f5842e}.cls-19{fill:#1a171b}</style><clipPath id="clip-path"><path class="cls-1" d="M0 74.19A74.19 74.19 0 1 0 74.19 0 74.19 74.19 0 0 0 0 74.19"/></clipPath><linearGradient id="linear-gradient" x1="-302.87" y1="875.7" x2="-301.66" y2="875.7" gradientTransform="matrix(-123.34 0 0 123.34 -37207.17 -107934.21)" gradientUnits="userSpaceOnUse"><stop offset="0" stop-color="#b3b5b8"/><stop offset=".13" stop-color="#cacbcd"/><stop offset=".38" stop-color="#fff"/><stop offset=".64" stop-color="#fff"/><stop offset=".73" stop-color="#f4f4f4"/><stop offset="1" stop-color="#d1d3d4"/></linearGradient><clipPath id="clip-path-2"><path class="cls-1" d="M1.19 74.19a73 73 0 1 1 73 73 73 73 0 0 1-73-73m-1.19 0A74.19 74.19 0 1 0 74.19 0 74.19 74.19 0 0 0 0 74.19"/></clipPath><radialGradient id="radial-gradient" cx="-298.4" cy="871.63" r="1.2" gradientTransform="matrix(-61.65 0 0 61.65 -18323.21 -53664.94)" gradientUnits="userSpaceOnUse"><stop offset="0" stop-color="#808285"/><stop offset=".86" stop-color="#808285"/><stop offset=".89" stop-color="#9b9d9f"/><stop offset=".92" stop-color="#b3b5b7"/><stop offset=".95" stop-color="#c2c3c5"/><stop offset=".97" stop-color="#c7c8ca"/><stop offset=".98" stop-color="#c4c5c7"/><stop offset=".99" stop-color="#bbbcbe"/><stop offset=".99" stop-color="#abadaf"/><stop offset="1" stop-color="#95979a"/><stop offset="1" stop-color="#939598"/></radialGradient><clipPath id="clip-path-3"><path class="cls-1" d="M3 74.19A71.22 71.22 0 1 0 74.19 3 71.22 71.22 0 0 0 3 74.19"/></clipPath><radialGradient id="radial-gradient-2" cx="-308.08" cy="890.52" r="1.2" gradientTransform="matrix(59.19 0 0 -59.19 18308.51 52781.98)" gradientUnits="userSpaceOnUse"><stop offset="0" stop-color="#fdd0af"/><stop offset=".13" stop-color="#fdd0af"/><stop offset=".37" stop-color="#f5842f"/><stop offset=".54" stop-color="#f9a56f"/><stop offset=".59" stop-color="#f5842f"/><stop offset=".67" stop-color="#f9a56f"/><stop offset=".9" stop-color="#f9a56f"/><stop offset=".98" stop-color="#f5842f"/><stop offset="1" stop-color="#f5842f"/></radialGradient><clipPath id="clip-path-4"><path class="cls-1" d="M73.12 60.33l-8.6-39.78 5.64 40.3L53.2 23.86l14.18 38.15-24.52-32.49 22.05 34.21-30.93-26.45 28.88 28.67-35.89-19.19 34.38 21.79-39.18-11.03 38.26 13.9-40.64-2.35 40.35 5.34-40.19 6.45 40.56-3.45-37.87 14.93 38.87-12.09-33.77 22.72 35.35-20.16L35 112.25l30.19-27.28-21.1 34.8 23.62-33.15-13.13 38.53L70.53 87.7l-4.55 40.45 7.52-40.01 4.26 40.49-1.25-40.69 12.85 38.62-9.96-39.47 20.86 34.95-18.22-36.39 27.89 29.65-25.62-31.64 33.6 22.97L86.1 81.25l37.76 15.19L87.33 78.5l40.14 6.72-39.53-9.68 40.65-2.06-40.7-.95 39.26-10.75L87.2 69.6l36.03-18.94L85.9 66.88l31.12-26.24-32.97 23.87 24.74-32.32-27.07 30.4 17.22-36.88-19.9 35.51 8.9-39.72-11.8 38.95.14-40.7-3.16 40.58z"/></clipPath><radialGradient id="radial-gradient-3" cx="-312.57" cy="891.49" r="1.2" gradientTransform="matrix(0 45.21 45.21 0 -40229.46 14206.92)" gradientUnits="userSpaceOnUse"><stop offset="0" stop-color="#f5842f"/><stop offset=".24" stop-color="#f5842f"/><stop offset=".64" stop-color="#fdd0af"/><stop offset="1" stop-color="#fdd0af"/></radialGradient><clipPath id="clip-path-5"><path class="cls-1" d="M31.34 86.27H117a44.53 44.53 0 0 1-85.71 0m42.85-56.6A44.53 44.53 0 0 1 116.73 61H31.65a44.53 44.53 0 0 1 42.54-31.33M5 74.19A69.14 69.14 0 1 0 74.19 5 69.15 69.15 0 0 0 5 74.19"/></clipPath><linearGradient id="linear-gradient-2" x1="-302.84" y1="875.32" x2="-301.64" y2="875.32" gradientTransform="matrix(-114.95 0 0 114.95 -34668.42 -100544.78)" xlink:href="#linear-gradient"/><clipPath id="clip-path-6"><path class="cls-1" d="M31.65 61h1.44a43.57 43.57 0 0 1 41.1-30.21A43.57 43.57 0 0 1 115.29 61h1.44a44.53 44.53 0 0 0-85.08 0"/></clipPath><linearGradient id="linear-gradient-3" x1="-281.17" y1="892.09" x2="-279.96" y2="892.09" gradientTransform="matrix(0 -26.07 -26.07 0 23331.33 -7269.07)" gradientUnits="userSpaceOnUse"><stop offset="0" stop-color="#dcddde"/><stop offset="1" stop-color="#b1b3b6"/></linearGradient><clipPath id="clip-path-7"><path class="cls-1" d="M115.29 86.27a42.75 42.75 0 0 1-82.2 0h-1.75a44.53 44.53 0 0 0 85.71 0z"/></clipPath><linearGradient id="linear-gradient-4" x1="-282.25" y1="891.73" x2="-281.04" y2="891.73" gradientTransform="matrix(0 -26.95 -26.95 0 24108.99 -7488.77)" xlink:href="#linear-gradient-3"/></defs><title>SEP</title><path class="cls-2" d="M78.84 56.79L99.19 8.57 82.45 58.16l30.25-42.71-27 44.83 38.72-35.21-36.01 37.98 45.38-26.07-43.33 29.35 49.93-15.7-48.63 19.35 52.13-4.59-51.65 8.44 51.91 6.72-52.27-2.86 49.26 17.71-50.43-14.03 44.29 27.9-46.23-24.54 37.26 36.76-39.88-33.91 28.49 43.91-31.66-41.68 18.38 49L79.41 91.3l7.41 51.81L75.6 92l-3.9 52.19.03-52.34-15.02 50.14 11.27-51.11-25.45 45.73 22-47.5-34.69 39.2 31.69-41.65-42.3 30.82 39.91-33.87-47.94 21.01 46.26-24.49L6.12 90.34l50.44-13.98-52.33-1.07 52.26-2.8L5.62 60.2l51.64 8.49-47.04-22.94 48.61 19.4-41.01-32.52 43.3 29.4-33.06-40.58 35.97 38.02-23.57-46.73L67.42 57.6 54.45 6.89 71.14 56.5 69.37 4.19 75 56.22l9.52-51.46-5.68 52.03z"/><g class="cls-3"><path class="cls-4" transform="rotate(-23 74.2 74.19)" d="M-23.09-23.09h194.56v194.56H-23.09z"/></g><g class="cls-5"><path class="cls-6" d="M0 0h148.38v148.38H0z"/></g><g class="cls-7"><path class="cls-8" d="M2.97 2.97h142.44v142.44H2.97z"/></g><g class="cls-9"><path class="cls-10" transform="rotate(-75.44 74.191 74.193)" d="M7.83 7.85h132.73v132.67H7.83z"/></g><g class="cls-11"><path class="cls-12" transform="rotate(-23 74.2 74.19)" d="M-16.47-16.48h181.33v181.33H-16.47z"/></g><g class="cls-13"><path class="cls-14" d="M31.65 29.67h85.08v31.37H31.65z"/></g><g class="cls-15"><path class="cls-16" d="M31.34 86.27h85.71v32.43H31.34z"/></g><path class="cls-17" d="M20.91 93.34c.67-.32 1.21-.59 1.73-.88l.49 1-1 .55a2.47 2.47 0 0 1 2.16 1.47 2.12 2.12 0 0 1-.44 2.52 3 3 0 0 1 1.19.33 2.45 2.45 0 0 1 1.13 1.22c.41.86.44 2.4-1.81 3.46l-3.82 1.81-.54-1.13 3.69-1.69c1.25-.59 1.78-1.4 1.33-2.35a1.69 1.69 0 0 0-1.73-.89 2.13 2.13 0 0 0-.63.19l-4 1.89-.54-1.15L22 97.8c1-.49 1.57-1.3 1.14-2.2a1.94 1.94 0 0 0-2.49-.73l-3.92 1.85-.54-1.15zm8.56 17.83a3.51 3.51 0 0 1-5.19-.62 3.41 3.41 0 0 1 .94-5 3.5 3.5 0 0 1 5.18.61 3.4 3.4 0 0 1-.93 5.01zM26 106.63c-1.27.93-1.69 2.36-.93 3.39s2.24 1.06 3.54.11c1-.72 1.86-2.12.95-3.37s-2.42-.94-3.56-.13zm5.89 5.25c.62-.58 1.14-1.09 1.59-1.58l.78.83-1 1a2.15 2.15 0 0 1 2.51.37 1.4 1.4 0 0 1 .22.3l-.9.84a2 2 0 0 0-.27-.35 1.83 1.83 0 0 0-2.42-.13 3.56 3.56 0 0 0-.48.37l-2.79 2.62-.88-.94zm3.11 5.4a2.3 2.3 0 0 0 .27 3.49 4.72 4.72 0 0 0 1.76 1l-.43.86a5.83 5.83 0 0 1-2.11-1.2 3.33 3.33 0 0 1-.36-5c1.4-1.65 3.47-2.13 5.07-.78 1.79 1.51.93 3.49.08 4.5a4.91 4.91 0 0 1-.43.44zm3.5 1.72a1.86 1.86 0 0 0 0-2.79 2.16 2.16 0 0 0-2.9.32zm4.29 6.69A3.41 3.41 0 0 0 44 127c.83.45 1.45.25 1.73-.27s.14-1-.54-1.8c-.91-1-1.11-1.94-.69-2.69a2.21 2.21 0 0 1 3.18-.66 3.59 3.59 0 0 1 1.34 1.24l-.74.68a2.8 2.8 0 0 0-1.09-1.07 1 1 0 0 0-1.52.28c-.28.52 0 1 .62 1.72.87 1 1.13 1.87.62 2.8-.6 1.11-1.89 1.42-3.39.6a4.1 4.1 0 0 1-1.54-1.4zm8.98 2.31a2.3 2.3 0 0 0 1.43 3.2 4.72 4.72 0 0 0 2 .35l-.12 1a5.81 5.81 0 0 1-2.39-.42 3.33 3.33 0 0 1-2-4.63c.76-2 2.55-3.18 4.51-2.44 2.19.82 2.05 3 1.59 4.21a4.91 4.91 0 0 1-.25.55zm3.91.47a1.86 1.86 0 0 0-.95-2.62 2.16 2.16 0 0 0-2.62 1.28zm7.48 6.08a4.78 4.78 0 0 1-2.1 0 3.41 3.41 0 0 1-2.7-4.35 3.65 3.65 0 0 1 4.59-2.89 4.37 4.37 0 0 1 1.69.75l-.51.92a3 3 0 0 0-1.4-.66 2.71 2.71 0 0 0-1.2 5.26 3.71 3.71 0 0 0 1.64 0zm9.64-.69c-.05.74-.08 1.39-.08 2l-1.15-.08v-1.17a2.7 2.7 0 0 1-2.46 1.16c-1.12-.08-2.43-.8-2.25-3.31l.3-4.19 1.3.09-.28 4c-.1 1.36.25 2.31 1.44 2.39a1.84 1.84 0 0 0 2-1.72l.31-4.39 1.3.09zm2.69-3.03c0-.84-.09-1.57-.17-2.23l1.14-.05.11 1.41h.06a2.15 2.15 0 0 1 1.91-1.67 1.38 1.38 0 0 1 .37 0l.06 1.23a2 2 0 0 0-.45 0 1.83 1.83 0 0 0-1.67 1.76 3.68 3.68 0 0 0 0 .61l.15 3.81-1.29.06zm5.98-4.76a.81.81 0 0 1-1.6.2.8.8 0 0 1 .71-.91.78.78 0 0 1 .89.71zm-.29 9.31l-.9-7.12 1.29-.16.9 7.12zm3.74-9.95l.42 2 1.83-.38.2 1-1.83.38.78 3.79c.18.87.53 1.31 1.24 1.17a2.9 2.9 0 0 0 .72-.24l.26.95a3.2 3.2 0 0 1-1.1.41 1.81 1.81 0 0 1-1.49-.25 2.66 2.66 0 0 1-.87-1.73l-.79-3.83-1.09.22-.2-1 1.09-.22-.35-1.7zm4.16 1.14l2.82 3.54c.3.4.65.88.89 1.25v-6.01l1.31-.43-.27 5.47c-.12 2.63-.33 4-.94 5a3.53 3.53 0 0 1-1.26 1.3l-.65-.94a3.43 3.43 0 0 0 .89-1 3.94 3.94 0 0 0 .59-1.72.94.94 0 0 0 0-.33 1.14 1.14 0 0 0-.19-.3l-4.54-5.4zm28.08-10.95c.51.54 1 1 1.39 1.38l-.84.79-.86-.8a2.7 2.7 0 0 1-.81 2.6c-.82.77-2.23 1.24-4-.59l-2.87-3 1-.9 2.73 2.89c.94 1 1.87 1.38 2.73.56a1.84 1.84 0 0 0 .07-2.61l-3-3.21.95-.9zm2.38-1.62a3.42 3.42 0 0 0 1.48-1c.59-.74.5-1.39 0-1.76s-1-.31-1.86.22c-1.16.72-2.1.76-2.77.22a2.21 2.21 0 0 1-.11-3.25 3.58 3.58 0 0 1 1.45-1.11l.54.85a2.8 2.8 0 0 0-1.24.89 1 1 0 0 0 0 1.55c.46.37.94.2 1.8-.31 1.15-.68 2-.79 2.87-.13 1 .78 1.08 2.1 0 3.44a4.09 4.09 0 0 1-1.64 1.27zm.35-16.83l7.5 4.36c.55.32 1.19.67 1.63.88l-.59 1-1.11-.58a2.66 2.66 0 0 1 0 2.82c-.87 1.5-2.81 1.92-4.7.82-2.07-1.19-2.59-3.21-1.71-4.72a2.4 2.4 0 0 1 2-1.32l-3.7-2.16zm4.76 4.28a2.25 2.25 0 0 0-.5-.22 1.92 1.92 0 0 0-2.25.87c-.68 1.17-.06 2.46 1.31 3.25s2.65.72 3.36-.5a2 2 0 0 0-.38-2.44 2.28 2.28 0 0 0-.46-.33zM18.54 47a14.93 14.93 0 0 1 1-2.25 4.11 4.11 0 0 1 2.1-2 2.69 2.69 0 0 1 2.25.27 2.94 2.94 0 0 1 1.48 1.72 4.14 4.14 0 0 1-.55 3.2 4.44 4.44 0 0 1-.59.86l3.49 2-.63 1.12zm4.83 1.24a4.33 4.33 0 0 0 .61-.88c.77-1.36.57-2.55-.63-3.23S21.2 44 20.5 45.24a5.43 5.43 0 0 0-.5 1.11zm12.56-9.81a6.41 6.41 0 0 1-1.31 2.34 4.67 4.67 0 0 1-7 .61 5 5 0 0 1-.79-7.38 5.37 5.37 0 0 1 1.85-1.55l.62.91a4.67 4.67 0 0 0-1.6 1.3c-1.49 1.81-1.32 4 .71 5.63s4 1.46 5.54-.42A5.16 5.16 0 0 0 35 38zm-4.17-9.35l6.89 7.25-.94.89L30.83 30zM37.94 24a18.55 18.55 0 0 1 2.21-1.65 5.72 5.72 0 0 1 4.09-1.12 4.6 4.6 0 0 1 3.11 2.28 5.29 5.29 0 0 1 .87 4.05 6.16 6.16 0 0 1-3 3.58 20.76 20.76 0 0 1-2 1.16zm5.83 6.77a8.17 8.17 0 0 0 1.14-.64c2.33-1.48 2.77-3.58 1.32-5.86-1.25-2-3.18-2.55-5.48-1.08a7.31 7.31 0 0 0-1.21.92zm6.65-4.67a4.56 4.56 0 0 0 2.39-.28c1.22-.5 1.67-1.44 1.28-2.37s-1.05-1.16-2.5-1.12c-1.73.09-3-.31-3.52-1.61s.16-3 2-3.74a4.54 4.54 0 0 1 2.23-.39l.07 1.11a4 4 0 0 0-1.94.28c-1.26.52-1.43 1.47-1.17 2.1.36.86 1.09 1.06 2.57 1 1.81 0 2.92.39 3.48 1.74s0 3.09-2.14 4a5.18 5.18 0 0 1-2.6.38zm8.47-3.33a4.55 4.55 0 0 0 2.4.13c1.29-.29 1.89-1.13 1.67-2.12s-.84-1.32-2.27-1.53c-1.69-.25-2.89-.81-3.2-2.19s.67-2.93 2.56-3.35a4.55 4.55 0 0 1 2.26 0l-.12 1.1a4 4 0 0 0-2 0c-1.33.3-1.66 1.21-1.51 1.87.2.91.9 1.23 2.36 1.45 1.79.27 2.81.88 3.13 2.31s-.49 3.06-2.79 3.57a5.17 5.17 0 0 1-2.63-.07zm17.01-.49l-.09-.91a2.68 2.68 0 0 1-2.21 1 2 2 0 0 1-2.16-2.1c0-1.74 1.59-2.66 4.36-2.6v-.15a1.48 1.48 0 0 0-1.6-1.69 3.58 3.58 0 0 0-1.88.5l-.32-.82a4.46 4.46 0 0 1 2.37-.6c2.19 0 2.7 1.54 2.68 3v2.68a10.09 10.09 0 0 0 .09 1.72zm-.13-3.67c-1.42-.05-3 .17-3.07 1.57a1.15 1.15 0 0 0 1.21 1.27 1.79 1.79 0 0 0 1.75-1.17 1.37 1.37 0 0 0 .08-.41zm5.23-.88c.16-.91.26-1.64.35-2.32l1.15.2-.15 1.22a2.82 2.82 0 0 1 2.75-.93c1.71.3 2.74 2 2.36 4.12-.45 2.54-2.21 3.53-3.88 3.23a2.52 2.52 0 0 1-2-1.49l-.67 3.84-1.27-.22zm.94 2.11a3 3 0 0 0 0 .54 2 2 0 0 0 1.67 1.84c1.36.24 2.34-.73 2.63-2.35.25-1.42-.28-2.76-1.64-3a2.08 2.08 0 0 0-2.22 1.25 2.11 2.11 0 0 0-.18.51zm8.06-.28c.3-.87.52-1.58.72-2.23l1.11.39-.35 1.18a2.82 2.82 0 0 1 2.87-.47c1.64.57 2.38 2.39 1.66 4.45-.85 2.43-2.76 3.12-4.36 2.56A2.52 2.52 0 0 1 90 23.65l-1.29 3.68-1.22-.43zm.58 2.23a2.86 2.86 0 0 0-.12.52 2 2 0 0 0 1.34 2.09c1.3.46 2.43-.34 3-1.9.48-1.36.17-2.77-1.13-3.23a2.08 2.08 0 0 0-2.4.87 2.12 2.12 0 0 0-.26.47zm8.01.99c.38-.75.7-1.41 1-2l1 .52-.6 1.28h.05a2.15 2.15 0 0 1 2.48-.5 1.44 1.44 0 0 1 .31.21l-.56 1.1a2 2 0 0 0-.38-.24 1.83 1.83 0 0 0-2.32.7 3.61 3.61 0 0 0-.33.51l-1.73 3.41-1.15-.58zm9.7 7.38a3.51 3.51 0 0 1-5.1 1.13 3.41 3.41 0 0 1-.76-5 3.51 3.51 0 0 1 5.09-1.14 3.4 3.4 0 0 1 .77 5.01zM103.54 27c-.89 1.3-.81 2.79.24 3.51s2.46.26 3.37-1.07c.69-1 1.05-2.62-.22-3.49s-2.62-.07-3.39 1.05zm9.38 2.48l-1.72 3.91a18.58 18.58 0 0 1-.83 1.74c.52-.32 1.08-.62 1.7-.93l3.77-2 1 .93-7 3.33-.91-.85 2.9-7.11zm3.16 8.52a2.3 2.3 0 0 0-.41 3.48 4.71 4.71 0 0 0 1.53 1.32l-.59.76a5.82 5.82 0 0 1-1.84-1.56 3.33 3.33 0 0 1 .62-5c1.69-1.35 3.82-1.42 5.13.21 1.46 1.83.24 3.6-.79 4.43a4.87 4.87 0 0 1-.5.35zm3.12 2.41a1.86 1.86 0 0 0 .53-2.74 2.16 2.16 0 0 0-2.91-.24zM130 46l-7.54 4.29c-.55.32-1.18.69-1.58 1l-.58-1 1.05-.67a2.66 2.66 0 0 1-2.44-1.43c-.86-1.51-.24-3.39 1.65-4.47 2.07-1.19 4.08-.63 4.94.89a2.4 2.4 0 0 1 .12 2.42l3.72-2.12zm-6.1 2a2.37 2.37 0 0 0 .45-.32 1.92 1.92 0 0 0 .38-2.38c-.67-1.17-2.09-1.28-3.47-.5s-2 1.93-1.26 3.16a2 2 0 0 0 2.3.89 2.3 2.3 0 0 0 .52-.23z"/><path class="cls-18" d="M74.19 3a71.18 71.18 0 1 0 71.18 71.18A71.18 71.18 0 0 0 74.19 3m0 140.47a69.29 69.29 0 1 1 69.29-69.29 69.29 69.29 0 0 1-69.29 69.29"/><path class="cls-19" d="M40.5 75.7a2.28 2.28 0 0 0 .43 1.15 2.49 2.49 0 0 0 2 .7 4.32 4.32 0 0 0 1.38-.18 1.31 1.31 0 0 0 1-1.31 1 1 0 0 0-.49-.86 5.34 5.34 0 0 0-1.56-.53L42 74.41a7.59 7.59 0 0 1-2.47-.86 2.74 2.74 0 0 1-1.14-2.44 3.24 3.24 0 0 1 1.11-2.51 4.75 4.75 0 0 1 3.27-1 5 5 0 0 1 3.07.94 3.35 3.35 0 0 1 1.33 2.74H45a1.61 1.61 0 0 0-.91-1.44 3.11 3.11 0 0 0-1.4-.28 2.67 2.67 0 0 0-1.49.37 1.16 1.16 0 0 0-.56 1 1 1 0 0 0 .55.9 6.82 6.82 0 0 0 1.5.47l2 .47a5 5 0 0 1 1.95.82 2.75 2.75 0 0 1 1 2.3 3.23 3.23 0 0 1-1.19 2.56 5 5 0 0 1-3.37 1 5.51 5.51 0 0 1-3.5-1 3.32 3.32 0 0 1-1.27-2.76zm17.06-5.79h-6v2.39h5.47v2h-5.42v2.9h6.23v2h-8.53V67.92h8.26zm9.67 4.4a4.29 4.29 0 0 1-2.82.82h-2.35v4h-2.33V67.92h4.83a3.9 3.9 0 0 1 2.67.87 3.4 3.4 0 0 1 1 2.7 3.49 3.49 0 0 1-1 2.82zm-1.8-4.06a1.89 1.89 0 0 0-1.25-.37h-2.12v3.32h2.12a1.8 1.8 0 0 0 1.25-.4 1.65 1.65 0 0 0 .45-1.28 1.55 1.55 0 0 0-.44-1.27zm3.84 3.54h4.26v2.06h-4.26zM75.12 77a6.16 6.16 0 0 1 2.2-2.35 16.14 16.14 0 0 0 1.95-1.54 2.28 2.28 0 0 0 .73-1.58 1.76 1.76 0 0 0-.39-1.17 1.59 1.59 0 0 0-2.47.27 3.68 3.68 0 0 0-.29 1.37h-2.12a5.34 5.34 0 0 1 .51-2.28 3.19 3.19 0 0 1 3.1-1.66 3.93 3.93 0 0 1 2.8 1 3.37 3.37 0 0 1 1 2.58 3.49 3.49 0 0 1-.73 2.18 7.32 7.32 0 0 1-1.58 1.41l-.87.62q-.82.58-1.12.84a2.44 2.44 0 0 0-.51.6h4.87v1.92h-7.59a5.21 5.21 0 0 1 .51-2.21zm14.98-7.48a8.62 8.62 0 0 1 .9 4.23 8.57 8.57 0 0 1-.9 4.25 3.71 3.71 0 0 1-5.94 0 8.57 8.57 0 0 1-.85-4.22 8.62 8.62 0 0 1 .85-4.23 3.7 3.7 0 0 1 5.94 0zm-4.25 7.15a1.26 1.26 0 0 0 1.28 1 1.24 1.24 0 0 0 1.27-1 10.81 10.81 0 0 0 .3-2.92 10.69 10.69 0 0 0-.3-3 1.23 1.23 0 0 0-1.27-1 1.25 1.25 0 0 0-1.28 1 10.31 10.31 0 0 0-.31 3 10.42 10.42 0 0 0 .31 2.92zm6.76-5.13v-1.48a9.62 9.62 0 0 0 1.39-.14 2 2 0 0 0 1.07-.58 1.91 1.91 0 0 0 .43-.79 1.84 1.84 0 0 0 .08-.44h1.82v11.07h-2.19v-7.64zM108.47 70a13.75 13.75 0 0 0-1.36 1.71 14.1 14.1 0 0 0-2.3 5.07 10.45 10.45 0 0 0-.37 2.44h-2.26a13.31 13.31 0 0 1 2-6.19 14.62 14.62 0 0 1 2-2.78h-5.52v-2h7.82z"/></svg>