<svg viewBox="0 0 24 24" xmlns="http://www.w3.org/2000/svg"><g fill="none" fill-rule="evenodd"> <path d="M12.843 10.518c1.138.142 2.345.967 3.129 2.269 1.16 1.929.952 4.173-.466 5.012-.872.516-1.815-.124-3.006-.124-1.191 0-2.134.64-3.006.124-1.418-.84-1.627-3.083-.465-5.012.783-1.302 1.99-2.127 3.128-2.269h.006a2.647 2.647 0 0 1 .674 0h.006zm-4.232-.4c.4 1.037.185 2.119-.48 2.416-.666.297-1.53-.302-1.93-1.34-.4-1.036-.185-2.118.48-2.415.666-.298 1.53.302 1.93 1.339zm2.426-.189c-.688.229-1.495-.455-1.803-1.528-.308-1.073.001-2.128.69-2.357.688-.229 1.495.456 1.803 1.529.308 1.073-.001 2.128-.69 2.356zm7.281-1.15c.666.297.88 1.379.48 2.416s-1.263 1.636-1.928 1.339c-.666-.297-.88-1.38-.48-2.416.4-1.037 1.263-1.637 1.928-1.34zm-4.355 1.15c-.689-.228-.998-1.283-.69-2.356.308-1.073 1.115-1.758 1.804-1.529.688.229.997 1.284.689 2.357-.307 1.073-1.115 1.757-1.803 1.528z" fill="currentColor"/></g></svg>