<svg xmlns="http://www.w3.org/2000/svg" xmlns:xlink="http://www.w3.org/1999/xlink" viewBox="0 0 24 24"><defs><path id="price_taga" d="M3.7 10.2V4.5c0-.5.5-1 1-1h5.7c.3 0 .5.1.7.3l9.6 9.6c.4.4.4 1 0 1.4L15 20.5a1 1 0 0 1-1.4 0L4 11a1 1 0 0 1-.3-.7zm6-.7a2 2 0 1 0-2.8-2.8 2 2 0 0 0 2.8 2.8z"/></defs><g fill="none" fill-rule="evenodd"><mask id="price_tagb" fill="#fff"><use xlink:href="#price_taga"/></mask><use fill="currentColor" xlink:href="#price_taga"/><g mask="url(#price_tagb)"><path d="M0 0h24v24H0z"/></g></g></svg>