<svg xmlns="http://www.w3.org/2000/svg" viewBox="0 0 40 40"><path fill="currentColor" fill-rule="evenodd" d="M22.405 29.07c-1.09.003-1.95-.842-1.957-1.92-.008-1.092.868-1.993 1.947-1.995 1.068-.005 1.97.91 1.965 1.985a1.94 1.94 0 0 1-1.955 1.93zm-8.92-5.76c-3.314-.018-9.265-.11-9.655-.518-.285-.297.778-3.442 2.243-4.684.533-.45 1.397-.616 2.143-.75 2.862-.525 5.345-.56 8.237-.273.978.097 1.413.15 2.38.325.745.135 1.46.642 1.95 1.208 1.073 1.24 2.32 3.977 1.957 4.244-.57.42-6.14.466-9.254.448zm-9.48 5.76c-1.095.008-1.95-.82-1.97-1.91a1.96 1.96 0 0 1 1.935-2.005c1.063-.013 1.988.907 1.985 1.973a1.955 1.955 0 0 1-1.95 1.942zM22.66 18.153c-.914-1.41-2.19-2.246-3.857-2.485a22.848 22.848 0 0 0-1.753-.23V13.75a.407.407 0 0 0-.407-.41l-6.903-.01a.412.412 0 0 0-.41.41l-.002 1.68c-.57.05-1.067.113-1.457.183-1.69.302-3.12.953-4.07 2.457-.32.51-1.92 2.905-2.68 4.725C.11 25.2-.26 27.733.2 30.345c.145.84.296 1.68.396 2.526.064.53.016 1.07.05 1.6.04.57.13.63.68.63.71 0 1.42-.02 2.132.01.348.02.493-.14.54-.44.035-.23.05-.47.053-.71.01-.53.01-1.06.01-1.65 6.446.278 11.928.278 18.276.01 0 .536-.01 1.02.003 1.506.01.28.045.56.08.84.036.308.19.46.53.45.754-.02 1.51-.02 2.264 0 .317.01.494-.114.51-.416.034-.767.047-1.535.082-2.3.01-.235.017-.48.084-.7.646-2.165.67-4.35.126-6.53-.6-2.245-3.07-6.598-3.335-7.007zm15.06-9.568c-.197-1.093-.892-2.197-2.742-2.688-1.9-.505-4.3-.897-10.294-.897-5.255 0-8.475.278-10.78.897-1.01.27-1.83 1.816-1.97 2.905-.148 1.153-.266 2.29-.266 2.29a.357.357 0 0 0 .378.388l1.647-.045c.223-.003.61-.36.83-.388 0 0 5.196-.68 10.125-.65 5.23.03 10.466.655 10.466.655.222.025.405.23.41.453l.144 11.408c0 .224-.177.39-.4.37l-7.04-.315c-.224-.01-.335.15-.252.357 0 0 .473 1.152.642 1.78.586 2.36.04 6.523.04 6.523-.027.22.13.397.355.39l3.668-.103c.23-.007.41.172.41.393v1.805c0 .224.19.405.41.405h3.46c.223 0 .407-.18.407-.405v-1.805c0-.22.038-.583.085-.8l.197-.923c.05-.218.1-.578.11-.802 0 0 .916-15.97-.024-21.198zm-7.4.26s-2.172-.303-5.736-.303c-3.206 0-5.19.298-5.19.298-.223.033-.39-.122-.373-.343l.08-.942c.02-.223.21-.46.42-.527 0 0 1.29-.405 5.03-.378 4.008.032 5.668.367 5.668.367.22.043.41.26.425.485l.063.993c.016.223-.152.38-.374.35zm3.46 20.067c-.99 0-1.796-.814-1.796-1.82a1.81 1.81 0 0 1 1.797-1.82c1 0 1.8.816 1.8 1.82 0 1.006-.8 1.82-1.79 1.82z"/></svg>