<svg viewBox="0 0 48 49" xmlns="http://www.w3.org/2000/svg"><defs><mask id="state-signed-ina" x="-1" y="-1" width="46" height="46"><path fill="#fff" d="M-1-1h46v46H-1z"/><rect width="44" height="44" rx="22"/></mask></defs><g transform="translate(2 2)" fill="none"><path fill="#CCC" d="M27.532 41.225A20.016 20.016 0 0 1 22 42a19.939 19.939 0 0 1-14.202-5.917l.219-.912c.98-4.088 5.19-7.402 9.386-7.402h9.149c1.838 0 3.676.635 5.244 1.69A9.994 9.994 0 0 0 27 38c0 1.129.187 2.213.532 3.225zm-5.554-14.994a7.615 7.615 0 1 0 0-15.231 7.615 7.615 0 0 0 0 15.23z"/><rect width="44" height="44" rx="22" stroke="#CCC" mask="url(#state-signed-ina)"/><circle fill="#0AB774" cx="37" cy="38" r="8"/><path d="M35.148 41.205l-2.222-2.239a.328.328 0 0 1-.012-.443l.586-.66a.282.282 0 0 1 .416-.011l1.395 1.405c.08.08.204.08.283 0l4.491-4.505a.282.282 0 0 1 .417.013l.585.66a.328.328 0 0 1-.013.444l-5.32 5.336a.422.422 0 0 1-.606 0" fill="#FFF"/></g></svg>