<svg viewBox="0 0 20 20" xmlns="http://www.w3.org/2000/svg" xmlns:xlink="http://www.w3.org/1999/xlink"><defs><path fill="currentColor" d="M5.63 3.76l-2.87 3.2a.98.98 0 0 1-1.46 0 1.21 1.21 0 0 1 0-1.62l4.5-5a1 1 0 0 1 1.49 0l4.4 4.89a1.21 1.21 0 0 1-.08 1.7.98.98 0 0 1-1.38-.08L7.65 3.98V15a1 1 0 0 1-1 1h-.02a1 1 0 0 1-1-1V3.76zm11.02 12.26l2.58-2.86a.98.98 0 0 1 1.46 0 1.2 1.2 0 0 1 0 1.61l-4.4 4.9a1 1 0 0 1-1.49 0l-4.5-5.01a1.21 1.21 0 0 1 0-1.62.98.98 0 0 1 1.46 0l2.87 3.2V5.01a1 1 0 0 1 1-1h.02a1 1 0 0 1 1 1v11.01z" id="swapper2a"/></defs><use xlink:href="#swapper2a" transform="translate(-1)" fill-rule="evenodd"/></svg>