<svg viewBox="0 0 24 24" xmlns="http://www.w3.org/2000/svg" xmlns:xlink="http://www.w3.org/1999/xlink"><defs><path d="M15.992 12.627a.774.774 0 0 1-.237.678l-2.253 2.237c-.101.113-.234.21-.398.288-.163.08-.324.13-.482.153l-.102.008a2.16 2.16 0 0 1-.22.009c-.215 0-.562-.037-1.042-.11-.48-.074-1.067-.254-1.761-.543-.695-.288-1.482-.72-2.363-1.296-.881-.576-1.818-1.367-2.812-2.373-.79-.78-1.445-1.525-1.965-2.237-.52-.712-.937-1.37-1.253-1.975a10.639 10.639 0 0 1-.712-1.644 8.727 8.727 0 0 1-.321-1.271 4.2 4.2 0 0 1-.068-.84c.011-.203.017-.316.017-.338.022-.158.073-.32.152-.483a1.27 1.27 0 0 1 .288-.398L2.713.237A.746.746 0 0 1 3.255 0a.63.63 0 0 1 .39.127 1.2 1.2 0 0 1 .287.314c1.171 2.953 1.707 4.478 1.61 4.576l-.83.83a.283.283 0 0 0-.06.11.419.419 0 0 0-.025.128c.045.237.147.508.305.813.135.271.344.602.627.992.282.39.683.839 1.202 1.347.508.52.96.924 1.355 1.212.395.288.726.5.991.636.265.135.469.217.61.245l.211.043c.023 0 .06-.009.11-.026a.283.283 0 0 0 .11-.059l.966-.983c.136-.12 1.62.467 4.455 1.763.237.147.378.333.423.56z" id="Telephone__a"/></defs><g fill="none" fill-rule="evenodd"> <use fill="currentColor" xlink:href="#Telephone__a" transform="translate(4 4)"/></g></svg>