<svg viewBox="0 0 86 126" xmlns="http://www.w3.org/2000/svg" xmlns:xlink="http://www.w3.org/1999/xlink"><title>Illu / Phone mobile ticket</title><defs><path d="M56 33v41.2c0 1.7-1.5 3-3 3H3c-1.7 0-3-1.3-3-3V33c1.4 0 2.6-1 2.6-2.4S1.4 28 0 28V10.8c0-1.7 1.3-3 3-3h50c1.5 0 3 1.3 3 3V28c-1.6 0-2.7 1.2-2.7 2.6 0 1.3 1 2.4 2.6 2.4z" id="ticket-mobileb"/><filter x="-39.4%" y="-31.6%" width="178.8%" height="163.3%" filterUnits="objectBoundingBox" id="ticket-mobilea"><feMorphology radius="1" operator="dilate" in="SourceAlpha" result="shadowSpreadOuter1"/><feOffset in="shadowSpreadOuter1" result="shadowOffsetOuter1"/><feGaussianBlur stdDeviation="7" in="shadowOffsetOuter1" result="shadowBlurOuter1"/><feComposite in="shadowBlurOuter1" in2="SourceAlpha" operator="out" result="shadowBlurOuter1"/><feColorMatrix values="0 0 0 0 0 0 0 0 0 0 0 0 0 0 0 0 0 0 0.07 0" in="shadowBlurOuter1"/></filter></defs><g fill="none" fill-rule="evenodd"><path d="M73.2 34v79.5" stroke="#FFF" stroke-width="2" stroke-linecap="round" stroke-dasharray="3,5"/><path d="M76.7 8c0-4.4-4-8-9-8H18c-5 0-9 3.5-9 8v110c0 4.4 4 8 9 8h49.6c5 0 9-3.5 9-8V8z" fill="#104B6E"/><path fill="#2A84B7" d="M74 110H11.6V17.6h62.5"/><g stroke-linecap="round" stroke-linejoin="round" transform="translate(14.925 21.78)"><use fill="#000" filter="url(#ticket-mobilea)" xlink:href="#ticket-mobileb"/><use fill="#FFF" xlink:href="#ticket-mobileb"/><path stroke="#1B6591" d="M56.4 32.5v41.7c0 2-1.6 3.5-3.5 3.5H3c-2 0-3.5-1.5-3.5-3.5V32.5H0c1.2 0 2-.8 2-2 0-1-.8-2-2-2h-.5V10.8c0-2 1.6-3.5 3.5-3.5h50c1.8 0 3.4 1.5 3.4 3.5v18H56c-1.3 0-2.2.8-2.2 2 0 1 1 1.8 2 1.8h.6z"/></g><g fill="#161616"><path d="M41.4 72.6l-2 2v-2h2zm-10 0h8V65h-8v7.6zm-2-9.6h12v11.5h-12V63zM46 72.6h8V65h-8v7.6zM44 63h12v11.5H44V63zm-2.6 23.5l-2 2v-2h2zm-10 0h8V79h-8v7.5zm-2-9.6h12v11.5h-12V77z" fill-rule="nonzero"/><path d="M32.8 66.4h5v4.8h-5zm14.7 0h5v4.8h-5zM32.8 80.3h5V85h-5zM44 77h3.4v3.3H44zm7.5 0H56v11.5H44V84h3.5v-.8h3v3h3v-3h-6v-3h4"/></g><path fill="#F7A600" d="M18.3 35.2h47.3v4H18.3z"/><path fill="#E0E0E0" d="M18.3 42.6h31v4h-31z"/><path d="M38.6 118.6c0-2.2 2-4 4.3-4 2.2 0 4 1.8 4 4 0 2.3-1.8 4-4 4-2.5 0-4.4-1.7-4.4-4" stroke="#2982B5" fill="#2982B5"/><path d="M51 9.8c0 .5-.4.8-1 .8H37c-.6 0-1-.3-1-.8 0-.4.4-.8 1-.8h13c.6 0 1 .4 1 .8" fill="#2981B3"/></g></svg>