<svg viewBox="0 0 59 50" xmlns="http://www.w3.org/2000/svg" xmlns:xlink="http://www.w3.org/1999/xlink"><title>Icn / Voucher</title><defs><rect id="ticket-vouchera" width="58.244" height="14.259" rx="1.462"/><path id="ticket-voucherb" d="M0 0h59v49.567H0z"/><path d="M32.502 19.442v31.674c0 1.21-.98 2.193-2.192 2.193H2.192A2.193 2.193 0 0 1 0 51.115V19.442c.828 0 1.5-.842 1.5-1.88 0-1.04-.672-1.883-1.5-1.883V2.19C0 .982.982 0 2.192 0H30.31c1.21 0 2.192.982 2.192 2.192V15.68c-.828 0-1.5.84-1.5 1.88s.672 1.882 1.5 1.882z" id="ticket-vouchere"/><filter x="-48.4%" y="-29.5%" width="196.8%" height="159%" filterUnits="objectBoundingBox" id="ticket-voucherd"><feMorphology radius=".731" operator="dilate" in="SourceAlpha" result="shadowSpreadOuter1"/><feOffset in="shadowSpreadOuter1" result="shadowOffsetOuter1"/><feGaussianBlur stdDeviation="5" in="shadowOffsetOuter1" result="shadowBlurOuter1"/><feComposite in="shadowBlurOuter1" in2="SourceAlpha" operator="out" result="shadowBlurOuter1"/><feColorMatrix values="0 0 0 0 0 0 0 0 0 0 0 0 0 0 0 0 0 0 0.07 0" in="shadowBlurOuter1"/></filter></defs><g fill="none" fill-rule="evenodd"><use fill="#1B6591" xlink:href="#ticket-vouchera"/><rect stroke="#0C4164" stroke-width=".731" x="-.365" y="-.365" width="58.974" height="14.99" rx="1.462"/><mask id="ticket-voucherc" fill="#fff"><use xlink:href="#ticket-voucherb"/></mask><g mask="url(#ticket-voucherc)"><g stroke-linecap="round" stroke-linejoin="round" transform="rotate(-180 23.07 22.96)"><use fill="#000" filter="url(#ticket-voucherd)" xlink:href="#ticket-vouchere"/><use fill="#FFF" xlink:href="#ticket-vouchere"/><path stroke="#1B6591" stroke-width=".731" d="M32.868 19.077v32.04a2.558 2.558 0 0 1-2.558 2.557H2.192a2.557 2.557 0 0 1-2.557-2.558v-32.04H0c.606 0 1.135-.662 1.135-1.515 0-.853-.53-1.516-1.135-1.516h-.365V2.192A2.557 2.557 0 0 1 2.192-.365H30.31a2.558 2.558 0 0 1 2.558 2.557v13.852h-.366c-.606 0-1.135.663-1.135 1.517 0 .854.53 1.517 1.135 1.517h.366z"/></g><path fill="#F7A600" d="M44.14 41.696H16.638V38.56H44.14z"/><path fill="#E0E0E0" d="M44.14 36.052h-18v-3.136h18z"/></g><path fill="#104B6E" opacity=".1" mask="url(#ticket-voucherc)" d="M13.615 0h33.282v3.01H13.615z"/></g></svg>