<svg viewBox="0 0 279 199" xmlns="http://www.w3.org/2000/svg"><defs><linearGradient x1="50.03%" y1="-.07%" x2="50.03%" y2="99.89%" id="trains_emptya"><stop stop-color="#DEEAF7" offset="5.35%"/><stop stop-color="#DEEAF7" stop-opacity="0" offset="100%"/></linearGradient><linearGradient x1="50%" y1=".1%" x2="50%" y2="100.08%" id="trains_emptyb"><stop stop-color="#CCE1F4" offset="0%"/><stop stop-color="#D1E3F5" offset="35.2%"/><stop stop-color="#DEEAF7" offset="73.8%"/></linearGradient><linearGradient x1=".06%" y1="49.99%" x2="100.03%" y2="49.99%" id="trains_emptyc"><stop stop-color="#7DA5D4" offset="32.8%"/><stop stop-color="#7DA5D4" offset="45.7%"/></linearGradient><linearGradient x1="-.03%" y1="48.56%" x2="99.94%" y2="48.56%" id="trains_emptyd"><stop stop-color="#BFD2E8" offset="28.93%"/><stop stop-color="#BFD2E8" stop-opacity=".09" offset="93.89%"/><stop stop-color="#BFD2E8" stop-opacity="0" offset="100%"/></linearGradient><linearGradient x1="49.99%" y1=".1%" x2="49.99%" y2="100%" id="trains_emptye"><stop stop-color="#9CBADC" offset="0%"/><stop stop-color="#B1C9E4" offset="24.59%"/><stop stop-color="#BFD3EA" offset="47.06%"/></linearGradient><linearGradient x1="0%" y1="49.88%" y2="49.88%" id="trains_emptyf"><stop stop-color="#F6B2B3" stop-opacity="0" offset="0%"/><stop stop-color="#F48F90" offset="100%"/></linearGradient><linearGradient x1="49.99%" y1="-.08%" x2="49.99%" y2="99.76%" id="trains_emptyg"><stop stop-color="#5E8EC8" offset="2.14%"/><stop stop-color="#5E8EC8" offset="23.58%"/><stop stop-color="#79A1D1" offset="37.47%"/><stop stop-color="#9CBADC" offset="57.24%"/><stop stop-color="#9CBADC" stop-opacity="0" offset="100%"/></linearGradient><linearGradient x1="-.08%" y1="49.91%" x2="100.09%" y2="49.91%" id="trains_emptyh"><stop stop-color="#252E65" offset="3.59%"/><stop stop-color="#252E65" offset="10.77%"/></linearGradient><linearGradient x1="-.04%" y1="50.01%" x2="100.11%" y2="50.01%" id="trains_emptyi"><stop stop-color="#5984BD" offset="0%"/><stop stop-color="#5984BD" stop-opacity=".4" offset="54.87%"/></linearGradient><linearGradient x1=".06%" y1="50.4%" x2="100.2%" y2="50.4%" id="trains_emptyj"><stop stop-color="#5984BD" offset="0%"/><stop stop-color="#5984BD" stop-opacity=".4" offset="54.87%"/></linearGradient><linearGradient x1=".31%" y1="49.88%" x2="100.13%" y2="49.88%" id="trains_emptyk"><stop stop-color="#425685" offset="0%"/><stop stop-color="#445989" offset="4.46%"/><stop stop-color="#4F71A5" offset="42.54%"/><stop stop-color="#567FB7" offset="75.68%"/><stop stop-color="#5984BD" offset="100%"/></linearGradient><linearGradient x1="50.12%" y1=".07%" x2="50.12%" y2="100.22%" id="trains_emptyl"><stop stop-color="#7DA5D4" offset="0%"/><stop stop-color="#FBD9D9" offset="88.83%"/></linearGradient><linearGradient x1="49.95%" y1="-.03%" x2="49.95%" y2="100.21%" id="trains_emptym"><stop stop-color="#5E8EC8" offset="66.84%"/><stop stop-color="#6492CA" stop-opacity=".87" offset="71.05%"/><stop stop-color="#739DCE" stop-opacity=".71" offset="76.4%"/><stop stop-color="#8DAFD6" stop-opacity=".52" offset="82.37%"/><stop stop-color="#B2C9E1" stop-opacity=".33" offset="88.79%"/><stop stop-color="#E0E9F0" stop-opacity=".12" offset="95.5%"/><stop stop-color="#FFFFF9" stop-opacity="0" offset="99.49%"/></linearGradient><linearGradient x1="50.06%" y1="-.25%" x2="50.06%" y2="100.17%" id="trains_emptyn"><stop stop-color="#5984BD" offset="29.74%"/><stop stop-color="#5984BD" stop-opacity="0" offset="100%"/></linearGradient><linearGradient x1="50%" y1="-.37%" x2="50%" y2="100.18%" id="trains_emptyo"><stop stop-color="#5984BD" offset="0%"/><stop stop-color="#5881BA" offset="31.66%"/><stop stop-color="#5479B0" offset="55.87%"/><stop stop-color="#5072A8" offset="68.21%"/></linearGradient><linearGradient x1="-.17%" y1="50.26%" x2="99.89%" y2="50.26%" id="trains_emptyp"><stop stop-color="#5984BD" offset="29.74%"/><stop stop-color="#5984BD" offset="54.87%"/></linearGradient><linearGradient x1="1.1%" y1="78.55%" x2="99.25%" y2="22.69%" id="trains_emptyq"><stop stop-color="#5984BD" offset="29.74%"/><stop stop-color="#5984BD" offset="54.87%"/></linearGradient><linearGradient x1="48.79%" y1="-28.53%" x2="51.25%" y2="127.47%" id="trains_emptyr"><stop stop-color="#5984BD" offset="0%"/><stop stop-color="#5881BA" offset="31.66%"/><stop stop-color="#5479B0" offset="55.87%"/><stop stop-color="#5072A8" offset="68.21%"/></linearGradient><linearGradient x1=".29%" y1="49.19%" x2="100.26%" y2="49.19%" id="trains_emptys"><stop stop-color="#A1A7C2" offset="3.08%"/><stop stop-color="#A1A7C2" offset="19.49%"/></linearGradient><linearGradient x1="49.88%" y1=".24%" x2="49.88%" y2="92.51%" id="trains_emptyt"><stop stop-color="#5984BD" offset="29.74%"/><stop stop-color="#5984BD" offset="54.87%"/></linearGradient><linearGradient x1="49.64%" y1="-.7%" x2="49.64%" y2="99.9%" id="trains_emptyu"><stop stop-color="#FBD9D9" offset="0%"/><stop stop-color="#FBD8D8" offset=".81%"/><stop stop-color="#F6B2B3" offset="44.62%"/><stop stop-color="#E6AEB5" offset="51.34%"/><stop stop-color="#BBA4BB" offset="64.53%"/><stop stop-color="#7894C4" offset="82.74%"/><stop stop-color="#5E8EC8" offset="89.23%"/></linearGradient><linearGradient x1="50.01%" y1="-.12%" x2="50.01%" y2="100.05%" id="trains_emptyv"><stop stop-color="#7DA5D4" offset="0%"/><stop stop-color="#FBD9D9" offset="88.83%"/></linearGradient><linearGradient x1="-.27%" y1="49.59%" x2="99.85%" y2="49.59%" id="trains_emptyw"><stop stop-color="#FBD9D9" offset="0%"/><stop stop-color="#E5CFD7" offset="11.52%"/><stop stop-color="#84A0CC" offset="65.14%"/><stop stop-color="#5E8EC8" offset="89.23%"/></linearGradient><linearGradient x1="-.02%" y1="50.09%" x2="100.02%" y2="50.09%" id="trains_emptyx"><stop stop-color="#9CBADC" offset="0%"/><stop stop-color="#5E8EC8" offset="41.71%"/><stop stop-color="#5E8EC8" stop-opacity="0" offset="100%"/></linearGradient><linearGradient x1="50.09%" y1="24.55%" x2="50.09%" y2="76.16%" id="trains_emptyy"><stop stop-color="#5984BD" offset="29.74%"/><stop stop-color="#5984BD" offset="54.87%"/></linearGradient><linearGradient x1=".26%" y1="50.11%" x2="100.39%" y2="50.11%" id="trains_emptyz"><stop stop-color="#A1A7C2" offset="3.08%"/><stop stop-color="#A1A7C2" offset="19.49%"/></linearGradient><linearGradient x1="49.98%" y1="-.02%" x2="49.98%" y2="100.1%" id="trains_emptyA"><stop stop-color="#7DA5D4" offset="0%"/><stop stop-color="#B1BAD6" offset="28.18%"/><stop stop-color="#FBD9D9" offset="65.3%"/><stop stop-color="#FBD9D9" offset="100%"/></linearGradient><linearGradient x1=".29%" y1="50.48%" x2="100.5%" y2="50.48%" id="trains_emptyB"><stop stop-color="#A1A7C2" offset="3.08%"/><stop stop-color="#A1A7C2" offset="19.49%"/></linearGradient><linearGradient x1="50.06%" y1="-.57%" x2="50.06%" y2="99.48%" id="trains_emptyC"><stop stop-color="#5984BD" offset="0%"/><stop stop-color="#5881BA" offset="31.66%"/><stop stop-color="#5479B0" offset="55.87%"/><stop stop-color="#5072A8" offset="68.21%"/></linearGradient><linearGradient x1="41.25%" y1="49.31%" x2="60.04%" y2="49.31%" id="trains_emptyD"><stop stop-color="#242F65" stop-opacity="0" offset="0%"/><stop stop-color="#242F65" offset="96.28%"/></linearGradient><linearGradient x1="-.44%" y1="50.13%" x2="99.97%" y2="50.13%" id="trains_emptyE"><stop stop-color="#384B7D" offset="0%"/><stop stop-color="#3A4E80" offset="2.86%"/><stop stop-color="#547BB2" offset="51.55%"/><stop stop-color="#5E8CC6" offset="75.53%"/></linearGradient><linearGradient x1="49.7%" y1="-.13%" x2="49.7%" y2="99.96%" id="trains_emptyF"><stop stop-color="#F7B3B4" offset="21.28%"/><stop stop-color="#F7AEAF" offset="46.74%"/><stop stop-color="#F5A1A2" offset="75.17%"/><stop stop-color="#F48F90" offset="100%"/></linearGradient><linearGradient x1="49.71%" y1="-.12%" x2="49.71%" y2="99.95%" id="trains_emptyG"><stop stop-color="#9DBBDE" offset="25.67%"/><stop stop-color="#90B2DA" offset="44.73%"/><stop stop-color="#82A8D6" offset="74.48%"/><stop stop-color="#7DA5D4" offset="100%"/></linearGradient><linearGradient x1="50%" y1=".05%" x2="50%" y2="99.82%" id="trains_emptyH"><stop stop-color="#9CBADC" offset="0%"/><stop stop-color="#B1C9E4" offset="24.59%"/><stop stop-color="#BFD3EA" offset="47.06%"/></linearGradient><linearGradient x1=".12%" y1="49.82%" x2="100.12%" y2="49.82%" id="trains_emptyI"><stop stop-color="#F6B2B3" offset="0%"/><stop stop-color="#F9C6C6" offset="18.29%"/><stop stop-color="#FAD4D4" offset="37.81%"/><stop stop-color="#FBD9D9" offset="54.55%"/></linearGradient><linearGradient x1="50.14%" y1="-.13%" x2="50.14%" y2="99.83%" id="trains_emptyJ"><stop stop-color="#7DA5D4" offset="0%"/><stop stop-color="#82A8D6" offset="25.52%"/><stop stop-color="#90B2DA" offset="55.27%"/><stop stop-color="#9DBBDE" offset="74.33%"/></linearGradient><linearGradient x1="50.33%" y1=".07%" x2="50.33%" y2="99.93%" id="trains_emptyK"><stop stop-color="#9DBBDE" offset="25.67%"/><stop stop-color="#90B2DA" offset="44.73%"/><stop stop-color="#82A8D6" offset="74.48%"/><stop stop-color="#7DA5D4" offset="100%"/></linearGradient><linearGradient x1=".12%" y1="52.67%" x2="100.16%" y2="52.67%" id="trains_emptyL"><stop stop-color="#F7B3B4" offset="21.28%"/><stop stop-color="#F7AEAF" offset="46.74%"/><stop stop-color="#F5A1A2" offset="75.17%"/><stop stop-color="#F48F90" offset="100%"/></linearGradient><linearGradient x1="49.98%" y1=".1%" x2="49.98%" y2="99.66%" id="trains_emptyM"><stop stop-color="#5984BD" offset="0%"/><stop stop-color="#5881BA" offset="31.66%"/><stop stop-color="#5479B0" offset="55.87%"/><stop stop-color="#5072A8" offset="68.21%"/></linearGradient><linearGradient x1="50%" y1="0%" x2="50%" y2="100%" id="trains_emptyN"><stop stop-color="#FBD9D9" stop-opacity="0" offset="0%"/><stop stop-color="#FBDADA" stop-opacity=".01" offset=".82%"/><stop stop-color="#FDEFEF" stop-opacity=".35" offset="18.95%"/><stop stop-color="#FFFBFB" stop-opacity=".68" offset="36.92%"/><stop stop-color="#FFF" offset="54.42%"/></linearGradient></defs><g transform="translate(-1)" fill="none" fill-rule="evenodd"><path d="M227.9 95c-1.43-.85-2.34-1.59-4.16-1.59-2.74-24.26-32.17-22.56-43.89-40.97-2.34-3.78-3.52-11.7-6.51-14.76-5.47-5.36.65-3.53-5.47-6.46-7.68-3.66-19.67-13.3-29.3-16.46-25.92-8.54-34 18.41-49.88 29.5-9.77 6.84-21.36 9.4-27.61 20.62-6 10.6-3.9 22.44-5.08 34.02-.65 7.08-7.16 20.25-.13 26.83 6.77 6.22 29.56 1.7 38.16.98l61.6-5.49c24.74-2.32 41.67-12.93 63.3-21.95" fill="url(#trains_emptya)"/><path d="M57.3 126.83c.65-29.27 16.28-63.05 46.89-74.51 10.28-3.78 25.78 2.2 34.38-4.88 10.8-8.66 10.68-24.4 23.3-35.49 45.33-39.63 84.92 35.61 92.34 49.88 2.09 3.9 1.3 9.76 3.91 13.41 3 4.27 9.12 5.25 12.76 8.42 9.38 8.3 10.3 17.44 6.78 28.66-3.78 12.31-10.55 17.56-22.53 23.17-23.7 10.97-47.93 10.73-73.85 10.73-19.92 0-43.88-6.34-62.77-1.22" fill="url(#trains_emptyb)"/><path d="M272.19 66.95c-2.09-6.34-2.6-7.8-11.33-7.32-1.96.13-3.39.74-5.34-.12-2.35-.97-3-3.66-5.47-4.51-3-1.1-7.17-.24-10.3-.49-7.55-24.75-28.12-13.17-42.32-18.53-4.95-1.96-8.2-3.42-14.58-6.22-6-2.56-8.86-3.9-14.72-1.96-1.04-3.17-.39-5.85-2.47-8.53-2.35-3.17-4.7-.86-7.43-3.05-7.29-5.98-3.38-9.27-11.72-14.02-5.2-2.93-13.41-.98-15.89 3.53-1.82 3.42.13 6.1-4.03 7.07-3.52.86-7.17-1.1-10.81-.12-5.86 1.59-7.43 6.1-7.56 11.22a9.07 9.07 0 0 0-6.64 6.95c-1.04 4.15 1.7 5.25 3.13 8.9 1.82 4.76-1.18 3.9-4.3 5.86-3.26 1.95-3.65 5-4.56 8.17-8.2-2.32-14.98 6.59-15.37 10.85-3.64-1.58-5.34-2.68-11.07-1.22a18.1 18.1 0 0 0-9.11 5.86l211.89-2.32z" fill="url(#trains_emptyc)" transform="translate(0 58.54)"/><path d="M168.52 2.56L270.23 3.9" fill="url(#trains_emptyd)" transform="translate(0 125.61)"/><path d="M157.45.85L273.1.5s-23.7 18.29-16.41 29.02c15.63 23.05-44.93 39.27-66.03 40.73 82.57-41.83-32.82-68.78-33.2-69.39z" fill="url(#trains_emptye)" transform="translate(0 125.61)"/><path d="M161.62.98L60.42 2.32c-.38.12.27-.25 0-.12 4.44 13.29 30.1 9.02 29.05 25.73-.78 12.31-76.19 17.31-82.83 28.41 1.56 1.22 2.74 3.54 3.9 4.64-2.47 1.95-4.55 5.73-7.67 7.2 13.4-.25 40.76-.5 62.38-1.84C95.07 64.51 167.87 40 191.7 31.71c19.67-6.83 5.86-23.05-30.08-30.73z" fill="url(#trains_emptyf)" transform="translate(0 125.61)"/><path d="M.91 66.59s127.5-20.74 160.32-29.64c30.08-8.17 64.2-11.7 7.3-34.39l8.85.73s67.2 10 56.9 45c-1.68 5.73-6.63 11.22-10.93 15.25-1.56.24-23.7 10.85-105.23 10.36-37.25-.36-87.65-7.2-117.2-7.31z" fill="url(#trains_emptyg)" transform="translate(0 125.61)"/><path d="M226.34 25.85s5.86 10.13 2.87 17.69c-3 7.56-13.28 16.95-25.27 24.87l-12.37 1.83s31.52-16.7 35.16-28.53c3.26-10.86-.39-15.86-.39-15.86z" fill="url(#trains_emptyh)" opacity=".36" transform="translate(0 125.61)"/><path fill="url(#trains_emptyi)" d="M163.44 44.76l-2.21.6 38.29 11.6 1.82-.86v-.61z" transform="translate(0 125.61)"/><path d="M135.18 52.32s-1.7.12-2.73.6l45.06 14.15 2.08-.85-2.6-1.34-41.8-12.56z" fill="url(#trains_emptyj)" transform="translate(0 125.61)"/><path d="M228.56 32.44l-.13 4.88s-.26 15.97-36.99 32.92l-11.46 1.22s34.12-15.48 43.37-29.14c4.95-6.1 5.2-9.88 5.2-9.88z" fill="url(#trains_emptyk)" transform="translate(0 125.61)"/><path d="M173.47 2.56l-3.13-.36c23.7 4.87 76.06 18.53 49.75 42.68-11.07 9.27-51.57 26.1-54.56 27.32l14.71-1.1s36.6-17.44 43.5-26.71c24.48-30.24-50.27-41.83-50.27-41.83z" fill="url(#trains_emptyl)" transform="translate(0 125.61)"/><path d="M35.3 68.3l14.32 1.21s33.34-5.73 53.78-10c18.37-3.9 41.03-9.27 60.04-14.75 21.1-6.22 37.77-12.69 39.98-18.66 0-.49.26-2.32.26-2.69C196.65 44.02 35.3 68.3 35.3 68.3z" fill="url(#trains_emptym)" transform="translate(0 125.61)"/><path fill="url(#trains_emptyn)" d="M100.93 58.66l.13 1.34 36.07 13.17 3.13-.24z" transform="translate(0 125.61)"/><path fill="url(#trains_emptyo)" d="M134.8 50.98l.12 1.34 44.67 13.9 2.34-.98z" transform="translate(0 125.61)"/><path fill="url(#trains_emptyp)" opacity=".51" d="M182.85 38.41l-1.44.61 35.56 8.18 1.3-.74z" transform="translate(0 125.61)"/><path fill="url(#trains_emptyq)" opacity=".51" d="M195.87 32.56l-1.43.85 31.51 4.15.4-.97z" transform="translate(0 125.61)"/><path fill="url(#trains_emptyr)" d="M196.13 31.83v.73l30.21 4.03.4-1.47z" transform="translate(0 125.61)"/><path fill="url(#trains_emptys)" opacity=".38" d="M211.1 14.88L199 16.22l-1.44-1.1 11.46-1.34z" transform="translate(0 125.61)"/><path d="M203.3 25.98l-.14.6c6.51 0 18.76.62 22.4.62-.13 0-.65-1.1-.65-1.1" fill="url(#trains_emptyt)" opacity=".22" transform="translate(0 125.61)"/><path d="M182.72 23.41c1.3-2.31.13-4.02-.52-5.24-7.82-9.27-29.3-16.83-29.3-16.83l-1.57-.12s21.49 9.51 27.35 14.76c4.17 3.78 4.3 4.87 4.04 7.43z" fill="url(#trains_emptyu)" transform="translate(19.53 126.83)"/><path d="M15.37 67.2s43.1-6.59 80.22-14.27c13.8-2.93 28-6.34 41.8-9.76 17.07-4.15 45.07-12.32 46.5-20.73 1.82-9.51-32.3-21.59-32.56-21.34L149.9.85s13.28 4.03 26.7 12.69c5.33 4.39 13.28 9.87-5.87 16.83C143.65 40.85 80.1 52.07 1.17 66.22" fill="url(#trains_emptyv)" transform="translate(19.53 126.83)"/><path d="M53.66 31.7c-.13.74-.4 2.57-.4 2.57.79-1.59 3.52-9.03-6.77-17.07C35.7 8.78 12.37 3.3.65.12c16.54 4.03 55.09 13.78 53 31.59z" transform="translate(173.2 128.05)" fill="url(#trains_emptyw)"/><path d="M149.5 1.22c3.78 0 36.86 5.24 49.37 19.76l14.32-7.32c0 .12-27.35-13.54-63.68-12.44z" fill="url(#trains_emptyx)" transform="translate(0 125.61)"/><path fill="url(#trains_emptyy)" opacity=".51" d="M203.42 25.37l-.13.6 21.62.13.13-.61z" transform="translate(0 125.61)"/><path fill="url(#trains_emptyz)" opacity=".22" d="M205.9 12.32l-9.64 1.83-1.43-.98 8.98-1.7z" transform="translate(0 125.61)"/><path d="M110.05 56.83c33.99 11.83 48.57 14.51 55.6 15.49-2.47 0-25.26.6-25.26.6l-39.33-14.26 8.99-1.83zm24.74-5.85l47.54 14.39 7.03-2.8v-.25l-47.02-13.05-7.55 1.7zm48.06-13.42l35.42 8.9 1.56-1.22s3.26-2.8 3.26-3.17c-5.86-.85-35.95-6.1-35.95-6.1l-4.3 1.6zm13.28-5.73s30.47 3.54 30.47 3.41c.4-1.22.27-2.68.27-2.68l-28.27-2.32-2.47 1.59zm19.54-14.51l-14.46.97 1.56 2.08 16.15-.86-3.25-2.2zm-12.12 6.1s.13.73-.26 2.07h21.75l-1.7-2.2-19.79.12zm-41.8 20.73l41.54 10.97 5.34-2.8L168 42.44l-6.25 1.7z" fill="url(#trains_emptyA)" fill-rule="nonzero" transform="translate(0 125.61)"/><path fill="url(#trains_emptyB)" opacity=".14" d="M193.27 12.2l8.33-1.71-1.95-.73-7.56 1.83z" transform="translate(0 125.61)"/><path fill="url(#trains_emptyC)" d="M182.85 37.56v.85l35.42 8.05 1.3-1.1z" transform="translate(0 125.61)"/><g opacity=".34"><path d="M102.36 39.02c.4-.24.26-.24 0 0z" fill="url(#trains_emptyD)" transform="translate(66.42 59.76)"/><path d="M127.1 66.22c-.51-5.37-.38-15.73 7.95-14.51 1.04-6.22-7.94-5.37-11.72-7.93-4.17-2.68-5.73-10.73-9.25-11.1.92 6.95-9.9 14.4-11.59 6.22-4.03 4.27-11.72-1.1-6.25-5-8.46-.24-7.3 8.42-12.9 9.64-9.37 1.95-7.54-8.3-7.41-12.44 0-4.76 1.04-1.95-2.87-5.98-3-2.92-6.12-5-7.3-9.63-1.43-5.12-.38-10.98 3.13-15-1.82.97-3.38 2.2-4.16 3.78-1.83 3.41.13 6.1-4.04 7.07-2.35.61-4.69-.12-7.16-.24-.79.85-1.83 1.46-3.39 2.2 3 2.31 7.94 3.77 8.6 7.68.52 2.8-.79 5.36-3.4 5.97 2.61 0 5.48 1.59 4.7 4.51-.91 3.66-4.95 3.42-9.38 2.56-2.47-.48-5.86-2.2-8.2.5-2.6 2.92 1.56 6.33.9 9.14-2.08 10.6-13.02 10.24-22 10.49-3.9 2.68-5.73 5.12-6.64 9.39-4.82-1.59-5.21-2.69-11.07-1.22-1.05.24-1.96.6-2.74.97a25.58 25.58 0 0 1 6.64 4.76l121.12-1.34c-.78-.61-1.56.12-1.56-.49z" fill="url(#trains_emptyE)" transform="translate(66.42 59.76)"/></g><path fill="url(#trains_emptyF)" d="M9.64.61h12.37v36.71H9.64z" transform="translate(200.56 73.17)"/><path fill="url(#trains_emptyG)" d="M.91.61h8.73v37.07H.91z" transform="translate(200.56 73.17)"/><path fill="url(#trains_emptyH)" d="M257.34 50.85V34.27h-16.41v24.27h-35.3l.14 9.75 67.33-.6-.26-16.84z" transform="translate(0 58.54)"/><path fill="url(#trains_emptyI)" d="M240.93 58.54l-14.46-12.56H191.7l13.94 12.56z" transform="translate(0 58.54)"/><path fill="url(#trains_emptyJ)" d="M191.7 45.98L177.64 58.9l.13 9.4 28 .24-.13-10-13.94-12.56" transform="translate(0 58.54)"/><path fill="url(#trains_emptyK)" d="M240.93 34.27v24.27l-14.46-12.56v-10.5z" transform="translate(0 58.54)"/><path fill="#9DBBDE" d="M272.84 109.39l-15.5-9.63v9.63z"/><path fill="url(#trains_emptyL)" d="M226.47 32.8h30.87v2.56h-30.87z" transform="translate(0 58.54)"/><path d="M201.47 73.78c.78 0 9.25-4.88 10.16-9.76 0 0 3.9 7.32 10.94 9.76h-21.1z" fill="#5E8FCA"/><path fill="url(#trains_emptyM)" d="M161.75 111.22l.13 1.1 39.46 10.85 1.95-.97z" transform="translate(0 58.54)"/><ellipse fill="url(#trains_emptyN)" cx="182.98" cy="46.95" rx="14.98" ry="14.02"/></g></svg>