<svg xmlns="http://www.w3.org/2000/svg" stroke-width="0" viewBox="0 0 30 9"><rect width="100%" height="100%" fill="none"/><g class="currentLayer"><title>Layer 1</title><path fill="#69D61F" d="M7.016 2.9h-1v-.5c0-1.4-1-2.4-2-2.4-1.4 0-2.4 1-2.4 2.3v.5h-1c-.3 0-.7.2-.6.6l.7 3.4c0 .4.3.5.7.5h5c.3 0 .6-.2.7-.6l.9-3.3c0-.3-.3-.5-.7-.5zm-2 1.5h-.5V6h-.7V4.4h-.8v-.5c-.2 0 0 0 0 0h1.7v.4zm.5-1.5h-3v-.7c0-.8.8-1.4 1.6-1.4.7 0 1.3.6 1.3 1.4v.7zm-2.3 5.5c0 .4-.4.8-1 .8-.4 0-.7-.4-.7-.8 0-.5.3-1 .8-1s1 .5 1 1zm3.1 0c0 .4-.4.8-1 .8-.4 0-.8-.4-.8-.8s.4-1 1-1c.4 0 .8.4.8 1zm0 0"/><path d="M12.216 4h-1v3c0 .2 0 .2-.4.2h-1s-.2 0-.2-.2V4h-1V2.9h3.4s.2 0 .2.2V4zm2.5 0h.2v.8s0 .2-.3.2h-.5c-.3.2-.3.3-.3.6V7c0 .2 0 .3-.4.3h-.8c-.2 0-.3-.2-.3-.3V4.7c0-.4.2-.7 1-.7h1.2zm1.3 3.2c-.3 0-.8 0-.8-1V4.4c0-.2 0-.4.3-.4h.8s.3 0 .3.3v1.4c0 .2 0 .3.2.3s.3 0 .3-.3V4.4c0-.3 0-.4.3-.4h.8c.3 0 .4 0 .4.2v2c0 .8-.5 1-.7 1h-1.9zm4.3.2l-1.4-.2c-.2 0-.2-1 0-.8h1.3c0-.2-.2-.3-.4-.4-.5 0-1-.4-1-1 0-.8.8-1 1.6-1h1s0 .8-.3.8h-1l.4.3c.4 0 1 .5 1 1.2 0 .8-1 1-1.4 1zm3.7-2.5h-.5v1.3s0 .2.3.2c0 0 .2.8 0 .8h-.6c-.8 0-1-.4-1-.8V4.8c-.3 0-.3 0-.3-.2v-.4c0-.2 0-.2.2-.2h.2v-.4c0-.2.2-.3.3-.3l.8-.2c.2 0 .2 0 .2.3V4h.4c.3 0 .3.2.3.4v.3l-.4.2zm1.7 2.3h-1V2.8h1c.2 0 .2 0 .2.3v4h-.3zm2.3 1v.2h-1c-.2 0-.2 0 0-.2l.3-1-1.2-3s0-.2.2-.2h1s.2 0 .2.3l.4 1 .6-1c0-.2 0-.4.2-.4h.7c.3 0 .3 0 .2.3l-1.6 3.9zm0 0"/></g></svg>