<svg viewBox="0 0 24 24" xmlns="http://www.w3.org/2000/svg"><g fill="none" fill-rule="evenodd"> <path d="M16.88 9.83c.005.1.008.203.008.305 0 3.123-2.378 6.725-6.726 6.725a6.69 6.69 0 0 1-3.622-1.063 4.745 4.745 0 0 0 3.497-.977 2.367 2.367 0 0 1-2.207-1.643 2.377 2.377 0 0 0 1.068-.04 2.366 2.366 0 0 1-1.895-2.317v-.03c.317.178.682.283 1.07.295A2.364 2.364 0 0 1 7.34 7.93a6.71 6.71 0 0 0 4.872 2.47 2.363 2.363 0 0 1 4.027-2.155 4.72 4.72 0 0 0 1.5-.575 2.361 2.361 0 0 1-1.037 1.307 4.685 4.685 0 0 0 1.357-.37c-.317.473-.717.89-1.18 1.223zM12 0C5.37 0 0 5.372 0 12s5.37 12 12 12c6.628 0 12-5.372 12-12S18.628 0 12 0z" fill="currentColor"/></g></svg>