<svg viewBox="0 0 102 91" 
  xmlns="http://www.w3.org/2000/svg">
  <g fill="none" fill-rule="evenodd">
    <path d="M1.9 43.6L70.7.6a3 3 0 0 1 4.3 1l25.8 41.3a3 3 0 0 1-1 4.3L31 90.2a3 3 0 0 1-4.3-1L.9 47.9a3.2 3.2 0 0 1 1-4.3z" fill="#2c83b6"/>
    <path d="M.3 77.7L.5 29c0-1.7 1.4-3.1 3.1-3.1l81.1.3c1.7 0 3.1 1.4 3.1 3.1L87.6 78c0 1.7-1.4 3.1-3.1 3.1l-81.1-.2a3.1 3.1 0 0 1-3.1-3.2z" fill="#8ac4e5"/>
    <path d="M.4 47.2v-14l87.4.4v14L.4 47.2z" fill="#0f4263"/>

    <text font-family="OpenSans-Bold, Open Sans" font-size="8" font-weight="bold" letter-spacing=".2" fill="#2C83B6">
      <tspan x="41.1" y="59">124359385</tspan>
    </text>
    <path d="M39.3 59.7c-.1.2-.4.3-.6.3l-.8-.1c-1-.3-2.1-1-3-1.8-.9-.9-1.5-2-1.8-3l-.1-.8c0-.2.1-.5.3-.6l1-.6c.2-.2.5 0 .6.2l.7 1.4v.6l-.7.5c.2.5.5.9 1 1.4l1.3 1 .5-.7c.2-.2.4-.3.6-.1l1.4.7c.3.1.4.4.2.7l-.6.9z" fill="#2C83B6" fill-rule="nonzero"/>
  </g>
</svg>