<svg xmlns="http://www.w3.org/2000/svg" viewBox="0 0 211.7 79.4"><g fill="#194f9a"><path d="M41 40.8h-5.5l2.9-9.4zm-8.3 10.4l1.8-6.2h7.3l1.8 6.2h6.7l-6.7-23.6c-.4-1.4-1.2-2-2.7-2h-9.6v2.2h.8c1 0 1.6.4 1.6 1.2 0 .5-.1.9-.5 2l-6.7 20.2h6.2" fill-rule="evenodd"/><path d="M58.1 51.2V27.5c0-1.2-.7-2-1.9-2h-6v2.3h.5c1 0 1.4.4 1.4 1.4v22h6m10.3 0V27.5c0-1.2-.7-2-2-2h-5.9v2.3h.4c1 0 1.5.4 1.5 1.4v22h6"/><path d="M79 28c0-1.8-1.4-2.8-3.5-2.8-2.2 0-3.5 1-3.5 2.7 0 1.8 1.3 2.8 3.5 2.8 2.1 0 3.4-1 3.4-2.8zm-.2 23.2V34c0-1.3-.7-2-2-2H71v2.2h.4c1 0 1.4.5 1.4 1.5v15.5h6M92 42v3.7c-1 1-2.2 1.7-3.3 1.7-1 0-1.4-.6-1.4-2s.3-2 1.4-2.5c.8-.3 1.8-.6 3.3-.9zm-8-4.5c2-1 4.2-1.5 6-1.5 1.5 0 2.1.6 2.1 2.3v.4a60.2 60.2 0 0 0-6.9 1.6c-2.4 1-3.5 2.8-3.5 5.7 0 3.6 1.5 5.4 4.8 5.4 1.2 0 2.3-.2 3.2-.6a11 11 0 0 0 2.6-1.7v.3c0 1.2.6 1.8 1.8 1.8h5.5v-2h-.3c-1 0-1.4-.5-1.4-1.7v-9.2c0-4.9-1.7-6.6-6.6-6.6-1.5 0-3 .2-4.6.6a16 16 0 0 0-4 1.5l1.3 3.7m24.3 13.7v-13c1-1 2-1.6 3.2-1.6 1.3 0 1.6.5 1.6 2.4v12.2h6v-13c0-3-.3-4-1.2-5-.8-1-2-1.4-3.6-1.4-2.4 0-4 .7-6.3 2.8v-.8c0-1.2-.6-1.8-1.8-1.8h-5.7v2.2h.3c1 0 1.5.5 1.5 1.5v15.5h6" fill-rule="evenodd"/><path d="M136.9 47.2h-8.4l8-11.2v-4H124c-1.5 0-2.1.7-2.1 2v3.6h2.2v-.4c0-.9.5-1.3 1.4-1.3h4.3l-8 11.4v4h15v-4.1"/><path d="M168.4 50.7V29c0-1.7-.7-2.3-2.3-2.3H161V29h.3c1.1 0 1.4.3 1.4 1.7v20zm2.5 0h5.6V33.8c0-1.7-.6-2.3-2.3-2.3h-3.3zm-10.7 0V31.5h-3.4c-1.6 0-2.3.6-2.3 2.3v17zm21.7-11a16 16 0 0 1-16.4 16.5 16 16 0 0 1-16.3-16.5 16 16 0 0 1 16.3-16.5A16 16 0 0 1 182 39.7zm3.3 0c0-11.3-8.4-19.7-19.7-19.7a19.2 19.2 0 0 0-19.7 19.7c0 11.3 8.4 19.7 19.7 19.7 11.3 0 19.7-8.4 19.7-19.7" fill-rule="evenodd"/></g></svg>