<svg xmlns="http://www.w3.org/2000/svg" viewBox="0 0 36 18"><g fill="none" fill-rule="evenodd" transform="translate(.316 .947)"><rect width="35.053" height="17.053" fill="#007ECD" rx="3.316"/><path fill="#FFF" d="M31.757 12.71H30.04v-.865h1.5s.545.064.545-.297c0-.338-.816-.312-.816-.312s-1.34.115-1.34-1.117c0-1.23 1.2-1.16 1.2-1.16h1.84v.87H31.5s-.514-.11-.514.26c0 .31.7.265.7.265s1.472-.107 1.472 1.023c0 1.21-.948 1.32-1.285 1.32-.072 0-.116-.007-.116-.007zm-8.56.005V8.97h3.007v.87h-2.037v.576h1.987v.852h-1.987v.635h2.037v.812h-3.006zm5.16-.006h-1.715v-.87h1.504s.54.06.54-.3c0-.34-.817-.31-.817-.31s-1.33.11-1.33-1.12c0-1.23 1.2-1.16 1.2-1.16h1.85v.874H28.1s-.514-.103-.514.267c0 .31.7.267.7.267s1.472-.108 1.472 1.022c0 1.21-.95 1.32-1.286 1.32-.072 0-.116-.01-.116-.01zm-13 0h-.84l-1.023-1.11-1.028 1.11H8.88V8.95h3.51l1.104 1.196 1.112-1.187h.74v-.01h2.338s1.22-.138 1.22 1.1c0 1.104-.405 1.45-1.65 1.45h-.945v1.204h-.96zm-1.207-1.84l1.195 1.3V9.56l-1.195 1.31zm-4.3 1.03h2.03l.952-1.04-.95-1.03H9.85v.57h1.978v.85H9.85v.635zm6.46-1.38h.995c.29 0 .527-.154.527-.35 0-.197-.238-.356-.527-.356h-.996v.71zm5.474 2.196v-.73s-.04-.57-.644-.57h-.937v1.302h-.964V8.97h2.33s1.22-.146 1.22 1.098c0 .648-.54.876-.54.876s.46.216.46.85v.928h-.94zm-1.58-2.184h.995c.28 0 .52-.16.52-.356 0-.194-.24-.353-.53-.353h-.99v.71zm-.727-2.95h.97v-3.76h-.97v3.763zm-7.467-.01V3.83h3.002v.87H12.98v.577h1.986v.85H12.98v.636h2.037v.813H12.01zm-1.51 0V4.99L9.29 7.58H8.5L7.287 5v2.578H5.384L5.05 6.79H3.29l-.34.786H1.894l1.6-3.752H4.85l1.466 3.45V3.82H7.84L8.9 6.15l1.053-2.33h1.523v3.753H10.5zM3.7 5.83h.94l-.47-1.12-.47 1.117zm25.736 1.746l-1.53-2.507v2.5H26.02l-.342-.79h-1.76l-.335.784h-1.51s-1.298-.184-1.298-1.77c0-2.083 1.472-2 1.523-2.013l1.188.03v.848l-.975.012s-.63 0-.71.82c-.01.092-.01.18-.01.26.01 1.266 1.12.873 1.15.86l1.2-2.8h1.35l1.44 3.41v-3.4h1.37l1.51 2.47V3.82h.97v3.753h-1.33zm-5.106-1.75h.937l-.463-1.116-.475 1.117zm-6.267 1.747v-.73s-.04-.57-.643-.57h-.938v1.3h-.964V3.82h2.34s1.22-.145 1.22 1.1c0 .647-.54.876-.54.876s.47.216.47.85v.927h-.945zm-1.58-2.184h.995c.29 0 .527-.16.527-.36 0-.2-.238-.36-.527-.36h-.996v.71z"/></g></svg>