<svg viewBox="0 0 25 23" xmlns="http://www.w3.org/2000/svg" xmlns:xlink="http://www.w3.org/1999/xlink"><defs><path d="M16.616 6.897v11.162c0 1.05-1.074 1.9-2.4 1.9h-.9c-.166 0-.298-.107-.319-.237-.147-.937-1.157-1.663-2.381-1.663-1.224 0-2.234.726-2.381 1.663-.02.13-.153.237-.319.237h-.9c-1.326 0-2.4-.85-2.4-1.9V2.86c0-1.049 1.074-1.9 2.4-1.9h.9c.166 0 .298.107.319.237.147.938 1.157 1.663 2.381 1.663 1.224 0 2.234-.725 2.381-1.663.02-.13.153-.237.319-.237h.9c1.326 0 2.4.851 2.4 1.9v4.038z" id="combo-ticketa"/><path d="M12.786 10.263v11.162c0 1.05-1.075 1.9-2.4 1.9h-.9c-.166 0-.298-.107-.319-.237-.147-.937-1.157-1.663-2.381-1.663-1.224 0-2.234.726-2.381 1.663-.02.13-.153.237-.319.237h-.9c-1.326 0-2.4-.85-2.4-1.9v-15.2c0-1.049 1.074-1.9 2.4-1.9h.9c.166 0 .298.107.319.237.147.938 1.157 1.663 2.38 1.663 1.225 0 2.235-.725 2.382-1.663.02-.13.153-.237.319-.237h.9c1.325 0 2.4.851 2.4 1.9v4.038z" id="combo-ticketb"/></defs><g transform="rotate(30 10.866 19.16)" fill="#24C89A"><use stroke="#24C89A" fill-opacity=".5" xlink:href="#combo-ticketa"/><use xlink:href="#combo-ticketb"/></g></svg>