<svg viewBox="0 0 21 14"><g fill="none"><path fill="#C60B1E" d="M0 0h21v14H0z"/><path fill="#FFC400" d="M0 3.5h21v7H0z"/><path fill="#AD1519" d="M5.61 7.52a1.45 1.45 0 0 0-.68-.06c-.27.04-.48.15-.46.24l-.1-.23c-.02-.1.2-.22.51-.27l.27-.02c.2 0 .36.02.46.06v.28"/><path stroke="#000" d="M5.61 7.52a1.45 1.45 0 0 0-.68-.06c-.27.04-.48.15-.46.24l-.1-.23c-.02-.1.2-.22.51-.27l.27-.02c.2 0 .36.02.46.06v.28"/><path fill="#AD1519" d="M4.4 8.23c0-.04.12-.11.3-.17l.22-.1c.24-.1.42-.23.4-.27l.03.22c.02.04-.14.17-.37.27-.07.04-.22.1-.29.12-.13.04-.25.12-.24.15l-.04-.22"/><path stroke="#000" d="M4.4 8.23c0-.04.12-.11.3-.17l.22-.1c.24-.1.42-.23.4-.27l.03.22c.02.04-.14.17-.37.27-.07.04-.22.1-.29.12-.13.04-.25.12-.24.15l-.04-.22z"/><path fill="#AD1519" d="M8.4 7.52a1.45 1.45 0 0 1 .68-.06c.28.04.48.15.47.24l.1-.23c.02-.1-.21-.22-.51-.27l-.27-.02c-.2 0-.36.02-.46.06v.28"/><path stroke="#000" d="M8.4 7.52a1.45 1.45 0 0 1 .68-.06c.28.04.48.15.47.24l.1-.23c.02-.1-.21-.22-.51-.27l-.27-.02c-.2 0-.36.02-.46.06v.28"/><path fill="#AD1519" d="M9.6 8.23c.02-.04-.1-.11-.28-.17l-.22-.1c-.24-.1-.42-.23-.4-.27l-.03.22c-.02.04.14.17.36.27.07.04.22.1.3.12.12.04.25.12.24.15l.04-.22"/><path stroke="#000" d="M9.6 8.23c.02-.04-.1-.11-.28-.17l-.22-.1c-.24-.1-.42-.23-.4-.27l-.03.22c-.02.04.14.17.36.27.07.04.22.1.3.12.12.04.25.12.24.15l.04-.22z"/><path fill="#AD1519" stroke="#000" d="M6.99 5.12c.19 0 .35.02.46.07l.23.06h.2c.07 0 .18.02.3.07.09.04.16.1.21.14l-.04.04-.01.11-.12.14-.06.05-.15.11-.07.01-.02.06-.92-.1-.93.1-.02-.06h-.07l-.15-.12-.06-.05-.12-.14V5.5l-.05-.04a.8.8 0 0 1 .22-.14.76.76 0 0 1 .3-.07.93.93 0 0 0 .42-.06c.1-.05.26-.07.45-.07z"/><path fill="#C8B100" d="M6.3 5.36l.05.03.06-.1a.22.22 0 0 1-.1-.2c0-.12.15-.22.33-.22.1 0 .19.02.25.07a.8.8 0 0 1 0-.06.5.5 0 0 0-.25-.06c-.21 0-.38.12-.39.27a.26.26 0 0 0 .09.22l-.03.05"/><path stroke="#000" d="M6.3 5.36l.05.03.06-.1a.22.22 0 0 1-.1-.2c0-.12.15-.22.33-.22.1 0 .19.02.25.07a.8.8 0 0 1 0-.06.5.5 0 0 0-.25-.06c-.21 0-.38.12-.39.27a.26.26 0 0 0 .09.22l-.03.05"/><path fill="#C8B100" d="M5.66 5.46a.26.26 0 0 1-.04-.29c.06-.12.25-.2.47-.2l.17.01a.29.29 0 0 0-.03.04.74.74 0 0 0-.14-.01c-.2 0-.37.08-.42.19a.2.2 0 0 0-.02.09c0 .06.03.12.07.16l-.07.12-.04-.03.05-.08"/><path stroke="#000" d="M5.66 5.46a.26.26 0 0 1-.04-.29c.06-.12.25-.2.47-.2l.17.01a.29.29 0 0 0-.03.04.74.74 0 0 0-.14-.01c-.2 0-.37.08-.42.19a.2.2 0 0 0-.02.09c0 .06.03.12.07.16l-.07.12-.04-.03.05-.08z"/><path fill="#C8B100" d="M7.7 5.36l-.05.03-.06-.1a.22.22 0 0 0 .1-.2c0-.12-.14-.22-.33-.22-.1 0-.19.02-.25.07v-.06a.5.5 0 0 1 .25-.06c.21 0 .38.12.4.27v.02c0 .08-.04.15-.1.2l.03.05"/><path stroke="#000" d="M7.7 5.36l-.05.03-.06-.1a.22.22 0 0 0 .1-.2c0-.12-.14-.22-.33-.22-.1 0-.19.02-.25.07v-.06a.5.5 0 0 1 .25-.06c.21 0 .38.12.4.27v.02c0 .08-.04.15-.1.2l.03.05"/><path fill="#C8B100" d="M8.34 5.46a.26.26 0 0 0 .04-.29c-.06-.12-.25-.2-.47-.2l-.17.01.03.04.14-.01c.2 0 .37.08.42.19a.2.2 0 0 1 .02.09c0 .06-.03.12-.07.16l.07.12.04-.03-.05-.08"/><path stroke="#000" d="M8.34 5.46a.26.26 0 0 0 .04-.29c-.06-.12-.25-.2-.47-.2l-.17.01.03.04.14-.01c.2 0 .37.08.42.19a.2.2 0 0 1 .02.09c0 .06-.03.12-.07.16l.07.12.04-.03-.05-.08z"/><path fill="#CCC" d="M7.01 9.64c-.36 0-.73-.09-1.03-.24a.66.66 0 0 1-.37-.6v-.92h2.8v.93c0 .26-.14.48-.37.6-.3.14-.66.23-1.03.23"/><path stroke="#000" d="M7.01 9.64c-.36 0-.73-.09-1.03-.24a.66.66 0 0 1-.37-.6v-.92h2.8v.93c0 .26-.14.48-.37.6-.3.14-.66.23-1.03.23z"/><path fill="#CCC" d="M7.01 7.87h1.41V6.31H7.01z"/><path stroke="#000" d="M7.01 7.87h1.41V6.31H7.01z"/><path fill="#AD1519" d="M7 8.8c0 .38-.3.68-.7.68-.38 0-.7-.3-.7-.67v-.94H7v.94m-1.4-.94h1.41V6.31H5.6z"/><path stroke="#000" d="M5.6 7.87h1.41V6.31H5.6zM7 8.8c0 .38-.3.68-.7.68-.38 0-.7-.3-.7-.67v-.94H7v.94"/><path fill="#AD1519" d="M8.42 7.87v.94c0 .37-.32.67-.7.67-.4 0-.71-.3-.71-.67v-.94h1.4"/><path stroke="#000" d="M8.42 7.87v.94c0 .37-.32.67-.7.67-.4 0-.71-.3-.71-.67v-.94h1.4"/><path fill="#C8B100" d="M7.27 8.58v.01c0 .02-.02.03-.03.03a.03.03 0 0 1-.04-.03v-.01h-.04v.01c0 .04.02.06.05.07v.11h.05v-.1l.05-.05h.13v-.04h-.17zm.63 0v.04h-.12v.01l.13.15-.04.03-.13-.15v.26h-.06v-.26l-.14.15-.04-.03.14-.15v-.01h-.12v-.04h.38zm.07 0v.04h.13l.05.04v.12h.05v-.12c.03 0 .05-.03.05-.07v-.01h-.04v.01c0 .02-.02.03-.03.03-.02 0-.04 0-.04-.03v-.01h-.17zm-.19.64c.04 0 .07-.01.1-.03l.03.04a.51.51 0 0 1-.13.04c0 .03-.03.06-.07.06a.08.08 0 0 1-.08-.06.51.51 0 0 1-.13-.04l.03-.04c.03.02.07.03.11.03 0-.01.02-.03.04-.03v-.2h.05v.2c.02 0 .04.02.05.03zm-.32-.06l-.03.04a.49.49 0 0 1-.1-.1c-.03.02-.05.01-.07 0a.07.07 0 0 1-.01-.1v-.01a.45.45 0 0 1-.04-.14h.05l.03.12h.04l.12-.13.04.03-.12.13c.02.03.02.06 0 .08.02.03.05.06.09.08zm-.18-.13a.05.05 0 1 1 .08.06.05.05 0 0 1-.08-.06zm-.02-.14l-.08-.01-.02-.13.1-.01v.15zm0-.16l.09.02v.06l.01.06-.09.02a.24.24 0 0 1 0-.08v-.08zm.16.4l.14.08.01-.05a.4.4 0 0 1-.11-.06l-.04.03zm-.02.04a.5.5 0 0 0 .14.08l-.04.03a.55.55 0 0 1-.11-.06v-.05zm.06-.27l.05.02.09-.1-.03-.04-.1.12zm-.03-.03l-.03-.04.08-.1.05.02-.1.12zm.52.29l.03.04a.49.49 0 0 0 .1-.1c.03.02.06.01.08 0a.07.07 0 0 0 0-.1v-.01l.04-.14h-.05l-.03.12h-.04l-.12-.13-.04.03.12.13a.07.07 0 0 0 0 .08.44.44 0 0 1-.09.08zm.21-.13a.05.05 0 1 0-.08.06.05.05 0 0 0 .08-.06zm.03-.14l.09-.01.01-.13-.08-.01v.07l-.02.08zm0-.16l-.08.02v.06l-.01.06.08.02.02-.08v-.08zm-.2.4a.46.46 0 0 1-.14.08l-.01-.05a.4.4 0 0 0 .11-.06l.04.03zm.02.04a.5.5 0 0 1-.14.08l.04.03a.55.55 0 0 0 .11-.06v-.05zm-.06-.27l-.05.02-.08-.1.02-.04.1.12zm.04-.03L8 8.83l-.08-.1-.05.02.1.12zm-.6-.25l.02.1h.14l.01-.1H7.4zm.63 0l-.02.1h-.13l-.02-.1h.17zm-.34.65a.05.05 0 1 1 .1 0 .05.05 0 0 1-.1 0zm.05-.24l.1-.02V8.9l-.1-.01v.15zm0 0L7.64 9v-.1l.1-.01v.15z"/><path fill="#C8B100" d="M7.16 8.58c0-.03.03-.05.05-.06v-.15h.05v.16c.02 0 .04.02.05.04h.13v.01h-.17a.03.03 0 0 0-.06 0h-.05zm.36 0h.12v-.02L7.5 8.4l.04-.03.15.16V8.3h.05v.22l.15-.16.04.02-.15.17.01.01h.12v.01h-.38zm.63 0c0-.01.01-.02.03-.02l.03.02h.04a.07.07 0 0 0-.05-.06v-.15h-.05v.16a.07.07 0 0 0-.05.04h-.13v.01h.18zm-.88-.44l.17.2.04-.03-.18-.2.01-.01h.13v-.05h-.13A.08.08 0 0 0 7.24 8a.07.07 0 0 0-.08.08c0 .03.02.06.05.07v.15h.05v-.15zm.93 0v.16h-.05v-.15l-.18.19-.04-.03.18-.2V8.1h-.14v-.05h.13A.08.08 0 0 1 8.18 8c.04 0 .07.04.07.08 0 .03-.02.06-.05.07zm-.47 0v.1h-.05v-.1a.08.08 0 0 1-.05-.04h-.11v-.05h.11A.08.08 0 0 1 7.71 8c.03 0 .06.02.07.05h.12v.05h-.12c0 .02-.03.04-.05.05zm-.47.12l-.1.01v.13l.1.01v-.15zm0 0l.1.01v.13l-.1.01v-.15zm.94 0l-.1.01v.13l.1.01v-.15zm0 0l.1.01v.13l-.1.01v-.15zm-.75.02l.05-.02.09.1-.03.04-.1-.12zm-.03.03l-.03.04.09.1.04-.02-.1-.12zm.54-.03l-.05-.02-.09.1.03.04.1-.12zm.03.03l.03.04-.08.1-.05-.02.1-.12zm-.6.32l.02-.1h.14l.01.1H7.4zm-.18-.53c0-.03.02-.05.05-.05a.05.05 0 1 1-.05.05zm.35 0l-.02.1h-.13l-.01-.1h.16zm0 0L7.54 8h-.13l-.01.1h.16zm.46.53L8 8.53h-.13l-.02.1h.17zm.12-.53a.05.05 0 1 1 .1 0 .05.05 0 0 1-.1 0zm-.47 0c0-.03.03-.05.05-.05a.05.05 0 1 1-.05.05zm.19 0l.01.1H8l.02-.1h-.16zm0 0l.01-.1H8l.02.1h-.16zm-.13.1l-.1.01v.13l.1.01V8.2zm0 0l.1.01v.13l-.1.01V8.2z"/><path stroke="#C8B100" d="M7.78 9.22c.04 0 .07-.01.1-.03l.03.04a.51.51 0 0 1-.13.04c0 .03-.03.06-.07.06a.08.08 0 0 1-.08-.06.51.51 0 0 1-.13-.04l.03-.04c.03.02.07.03.11.03 0-.01.02-.03.04-.03v-.2h.05v.2c.02 0 .04.02.05.03zm-.14-.59v-.01h-.12v-.05h.12L7.5 8.4l.04-.03.15.16V8.3h.05v.21l.15-.15.04.02-.15.16.01.02h.12v.05h-.12v.01l.13.15-.04.03-.13-.15v.26h-.06v-.26l-.14.15-.04-.03.14-.15zm-.37-.49l.17.2.04-.03-.18-.2.01-.01h.13v-.05h-.13A.08.08 0 0 0 7.24 8a.07.07 0 0 0-.08.08c0 .03.02.06.05.06v.16h.05v-.15zm.19 1.02l-.03.04a.49.49 0 0 1-.1-.1c-.03.02-.05.01-.07 0a.07.07 0 0 1-.01-.1v-.01a.45.45 0 0 1-.04-.14h.05l.03.12h.04l.12-.13.04.03-.12.13c.02.03.02.06 0 .08.02.03.05.06.09.08zm-.25-.39v-.1a.07.07 0 0 1-.05-.08c0-.03.02-.06.05-.07v-.15h.05v.15l.05.05h.13v.05H7.3c0 .02-.03.03-.05.04v.12H7.2zm.07.26a.05.05 0 1 1 .08.06.05.05 0 0 1-.08-.06zm-.02-.14l-.08-.01-.02-.13.1-.01v.15zm0-.16l.09.02v.06l.01.06-.09.02a.24.24 0 0 1 0-.08v-.08zm.16.4l.14.08.01-.05a.4.4 0 0 1-.11-.06l-.04.03zm-.02.04a.5.5 0 0 0 .14.08l-.04.03a.55.55 0 0 1-.11-.06v-.05z"/><path stroke="#C8B100" d="M7.46 8.9l.05.02.09-.1-.03-.04-.1.12zm-.03-.03l-.03-.04.08-.1.05.02-.1.12zM7.2 8.6a.05.05 0 1 1 .1 0 .05.05 0 0 1-.1 0zm.75.55l.03.04a.49.49 0 0 0 .1-.1c.03.02.06.01.08 0a.07.07 0 0 0 0-.1v-.01l.04-.14h-.05l-.03.12h-.04l-.12-.13-.04.03.12.13a.07.07 0 0 0 0 .08.44.44 0 0 1-.09.08zm.25-.39v-.1c.03-.02.05-.04.05-.08a.07.07 0 0 0-.05-.07v-.15h-.05v.15a.07.07 0 0 0-.05.05h-.13v.05h.13l.05.04v.12h.05zm-.04.26a.05.05 0 1 0-.08.06.05.05 0 0 0 .08-.06zm.03-.14l.09-.01.01-.13-.08-.01v.07l-.02.08zm0-.16l-.08.02v.06l-.01.06.08.02.02-.08v-.08zm.01-.58v.15h-.05v-.16l-.18.2-.04-.03.18-.2h-.14v-.05h.13A.08.08 0 0 1 8.18 8c.04 0 .07.04.07.08 0 .03-.02.06-.05.07zm-.47 0v.09h-.05v-.1a.07.07 0 0 1-.05-.04h-.11v-.05h.11A.08.08 0 0 1 7.71 8c.03 0 .06.02.07.05h.12v.05h-.12c0 .02-.03.04-.05.04zm.26.98a.46.46 0 0 1-.14.08l-.01-.05a.4.4 0 0 0 .11-.06l.04.03zm.02.04a.5.5 0 0 1-.14.08l.04.03a.55.55 0 0 0 .11-.06v-.05zm-.75-.91l-.1.01v.13l.1.01v-.15zm0 0l.1.01v.13l-.1.01v-.15zm.94 0l-.1.01v.13l.1.01v-.15z"/><path stroke="#C8B100" d="M8.2 8.26l.1.01v.13l-.1.01v-.15zm-.25.64l-.05.02-.08-.1.02-.04.1.12zm.04-.03L8 8.83l-.08-.1-.05.02.1.12zm-.54-.59l.05-.02.09.1-.03.04-.1-.12zm-.03.03l-.03.04.09.1.04-.02-.1-.12zm.54-.03l-.05-.02-.09.1.03.04.1-.12zm.03.03l.03.04-.08.1-.05-.02.1-.12zm-.6.32l.02-.1h.14l.01.1H7.4zm0-.01l.02.1h.14l.01-.1H7.4zm-.18-.52c0-.03.02-.05.05-.05a.05.05 0 1 1-.05.05zm.35 0l-.02.1h-.13l-.01-.1h.16zm0 0L7.54 8h-.13l-.01.1h.16zm.58.51c0-.03.03-.05.05-.05.03 0 .05.02.05.05 0 .03-.02.05-.05.05a.05.05 0 0 1-.05-.05zm-.12.02L8 8.53h-.13l-.02.1h.17zm0-.01l-.02.1h-.13l-.02-.1h.17zm-.34.65a.05.05 0 1 1 .1 0 .05.05 0 0 1-.1 0zm.05-.24l.1-.02V8.9l-.1-.01v.15zm0 0L7.64 9v-.1l.1-.01v.15zm.41-.93a.05.05 0 1 1 .1 0 .05.05 0 0 1-.1 0zm-.47 0c0-.03.03-.05.05-.05a.05.05 0 1 1-.05.05zm.19 0l.01.1H8l.02-.1h-.16zm0 0l.01-.1H8l.02.1h-.16z"/><path fill="#ED72AA" stroke="#000" d="M7.94 6.64v.11l.01.02-.02-.01-.02-.01a6.36 6.36 0 0 0 .02.06l.03.04v.04l-.02-.03a.35.35 0 0 1-.04-.02s.03.03.03.05l-.01.04-.03-.03-.03-.02.02.05V7l-.03-.03-.03-.02.02.03c0 .02 0 .07.05.13.03.04.07.11.15.09.1-.02.06-.14.04-.2a.49.49 0 0 1-.03-.13l.02-.1v-.09l.03-.07.01-.03v-.04l.02.04a.2.2 0 0 1 0 .04s.01-.03.04-.05l.06-.04v-.01l-.01.07-.05.06h.06s-.02 0-.04.04c-.03.03-.02.04-.03.06l-.05.05c-.03.02-.02.12-.01.13l.06.16c0 .03 0 .1-.05.14-.03.03-.08.03-.1.03 0 .01-.03.03-.03.08s.01.06.03.07c.01.02.03.01.04.02v.02l.02.02-.04.06-.02.07v.03s.03.03.01.04h-.05l-.01-.02-.01-.02-.01.02v.02l-.03-.01s-.02 0-.03-.02c0 0 .01-.02.03-.02 0 0 .02-.01.01-.02h-.04v-.05h.04c.02 0 .03 0 .03-.02V7.5l-.03-.02-.01-.03v.07l-.02-.02a.14.14 0 0 1-.02-.04v.06l-.02-.03a.1.1 0 0 1-.03-.03l-.01-.04v-.07h-.08l.01.09c.01.03.02.05.01.06l-.02.02h-.1s-.02-.02-.03-.01c0 0-.02 0-.02.02l-.01.02-.03-.01-.02-.01.01-.02v-.02h-.02l-.02.02-.01-.03c0-.02-.02-.04 0-.04.01 0 .04.02.04 0v-.01c-.02-.01-.03-.02-.02-.03l.02-.01.02-.02c.02 0 0 .02.02.04s.03.03.06.02l.04-.01v-.06l-.02.02-.01.02v-.08l-.01.03v.03s-.03-.02-.02-.05v-.06s.02-.04.06-.04h.08l.05-.01-.1-.06a.28.28 0 0 1-.06-.06.23.23 0 0 1-.01-.04h-.03a.14.14 0 0 0-.04.03l-.02.03v-.06s0 .04-.03.05a.78.78 0 0 0-.04.04V7.1l.01-.03-.03.03-.06.01v.04l-.01.02-.02-.01h-.02v-.04h-.04v-.04h.04s0-.02-.02-.02-.03-.01-.02-.02l.02-.02s0-.02.02-.01c.01 0 0 .02.02.03l.06-.01.05-.03.04-.03-.03-.02-.03-.03-.05-.02-.05-.01.02-.01.03-.02h-.04l-.03-.02H7.3l.03-.01h.04l-.04-.02-.02-.03-.01-.01h-.03l-.02-.01v-.02s-.02-.02 0-.02h.03l-.02-.03c-.01 0-.03-.01-.02-.02l.02-.02.02-.02.04.04v-.04l.01-.02.03.01h.03l-.02.04v.04l.03.04.05.03.06.04h.13c.02-.01.04-.02.03-.04l-.04-.03c0-.02.02-.02.04-.02s.05 0 .06-.02c0-.03 0-.05-.03-.06-.03 0-.05 0-.06-.03v-.03l.04-.01h.05l.02-.03.04-.01.08.04.07.07"/><path fill="#C8B100" stroke="#000" d="M6.09 6.68h-.03v-.03h-.05v.1h.05v.07h-.1v.21h.05v.42h-.1v.2h.8v-.2h-.1v-.42h.04v-.2h-.1v-.08h.05v-.1h-.04v.03h-.03v-.03H6.5v.03h-.04v-.03h-.04v.1h.04v.07h-.1V6.6h.06v-.1h-.05v.02h-.03v-.03H6.3v.03h-.03v-.03h-.05v.1h.05v.23h-.1v-.07h.05v-.1h-.05v.03h-.02v-.03H6.1v.03zm-.18.98h.8-.8zm0-.05h.8-.8zm0-.05h.8-.8zm0-.06h.8-.8zm0-.05h.8-.8zm.1-.05h.6H6zm0-.05h.6H6zm0-.06h.6H6zm0-.05h.6H6zm0-.05h.6H6zm0-.06h.6H6zm0-.05h.6H6zm-.05-.05h.7-.7zm0-.05h.7-.7zm0-.05h.7-.7zm0-.05h.7-.7zm.1-.06h.5-.5zm.2-.05h.1-.1zm0-.05h.1-.1zm0-.05h.1-.1zm0-.05h.1-.1zm-.05-.07h.2-.2zm-.15.22h.1-.1zm-.05-.06h.2H6zm0 1v-.1.1zm0-.1v-.1.1zm-.05-.05v.1-.1zm.1.1v-.1.1zm.05.05v-.1.1zm0-.1v-.1.1zm0-.11v-.1.1zm0-.11v-.1.1zm-.05.16v-.1.1zm-.1 0v-.1.1zm.2-.1v.1-.1zm.05.05v-.1.1zm-.15-.15v.1-.1zm.1 0v.1-.1zm.1 0v.1-.1zm-.05.04v-.1.1zm.05-.15v.1-.1zm0-.1v.1-.1zm-.05-.06v.1-.1zm.05-.05v.1-.1zm-.1 0v.1-.1zm-.1 0v.1-.1zm-.05-.05v.1-.1zm.1 0v.1-.1zm.1 0v.1-.1zm.05-.05v.1-.1zm-.1 0v.1-.1zm-.1 0v.1-.1zm-.05-.05v.1-.1zm.2 0v.1-.1zm-.1-.1v.1-.1zm.45 0h-.1.1zm.04-.07h-.2.2zm0 1v-.1.1zm0-.1v-.1.1zm.05-.05v.1-.1zm-.1.1v-.1.1zm-.04.05v-.1.1zm0-.1v-.1.1zm0-.11v-.1.1zm0-.11v-.1.1zm.05.16v-.1.1zm.1 0v-.1.1zm-.2-.1v.1-.1zm-.05.05v-.1.1zm.15-.15v.1-.1zm-.1 0v.1-.1zm-.1 0v.1-.1zm.05.04v-.1.1zm-.05-.15v.1-.1zm0-.1v.1-.1zm.05-.06v.1-.1zm-.05-.05v.1-.1zm.1 0v.1-.1zm.1 0v.1-.1zm.04-.05v.1-.1zm-.1 0v.1-.1zm-.1 0v.1-.1zm-.04-.05v.1-.1zm.1 0v.1-.1zm.1 0v.1-.1zm.04-.05v.1-.1zm-.2 0v.1-.1zm.1-.1v.1-.1zm-.2.61v-.1.1zm0-.2v-.1.1zm0 .1v-.1.1zm0-.21v-.1.1zm0-.1v-.1.1zm0-.16v-.1.1zm0-.1v-.1.1zm-.24.03h.1-.1zm.2-.15h.1-.1zm.2.15h.1-.1z"/><path fill="#AD1519" d="M6.56 7.87c0-.28.2-.51.45-.51s.46.23.46.5c0 .3-.2.52-.46.52-.25 0-.45-.23-.45-.51"/><path stroke="#000" d="M6.56 7.87c0-.28.2-.51.45-.51s.46.23.46.5c0 .3-.2.52-.46.52-.25 0-.45-.23-.45-.51z"/><path fill="#005BBF" d="M6.7 7.87c0-.21.14-.38.31-.38.18 0 .32.17.32.38 0 .2-.14.37-.32.37-.17 0-.32-.17-.32-.37"/><path stroke="#000" d="M6.7 7.87c0-.21.14-.38.31-.38.18 0 .32.17.32.38 0 .2-.14.37-.32.37-.17 0-.32-.17-.32-.37z"/></g></svg>