<svg viewBox="0 0 239 169" xmlns="http://www.w3.org/2000/svg"><title>02 Spot Illustrations / No Flights Found</title><defs><linearGradient x1="-.028%" y1="50.083%" x2="100.023%" y2="50.083%" id="flights_emptya"><stop stop-color="#FBD9D9" stop-opacity="0" offset="0%"/><stop stop-color="#FBD9D9" offset="100%"/></linearGradient><linearGradient x1="53.258%" y1="-12.341%" x2="43.821%" y2="97.562%" id="flights_emptyb"><stop stop-color="#5E8EC8" offset="0%"/><stop stop-color="#6492CA" offset="11.53%"/><stop stop-color="#739DCF" offset="26.2%"/><stop stop-color="#8DAFD7" offset="42.49%"/><stop stop-color="#9CBADC" offset="50.16%"/><stop stop-color="#A1BEDE" stop-opacity=".823" offset="58.89%"/><stop stop-color="#B0C8E2" stop-opacity=".608" offset="69.5%"/><stop stop-color="#C8D9E9" stop-opacity=".374" offset="81.06%"/><stop stop-color="#EAF1F3" stop-opacity=".127" offset="93.23%"/><stop stop-color="#FFFFF9" stop-opacity="0" offset="99.49%"/></linearGradient><linearGradient x1="57.267%" y1="-3.896%" x2="48.565%" y2="117.42%" id="flights_emptyc"><stop stop-color="#F6B2B3" offset="28.93%"/><stop stop-color="#F6B2B3" stop-opacity="0" offset="91.33%"/></linearGradient><linearGradient x1=".22%" y1="49.789%" x2="100.109%" y2="49.789%" id="flights_emptyd"><stop stop-color="#FCFDFF" offset="0%"/><stop stop-color="#FCFDFF" offset="24.63%"/></linearGradient><linearGradient x1="-.38%" y1="49.671%" x2="100.359%" y2="49.671%" id="flights_emptye"><stop stop-color="#FCFDFF" offset="0%"/><stop stop-color="#FCFDFF" offset="24.63%"/></linearGradient><linearGradient x1="-.678%" y1="49.84%" x2="99.702%" y2="49.84%" id="flights_emptyf"><stop stop-color="#FCFDFF" offset="0%"/><stop stop-color="#FCFDFF" offset="24.63%"/></linearGradient><linearGradient x1=".022%" y1="49.917%" x2="99.977%" y2="49.917%" id="flights_emptyg"><stop stop-color="#9DBBDE" offset="0%"/><stop stop-color="#9DBBDE" offset="38.78%"/><stop stop-color="#BFD3EA" offset="83.67%"/></linearGradient><linearGradient x1="45.369%" y1="92.491%" x2="58.849%" y2="27.899%" id="flights_emptyh"><stop stop-color="#FCFDFF" stop-opacity="0" offset="0%"/><stop stop-color="#FCFDFF" offset="88.78%"/></linearGradient><linearGradient x1="47.13%" y1="48.59%" x2="52.83%" y2="48.59%" id="flights_emptyi"><stop stop-color="#FBD9D9" offset="28.57%"/><stop stop-color="#FBD9D9" stop-opacity="0" offset="100%"/></linearGradient><linearGradient x1="-.084%" y1="49.78%" x2="100.009%" y2="49.78%" id="flights_emptyj"><stop stop-color="#FBD9D9" offset="28.57%"/><stop stop-color="#FBD9D9" stop-opacity="0" offset="100%"/></linearGradient></defs><g transform="translate(-1)" fill="none" fill-rule="evenodd"><path d="M202.7 75.5c-27.3 3.6-43.7-26.6-59.1-47.9-7-9.6-14.6-21.1-26.2-23-11.5-1.8-18.3 7.4-28.8 9.9-9 2.2-18.9-4-27.4 4-8 7.6-5.6 21.1-12.4 29.3C33 66.8 13.6 59.7.9 88.7c35.4-8.2 73.6-4.3 109.8-10.6 28.7-5 54.2 1.6 82.5 1.6" fill="url(#flights_emptya)"/><path d="M59.6 76.5C21.9 86.4 40 96 47.2 101.4c10.8 8.2 5.2 10.1 12.5 18.4 5.9 6.7 15.8 10.2 23 11.6 14.7 2.9 33.7 34.1 44.8 36.9 26.7 6.7 39.1-21.1 53.8-29.9 13.4-8.1 28.8-6.7 38.7-21.9-7.4 7 14.1-5.3 5.1-8 3.3-13.8-12.2-34.4-26.2-31.9H59.6" fill="url(#flights_emptyb)"/><path d="M39 75.6c3.5-1.8 2-8.2 6.4-11 3.4-2.1 11.1-1.8 15.1-3 .4-8 5.3-15.6 12.5-20.9 11-8.1 19.6-2.8 30.7-6.7 16.1-5.5 19.6-26.9 41.4-31.9 45.9-10.6 61.7 38.2 66.1 69.2 15.1 1.9 10.2 12.5 21.2 17 13.4 5.5-219.4.2-228.5 5.5.2-2.7 26.8-13.9 35.1-18.2z" fill="url(#flights_emptyc)"/><circle fill="url(#flights_emptyd)" cx="131.9" cy="42.9" r="10.2"/><path d="M.7 3.3c1.6-1.2 3.9-1.1 5.3.3.2.2.4.5.6.7.4.4 1 .2 1.1-.3.2-.8.7-1.6 1.3-2.2.6-.5 1.3-.9 1.8-1.4C9.6.3 8.3.7 7.3 1.6c-.1.1-.3.3-.5.3-.1 0-.2-.1-.4-.1-.7-.3-1.4-.6-2.1-.7C2.9.9 1.4 1.9.7 3.3z" fill="url(#flights_emptye)" transform="translate(144 56)"/><path d="M19.1 10.6c-.5-.3-1-.7-1.6-1 .5-.2.9-.8 1.1-1.4.2-.6.4-1.2.7-1.7.2-.4.6-.7.8-1.1.2-.4.3-1 0-1.3-.1.8-1 1-1.7 1.3-1.2.7-1.6 2.4-1.8 4-.7-1.3-1.6-2.6-2.9-2.9-1-.2-2 .2-2.8.9.6-.2 1.2-.1 1.8.2.8.5 1.2 1.4 1.8 2.1 1.1 1.3 3.1 1.7 4.6.9z" fill="url(#flights_emptyf)" transform="translate(144 56)"/><path d="M62 92.1c-4.1 0-7.1-6.4-5.9-11.5 1.1-4.5 4.5-6.7 8.7-7.5 8.3-1.7 1.7-15.9 12.9-21.8 0 0 11.2-9.1 21.2 1.8s8.3 14.3 8.3 14.3 7.1-7 17.1 2.5c3.2 3.1 4.7 9.9 4.7 9.9s9.5-3.5 16.7 2.8c7.1 6.3 18 8.9 18 8.9" fill="url(#flights_emptyg)"/><path d="M145.7 82.6c-7.1-6.3-16.7-2.8-16.7-2.8s-1.5-6.8-4.7-9.9c-10-9.5-17.1-2.5-17.1-2.5s1.4-8.2-6.6-16c-10.8-10.5-22.9-1.8-22.4-1.9-7.8 5-7.4 14-8.9 19.1 1.1-1.2 2.3-2.8 3.5-5 1.2-2.1 1.8-4.3 3.5-6 3.8-3.7 9.4-4.7 14.1-3-3-.2-3.3 4.1-3.1 6.3.8-1.4 2.5-1.9 3.9-2-5.8 6.9 7.9 16.4 12.5 7.7.1.1.1.3 0 .3 2.9 1.3 2.2 4.5 2.2 7.3l.1-.1c1.2-1.1 2.6-1.9 4-2.7-2.3 4.8 2.7 7.9 6.2 6.1 1.6-.8 6.2-2.8 7.1-1.6.9 1.3 5 6.7 5 6.7 1.7-.2 7.3-1.8 10.2-1 7 2.1 11.6 5.3 16 6.5-3.1-1.4-6.2-3.3-8.8-5.5z" fill="url(#flights_emptyh)"/><path d="M213.1 96.4c-5.6-9.9-12.7-12.7-14.2-12.9-6.4-1.1-13-.4-18.9 5.4-3.5 3.5-6.5 9.2-9.2 14.1-1.8 3.4-2.3 5.9-4.2 4-11.6-11.8-26.1-1.2-27.3 10.4-1-3.8-4.2-3.7-6.3-2.4-2.4 1.5-2.9 7.2-5.4 7.2-1.6-5.6-8.5-2.7-18.7 2.6h122.4c7.1 0 10.5-10.4 5.4-16.2C228 98.9 221 92 213.1 96.4z" fill="#F4F5F9"/><path d="M1 31.8c-.1 0-.1 0 0 0z" fill="url(#flights_emptyi)" transform="translate(108 93)"/><path d="M123.3 31.8c7.1 0 10.5-10.4 5.4-16.2-4.5-5-8.5-9.2-12.4-11.6C109.8 15.5 91 10.9 90.2.9c-4 12-13.2 8.4-19.3 11.7-2.9 1.6-4.7 5-6.7 6.3-3.5 2.3-7.4-1.1-7.6 5.5-7.2-7-9.8-7.4-19.2-1-7.5 5.1-23.6 8.4-36.3 8.5h122.2v-.1z" fill="url(#flights_emptyj)" transform="translate(108 93)"/></g></svg>