<svg viewBox="0 0 285 202" xmlns="http://www.w3.org/2000/svg" xmlns:xlink="http://www.w3.org/1999/xlink"><defs><path d="M50.2 75.91C32.88 55.57 25.8 27.24 3.03 11.6L.61 6.73C3.36 4.61 6.4 2 10.3 1.26c4.87-.91 11.05.5 15.79 1.2 7.16 1.07 13.9 1.45 21.23 1.81C61.8 5 76.64 4.85 91 6.13c9.77.86 19.66-.06 29.73-.61 11.86-.65 66.12-4.56 81.36 13.3-26.65 12.95-54.2 29.94-63.33 35.68-4.34 2.73-8.36 1.57-12.25.4-4.07-1.23-8-2.45-12.02.8-6.44 5.24-6.57 16.42-10.9 23.21-5.5 8.64-13.67 12.18-22.24 12.18-11.42 0-23.56-6.28-31.15-15.18" id="generic_errora"/><linearGradient x1="0%" y1="50%" y2="50%" id="generic_errorc"><stop stop-color="#FBD9D9" offset="0%"/><stop stop-color="#FBD9D9" offset="5.1%"/><stop stop-color="#FBD9D9" offset="69.39%"/><stop stop-color="#FBD9D9" offset="100%"/></linearGradient><path d="M.77 11.58A10.87 10.87 0 0 1 10.99.23 10.64 10.64 0 0 1 22.32 10.3a10.87 10.87 0 0 1-10.89 11.36A10.63 10.63 0 0 1 .77 11.58" id="generic_errord"/><radialGradient fx="50%" fy="50%" r="50.29%" gradientTransform="matrix(.99357 -.00436 .00434 .99999 .001 .002)" id="generic_errorf"><stop stop-color="#F6B2B3" offset="0%"/><stop stop-color="#F6B2B3" offset="10.2%"/><stop stop-color="#F6B2B3" offset="13.78%"/><stop stop-color="#F6B2B3" offset="53.98%"/><stop stop-color="#F6B2B3" offset="100%"/></radialGradient><path d="M21.86 76.11c48.44-8.27 23.07-24.07 23.07-24.07L.82 26.2 120.44.86l.83 76.85-99.4-1.6z" id="generic_errorg"/><linearGradient x1="0%" y1="50%" y2="50%" id="generic_errori"><stop stop-color="#BFD2E8" offset="0%"/><stop stop-color="#BFD2E8" offset="31.47%"/><stop stop-color="#BFD2E8" offset="72.77%"/><stop stop-color="#BFD2E8" offset="100%"/></linearGradient><path d="M3 65.61l-2.78-.16c23.88-3.27 58.22-6.96 43.04-23.47-10.2-11.1 30.54-31.35 44.38-38.64-1.8 10.3 52.34 47.14 66.04 47.41l-5.8 7.16c-16.76 7.5-54.01 9.35-86.9 9.36-26.46 0-50.1-1.2-57.98-1.66M90.08 1.07C93.77 0 92.1 1 87.64 3.34c.19-1.06.97-1.84 2.44-2.27" id="generic_errorj"/><linearGradient x1="16.62%" y1="30.95%" x2="87.48%" y2="125.18%" id="generic_errorl"><stop stop-color="#F6B2B3" offset="0%"/><stop stop-color="#F48F90" offset="92.89%"/><stop stop-color="#F48F90" offset="100%"/></linearGradient><path d="M33.07 41.89c-7.53-.47-13.87-16.95-20.59-22.02C8.6 16.93 5.08 12.04 1.62 7.8.39 6.29 1.09 3.19 2.65 3.27c17 .9 65.54.76 97.15-2.72 1.48-.16 2.3 2.66 1.24 4.31l-.36.57c-.49.77-1.22.92-1.85.47C95.32 3.4 92 7.46 88.5 11.52c-3.82 4.48-7.86 8.94-12.6 4.68-.65-.58-1.46-.41-1.99.43-1.84 2.93-3.35.57-5.19-1.78-1.47-1.9-3.14-3.78-5.35-2.94-4.31 1.63-6.79 6.88-10.36 10.43C48.32 27 38.9 41.9 33.26 41.9l-.19-.01" id="generic_errorm"/><linearGradient x1="0%" y1="50%" y2="50%" id="generic_erroro"><stop stop-color="#BFD2E8" offset="0%"/><stop stop-color="#BFD2E8" offset="1.02%"/><stop stop-color="#BFD2E8" offset="71.07%"/><stop stop-color="#BFD2E8" offset="100%"/></linearGradient><path d="M136.41 110.56c-12.47-.01-24.31-30.05-36.76-29.44-1.68.09-3.45.02-5.24-.04-2.06-.07-4.15-.14-6.16 0l-.46.7a4.7 4.7 0 0 1-1.22-.51c-.9.13-1.77.32-2.62.6l2.07-1c-4.74-3.97.1-17.66-.6-24.06-.79-7.26-10.43-6.71-19.88-6.17-3.53.2-7.04.4-10.05.2-8.86-.6-19.02-13.68-54.2-16.25C-5.16 26.53 74.94 15.53 70.54.16c7.94 4.18 16.41 8.18 24.97 10.65 8.72 2.5 17.1 1.55 24.84.6 16.18-2 29.47-4 36.83 25.75 2.56 10.35 15.26 9.8 25.64 9.25 4.93-.26 9.35-.52 11.9.39 2.95 1.05 7.38 1.8 9.8 3.96 3.11 2.75 1.06 3.02 2.4 5.62 2.77 5.35 7.12 5.23 11.89 8.97 6.54 5.13.58 11.33-5.5 10-7.05-1.52-24.34 12.23-36.7 15.06-18.8-16.98-24.1-5.61-28.78 5.76-2.96 7.2-5.67 14.4-11.41 14.4" id="generic_errorp"/><linearGradient x1="29.14%" y1="89.11%" x2="71.52%" y2="4.36%" id="generic_errorr"><stop stop-color="#BFD2E8" offset="0%"/><stop stop-color="#BFD2E8" offset="28.93%"/><stop stop-color="#BFD2E8" offset="59.29%"/><stop stop-color="#BFD2E8" offset="100%"/></linearGradient><path d="M4.44 109.67a5.44 5.44 0 0 1 1.17.9c-.06 0-.54-.38-1.17-.9m-3.19-2.1c-.14-.1-.08-.37.1-.38 66-3.18 110.9-10.37 97.86-16.8C86.2 82.63 16.82 73.8 8.86 55.05 6.7 49.97 21.5 28.38 96.32 1.13c28.38 15.92 43.2 12.45 57.95 8.97 15.35-3.61 30.62-7.23 60.99 11.01-29.24 4.27-115.31 27.98-136.74 38.95 0 0-13.88 3.18 18.13 14.57 13.52 4.81 49.66 22.61 10.92 29.24-15.13 2.59-57.16 3.82-105.27 3.33-.26 0-.37.4-.15.59.64.52 1.56 1.29 2.3 1.88-1.05-.68-2.5-1.59-3.2-2.1" id="generic_errors"/><linearGradient x1="31.8%" y1="124.69%" x2="62.03%" y2="-14.62%" id="generic_erroru"><stop stop-color="#9CBADC" offset="0%"/><stop stop-color="#5E8EC8" offset="26.09%"/><stop stop-color="#5E8EC8" offset="39.09%"/><stop stop-color="#5E8EC8" offset="43.66%"/><stop stop-color="#9CBADC" offset="69.54%"/><stop stop-color="#9CBADC" offset="81.97%"/><stop stop-color="#FFFFF9" offset="99.49%"/><stop stop-color="#FFFFF9" offset="100%"/></linearGradient><path id="generic_errorv" d="M0 364h364V0H0z"/><path id="generic_errorx" d="M.82 40.63h111.81V.7H.82z"/><path d="M112.63 1.8L.82 40.62c1.5-.39 51.84-23.62 109-39.94.99.35 1.92.72 2.81 1.1" id="generic_errorz"/><linearGradient x1="-1.58%" y1="73.02%" x2="101.35%" y2="25.93%" id="generic_errorB"><stop stop-color="#F6F8F9" offset="0%"/><stop stop-color="#F6F8F9" offset="34.57%"/><stop stop-color="#F6F8F9" offset="74.56%"/><stop stop-color="#F9D8D8" offset="100%"/></linearGradient><path d="M9.15 80.83c-.25-1.06-.1-1.99-.48-3-.32-.86-1.3-3.8-1.65-5.01-1.4-4.92.55-9.23.38-14.04-.22-6.43-4.22-4.9-5.88-9.81-1.06-3.11-1.6-11.54-.44-14.65.49-1.33 1.46-2 1.72-3.43.31-1.72-.28-3.76-.02-5.54.57-3.94 2.13-5.5 3.8-8.8 1.57-3.1 2.16-6.5 1.48-10.2-.2-1.09-.3-4.1-.17-5.1.5-.56 1.43-.44 2.29-.33.6.08 1.16.16 1.54.02.17 4-.44 7.36.33 11.19 1.68-.12 3.13.22 4.37 1.8 1.5 1.92.71 4.27 1.76 6.23 1.26 2.38 2.72.53 4.4-.09 1.8-.67 3.27-.33 5.07.03 1.01-2.58.02-12.54.13-15.56 1.13-.08 2.79.17 3.92.26-1.1 5.06.45 14.58.58 18.06 1.68.14 3.3.67 3.98 3.1.34 1.19-.04 2.56.39 3.63.34.85 1.45 1.05 1.92 1.98 1.8 3.52 1.12 9.43-1.1 12.1-1.48 1.8-2.54 1.76-3.07 4.62-.44 2.4.35 4.74.49 7.12.14 2.36.2 5.23-.88 7.05-1.33 2.22-2.16 1.72-2.42 5.21-.18 2.4 0 12.88-3.3 10.74-2.1-1.36-1.36-9.55-2.02-12.51-1.03-4.61-1.32-8.47-1.5-13.56-.07-2.02-.15-4.9-.64-6.76-.64-2.4-1.91-1.96-2.6-3.95-.3 5.28-.36 6.81-3.35 10.1-3.08 3.37-1.04 6-1.53 10.74-.47 4.56-3.35 4.57-3.36 9.5 0 1.7 2.07 12.45-.39 13.15-.24.07-.46.1-.67.1-1.75 0-2.55-2.21-3.08-4.39" id="generic_errorC"/><linearGradient x1="50%" y1="100%" x2="50%" y2="0%" id="generic_errorE"><stop stop-color="#435887" offset="0%"/><stop stop-color="#435887" offset="8.63%"/><stop stop-color="#4D6CA1" offset="77.36%"/><stop stop-color="#4D6CA1" offset="86.56%"/><stop stop-color="#4D6CA1" offset="87.21%"/><stop stop-color="#5E8EC8" offset="99.46%"/><stop stop-color="#5E8EC8" offset="100%"/></linearGradient><path d="M9.9 137.21c-.4-2.96-.01-6.1-1.5-8.78-1.3-2.32-3.24-3.62-3.9-6.4-1.25-5.19-.13-11.52-.64-16.85a157.95 157.95 0 0 1-.95-16.86c.06-5.7 3.56-10.21 2.86-16.19-.4-3.43-2.63-2.8-4.06-5.47C.67 64.72 1 60.92 1 58.64 1 57.41.72 55.8.98 54.6c.3-1.36 1.57-2.24 1.85-3.46.47-2.04-.89-5.1-.88-7.67 0-6.6.69-9.15 5.73-12.73 5.73-4.08 4.8-23.2 5.12-30 3.54-.77 5.44-.57 4.72 2.99-.1.48-.75 12.16.63 19.5.43 2.28.05 5.73 1.35 7.69 1.42 2.14 3.6 2.31 4.77 5.05 1.03 2.38.63 4.77 2.14 6.9 1.6 2.27 3.3 2.78 4.07 5.73 1.44 5.43-.7 11.23.07 16.79.39 2.78 2.15 4.36 2.88 7.08.64 2.41.02 5.25-.33 7.76-.37 2.66-.96 5.4-2.22 7.73-1.37 2.53-4.22 3.92-5.5 6.33-2.27 4.27.17 11.76-.54 16.62-.4 2.74-2.44 4.72-2.95 7.35-.5 2.59.51 5.22.4 7.83-.2 4.58-3.12 6.78-2.88 11.8.1 2.26.77 4.8.1 7.1-.7 2.39-1.87 3.18-1.71 6-.41.09-.52.24-.92.39-.7.25-1.33.37-1.88.37-4.53 0-4.22-8-5.1-14.54" id="generic_errorF"/><linearGradient x1="50%" y1="100%" x2="50%" y2="0%" id="generic_errorH"><stop stop-color="#425685" offset="0%"/><stop stop-color="#425685" offset="41.79%"/><stop stop-color="#425685" offset="88.31%"/><stop stop-color="#425685" offset="100%"/></linearGradient><path d="M9.9 77.76c-.4-2.97-.01-6.1-1.5-8.78-1.3-2.32-3.24-3.62-3.9-6.4-1.25-5.2-.13-11.53-.64-16.85a157.95 157.95 0 0 1-.95-16.87c.06-5.7 3.56-10.2 2.86-16.18-.4-3.43-2.63-2.8-4.06-5.47C.87 5.64.92 2.86.98.65c1.51-.12 3.1.47 4.74 2 3.11 2.9 1.2 6.27 1.02 9.8-.1 1.72.22 3.53.95 4.95.86 1.66 2.29 2.2 1.88 4.38-.22 1.2-1.1 1.4-1.39 2.33-.23.76-.03 2-.03 2.8 0 2.3.03 4.56.2 6.88.47 6.85 1.8 13.24 1.98 18.53.06 1.8.19 3.96-.16 5.62-.38 1.78-1.3 2.62-.56 4.45.74 1.82 2.2 2.56 2.55 4.67.33 2.02.04 4.42.04 6.48 0 2.04-.06 4.12.2 6.12.21 1.6 1.24 3.19 1.38 4.72.17 1.9-.94 3.29.4 5.1 1.12 1.5 2.92.7 3.49 1.15h.13a8.1 8.1 0 0 0 0 .9c-.4.1-.5.25-.9.4-.71.25-1.34.37-1.89.37-4.53 0-4.22-8-5.1-14.54" id="generic_errorI"/><linearGradient x1="50%" y1="100%" x2="50%" y2="0%" id="generic_errorK"><stop stop-color="#5E8EC8" offset="0%"/><stop stop-color="#5E8EC8" offset="9.14%"/><stop stop-color="#5E8EC8" offset="98.39%"/><stop stop-color="#5E8EC8" offset="100%"/></linearGradient><path d="M9.9 77.76c-.4-2.97-.01-6.1-1.5-8.78-1.3-2.32-3.24-3.62-3.9-6.4-1.25-5.2-.13-11.53-.64-16.85a157.95 157.95 0 0 1-.95-16.87c.06-5.7 3.56-10.2 2.86-16.18-.4-3.43-2.63-2.8-4.06-5.47C.87 5.64.92 2.86.98.65c1.51-.12 3.1.47 4.74 2 3.11 2.9 1.2 6.27 1.02 9.8-.1 1.72.22 3.53.95 4.95.86 1.66 2.29 2.2 1.88 4.38-.22 1.2-1.1 1.4-1.39 2.33-.23.76-.03 2-.03 2.8 0 2.3.03 4.56.2 6.88.47 6.85 1.8 13.24 1.98 18.53.06 1.8.19 3.96-.16 5.62-.38 1.78-1.3 2.62-.56 4.45.74 1.82 2.2 2.56 2.55 4.67.33 2.02.04 4.42.04 6.48 0 2.04-.06 4.12.2 6.12.21 1.6 1.24 3.19 1.38 4.72.17 1.9-.94 3.29.4 5.1 1.12 1.5 2.92.7 3.49 1.15h.13a8.1 8.1 0 0 0 0 .9c-.4.1-.5.25-.9.4-.71.25-1.34.37-1.89.37-4.53 0-4.22-8-5.1-14.54" id="generic_errorL"/><path d="M.68.8v1.06A8.73 8.73 0 0 1 .68.8" id="generic_errorN"/><linearGradient x1="49.31%" y1="49.97%" x2="50.63%" y2="49.97%" id="generic_errorP"><stop stop-color="#5E8EC8" offset="0%"/><stop stop-color="#5E8EC8" offset="9.14%"/><stop stop-color="#5E8EC8" offset="98.39%"/><stop stop-color="#5E8EC8" offset="100%"/></linearGradient><path d="M.68.67l.02.38-.02.04V.67z" id="generic_errorQ"/><linearGradient x1="48.88%" y1="49.95%" x2="51.18%" y2="49.95%" id="generic_errorS"><stop stop-color="#5E8EC8" offset="0%"/><stop stop-color="#5E8EC8" offset="9.14%"/><stop stop-color="#5E8EC8" offset="98.39%"/><stop stop-color="#5E8EC8" offset="100%"/></linearGradient><path d="M2.52 26.4l-.02-.14.08.15c.02.25.02.34.01.34l-.07-.34m-.02-.15C.77 23.06.38 13.81 3.85 12.1c.67-.32 1.53-.2 2.4-.06.88.13 1.76.26 2.45-.09 1.27-.64 1.68-2.15 1.95-3.43.54-2.64 1.25-5.41 1.2-8.28.1 1.96-.32 4.06-.58 5.97-.37 2.67-.96 5.4-2.22 7.74-1.37 2.53-4.22 3.92-5.5 6.33-.89 1.67-1.05 3.83-.97 6.13-.11-.5-.11-.37-.08-.15" id="generic_errorT"/><linearGradient x1="0%" y1="50%" x2="100.01%" y2="50%" id="generic_errorV"><stop stop-color="#5E8EC8" offset="0%"/><stop stop-color="#5E8EC8" offset="9.14%"/><stop stop-color="#5E8EC8" offset="98.39%"/><stop stop-color="#5E8EC8" offset="100%"/></linearGradient><path d="M1.1 11.4c.54-1.8 1.92-2.8 2.4-4.65.47-1.74 1.3-3.2 1.75-4.87a8 8 0 0 0 .15-.69c.17 1.94.27 3.8.03 5.37C5.03 9.3 3 11.28 2.5 13.91a8.5 8.5 0 0 0-.14 1.62c-1.2-.5-1.92-1.86-1.24-4.13" id="generic_errorW"/><linearGradient x1="0%" y1="50%" x2="99.99%" y2="50%" id="generic_errorY"><stop stop-color="#5E8EC8" offset="0%"/><stop stop-color="#5E8EC8" offset="9.14%"/><stop stop-color="#5E8EC8" offset="98.39%"/><stop stop-color="#5E8EC8" offset="100%"/></linearGradient><path id="generic_errorZ" d="M0 364h364V0H0z"/><path id="generic_errorab" d="M.42 24.21h95.61V.25H.43z"/><path d="M96.03 12.11c-8.06 1.3-16.27 1.21-17.78 1.52-2.49.5-6.82-3.18-8.87-2.64-2.42.63-1.52.66-2.11 1.09-.88.64 2.51 3.4-2.47 4.11-1.3.19-6.65 1.27-7.78 1.44-1.42.22-6.15.74-7.6.98-2.98.5-4.06-.17-5.56-.2-3.9.82-15.18 5.08-19.44 5.8-1.01-.01-3.08-.2-3.92-.26 2.92-.65 16.64-5.08 18.4-5.67-1.82.03-6.48-1.37-7.28-1.57-.74-.2-.08-.63-3.48-.16-2.8.39-4.51.92-7.63 1.29-2.6.3-4.12.33-5.35.25-4.34.78-6.24 1.7-10.7 2.64-.4-.11-4.6.07-3.97-.25.27-.14 3.7-.82 5.66-1.27 3.65-.84 7.16-1.53 8.98-2.24 1.94-.77 2.24-1.15 5.71-2.02 1.57-.4 4.08-.81 5.55-1.2 1.22-.31 1.1-.49 2.03-.79 2.17-.7 11.02-2.5 14.98-3.14 6.26-1 11.9-1.45 18.5-2.83C65.42 6.26 81.26 2.2 94.38.25a126.6 126.6 0 0 1 1.65 11.86" id="generic_errorad"/><linearGradient x1="22.79%" y1="175.65%" x2="82.54%" y2="-62.79%" id="generic_erroraf"><stop stop-color="#425685" offset="0%"/><stop stop-color="#425685" offset="41.79%"/><stop stop-color="#425685" offset="82.23%"/><stop stop-color="#425685" offset="100%"/></linearGradient></defs><g fill="none" fill-rule="evenodd"><g transform="matrix(1 0 0 -1 37.48 103.18)"><mask id="generic_errorb" fill="#fff"><use xlink:href="#generic_errora"/></mask><g mask="url(#generic_errorb)"><path d="M50.2 75.91C32.88 55.57 25.8 27.24 3.03 11.6L.61 6.73C3.36 4.61 6.4 2 10.3 1.26c4.87-.91 11.05.5 15.79 1.2 7.16 1.07 13.9 1.45 21.23 1.81C61.8 5 76.64 4.85 91 6.13c9.77.86 19.66-.06 29.73-.61 11.86-.65 66.12-4.56 81.36 13.3-26.65 12.95-54.2 29.94-63.33 35.68-4.34 2.73-8.36 1.57-12.25.4-4.07-1.23-8-2.45-12.02.8-6.44 5.24-6.57 16.42-10.9 23.21-5.5 8.64-13.67 12.18-22.24 12.18-11.42 0-23.56-6.28-31.15-15.18" fill="url(#generic_errorc)"/></g></g><g transform="matrix(1 0 0 -1 115.13 61.92)"><mask id="generic_errore" fill="#fff"><use xlink:href="#generic_errord"/></mask><g mask="url(#generic_errore)" fill="url(#generic_errorf)"><path d="M.77 11.58A10.87 10.87 0 0 1 10.99.23 10.64 10.64 0 0 1 22.32 10.3a10.87 10.87 0 0 1-10.89 11.36A10.63 10.63 0 0 1 .77 11.58"/></g></g><g transform="matrix(1 0 0 -1 99.36 169.91)"><mask id="generic_errorh" fill="#fff"><use xlink:href="#generic_errorg"/></mask><g mask="url(#generic_errorh)"><path d="M21.86 76.11c48.44-8.27 23.07-24.07 23.07-24.07L.82 26.2 120.44.86l.83 76.85-99.4-1.6z" fill="url(#generic_errori)"/></g></g><g transform="matrix(1 0 0 -1 -.14 162.63)"><mask id="generic_errork" fill="#fff"><use xlink:href="#generic_errorj"/></mask><g mask="url(#generic_errork)"><path d="M3 65.61l-2.78-.16c23.88-3.27 58.22-6.96 43.04-23.47-10.2-11.1 30.54-31.35 44.38-38.64-1.8 10.3 52.34 47.14 66.04 47.41l-5.8 7.16c-16.76 7.5-54.01 9.35-86.9 9.36-26.46 0-50.1-1.2-57.98-1.66M90.08 1.07C93.77 0 92.1 1 87.64 3.34c.19-1.06.97-1.84 2.44-2.27" fill="url(#generic_errorl)" fill-rule="nonzero"/></g></g><g transform="matrix(1 0 0 -1 38.69 99.54)"><mask id="generic_errorn" fill="#fff"><use xlink:href="#generic_errorm"/></mask><g mask="url(#generic_errorn)"><path d="M33.07 41.89c-7.53-.47-13.87-16.95-20.59-22.02C8.6 16.93 5.08 12.04 1.62 7.8.39 6.29 1.09 3.19 2.65 3.27c17 .9 65.54.76 97.15-2.72 1.48-.16 2.3 2.66 1.24 4.31l-.36.57c-.49.77-1.22.92-1.85.47C95.32 3.4 92 7.46 88.5 11.52c-3.82 4.48-7.86 8.94-12.6 4.68-.65-.58-1.46-.41-1.99.43-1.84 2.93-3.35.57-5.19-1.78-1.47-1.9-3.14-3.78-5.35-2.94-4.31 1.63-6.79 6.88-10.36 10.43C48.32 27 38.9 41.9 33.26 41.9l-.19-.01" fill="url(#generic_erroro)"/></g></g><g transform="matrix(1 0 0 -1 62.96 174.76)"><mask id="generic_errorq" fill="#fff"><use xlink:href="#generic_errorp"/></mask><g mask="url(#generic_errorq)"><path d="M136.41 110.56c-12.47-.01-24.31-30.05-36.76-29.44-1.68.09-3.45.02-5.24-.04-2.06-.07-4.15-.14-6.16 0l-.46.7a4.7 4.7 0 0 1-1.22-.51c-.9.13-1.77.32-2.62.6l2.07-1c-4.74-3.97.1-17.66-.6-24.06-.79-7.26-10.43-6.71-19.88-6.17-3.53.2-7.04.4-10.05.2-8.86-.6-19.02-13.68-54.2-16.25C-5.16 26.53 74.94 15.53 70.54.16c7.94 4.18 16.41 8.18 24.97 10.65 8.72 2.5 17.1 1.55 24.84.6 16.18-2 29.47-4 36.83 25.75 2.56 10.35 15.26 9.8 25.64 9.25 4.93-.26 9.35-.52 11.9.39 2.95 1.05 7.38 1.8 9.8 3.96 3.11 2.75 1.06 3.02 2.4 5.62 2.77 5.35 7.12 5.23 11.89 8.97 6.54 5.13.58 11.33-5.5 10-7.05-1.52-24.34 12.23-36.7 15.06-18.8-16.98-24.1-5.61-28.78 5.76-2.96 7.2-5.67 14.4-11.41 14.4" fill="url(#generic_errorr)"/></g></g><g transform="matrix(1 0 0 -1 47.18 202.67)"><mask id="generic_errort" fill="#fff"><use xlink:href="#generic_errors"/></mask><g mask="url(#generic_errort)"><path d="M4.44 109.67a5.44 5.44 0 0 1 1.17.9c-.06 0-.54-.38-1.17-.9m-3.19-2.1c-.14-.1-.08-.37.1-.38 66-3.18 110.9-10.37 97.86-16.8C86.2 82.63 16.82 73.8 8.86 55.05 6.7 49.97 21.5 28.38 96.32 1.13c28.38 15.92 43.2 12.45 57.95 8.97 15.35-3.61 30.62-7.23 60.99 11.01-29.24 4.27-115.31 27.98-136.74 38.95 0 0-13.88 3.18 18.13 14.57 13.52 4.81 49.66 22.61 10.92 29.24-15.13 2.59-57.16 3.82-105.27 3.33-.26 0-.37.4-.15.59.64.52 1.56 1.29 2.3 1.88-1.05-.68-2.5-1.59-3.2-2.1" fill="url(#generic_erroru)" fill-rule="nonzero"/></g></g><g transform="matrix(1 0 0 -1 -37.75 282.75)"><mask id="generic_errorw" fill="#fff"><use xlink:href="#generic_errorv"/></mask><g mask="url(#generic_errorw)"><g transform="translate(137.1 91)"><mask id="generic_errory" fill="#fff"><use xlink:href="#generic_errorx"/></mask><g opacity=".5" mask="url(#generic_errory)"><mask id="generic_errorA" fill="#fff"><use xlink:href="#generic_errorz"/></mask><g mask="url(#generic_errorA)"><path d="M112.63 1.8L.82 40.62c1.5-.39 51.84-23.62 109-39.94.99.35 1.92.72 2.81 1.1" fill="url(#generic_errorB)"/></g></g></g></g></g><g transform="matrix(1 0 0 -1 141.82 143.22)"><mask id="generic_errorD" fill="#fff"><use xlink:href="#generic_errorC"/></mask><g mask="url(#generic_errorD)"><path d="M9.15 80.83c-.25-1.06-.1-1.99-.48-3-.32-.86-1.3-3.8-1.65-5.01-1.4-4.92.55-9.23.38-14.04-.22-6.43-4.22-4.9-5.88-9.81-1.06-3.11-1.6-11.54-.44-14.65.49-1.33 1.46-2 1.72-3.43.31-1.72-.28-3.76-.02-5.54.57-3.94 2.13-5.5 3.8-8.8 1.57-3.1 2.16-6.5 1.48-10.2-.2-1.09-.3-4.1-.17-5.1.5-.56 1.43-.44 2.29-.33.6.08 1.16.16 1.54.02.17 4-.44 7.36.33 11.19 1.68-.12 3.13.22 4.37 1.8 1.5 1.92.71 4.27 1.76 6.23 1.26 2.38 2.72.53 4.4-.09 1.8-.67 3.27-.33 5.07.03 1.01-2.58.02-12.54.13-15.56 1.13-.08 2.79.17 3.92.26-1.1 5.06.45 14.58.58 18.06 1.68.14 3.3.67 3.98 3.1.34 1.19-.04 2.56.39 3.63.34.85 1.45 1.05 1.92 1.98 1.8 3.52 1.12 9.43-1.1 12.1-1.48 1.8-2.54 1.76-3.07 4.62-.44 2.4.35 4.74.49 7.12.14 2.36.2 5.23-.88 7.05-1.33 2.22-2.16 1.72-2.42 5.21-.18 2.4 0 12.88-3.3 10.74-2.1-1.36-1.36-9.55-2.02-12.51-1.03-4.61-1.32-8.47-1.5-13.56-.07-2.02-.15-4.9-.64-6.76-.64-2.4-1.91-1.96-2.6-3.95-.3 5.28-.36 6.81-3.35 10.1-3.08 3.37-1.04 6-1.53 10.74-.47 4.56-3.35 4.57-3.36 9.5 0 1.7 2.07 12.45-.39 13.15-.24.07-.46.1-.67.1-1.75 0-2.55-2.21-3.08-4.39" fill="url(#generic_errorE)"/></g></g><g transform="matrix(1 0 0 -1 187.93 151.71)"><mask id="generic_errorG" fill="#fff"><use xlink:href="#generic_errorF"/></mask><g mask="url(#generic_errorG)"><path d="M9.9 137.21c-.4-2.96-.01-6.1-1.5-8.78-1.3-2.32-3.24-3.62-3.9-6.4-1.25-5.19-.13-11.52-.64-16.85a157.95 157.95 0 0 1-.95-16.86c.06-5.7 3.56-10.21 2.86-16.19-.4-3.43-2.63-2.8-4.06-5.47C.67 64.72 1 60.92 1 58.64 1 57.41.72 55.8.98 54.6c.3-1.36 1.57-2.24 1.85-3.46.47-2.04-.89-5.1-.88-7.67 0-6.6.69-9.15 5.73-12.73 5.73-4.08 4.8-23.2 5.12-30 3.54-.77 5.44-.57 4.72 2.99-.1.48-.75 12.16.63 19.5.43 2.28.05 5.73 1.35 7.69 1.42 2.14 3.6 2.31 4.77 5.05 1.03 2.38.63 4.77 2.14 6.9 1.6 2.27 3.3 2.78 4.07 5.73 1.44 5.43-.7 11.23.07 16.79.39 2.78 2.15 4.36 2.88 7.08.64 2.41.02 5.25-.33 7.76-.37 2.66-.96 5.4-2.22 7.73-1.37 2.53-4.22 3.92-5.5 6.33-2.27 4.27.17 11.76-.54 16.62-.4 2.74-2.44 4.72-2.95 7.35-.5 2.59.51 5.22.4 7.83-.2 4.58-3.12 6.78-2.88 11.8.1 2.26.77 4.8.1 7.1-.7 2.39-1.87 3.18-1.71 6-.41.09-.52.24-.92.39-.7.25-1.33.37-1.88.37-4.53 0-4.22-8-5.1-14.54" fill="url(#generic_errorH)"/></g></g><g transform="matrix(1 0 0 -1 187.93 92.26)"><mask id="generic_errorJ" fill="#fff"><use xlink:href="#generic_errorI"/></mask><g mask="url(#generic_errorJ)"><path d="M9.9 77.76c-.4-2.97-.01-6.1-1.5-8.78-1.3-2.32-3.24-3.62-3.9-6.4-1.25-5.2-.13-11.53-.64-16.85a157.95 157.95 0 0 1-.95-16.87c.06-5.7 3.56-10.2 2.86-16.18-.4-3.43-2.63-2.8-4.06-5.47C.87 5.64.92 2.86.98.65c1.51-.12 3.1.47 4.74 2 3.11 2.9 1.2 6.27 1.02 9.8-.1 1.72.22 3.53.95 4.95.86 1.66 2.29 2.2 1.88 4.38-.22 1.2-1.1 1.4-1.39 2.33-.23.76-.03 2-.03 2.8 0 2.3.03 4.56.2 6.88.47 6.85 1.8 13.24 1.98 18.53.06 1.8.19 3.96-.16 5.62-.38 1.78-1.3 2.62-.56 4.45.74 1.82 2.2 2.56 2.55 4.67.33 2.02.04 4.42.04 6.48 0 2.04-.06 4.12.2 6.12.21 1.6 1.24 3.19 1.38 4.72.17 1.9-.94 3.29.4 5.1 1.12 1.5 2.92.7 3.49 1.15h.13a8.1 8.1 0 0 0 0 .9c-.4.1-.5.25-.9.4-.71.25-1.34.37-1.89.37-4.53 0-4.22-8-5.1-14.54" fill="url(#generic_errorK)"/></g></g><g transform="matrix(1 0 0 -1 187.93 92.26)"><mask id="generic_errorM" fill="#fff"><use xlink:href="#generic_errorL"/></mask><g mask="url(#generic_errorM)"><path d="M9.9 77.76c-.4-2.97-.01-6.1-1.5-8.78-1.3-2.32-3.24-3.62-3.9-6.4-1.25-5.2-.13-11.53-.64-16.85a157.95 157.95 0 0 1-.95-16.87c.06-5.7 3.56-10.2 2.86-16.18-.4-3.43-2.63-2.8-4.06-5.47C.87 5.64.92 2.86.98.65c1.51-.12 3.1.47 4.74 2 3.11 2.9 1.2 6.27 1.02 9.8-.1 1.72.22 3.53.95 4.95.86 1.66 2.29 2.2 1.88 4.38-.22 1.2-1.1 1.4-1.39 2.33-.23.76-.03 2-.03 2.8 0 2.3.03 4.56.2 6.88.47 6.85 1.8 13.24 1.98 18.53.06 1.8.19 3.96-.16 5.62-.38 1.78-1.3 2.62-.56 4.45.74 1.82 2.2 2.56 2.55 4.67.33 2.02.04 4.42.04 6.48 0 2.04-.06 4.12.2 6.12.21 1.6 1.24 3.19 1.38 4.72.17 1.9-.94 3.29.4 5.1 1.12 1.5 2.92.7 3.49 1.15h.13a8.1 8.1 0 0 0 0 .9c-.4.1-.5.25-.9.4-.71.25-1.34.37-1.89.37-4.53 0-4.22-8-5.1-14.54" fill="url(#generic_errorK)"/></g></g><g transform="matrix(1 0 0 -1 210.98 57.07)"><mask id="generic_errorO" fill="#fff"><use xlink:href="#generic_errorN"/></mask><g mask="url(#generic_errorO)"><path d="M.68.8v1.06A8.73 8.73 0 0 1 .68.8" fill="url(#generic_errorP)"/></g></g><g transform="matrix(1 0 0 -1 210.98 55.86)"><mask id="generic_errorR" fill="#fff"><use xlink:href="#generic_errorQ"/></mask><g mask="url(#generic_errorR)"><path d="M.68.67l.02.38-.02.04V.67z" fill="url(#generic_errorS)"/></g></g><g transform="matrix(1 0 0 -1 209.77 77.7)"><mask id="generic_errorU" fill="#fff"><use xlink:href="#generic_errorT"/></mask><g mask="url(#generic_errorU)"><path d="M2.52 26.4l-.02-.14.08.15c.02.25.02.34.01.34l-.07-.34m-.02-.15C.77 23.06.38 13.81 3.85 12.1c.67-.32 1.53-.2 2.4-.06.88.13 1.76.26 2.45-.09 1.27-.64 1.68-2.15 1.95-3.43.54-2.64 1.25-5.41 1.2-8.28.1 1.96-.32 4.06-.58 5.97-.37 2.67-.96 5.4-2.22 7.74-1.37 2.53-4.22 3.92-5.5 6.33-.89 1.67-1.05 3.83-.97 6.13-.11-.5-.11-.37-.08-.15" fill="url(#generic_errorV)" fill-rule="nonzero"/></g></g><g transform="matrix(1 0 0 -1 207.34 47.36)"><mask id="generic_errorX" fill="#fff"><use xlink:href="#generic_errorW"/></mask><g mask="url(#generic_errorX)"><path d="M1.1 11.4c.54-1.8 1.92-2.8 2.4-4.65.47-1.74 1.3-3.2 1.75-4.87a8 8 0 0 0 .15-.69c.17 1.94.27 3.8.03 5.37C5.03 9.3 3 11.28 2.5 13.91a8.5 8.5 0 0 0-.14 1.62c-1.2-.5-1.92-1.86-1.24-4.13" fill="url(#generic_errorY)"/></g></g><g transform="matrix(1 0 0 -1 -37.75 282.75)"><mask id="generic_erroraa" fill="#fff"><use xlink:href="#generic_errorZ"/></mask><g mask="url(#generic_erroraa)"><g transform="translate(186.85 120.12)"><mask id="generic_errorac" fill="#fff"><use xlink:href="#generic_errorab"/></mask><g opacity=".58" mask="url(#generic_errorac)"><mask id="generic_errorae" fill="#fff"><use xlink:href="#generic_errorad"/></mask><g mask="url(#generic_errorae)"><path d="M96.03 12.11c-8.06 1.3-16.27 1.21-17.78 1.52-2.49.5-6.82-3.18-8.87-2.64-2.42.63-1.52.66-2.11 1.09-.88.64 2.51 3.4-2.47 4.11-1.3.19-6.65 1.27-7.78 1.44-1.42.22-6.15.74-7.6.98-2.98.5-4.06-.17-5.56-.2-3.9.82-15.18 5.08-19.44 5.8-1.01-.01-3.08-.2-3.92-.26 2.92-.65 16.64-5.08 18.4-5.67-1.82.03-6.48-1.37-7.28-1.57-.74-.2-.08-.63-3.48-.16-2.8.39-4.51.92-7.63 1.29-2.6.3-4.12.33-5.35.25-4.34.78-6.24 1.7-10.7 2.64-.4-.11-4.6.07-3.97-.25.27-.14 3.7-.82 5.66-1.27 3.65-.84 7.16-1.53 8.98-2.24 1.94-.77 2.24-1.15 5.71-2.02 1.57-.4 4.08-.81 5.55-1.2 1.22-.31 1.1-.49 2.03-.79 2.17-.7 11.02-2.5 14.98-3.14 6.26-1 11.9-1.45 18.5-2.83C65.42 6.26 81.26 2.2 94.38.25a126.6 126.6 0 0 1 1.65 11.86" fill="url(#generic_erroraf)"/></g></g></g></g></g></g></svg>