<svg xmlns="http://www.w3.org/2000/svg" xmlns:xlink="http://www.w3.org/1999/xlink" viewBox="0 0 93 71"><defs><path id="gift-boxa" d="M0 0h99v72H0z"/><path id="gift-boxc" d="M0 0h4v4H0z"/><path id="gift-boxe" d="M0 0h21.5v18.2H0z"/><path id="gift-boxg" d="M0 0h10v22H0z"/></defs><g fill="none" fill-rule="evenodd" transform="translate(-5 -1)"><mask id="gift-boxb" fill="#fff"><use xlink:href="#gift-boxa"/></mask><g mask="url(#gift-boxb)"><path fill="#0C4364" d="M33.3 56a2 2 0 1 0-1.7-3.6 2 2 0 0 0 1.7 3.6"/><path fill="#F7BF39" d="M26.6 51.5a2 2 0 1 0-1.7-3.6 2 2 0 0 0 1.7 3.6m-13.4 2.1a2 2 0 1 0-1.7-3.6 2 2 0 0 0 1.7 3.6m22.4-4.3a2 2 0 1 0-1.7-3.6 2 2 0 0 0 1.7 3.6"/><path fill="#0C4364" d="M46.4 48.5a2 2 0 1 0-1.8-3.6 2 2 0 0 0 1.8 3.6"/><path fill="#F7BF39" d="M42.3 53.9a2 2 0 1 0-1.8-3.6 2 2 0 0 0 1.8 3.6m1-16.1a2 2 0 1 0-1.7-3.6 2 2 0 0 0 1.7 3.6"/><path fill="#0C4364" d="M36.2 36.8a2 2 0 1 0-1.8-3.6 2 2 0 0 0 1.8 3.6M26.8 38a2 2 0 1 0-1.8-3.5 2 2 0 0 0 1.8 3.6"/><path fill="#F7BF39" d="M21.5 31.7a2 2 0 1 0-1.8-3.6 2 2 0 0 0 1.8 3.6m8.1-8.4a2 2 0 1 0-1.7-3.6 2 2 0 0 0 1.7 3.6M40 15a2 2 0 1 0-1.8-3.7A2 2 0 0 0 40 15M8.6 19A2 2 0 1 0 7 15.6 2 2 0 0 0 8.6 19"/><g transform="scale(-1 1) rotate(26 -17.8 -50.6)"><mask id="gift-boxd" fill="#fff"><use xlink:href="#gift-boxc"/></mask><path fill="#0C4364" d="M2 4a2 2 0 1 1 0-4 2 2 0 0 1 0 4" mask="url(#gift-boxd)"/></g><path fill="#80BCE1" d="M27 71.2h45V36.9H27z"/><path fill="#265787" d="M72 71.2h17.5V36.9H72.1z"/><path fill="#398CC6" d="M45 71.2h3.7V36.9H45z"/><path fill="#0C4364" d="M79.8 71.2H83V36.9h-3.2zm-5.1-45.8s9.7 1.3 14.5-1.9c2.9-2 2.3-4.8 2.3-4.8l-4.9-5.9s1.8 5-.6 6.6c-2.4 1.5-16.4 4.4-16.4 4.4l5.1 1.6z"/><path fill="#7266AD" d="M86.3 40.5l.2.1h-.2"/><path fill="#8AC3E3" d="M76.3 40.2L31 29.2l3.4-14 45.3 11z"/><g transform="rotate(1 -1462.5 4399.8)"><mask id="gift-boxf" fill="#fff"><use xlink:href="#gift-boxe"/></mask><path fill="#265787" d="M18.4 18.2L0 14 3.2 0l18.3 4.2z" mask="url(#gift-boxf)"/></g><path fill="#398CC6" d="M65.2 22.7s-1.7-.1-2.6 1.8c-1 2-2.6 7.9-2.6 7.9l-1-1.7-2 1s1.1-5.3 2.4-7.7c1.2-2.3 2.5-2 2.5-2l3.3.7z"/><g transform="rotate(1 -30 3584.4)"><mask id="gift-boxh" fill="#fff"><use xlink:href="#gift-boxg"/></mask><path fill="#0C4364" d="M3 16.1S-1 8.1.2 3.6C1.1.6 3.6 0 3.6 0L10 2.5S5.3 2.5 4.7 5C4.2 7.6 7 22 7 22l-4-6z" mask="url(#gift-boxh)"/></g><path fill="#265787" d="M75.4 12l-4-2.3c-.7 3.8-3.5 11.5-3.5 11.5l1.6 2.6s4.6-7.2 5.9-11.9M75.2 7a8.6 8.6 0 0 0-2.6-3.3L66 1.2l1.7 1.1c.4.3 1.9 1.7 2.8 3.5 1.6 0 3 .5 4.6 1.2"/><path fill="#265787" d="M75.7 9.8c0-1-.2-2-.5-2.8a12 12 0 0 0-4.6-1.2c.5.8.8 1.7.8 2.6v1.3l4 2.2a8 8 0 0 0 .3-2.1"/><path fill="#0C4364" d="M61.6 21.8s-9-3.4-11-8c-1.6-3 0-5.1 0-5.1l6.9-2.9s-3.8 3.5-2.4 6c1.4 2.3 13.7 11.8 13.7 11.8l-7.2-1.8z"/><path fill="#265787" d="M65.6 10.2l-4.8 1.3A94.6 94.6 0 0 1 66.5 23l3.1.8s-1.6-9-4-13.6M62 6.5c-2.4-1-4.5-.7-4.5-.7l-6.8 2.9 2.1-.4c.5 0 2.7-.1 4.7.6 1.2-1.1 2.7-1.8 4.4-2.4"/><path fill="#265787" d="M64.3 8.2A7.8 7.8 0 0 0 62 6.5c-1.7.6-3.2 1.3-4.4 2.4.9.3 1.8.8 2.5 1.5l.8 1 4.8-1.2c-.4-.8-.8-1.5-1.3-2M78 15.5c-4.7 3-9.9 8-9.9 8l2.6.6s4.6-3 8.8-5.3c-.6-.8-1.1-2-1.5-3.3"/><path fill="#265787" d="M82.2 13.2a19 19 0 0 0-4.3 2.3c.4 1.3.9 2.5 1.5 3.3 1.8-1 3.5-1.7 4.8-2.2 0-1.1-.2-2.4-.6-3.8l-1.4.4"/><path fill="#265787" d="M87.3 13.5s-.2-1.5-3.7-.7c.4 1.4.6 2.7.6 3.8l1.2-.3c3.5-.6 5.9 2 6.2 2.3l-4.3-5zm-21.1 9s-3.4-5-6.8-1.6A24.7 24.7 0 0 0 54.6 31l1.7-.8 1.3 1.6s3.3-9.4 4.6-9.9c2.6-1 4.6 1 4.6 1l-.6-.5zm1.8.5s5.4-3 6.8 1.6c1.4 4.6-.4 11.3-.4 11.3l-1.1-1.6-2 .8s1.4-9.7.5-10.8c-2-2-4.4-1-4.4-1l.6-.4z"/><path fill="#398CC6" d="M53.7 34.6l-3.7-.9 3.4-13.9 3.7 1z"/><path fill="#0C4364" d="M87 42.8l-3-.8 3.3-13.9 3 .8z"/><path fill="#265787" d="M76.4 40L31 29l-.4 1.4 45.5 11.1z"/><path fill="#0C4364" d="M94.7 44.5L76.4 40l-.3 1.5L94.3 46z"/></g></g></svg>