<svg xmlns="http://www.w3.org/2000/svg" viewBox="0 0 257.7 357.5"><g fill="none"><path fill="#ffd580" d="M100.2 183.2a20.8 20.8 0 0 1 1.8-2.2 16.3 16.3 0 0 0 4.6 3.1c.9.4 2.5.5 3.1 1.2v.2l-.8 2.3a6.8 6.8 0 0 0-.8 2.6c0 1 .4 2.1.6 3.2l.5 3.3.5 4.1c.2 1.3.7 2-.3 2.8-1.6 1.2-3.8 1.5-5.7 2.4a12.7 12.7 0 0 1-3.6 1.4c-2.1.3-2.5-2-3-3.5-1.1 0-2.5 0-3.4-.8a3.3 3.3 0 0 1 0-4.9c1.4-1.3 5.9-2.2 3.2-4.7-3.7-3.4.8-7.8 3.3-10.5z"/><path fill="#8ac4e5" d="M97.8 173.7a37.1 37.1 0 0 1 5-11.1q5.3-8.8 10.8-17.5c.6-1 2-4.4 3.1-4.9s2 .8 2.8 1.5a29 29 0 0 0 7.6 4.1 23.2 23.2 0 0 0 6.6 1.6c1.9.1 3.3-.4 2.3 2.4s-3.9 6.1-5.5 8.3c-3.2 4.2-6.2 8.4-9.2 12.6a45.9 45.9 0 0 0-4.9 9.7 24.5 24.5 0 0 1-1.4 3.8 1.8 1.8 0 0 1-1.4 1c-.8 0-1-.2-1.6.2a14.4 14.4 0 0 0-2.5 2.8 39.8 39.8 0 0 0-7.1-2.2c-1-.3-3.5-.7-4-1.5-.3-.3-.1-1.3-.1-1.7a26.4 26.4 0 0 1 .2-3.2c0-.1-1.4-1.4-1.4-2a18.2 18.2 0 0 1 .7-3.9z"/><path fill="#0f4263" d="M112 185.4a3.5 3.5 0 0 0 .6-.2c-.2-.3-.6-.3-.8-.4l-.8-.4c-1.7-.8-3.3-1.6-5-2.2l-3.9-1.5-1.9-.6a5.8 5.8 0 0 0-1.7-.5 3.4 3.4 0 0 0 0 .7 17.4 17.4 0 0 0-.3 2.5v2.2l1.5.3 1 .2 1.7.4a39.8 39.8 0 0 1 7 2.3l1.5-1.8a6.9 6.9 0 0 1 .8-.8 1.6 1.6 0 0 1 .3-.2zm6.4-34l.2 2.7c.1 2 0 4 .3 6 .2 2.7 1 5.4.7 8a10.4 10.4 0 0 1-2.5 5.7c-.1.2.1 1 .2 1l.2 1a3.2 3.2 0 0 1 .2 1 3 3 0 0 1-.1 1 4.7 4.7 0 0 1-.4.7 2.8 2.8 0 0 0-.2.3 3.3 3.3 0 0 1-.1.4c-.7-1.5-1.7-2.7-2.4-4.2s-.5-2.9-1-4.4a25.6 25.6 0 0 1-.4-3l-.6-3.3v-5.1l.2-5.5v-2a30.8 30.8 0 0 1 .5-5.4l.2-.9a3.5 3.5 0 0 1 .3-.7 9 9 0 0 1 .5-1.3l.4-.6a2.8 2.8 0 0 0 .3-.4c0-.2.2-.4.3-.5l.3-.6a1 1 0 0 1 .1-.2h.1c.2-.3.7-1 1-.6.2.1.1.2.1.4a6.2 6.2 0 0 0 .1.6l.2 1.3a190.9 190.9 0 0 0 1.3 8.6z"/><path fill="#ffd580" d="M98.4 336.8c1.9 0 3.9 0 4.5-2.1a4.6 4.6 0 0 0-.5-3.4c-.5-.9-1.3-1.3-1.6-2.3-.3-1.7.3-3.3.6-4.9s-1.2-1.7-2.4-2.1l-3.5-1.5c-2.4-.9-4.8-1.4-7.2-2.5a20.2 20.2 0 0 1-3.2 4.2 15.3 15.3 0 0 1-2.2 2.4c-1.3 1-2.2.9-1.4 2.8a11.8 11.8 0 0 0 1 2.4c.7 1 1.8 2 2.7 3a11.2 11.2 0 0 0 4.1 2.5 22.8 22.8 0 0 0 9 1.5z"/><path fill="#0f4263" d="M80.7 348.9l-1-.7c-2.3-1.4-4.9-2.5-6.5-4.7-2.2-2.9 0-5.2 2.9-6-1.5-3.6.5-7 2.4-10 .6-1 3.7-6 5.3-3.9a7.5 7.5 0 0 1 .6 2.2 15.4 15.4 0 0 0 .8 3.2 10 10 0 0 0 4.6 4.7 10.4 10.4 0 0 0 5.6 1c1.9-.1 4-1.2 5.5 0 .3.3.8 0 .8-.5a1.4 1.4 0 0 0-.6-1 2 2 0 0 1-.8-.8 1.6 1.6 0 0 1 .2-1 3.3 3.3 0 0 1 2.2-2.3 2.5 2.5 0 0 1 2.4 1.3c1 1.6.8 3.7 1.8 5.3.7 1.2 2.1 2 3.1 3a19.4 19.4 0 0 0 13 6c2.6.2 10.2.4 7.7 5.4-2.1 4.2-8.3 5.6-12.4 7-.8.3-3 .9-3.6 0-.8-1.1 1-3.7-1.1-4-1.6-.2-1.9 2.9-3.2 3.5-.4.2-4.5.9-4.5.1 0-1.3.4-5.7-1.9-4.7-1.8.8-.8 3.2-2 4.4-1 1-5 1.1-5.9 0s.8-3 0-4.4-3.3-2-4.3-.9-1 2.5-2.9 2.6c-2.8.1-5.8-3-8.2-4.8z"/><path fill="#ffd580" d="M224.3 332.6c1.3-1.4 2.7-3 1.6-4.8a4.6 4.6 0 0 0-2.9-2c-1-.1-1.7.2-2.7-.4-1.4-.8-2.2-2.4-3.2-3.7s-2-.3-3.2.3l-3.4 1.6c-2.3 1.1-4.4 2.5-6.8 3.5a21 21 0 0 1 1 5.2 16 16 0 0 1 .2 3.3c-.2 1.6-1 2.2 1.1 3a12.4 12.4 0 0 0 2.3.9h4.1a11.2 11.2 0 0 0 4.6-1.4 22.9 22.9 0 0 0 7.3-5.5z"/><path fill="#0f4263" d="M168.8 197l.9 2.2c2 6.1 5.5 12.1 7 18.3a143 143 0 0 0 5.1 15.4c1.4 3.7 4.7 5 6.4 8.2 1.2 2.6-.7 5.7.8 8 .5.7 1.7.8 2.3 1.8 1 1.4.2 2.2.3 3.7a13.6 13.6 0 0 0 1.3 4.1c3.7 8 7 15.9 10.6 23.8 3.8 8.4 7.4 16.6 11.9 24.6 2.5 4.4 3.3 9.3 6.7 13.2l-2.8 2c-1.5 1-3 1.3-4.6 2-2.6 1.2-4.9 2.9-7.3 4.2s-5 2.1-7.4 3.4l-7.7-15c-3.8-7-7.6-14.1-11-21.4s-7.3-14.6-10.5-22c-2.8-6.7-5.5-13.5-10-19.2-4.2-5.4-6.4-11.7-9.8-17.6-2.5-4.4-5.3-8.7-7.8-13s-5-9-7.4-13.4c-4-7.6-9-15.8-11.5-24-1-3.5-3.5-7.6 1-9.6 4.2-1.9 11.1-1 15.7-1a63 63 0 0 1 7.6.6c5.3.7 12.5-.6 15.7 4.7 1.7 2.8 1.6 5.3 1.9 8.2.3 2.7 1.5 5.2 2.6 7.7z"/><path fill="#0f4263" d="M155 206.1a28 28 0 0 1-1 2.2c-3 5.8-4.7 12.5-8 18-2.5 4.3-7.7 10-9.2 14.3s.5 7.7-2.3 12c-7.5 11.7-10.6 25.7-15.5 38.6-4.4 11.5-9.6 23.5-12 35.7a16.6 16.6 0 0 1-3.2-.1l-3.3-.6c-1.5-.3-3 .2-4.6-.2l-1.8-.7-2.3-.5a13.9 13.9 0 0 1-2.1-.9l-3.2-1.4-4.1-2.8.5-.7a6.7 6.7 0 0 0 .3-1.3c.4-1.6 1.3-3 1.8-4.5.7-1.9 1-3.8 1.7-5.6 2.3-7.7 4.7-15.4 7.4-23s5.2-15.4 8.2-23c2.7-6.7 5.6-13.4 6.5-20.6.8-6.8 3.7-12.8 5.5-19.4l3.6-14.7c1.2-5 2.8-9.8 4.3-14.7 2.5-8.2 4.8-17.5 8.8-25 1.8-3.3 3-8 7.5-6.2 4.3 1.6 8.7 7.1 11.9 10.4a63.6 63.6 0 0 1 5 5.7c3.2 4.3 9.2 8.5 7.7 14.5-.7 3.2-2.6 4.8-4.5 7.1-1.7 2.2-2.6 4.9-3.7 7.4z"/><path fill="#8ac4e5" d="M169.6 148.8c-1.1-3.1-2.2-5.7-2.2-9 0-3.2.6-6.4.2-9.5-.5-4.6-3-8.7-3.4-13.3-.5-4 .7-8.3-.2-12.3-.7-3.5-3-6.4-4-9.7s-1.5-6.4-3-9.7a50.7 50.7 0 0 0-11.3-14.5c-1-1-2.2-2-3.6-2a5.7 5.7 0 0 0-3.3 1.6c-4.4 3.4-9 7-11.6 11.8l-2.8 6c-1.7 3.4-4.1 6.4-5.5 9.8-2.3 5.6-1.9 11.8-1.7 17.8.4 16.4-2.8 32.4-1.7 48.8l.4 7a7.5 7.5 0 0 0 1.3 4.3l2.5 4.2a2.9 2.9 0 0 0 .9 1 2.7 2.7 0 0 0 1.4.2c8.1.2 16.3.3 24.5.3q6 0 12-.3c1.6 0 3.2-.5 4.8-.5s3 .5 4.7.1a.9.9 0 0 0 .5-.2 1 1 0 0 0 .2-.5c1.5-7.3 6.4-14 4.4-21.8a39.6 39.6 0 0 0-1.7-5 58 58 0 0 1-1.8-4.6z"/><path fill="#0f4263" d="M160.8 80.8a16 16 0 0 1 2.4 2c1.5 1.4 2 4.3 2.2 6.3.2 2.1 1.2 4.5.8 6.7-1.3 1.2-3.3-2.3-4.8-2.4-.8-2.6-.8-5.5-1.6-8-.3-.7-1-.9-1.3-1.5a1.3 1.3 0 0 1 0-.6 12.3 12.3 0 0 1 .8-3.4l1.5 1zm50.8 115.5c-2.4-3.1-5-6-7.6-9a1.6 1.6 0 0 0-.7-.6c-.5-.1-1 .6-1.4.9L200 189l-3.1 2.8c-1.7 1.4-3.6 2.5-5.3 4l-2.4 2.3a9.1 9.1 0 0 1-2.1 2c-1.6.7-3 1.6-4.5 2.4-.5.3-2 1-1.6 1.7a16.6 16.6 0 0 0 1.4 2l1.8 2.3 3.6 4.9c.4.4.8.8 1.3.7a1.4 1.4 0 0 0 .5-.3 38.6 38.6 0 0 1 3.4-2.2 18.8 18.8 0 0 0 3-2 125.6 125.6 0 0 1 11.4-8.5l2.8-2c.6-.5 1.8-1 2-1.8a.8.8 0 0 0-.3-.6z"/><path fill="#ffd580" d="M199.6 209a2 2 0 0 1-.4.5 4.8 4.8 0 0 1-.8.5 4 4 0 0 1-.8.2 2.2 2.2 0 0 1-1.9-.7 3.8 3.8 0 0 1 .4 1.8 2.3 2.3 0 0 1-1 1.5 5.3 5.3 0 0 1-1.7.6c-.7.2-1.6-.7-2-1a5.6 5.6 0 0 1-.8-.7 14.9 14.9 0 0 0-1.8-1.7 51.8 51.8 0 0 1-5.6-5.6 6.8 6.8 0 0 1-1.8-2.5c-.3-1-.1-2.2-.5-3.2-.6-1.4-2-2.5-1.8-4 .2-1.1 1.2-1.5 2-2.2s1.6-1.6 2.5-2.2a10.6 10.6 0 0 0 2.1-2 2 2 0 0 1 .7-.6c1-.5 2 .5 2.9.7a10 10 0 0 0 2.9.1 12.7 12.7 0 0 1 3.5.5 7.3 7.3 0 0 1 3 1.4l-2.8 3.4a.5.5 0 0 0-.2.3.5.5 0 0 0 .2.3 50.4 50.4 0 0 1 6.6 7.9 4.3 4.3 0 0 1 1 2.5c0 1-1 1.8-2 2a1.5 1.5 0 0 1-.5 0 2.1 2.1 0 0 1-1.2-.7 2.1 2.1 0 0 1 .3 1 3.8 3.8 0 0 1 0 .9 2.6 2.6 0 0 1-.5 1z"/><path fill="#0f4263" d="M166.8 174.2a199 199 0 0 1-27.3 2.2c-4 0-8 .7-12 .5s-7.7-1.8-11.5-3a7 7 0 0 0 .3 1.1 9.4 9.4 0 0 0 1 2l2.4 4a2.9 2.9 0 0 0 .8 1 2.7 2.7 0 0 0 1.4.3l24.5.3q6 0 12-.3c1.6 0 3.3-.5 4.9-.5s3 .5 4.7.1a.9.9 0 0 0 .4-.2 1 1 0 0 0 .2-.5 50.5 50.5 0 0 1 2.4-7.4l-4.2.4z"/><path fill="#0f4263" d="M158.9 185.8l2.9 2.6c.5.4 2.3 1.7 2.3 2.4.1.1.2.3.4.3s.4-.5.4-.8l-.2-3a12.8 12.8 0 0 0-.2-2 16.6 16.6 0 0 0-1.5-3.4 9 9 0 0 0-1.8-3.1c-2-2-4.1-3.7-6.2-5.7-2.8-2.7-5.4-5.5-8.1-8.3a52.5 52.5 0 0 0-6.3-6c-1.6-1.1-4.6-1.5-5.6-3.3a4.5 4.5 0 0 1-.3-2c-.3-14.3-6.5-32.5-8.8-46.5-1 9.2.6 20.5.4 29.8 0 4.7 2.7 11.5 3 16.2a10 10 0 0 0 .2 1.6c.7 3.1 2.7 5.5 4.2 8.4 1.1 2.3 3.1 3.4 5 4.9l6 5c5 4.1 9.4 8.7 14.2 13z"/><path fill="#8ac4e5" d="M149.4 105.3l3.4 29.7a21.4 21.4 0 0 0 1.3 6.4 20.5 20.5 0 0 0 2.4 3.8c4.9 6.6 10 13 15.2 19.5 4.4 5.4 7.9 11.3 13.7 15.3a3.6 3.6 0 0 1 1.1 1 3.7 3.7 0 0 1 .4 1.1l.8 3.4a3.2 3.2 0 0 1 0 1.5 3.1 3.1 0 0 1-.9 1.3l-8 7.9-4.5-.7a6.5 6.5 0 0 1-2-.5 6.3 6.3 0 0 1-1.8-1.6c-3.3-3.8-6.6-7.3-10.2-10.9L140.6 163c-2.4-2.4-5-5-6.5-8a33.3 33.3 0 0 1-2.6-8.7 222 222 0 0 1-5.3-39.6"/><path fill="#0f4263" d="M183 43.5l.7 1.3a9.4 9.4 0 0 1 .7 1.7 31 31 0 0 0 .8-4 9.3 9.3 0 0 0-.4-4.4c-.3-.7-.8-1.2-1.6-.8-1 .6-1 2.6-1.2 3.6a2 2 0 0 0 0 .6 6 6 0 0 0 .8 1.5zm-36.8-33c-.8-3.2-.2-7.2 2.2-9C149 1 150 .2 150.9.3c2 .2 3.6 2.3 5.7 1.8a13 13 0 0 0 3.3-1.6c4.1-2.3 6.7 3.6 7.2 6.8a9.9 9.9 0 0 1-.3 4 4.9 4.9 0 0 1-.9 1.8 4.3 4.3 0 0 1-1.8 1c-1 .3-2 .9-2.9 1.3a3.3 3.3 0 0 0-1.4 1c-.1.2-.7 2-.5 2a17 17 0 0 0-3 .5s-1.6-2-1.8-2c-1.1-1-2.7-.9-4-1.4a8 8 0 0 1-2.5-1.7 7.5 7.5 0 0 1-1.8-3.2z"/><path fill="#ffd580" d="M162.1 20.1l3 .5a20.2 20.2 0 0 1 6 1.7c4.9 2 10.4 5.6 11.6 11 .6 2.8 0 5.8-.2 8.6a23.7 23.7 0 0 0 1.5 2.3l3 6 1.5 3c.3.5.9 1.8.6 2.2-.7.8-1.8.5-2.7.5a31.8 31.8 0 0 0-3.3-.4 13.1 13.1 0 0 0 .2 2.7l.8 7a26.4 26.4 0 0 1 .1 5.6c-.8 7.5-12-.4-15.3-1.3-2.1-.6-3 1.3-3.7 2.9-3.2 5.8-7.6 11.1-9.8 17.6a23.7 23.7 0 0 1-5.9-6.1c-2.1-3-5-5.6-7.2-8.7a6.1 6.1 0 0 1-1-2.3 8.5 8.5 0 0 1 1-2.2l1-2.7c1-3 2.2-6 2.4-9.3a36.5 36.5 0 0 0-.9-11.2 29.4 29.4 0 0 1-1.3-7.4 34.5 34.5 0 0 1 .4-4.7 17.5 17.5 0 0 1 5-10.1 15.6 15.6 0 0 1 7.2-4.7c1.2-.3 2.4-.3 3.6-.5a8 8 0 0 1 2.4 0z"/><ellipse cx="176.1" cy="44.5" fill="#0f4263" rx="8.3" ry="3.4" transform="rotate(-78.6 176 44.5)"/><path fill="#0f4263" d="M177.1 56.2a6 6 0 0 0-.8.3c-.7.3-.8 1-1 1.6l-.9 2.6a.3.3 0 0 1 0 .1.3.3 0 0 1-.2.1 16.9 16.9 0 0 1-3.6.7 6.5 6.5 0 0 1-1.3.1c-.6-.3-.8-1.4-1-2a22 22 0 0 0-1.2-2.4 5 5 0 0 1-1-3.4 21 21 0 0 0-.2-4.3l-.5-4.3-.2-3.5-1.6-.1a4.1 4.1 0 0 1-.6-.1l-.6-.2-.8-.2-1.5-.2c.5 4 .8 7.9.9 11.9a7.4 7.4 0 0 1-.1 1.9 8 8 0 0 1-2.2 3.2 45.1 45.1 0 0 0-4.6 6 2.7 2.7 0 0 0-.5 1 2.5 2.5 0 0 0 .2 1c1.8 6 6.2 11.2 10.4 15.6l3.7 3.8c1.7 1.7 3.8 3.7 6 4.6l2.4.8a20 20 0 0 0 4.3 1.2 4.5 4.5 0 0 0 3-.4c1.1-.7 1-1.4 1-2.6l.2-9v-6.7c0-2.6 0-5.2-.3-7.7a.2.2 0 0 0 0-.1h-.2l-1.3.1c-.4 0-1 0-1.3.3s-.1.7-.2.9a8.6 8.6 0 0 0 0 1.7l-3.6.2c-.7 0-.5-.4-.7-1l-.5-1.5a.8.8 0 0 1 0-.3 1 1 0 0 1 0-.2l1.9-5a.8.8 0 0 1 .3-.4.8.8 0 0 1 .4 0l4.5.3a8 8 0 0 0 0-2.7c0-.5 0-1.6-.6-1.8a2.6 2.6 0 0 0-1-.1h-1.5l-2.2.2a7.8 7.8 0 0 0-1.4 0z"/><path fill="#80bde3" d="M159.4 18.4a3.6 3.6 0 0 1 .2 1c.2 1-.8.7-1.5.9a5 5 0 0 0-.5.1c-.3.1-1.1.4-1.4 0v-.2a2 2 0 0 1 0-1.5 1.8 1.8 0 0 1 1.3-.7 2.9 2.9 0 0 1 1.6.1.7.7 0 0 1 .3.3z"/><path fill="#0f4263" d="M180.8 28.4a2.3 2.3 0 0 1 .4.7.4.4 0 0 1 0 .4c-.1.2-.4 0-.6-.1-1.4-1.1-3.4-1.1-5.2-1h-2.2l-3.5.3c-2.8.2-5.5.6-8.3 1l-5.4.6a19.2 19.2 0 0 0-3.5.7 38.3 38.3 0 0 1-5 .8 9.9 9.9 0 0 0-3.2 1 .3.3 0 0 1-.3 0 .4.4 0 0 1-.1-.2c0-3.5 3.2-6.7 5.7-8.9a15 15 0 0 1 7.4-3.6 26.3 26.3 0 0 1 9.4.3 30.5 30.5 0 0 1 8.4 3.3 23.8 23.8 0 0 1 5.6 4.2l.4.5z"/><path fill="#ffd580" d="M159.6 47.4c-.1-.8-.3-1.5-.3-2.3-.3-2.3-.5-4.8-2.4-6.4-1.7-1.4-3.6-.2-5 1a7.3 7.3 0 0 0-2 7.1 14.4 14.4 0 0 0 2.3 4 12.4 12.4 0 0 0 2.9 3.3 4.2 4.2 0 0 0 1 .5 3.2 3.2 0 0 0 2.4-.2c2.6-1.2 1.5-4.8 1.1-7z"/><path fill="#0f4263" d="M180.9 42.7a5.5 5.5 0 0 0-1.4 1.2A21.4 21.4 0 0 0 178 46a1 1 0 0 1 .5.9 1.4 1.4 0 0 1-.4 1.1.8.8 0 0 1-.4.2 1.6 1.6 0 0 1-1-.3l-.2-.1a.2.2 0 0 1 0-.2l.5-1.3a6.2 6.2 0 0 1 .3-.8 6 6 0 0 1 .6-.8l1.1-1.4a4.4 4.4 0 0 1 2.7-2 8 8 0 0 1 2 .2l-.5 1.1-1-.2a2 2 0 0 0-1.2.3zm1.7 20.6l.7.2h.3l.4.1-.2-1.2h-.8l-.8-.2-1.7-.3a12.7 12.7 0 0 0-1.4-.3 1.7 1.7 0 0 0 .1.2 2.3 2.3 0 0 0 .8.7 3.9 3.9 0 0 0 1.2.6l1.4.2zm-45.8 8.3c-.7 1-2.5 1.5-3 2.7 1.5-1 4 1 5 2 .3.3.4 1.3.7 1.7a20.5 20.5 0 0 0 2.3 2.6l4.7 5 2.8 2.7 3.1 2.7a22.6 22.6 0 0 1 3.7 4.5 17.5 17.5 0 0 0 1.5 2.4 14.4 14.4 0 0 0 2.1 2.2 1.9 1.9 0 0 1 .8.9 5.5 5.5 0 0 0 .6-3c-.2-1-.9-1.9-1.1-2.9a10 10 0 0 0-1-2.7c-2.4-4-5.8-7.5-9-11-2-2-3.7-4.2-5.6-6.2a28.8 28.8 0 0 0-3.3-3.5 5.8 5.8 0 0 0-2.7-1c-.8-.1-1.1.4-1.5 1z"/><path fill="#8ac4e5" d="M149.6 85l2.8 3 .8.9a12.5 12.5 0 0 0 1.1.9 67.2 67.2 0 0 1 6.3 5.1 2.1 2.1 0 0 0 1.7.8c-.9-3.8.1-7.8-.9-11.6a2.9 2.9 0 0 0-.4-1 3.3 3.3 0 0 0-.8-.7c-2.5-1.7-4.3-4.2-6.5-6.2-2.8-2.6-5.6-5.1-8-8-1-1-2.2-3.5-3.4-4-1.5-.8-3 1.8-3.7 2.9a12 12 0 0 1-2.3 2.8c-.3.2-.6.4-.6.7s.4.7.7 1c2.4 1.4 4.3 3.8 6 6 2.2 2.6 4.8 5 7.2 7.3z"/><path fill="#0f4263" d="M220.2 354.6a26.7 26.7 0 0 1-5 1.8c-1.3.3-3.4.9-4.7.4a3.1 3.1 0 0 1-1.7-2.6c-.1-.4-.1-3.8.5-3.7a5.8 5.8 0 0 1-3.7-2.9l-1-2.2a12.8 12.8 0 0 1-1.2-2.6c-.3-1.1-1.8-9 .7-8.8a7 7 0 0 1 1.9 1 15.6 15.6 0 0 0 2.8 1.5 9.8 9.8 0 0 0 6.3-.1 10 10 0 0 0 4.3-3.2c1.2-1.3 1.8-3.4 3.7-3.7.4 0 .4-.6.1-.9a1.3 1.3 0 0 0-1-.1 1.8 1.8 0 0 1-1.2 0 1.5 1.5 0 0 1-.6-.8 3 3 0 0 1-.1-3 2.4 2.4 0 0 1 2.5-.8c2 .5 4.5 2.2 6.3 3.4a16 16 0 0 0 7.3 2.5 24.4 24.4 0 0 0 10.8-1.4c2-.7 5.9-4.2 8-2.7 1.6 1 2.1 3.2 2.3 5a14 14 0 0 1-.9 6.7 6.4 6.4 0 0 1-4.9 4 1.1 1.1 0 0 1-1-.1 1 1 0 0 1-.3-.4c-.3-.8-.2-1.8-.6-2.7a.3.3 0 0 0-.2-.2.3.3 0 0 0-.1 0 2.6 2.6 0 0 0-.7.6 2.5 2.5 0 0 0-.4 1.7 9.5 9.5 0 0 1-.2 2 2.2 2.2 0 0 1-.4.9 2.1 2.1 0 0 1-.9.5l-1.4.6a2.1 2.1 0 0 1-1.3.2 2 2 0 0 1-1.2-1.4 4.4 4.4 0 0 0-.8-1.8c-.5.2-1.8.3-1.7 1a9.1 9.1 0 0 1 .2 3.1 3.9 3.9 0 0 1-1.9 2.2 4.3 4.3 0 0 1-1 .5 3 3 0 0 1-2-.2 2.4 2.4 0 0 1-1.4-1.6c-.2-.5-.4-1.4-1-1.7-1-.3-2.4.8-3.2 1.2a.7.7 0 0 0-.2.2c-.2.2-.1.5 0 .8a7.1 7.1 0 0 1 .8 2c.1 1.2-.7 1.9-1.6 2.4a19 19 0 0 1-2.8 1.2c-2 .8-4.2 1.3-6.2 2.2zm-44.5-162.2a14.2 14.2 0 0 0-2.6 2.9l1.2.2 4.6.7 8-7.9a3.1 3.1 0 0 0 .9-1.3 3.2 3.2 0 0 0-.1-1.5l-.8-3.4a3.8 3.8 0 0 0-.3-1c-4 3.4-6.7 8-10.9 11.3zm-151.5 153a6.5 6.5 0 0 0 1.4 5 9.2 9.2 0 0 0 2.1 2 12.4 12.4 0 0 0 5 1c4.5 0 8.4-4.2 8.4-8.7.1-4.3-4.7-7.3-8.4-7.3-4.1 0-8 3.9-8.5 8zm-12.6-28.9l-7.4-4c-1.4-.8-3-1.7-3.7-3.2-1-1.8-.4-3.9.2-5.8 4.3-13 11.1-25.2 14.8-38.4a19.7 19.7 0 0 1 2.2-5.8 5.9 5.9 0 0 1 5.2-2.8 19.7 19.7 0 0 1 11.6 4.8m47.7-15c.2-1.2 1.4-3.1 2-4.6l2.1-5c1.6-3.6 3-7.3 4.8-10.9 3.2-6.5 5.9-13 8.7-19.7a43.8 43.8 0 0 0 2.1-5c.3-1 .5-.6-.2-1.5a12 12 0 0 0-2.6-1.9c-.7 3-2.3 6-3.4 8.8-.9 2.2-2 4.3-3 6.4-2 4.4-3.3 9.2-5 13.9a81.8 81.8 0 0 1-4.5 9.7 89.4 89.4 0 0 0-4.4 9.8c.8-.2 1.9 1 2.6 1.3.4-.8.8-1.6.8-1.2z"/><path fill="#8ac4e5" d="M83.6 245.7c-2.5-3.2-7.2-3.3-11.1-4.7-3-1-5.6-3-8.3-4.7a59.2 59.2 0 0 0-10.7-5.5c-3.7-1.4-8.1-2.3-11.4-.1-2.4 1.5-3.5 4.4-4.5 7l-28.8 74a17.3 17.3 0 0 0-1.6 6.7c.2 5.4 5.3 9.3 10 12A122.4 122.4 0 0 0 42 341c.8.2 2.1.1 2-.7z"/><path fill="#0f4263" d="M102.5 203c1.5-.1 2.7-4.2 3.1-5.3-1.3-1.1-4.7-4.1-6.4-2.7-1.3 1-1.8 3.7-2.4 5.3a9.4 9.4 0 0 0 3.7 2.2 7.2 7.2 0 0 0 2 .5z"/></g></svg>