<svg version="1" 
  xmlns="http://www.w3.org/2000/svg" viewBox="0 0 16000 13840">
  <path d="M30 6920V30l4513 3c3383 2 4537 6 4612 15 55 6 163 16 240 22a10390 10390 0 0 1 1912 322c28 7 55 16 59 21 4 4 15 7 25 7s38 6 61 14l118 36a6739 6739 0 0 1 520 180c5 0 18 4 28 10 9 5 77 34 150 65a6227 6227 0 0 1 1151 625c4 0 17 8 29 17a8763 8763 0 0 1 295 222l72 61 80 69 94 81a6385 6385 0 0 1 674 725 6965 6965 0 0 1 129 178l26 32 32 50c13 22 29 45 35 51 5 6 19 27 30 47s23 37 27 37c5 0 8 6 8 14s6 21 13 28c25 25 128 204 224 387l63 120c9 16 103 218 120 256l30 70 30 70 30 75 29 75a6026 6026 0 0 1 147 430c31 96 81 280 120 440 301 1237 301 2829 0 4075a8153 8153 0 0 1-136 490c-13 41-26 84-31 95l-50 145c-22 69-44 130-48 135-4 6-18 39-31 75a1087 1087 0 0 1-50 122c0 31-259 547-337 673-7 11-18 32-25 48-7 15-16 27-20 27s-8 5-8 11a6154 6154 0 0 1-327 484 7559 7559 0 0 1-168 209c-98 122-442 475-550 564a22588 22588 0 0 1-265 222l-40 30c-5 7-85 66-120 90l-40 30c-56 45-365 246-445 289-16 9-31 19-33 24a498 498 0 0 0-97 51c-40 24-167 90-281 146l-224 109c-12 6-270 116-355 151l-70 25c-27 10-63 23-80 31-40 17-376 129-445 148l-165 46a10075 10075 0 0 1-287 75 10631 10631 0 0 1-1738 265c-91 6-210 16-265 22-74 9-1253 13-4547 15l-4448 4V6920z"/>
  <path d="M687 13153c-4-3-7-2811-7-6240V679l4123 4c4487 3 4175 0 4747 57 2229 226 3862 1072 4805 2490 143 215 226 360 340 591 344 700 549 1516 615 2454 29 408 22 1038-16 1455-198 2180-1182 3734-2913 4599-1034 518-2241 780-3771 821-399 11-7913 14-7923 3zm3443-3173V7820H1700v4320h2430V9980zm-923-2859c308-65 548-195 769-415 277-278 423-606 440-991 17-361-84-690-299-981-69-93-226-246-325-317a1531 1531 0 0 0-994-278c-386 37-682 174-948 441a1472 1472 0 0 0-438 1168c22 355 175 695 428 950 240 243 545 394 890 442 103 14 371 4 477-19z" fill="#d40171"/>
  <g fill="#fff">
    <path d="M687 13153c-4-3-7-2811-7-6240V679l4123 4c4487 3 4175 0 4747 57 2229 226 3862 1072 4805 2490 143 215 226 360 340 591 344 700 549 1516 615 2454 29 408 22 1038-16 1455-198 2180-1182 3734-2913 4599-1034 518-2241 780-3771 821-399 11-7913 14-7923 3zm3443-3173V7820H1700v4320h2430V9980zm4945 2137c765-58 1282-142 1852-302 565-159 1153-432 1566-727 374-266 714-607 960-960 505-725 788-1654 847-2783 5-104 10-214 10-242v-53h-1750V4240h700v2110h515c511 0 515 0 515-20 0-39-31-316-50-450-116-812-377-1522-768-2095a4061 4061 0 0 0-662-748c-803-706-1909-1130-3340-1282-470-49-425-48-2327-52l-1793-4v2539l313 4c338 5 429 17 592 75 349 126 603 395 720 764 57 181 77 326 76 564 0 465-123 815-372 1064a1137 1137 0 0 1-613 313c-83 16-155 21-408 25l-308 6v5088l1753-4c1514-3 1782-6 1972-20zM3207 7121c308-65 548-195 769-415 277-278 423-606 440-991 17-361-84-690-299-981-69-93-226-246-325-317a1531 1531 0 0 0-994-278c-386 37-682 174-948 441a1472 1472 0 0 0-438 1168c22 355 175 695 428 950 240 243 545 394 890 442 103 14 371 4 477-19zm2787-795c170-48 276-165 326-362 47-182 46-474-1-644-58-212-182-331-378-366-50-9-163-13-333-14h-258v1412l293-5c229-4 305-8 351-21z"/>
    <path d="M7450 5645V4240h1680v700h-980v320h920v700h-920v390h1030v700H7450V5645zm2072 1393l423-1405 419-1393h995l25 83a1740151 1740151 0 0 1 816 2716c0 8-105 10-362 9l-361-3-33-115-80-273-47-157-455 2-456 3-22 70-80 272-59 203h-364c-286 0-362-3-359-12zm1588-1239c0-6-41-151-91-322l-113-387c-17-61-25-76-42-78-24-3-13-37-129 363a49248 49248 0 0 1-125 429c0 3 113 6 250 6 174 0 250-3 250-11z"/>
  </g>
</svg>