<svg viewBox="0 0 237 123" xmlns="http://www.w3.org/2000/svg"><defs><linearGradient x1="99.951%" y1="185.304%" x2=".026%" y2="-86.931%" id="illustration-airport-transfera"><stop stop-color="#A1A8C3" stop-opacity="0" offset="0%"/><stop stop-color="#A1A8C3" stop-opacity=".142" offset="10.68%"/><stop stop-color="#A1A8C3" offset="75.1%"/><stop stop-color="#A1A8C3" stop-opacity=".141" offset="90.97%"/><stop stop-color="#A1A8C3" stop-opacity="0" offset="93.58%"/></linearGradient><linearGradient x1="48.365%" y1="-.052%" x2="48.365%" y2="99.789%" id="illustration-airport-transferb"><stop stop-color="#252E65" offset="21.93%"/><stop stop-color="#28336A" offset="35.41%"/><stop stop-color="#31427A" offset="52.2%"/><stop stop-color="#3F5A93" offset="70.73%"/><stop stop-color="#537CB6" offset="90.39%"/><stop stop-color="#5E8FCA" offset="100%"/></linearGradient><linearGradient x1="9.649%" y1="80.028%" x2="101.992%" y2="10.952%" id="illustration-airport-transferc"><stop stop-color="#F16B6C" offset="13.37%"/><stop stop-color="#F17071" offset="28.07%"/><stop stop-color="#F37F80" offset="46.19%"/><stop stop-color="#F48F90" offset="59.36%"/></linearGradient><linearGradient x1="18.011%" y1="68.592%" x2="82.798%" y2="24.683%" id="illustration-airport-transferd"><stop stop-color="#F48F90" offset="47.06%"/><stop stop-color="#F16B6C" offset="74.33%"/></linearGradient><linearGradient x1="-1.001%" y1="49.435%" x2="99.519%" y2="49.435%" id="illustration-airport-transfere"><stop stop-color="#252E65" offset="21.93%"/><stop stop-color="#28336A" offset="35.41%"/><stop stop-color="#31427A" offset="52.2%"/><stop stop-color="#3F5A93" offset="70.73%"/><stop stop-color="#537CB6" offset="90.39%"/><stop stop-color="#5E8FCA" offset="100%"/></linearGradient><linearGradient x1="50.567%" y1="-.383%" x2="50.567%" y2="99.778%" id="illustration-airport-transferf"><stop stop-color="#252E65" offset="21.93%"/><stop stop-color="#28336A" offset="35.41%"/><stop stop-color="#31427A" offset="52.2%"/><stop stop-color="#3F5A93" offset="70.73%"/><stop stop-color="#537CB6" offset="90.39%"/><stop stop-color="#5E8FCA" offset="100%"/></linearGradient><linearGradient x1=".488%" y1="50.088%" x2="101.241%" y2="50.088%" id="illustration-airport-transferg"><stop stop-color="#252E65" offset="12.83%"/><stop stop-color="#252E65" offset="21.93%"/></linearGradient><linearGradient x1="50.283%" y1="-.113%" x2="50.283%" y2="100.485%" id="illustration-airport-transferh"><stop stop-color="#9DBBDE" offset="11.76%"/><stop stop-color="#5E8FCA" offset="43.32%"/><stop stop-color="#425585" offset="87.7%"/></linearGradient><linearGradient x1="49.404%" y1="-.159%" x2="49.404%" y2="100.512%" id="illustration-airport-transferi"><stop stop-color="#9DBBDE" offset="11.76%"/><stop stop-color="#5E8FCA" offset="43.32%"/><stop stop-color="#425585" offset="87.7%"/></linearGradient><linearGradient x1="49.827%" y1="-.028%" x2="49.827%" y2="99.645%" id="illustration-airport-transferj"><stop stop-color="#425585" offset="12.3%"/><stop stop-color="#5E8FCA" offset="88.24%"/></linearGradient><linearGradient x1="49.633%" y1="-.342%" x2="49.633%" y2="99.387%" id="illustration-airport-transferk"><stop stop-color="#252E65" offset="0%"/><stop stop-color="#252E65" stop-opacity="0" offset="100%"/></linearGradient><linearGradient x1="-1.366%" y1="49.957%" x2="98.391%" y2="51.216%" id="illustration-airport-transferl"><stop stop-color="#252E65" offset="11.23%"/><stop stop-color="#252E65" offset="21.93%"/></linearGradient><linearGradient x1="2.131%" y1="48.45%" x2="100.468%" y2="49.708%" id="illustration-airport-transferm"><stop stop-color="#252E65" offset="11.23%"/><stop stop-color="#252E65" offset="21.93%"/></linearGradient><linearGradient x1="1.791%" y1="49.951%" x2="103.307%" y2="51.265%" id="illustration-airport-transfern"><stop stop-color="#252E65" offset="11.23%"/><stop stop-color="#252E65" offset="21.93%"/></linearGradient><linearGradient x1="-2.755%" y1="47.022%" x2="98.761%" y2="48.298%" id="illustration-airport-transfero"><stop stop-color="#252E65" offset="11.23%"/><stop stop-color="#252E65" offset="21.93%"/></linearGradient><linearGradient x1="-1.817%" y1="46.971%" x2="97.377%" y2="48.197%" id="illustration-airport-transferp"><stop stop-color="#252E65" offset="11.23%"/><stop stop-color="#252E65" offset="21.93%"/></linearGradient><linearGradient x1="3.164%" y1="51.484%" x2="102.358%" y2="52.71%" id="illustration-airport-transferq"><stop stop-color="#252E65" offset="11.23%"/><stop stop-color="#252E65" offset="21.93%"/></linearGradient><linearGradient x1="50.099%" y1=".099%" x2="50.099%" y2="99.488%" id="illustration-airport-transferr"><stop stop-color="#252E65" offset="21.93%"/><stop stop-color="#28336A" offset="35.41%"/><stop stop-color="#31427A" offset="52.2%"/><stop stop-color="#3F5A93" offset="70.73%"/><stop stop-color="#537CB6" offset="90.39%"/><stop stop-color="#5E8FCA" offset="100%"/></linearGradient><linearGradient x1="49.393%" y1="-.255%" x2="49.393%" y2="100.027%" id="illustration-airport-transfers"><stop stop-color="#425585" offset="13.37%"/><stop stop-color="#425585" stop-opacity=".5" offset="100%"/></linearGradient><linearGradient x1="50.049%" y1=".092%" x2="50.049%" y2="100.035%" id="illustration-airport-transfert"><stop stop-color="#BFD3EA" offset="0%"/><stop stop-color="#B9CFE8" offset="25.67%"/><stop stop-color="#9EBCDF" offset="36.12%"/><stop stop-color="#82A8D6" offset="49.45%"/><stop stop-color="#6E9ACF" offset="62.87%"/><stop stop-color="#6292CB" offset="76.32%"/><stop stop-color="#5E8FCA" offset="89.84%"/></linearGradient><linearGradient x1="49.772%" y1=".393%" x2="49.772%" y2="99.848%" id="illustration-airport-transferu"><stop stop-color="#252E65" offset="0%"/><stop stop-color="#4D73AC" offset="67.37%"/><stop stop-color="#5E8FCA" offset="100%"/></linearGradient><linearGradient x1="49.993%" y1=".029%" x2="49.993%" y2="99.719%" id="illustration-airport-transferv"><stop stop-color="#9DBBDE" offset="11.76%"/><stop stop-color="#5E8FCA" offset="57.22%"/><stop stop-color="#5A87C0" offset="57.43%"/><stop stop-color="#5174AA" offset="58.03%"/><stop stop-color="#4A6699" offset="58.72%"/><stop stop-color="#465C8E" offset="59.59%"/><stop stop-color="#435787" offset="60.8%"/><stop stop-color="#425585" offset="64.17%"/></linearGradient><linearGradient x1="50.093%" y1="-.034%" x2="50.092%" y2="99.694%" id="illustration-airport-transferw"><stop stop-color="#252E65" offset="0%"/><stop stop-color="#252E65" stop-opacity="0" offset="100%"/></linearGradient><linearGradient x1=".026%" y1="51.277%" x2="100.15%" y2="52.536%" id="illustration-airport-transferx"><stop stop-color="#252E65" offset="11.23%"/><stop stop-color="#252E65" offset="21.93%"/></linearGradient><linearGradient x1=".561%" y1="49.403%" x2="100.318%" y2="50.652%" id="illustration-airport-transfery"><stop stop-color="#252E65" offset="11.23%"/><stop stop-color="#252E65" offset="21.93%"/></linearGradient><linearGradient x1=".184%" y1="48.918%" x2="101.704%" y2="50.194%" id="illustration-airport-transferz"><stop stop-color="#252E65" offset="11.23%"/><stop stop-color="#252E65" offset="21.93%"/></linearGradient><linearGradient x1="-4.362%" y1="48.341%" x2="97.157%" y2="49.617%" id="illustration-airport-transferA"><stop stop-color="#252E65" offset="11.23%"/><stop stop-color="#252E65" offset="21.93%"/></linearGradient><linearGradient x1="-.087%" y1="48.243%" x2="98.243%" y2="49.469%" id="illustration-airport-transferB"><stop stop-color="#252E65" offset="11.23%"/><stop stop-color="#252E65" offset="21.93%"/></linearGradient><linearGradient x1="1.592%" y1="49.12%" x2="100.783%" y2="50.346%" id="illustration-airport-transferC"><stop stop-color="#252E65" offset="11.23%"/><stop stop-color="#252E65" offset="21.93%"/></linearGradient><linearGradient x1="49.909%" y1="-1.127%" x2="49.909%" y2="99.622%" id="illustration-airport-transferD"><stop stop-color="#5E8FCA" offset="0%"/><stop stop-color="#425585" offset="34.76%"/></linearGradient><linearGradient x1="50.362%" y1="-1.233%" x2="50.362%" y2="102.713%" id="illustration-airport-transferE"><stop stop-color="#5E8FCA" offset="0%"/><stop stop-color="#537CB6" offset="9.61%"/><stop stop-color="#3F5A93" offset="29.27%"/><stop stop-color="#31427A" offset="47.8%"/><stop stop-color="#28336A" offset="64.59%"/><stop stop-color="#252E65" offset="78.07%"/></linearGradient><linearGradient x1="49.807%" y1="-.028%" x2="49.807%" y2="99.645%" id="illustration-airport-transferF"><stop stop-color="#425585" offset="12.3%"/><stop stop-color="#5E8FCA" offset="88.24%"/></linearGradient><linearGradient x1="50.09%" y1=".065%" x2="50.09%" y2="100.001%" id="illustration-airport-transferG"><stop stop-color="#7DA5D4" offset="0%"/><stop stop-color="#84AAD6" stop-opacity=".718" offset="47%"/><stop stop-color="#92B4DB" stop-opacity=".4" offset="100%"/></linearGradient><linearGradient x1="49.564%" y1="-.342%" x2="49.564%" y2="99.387%" id="illustration-airport-transferH"><stop stop-color="#252E65" offset="0%"/><stop stop-color="#252E65" stop-opacity="0" offset="100%"/></linearGradient><linearGradient x1="-1.633%" y1="49.957%" x2="98.124%" y2="51.216%" id="illustration-airport-transferI"><stop stop-color="#252E65" offset="11.23%"/><stop stop-color="#252E65" offset="21.93%"/></linearGradient><linearGradient x1="1.895%" y1="48.449%" x2="101.653%" y2="49.708%" id="illustration-airport-transferJ"><stop stop-color="#252E65" offset="11.23%"/><stop stop-color="#252E65" offset="21.93%"/></linearGradient><linearGradient x1="1.526%" y1="49.955%" x2="103.043%" y2="51.268%" id="illustration-airport-transferK"><stop stop-color="#252E65" offset="11.23%"/><stop stop-color="#252E65" offset="21.93%"/></linearGradient><linearGradient x1="-3.02%" y1="47.021%" x2="98.496%" y2="48.297%" id="illustration-airport-transferL"><stop stop-color="#252E65" offset="11.23%"/><stop stop-color="#252E65" offset="21.93%"/></linearGradient><linearGradient x1="-2.076%" y1="46.971%" x2="97.118%" y2="48.197%" id="illustration-airport-transferM"><stop stop-color="#252E65" offset="11.23%"/><stop stop-color="#252E65" offset="21.93%"/></linearGradient><linearGradient x1="2.905%" y1="51.484%" x2="102.098%" y2="52.71%" id="illustration-airport-transferN"><stop stop-color="#252E65" offset="11.23%"/><stop stop-color="#252E65" offset="21.93%"/></linearGradient><linearGradient x1="-.173%" y1="49.564%" x2="99.891%" y2="49.564%" id="illustration-airport-transferO"><stop stop-color="#BFD3EA" offset="0%"/><stop stop-color="#DEEAF7" offset="47.06%"/></linearGradient><linearGradient x1="-.942%" y1="51.064%" x2="99.89%" y2="51.064%" id="illustration-airport-transferP"><stop stop-color="#5E8FCA" offset="25.67%"/><stop stop-color="#252E65" offset="51.87%"/></linearGradient><linearGradient x1="49.935%" y1="-.156%" x2="49.935%" y2="99.783%" id="illustration-airport-transferQ"><stop stop-color="#425585" offset="13.37%"/><stop stop-color="#425585" stop-opacity=".5" offset="100%"/></linearGradient><linearGradient x1="50.077%" y1="-.074%" x2="50.077%" y2="99.665%" id="illustration-airport-transferR"><stop stop-color="#BFD3EA" offset="0%"/><stop stop-color="#B9CFE8" offset="22.05%"/><stop stop-color="#A9C4E3" offset="50.56%"/><stop stop-color="#8FB1DA" offset="82.48%"/><stop stop-color="#7DA5D4" offset="100%"/></linearGradient></defs><g transform="matrix(-1 0 0 1 240 0)" fill="none" fill-rule="evenodd"><path fill="url(#illustration-airport-transfera)" d="M.703 120.076H239.9v2.621H.703z"/><path d="M190.895 115.136v1.512c0 .504-.401 1.613-.2 2.32 0 0-.201.907 0 1.007.1 0 3.514.101 5.221 0 1.808-.1 5.021-1.31 5.021-1.31s-.1-.706-.301-.706c-.2 0-.1-.403-1.607-.403 0 0-3.514-1.11-4.519-3.226-.903-2.017-3.615.806-3.615.806z" fill="#252E65"/><path d="M19.782 28.33c.503 2.622.904 5.243 1.306 7.763.402 2.118.602 4.134.602 6.251 0 1.008-.1 2.017-.1 3.025 0 .907.2 1.815.301 2.722 0 1.008-.301 1.714-.301 2.722.1 1.11.301 2.218.402 3.327.1 1.11.2 2.117.3 3.226.101 1.11.603 1.916 1.005 3.025.1.403 0 .907.2 1.21.202.302.503.403.704.806.2.605.2.706-.201 1.009-.603.302-1.406.403-2.008.604-.703.202-2.009.706-2.21-.302 0-.202.1-.302 0-.605-.1-.302-.3-.403-.3-.706-.101-.403.1-.907.1-1.31-.402-1.916-1.708-3.529-2.11-5.445-.4-2.016-.2-3.932-.2-5.948.1-1.613-.904-3.529-1.607-4.94-1.004-2.016-1.205-4.234-.401-6.352.703-1.714 1.606-3.327 1.807-5.142.1-1.31-1.104-3.125.703-3.931.1-.303 1.908-1.21 2.008-1.009z" fill="url(#illustration-airport-transferb)" transform="translate(170.711 51.418)"/><path d="M20.184 3.428c.402.706.703 1.613.402 2.42-.1.403-.301.604-.1 1.109.1.302.401.806.401 1.21-.1.201-.502 0-.602.1-.201.303-.1.403-.302.807-.1.1-.301.403-.301.504-.1.202 0 .403 0 .504-.1.403-.301.504-.703.504-.301 0-.502-.202-.803-.1-.302.1-.302.503-.502.705-.201.202-.502.302-.703.504-.302.403-.402 1.008-.703 1.512-.603-.504-.904-1.512-1.506-2.016-.402-.403-1.306-.202-1.406-.807.502-.504.703-2.318.903-3.125.402 0 .804.302 1.205 0 .201-.202.503-.605.402-.907-.2-.504 0-2.017 1.004-1.916.302 0 .502.504.804.605.401.1.703-.202.903-.504.402-.706.1-1.815 1.306-1.31 0 0 .1.1.301.2z" fill="url(#illustration-airport-transferc)" transform="translate(170.711 51.418)"/><path d="M18.879 6.352c-.201-.303-.502-.504-.603-.807-.1-.202-.1-.403-.1-.605v-.1c-.201.201-.402.302-.603.201-.301-.1-.401-.504-.803-.605-.703-.1-.803.807-.904 1.512 0 .101.1.101.1.202.1.202.1.403.302.605.1.202.301.403.502.504 0 0 .2.1.301.1v.708c0 .504.1.907.402 1.31.2.303.502.605.803.807.1.1.301.201.301.302.201 0 .402.101.603.101.2 0 .301 0 .402-.1v-.102c-.1-.302-.302-.504-.302-.806 0-.605.502-1.008.703-1.613.1-.303 0-.605-.2-.908a4 4 0 0 1-.904-.705z" fill="url(#illustration-airport-transferd)" transform="translate(170.711 51.418)"/><path d="M21.39 2.722c-.202.202-.302.605-.503.807-.301.1-.502-.101-.803-.101-.201-.101-.603-.202-.904-.101-.402.202-.2.504-.1.807 0 .705-.503.907-.603 1.512 0 .302.1.706-.1.907-.302.303-.503.101-.703-.201-.302-.404-.302-1.009-.703-1.412-.502-.504-.904-.201-1.105.504-.2.605.2 1.31-.1 1.916-.201.302-.603.403-.904.403-.301 0-.502.1-.703.303 0-.303 0-.605-.2-.807-.101-.202-.302-.403-.403-.706-.401-.806-.3-2.218-.2-3.024 0-.404.1-.807.401-1.11.302-.302.603-.201.904-.302.603-.302.703-1.109 1.406-1.31.602-.202 1.205 0 1.707.302s.803.202 1.406.302c.602.101.803.404 1.205.807.1.1 1.004.202 1.004.504z" fill="url(#illustration-airport-transfere)" transform="translate(170.711 51.418)"/><path d="M195.013 73.598s.3-.302.502-.605c.1-.201.3-.201.502-.201.602.201 1.305.706 1.305.706.201.1.201.302.1.403l-1.807 2.016" fill="#252E65"/><path d="M10.544 28.734c-.2 1.31-1.004 2.52-1.205 3.932-.1 1.008-.2 2.016.1 2.923.1.504.201.908.302 1.412 0 .504.2.706.3 1.21.302 1.109-.4 2.42-.602 3.528-.2 1.11-.703 5.545-1.104 5.646-1.607.303-6.025 3.529-6.427 4.537-.502 1.21-.1 1.714-.904 2.722-.703.908 3.013 2.32 3.917.807.803-1.412 2.51-2.117 5.221-3.73.603-.404 2.31-.505 2.812-1.311.502-.706.904-2.117 1.406-2.823 1.205-1.613 1.305-2.823 2.209-4.638.402-.806.603-1.815.904-2.621.301-.908.904-1.613 1.406-2.42 1.406-2.42 1.104-5.545.602-8.166-.703-3.831-5.925-1.008-8.234-.807.1-.1.1-.302.2-.403-.2-.1-.501.1-.903.202.1.1.1-.101 0 0z" fill="url(#illustration-airport-transferf)" transform="translate(170.711 51.418)"/><path d="M182.36 79.345c-1.004.303-2.611-.706-2.611-.706.1 0-3.113-.1-4.82-.1 1.004.403 2.812 1.109 3.615 1.31.803.202 2.812 0 4.318-.504-.1 0-.301-.1-.502 0z" fill="#13131B"/><path d="M188.987 63.012c-.1.101-.502 1.815-.1 2.622.301.806.803 3.63 1.004 5.141.201 1.513.703 7.058.703 7.764 0 .201-.1 1.613.1 2.822.101 1.21.603 3.73.603 3.73l-.703-2.419s.1 2.823 0 2.722c-.1-.1-2.61 0-3.816-1.109-1.205-1.109-2.912-2.319-3.916-1.915-1.004.302-2.611 3.83-2.611 3.83s-.703.303-.703-.402c0-.605.904-4.336 1.406-5.747.602-1.412 0-15.123 0-15.123l2.21-2.621.1-1.11s1.305-.1 2.51.303c1.105.403 3.213 1.512 3.213 1.512z" fill="#425585"/><path d="M10.946 11.796s2.31-1.916 3.816-1.412c1.606.505 2.31 2.218 2.31 4.033.1 1.815-.905 6.352-.905 6.352l-.1-2.017s.703-3.226.402-5.04c-.201-1.815-2.11-4.235-5.122-1.311l-.401-.605z" fill="url(#illustration-airport-transferg)" transform="translate(170.711 51.418)"/><path d="M10.745 11.796s-1.908.1-2.31.605c-.402.504-3.615 4.638-3.615 5.142v.504c0 .201-.703 2.218-.803 2.218-.1 0-1.004 0-1.004 1.008 0 .907.1 5.243.803 5.646.703.403 3.012 1.21 4.017 1.411 1.004.202 3.514-.1 5.02-.705 1.507-.605 1.406-2.017 1.406-2.017s-1.004.101-1.205-.403c-.2-.504-1.305-2.823-1.305-6.856 0-4.033-.1-6.654-1.004-6.553z" fill="url(#illustration-airport-transferh)" transform="translate(170.711 51.418)"/><path d="M182.46 68.154c0-1.613-.1-4.436-.703-4.84-.1-.1-.2-.1-.2-.1s-1.908.1-2.31.605c-.402.504-3.615 4.638-3.615 5.142.2-.101.703-.504 1.606-.504.904 0 .904-2.32 1.406-2.017.502.303 3.716 4.134 4.017 5.848-.1 0-.2-2.52-.2-4.134z" fill="#5E8FCA"/><path d="M3.113 21.273c0 .907.1 5.243.803 5.646.201.1.603.302 1.105.504 1.305.202 3.012.202 3.916.1 1.205-.2.301-5.645-.2-6.653-.503-1.009-4.62-.504-4.62-.504-.1 0-1.004 0-1.004.907z" fill="url(#illustration-airport-transferi)" transform="translate(170.711 51.418)"/><path d="M187.08 72.993c-.1-.1-1.206 1.21-2.009 1.513-.803.201-1.807.302-1.807.302s.502 1.916.803 2.017c.301.201.602.201.904.201.301 0 4.217-.1 6.125-.403 1.908-.303 1.406 0 1.908.1.502.102 1.908.202 2.109 0 .2-.2.904-1.007.904-1.007s.502.1.602-.303c0 0 .201-.202-.904-.504 0 0-.2-.202.201-.202.402 0 1.005.404 1.406.303.201 0 .603-.303.1-.605l-2.41-.907s.503-.202-.401-.404c-.904-.201-.502-.403-1.205-.1-.803.403-.301.504-1.004.604-.703.303-4.218.605-5.323-.605z" fill="#F16B6C"/><path fill="#7DA5D4" d="M166.795 104.147l9.841 11.594v5.848h11.247v-5.142l-14.56-14.922"/><path d="M14.661 109.39l3.414.1h3.314s21.188-1.411 21.79-.806c.603.605 2.21 4.738 2.21 4.738h7.532l1.405 1.512h12.452v-.705H72a1.804 1.804 0 0 0 1.808-1.815L48.803 96.08 36.05 89.73l-13.155 2.016s-7.43 6.05-7.43 7.662" fill="#252E65"/><ellipse fill="url(#illustration-airport-transferj)" cx="33.439" cy="110.7" rx="12.05" ry="12.098"/><g transform="translate(26.109 103.844)"><ellipse fill="#7DA5D4" cx="7.331" cy="6.856" rx="6.828" ry="6.856"/><g transform="translate(5.02 4.033)"><ellipse fill="#DFE9F5" cx="2.31" cy="2.823" rx="2.31" ry="2.319"/><ellipse fill="#485861" cx="2.209" cy="2.823" rx="1.506" ry="1.512"/><ellipse fill="#8B9FA7" cx="2.711" cy="2.218" rx="1" ry="1"/><ellipse fill="#D1E0E3" cx="2.51" cy="2.218" rx="1" ry="1"/></g><ellipse fill="url(#illustration-airport-transferk)" cx="7.331" cy="6.856" rx="5.724" ry="5.747"/><path d="M.904.504l1.205 2.117c.1.202.401.202.502 0L3.816.504c.1-.202 0-.403-.2-.403H1.204C.904.1.803.302.904.504z" fill="url(#illustration-airport-transferl)" transform="translate(5.02 1.008)"/><path d="M3.615 11.09L2.41 8.973a.284.284 0 0 0-.502 0L.703 11.09c-.1.202 0 .403.2.403h2.41c.302 0 .503-.201.302-.403z" fill="url(#illustration-airport-transferm)" transform="translate(5.02 1.008)"/><path d="M10.142.907L8.837 3.025c-.1.201 0 .403.2.403h2.41c.202 0 .402-.202.302-.403L10.544.907c0-.1-.301-.1-.402 0z" fill="url(#illustration-airport-transfern)" transform="translate(1.004 2.016)"/><path d="M2.41 8.67l1.305-2.117c.1-.201 0-.403-.2-.403h-2.41c-.201 0-.402.202-.302.403L2.008 8.67c0 .202.302.202.402 0z" fill="url(#illustration-airport-transfero)" transform="translate(1.004 2.016)"/><path d="M11.448 6.654l-2.41-.202c-.201 0-.402.202-.302.404l1.105 2.218c.1.201.402.201.502 0l1.406-2.017c0-.201-.1-.403-.301-.403z" fill="url(#illustration-airport-transferp)" transform="translate(1.004 2.016)"/><path d="M1.105 2.924l2.41.201c.2 0 .401-.201.3-.403L2.712.504a.284.284 0 0 0-.502 0L.803 2.52c0 .202.1.404.302.404z" fill="url(#illustration-airport-transferq)" transform="translate(1.004 2.016)"/></g><path d="M15.565 90.536h4.92s.804-.1 0 1.11c-1.104 1.713-2.209 3.124-2.209 3.124s-.803.807-1.707.807h-3.615s.402-3.73 2.61-5.04z" fill="#EF4849"/><path d="M9.44 97.19v.403c0 .303 0 .605.1.908.1.201.1.605-.1 1.31l-1.105.505c-.302.1-.502.403-.502.806v3.73s2.912 3.227 6.828 4.638c0 0 2.008-.706 3.113-1.109 0 0 1.205-7.864 5.724-11.292-4.017-.1-11.548-.201-11.649 0v.101-.1c.1 0-2.71-2.42-2.41.1z" fill="url(#illustration-airport-transferr)"/><path fill="url(#illustration-airport-transfers)" d="M47.096 9.376L48 11.594h3.213l-.903-2.218z"/><path d="M91.481 110.8c0 1.311 1.004 2.32 2.31 2.32h12.452l22.594-.101 3.314-3.932-.302 1.21 2.009-.605 5.724-.807h.2s4.72-1.31 4.72-1.815c0-.504-2.109-2.016-2.109-2.016S132.151 90.84 130.845 90.94c-1.305.101-25.205 5.243-25.205 5.243l-10.644 10.082" fill="#252E65"/><path d="M178.243 90.637c-.1-4.436-2.31-8.67-5.925-11.292L79.732 11.897a14.048 14.048 0 0 0-8.234-2.622h-31.33L47.9 33.472l40.669 30.246v22.886h3.213l-.1-20.466 68.385 50.813h18.477l-.301-26.314zm-2.812 21.071c-.603 0-1.004-.403-1.004-1.008 0-.1-.301-14.417-.603-19.559-.301-4.739-4.619-8.166-4.72-8.267-.803-.605-87.665-64.323-90.577-66.239-.301-.201-.502-.302-.803-.504a18.883 18.883 0 0 0-9.44-2.52H48c-.603 0-1.004-.504-1.004-1.009 0-.504.502-1.008 1.004-1.008h20.285c3.715 0 7.33.908 10.443 2.722.301.202.703.404 1.004.605 2.912 2.017 87.063 63.718 90.578 66.34.2.201 5.121 4.133 5.523 9.78.3 5.242.602 19.457.602 19.659 0 .504-.502 1.008-1.004 1.008z" fill="url(#illustration-airport-transfert)" fill-rule="nonzero"/><path d="M125.121 31.052c1.005 1.412 1.808 3.227 2.31 5.445v1.915l-3.615.101.602 3.63 6.327.1s1.606-.604 1.908-1.713c0 0 8.535-1.412 9.84-2.42 0 0 1.306-3.025.202-6.957H125.12v-.1z" fill="url(#illustration-airport-transferu)" transform="translate(7.03 68.557)"/><path d="M142.594 31.052l-4.017-13.005H79.03L79.632.605H77.02s-15.967 0-17.975 1.915L44.084 15.93l-15.967.705-.803.807L9.138 20.87s-3.715 1.31-4.217 7.36v.403-.101s-2.712-2.319-2.511.1v1.11s.402.302 0 1.512l-1.607.706v4.335s3.816 3.73 6.829 4.436c0 0 2.008-.605 3.113-.907 0 0 1.305-8.67 6.427-11.796 5.12-3.126 17.673-2.42 20.083 2.117s4.419 11.695 4.419 11.695.1 1.714 2.31 1.916c2.208.1 52.82 0 52.82 0s1.706-.303 1.907-2.52c.1-2.017-3.012-19.056 24.201-15.83l6.527 5.949 13.155-.303zM75.816 16.736s-22.895.1-24.301 0c-1.507-.1 0-1.31 0-1.31s5.422-6.15 8.535-9.478c3.113-3.327 5.624-2.621 5.624-2.621s11.749-.403 12.05-.504l-1.908 13.913z" fill="url(#illustration-airport-transferv)" fill-rule="nonzero" transform="translate(7.03 68.557)"/><g transform="translate(112.469 103.844)"><ellipse fill="#7DA5D4" cx="7.732" cy="6.957" rx="6.828" ry="6.856"/><g transform="translate(5.02 4.033)"><ellipse fill="#DFE9F5" cx="2.711" cy="2.924" rx="2.31" ry="2.319"/><ellipse fill="#485861" cx="2.711" cy="2.924" rx="1.506" ry="1.512"/><ellipse fill="#8B9FA7" cx="3.213" cy="2.319" rx="1" ry="1"/><ellipse fill="#D1E0E3" cx="2.912" cy="2.319" rx="1" ry="1"/></g><ellipse fill="url(#illustration-airport-transferw)" cx="7.732" cy="6.957" rx="5.724" ry="5.747"/><path d="M.301.605l1.205 2.117c.1.202.402.202.502 0L3.213.605c.1-.202 0-.403-.2-.403H.603C.402.202.2.504.3.605z" fill="url(#illustration-airport-transferx)" transform="translate(6.025 1.008)"/><path d="M3.113 11.191L1.908 9.074a.284.284 0 0 0-.502 0L.2 11.19c-.1.202 0 .403.2.403h2.41c.302.101.402-.201.302-.403z" fill="url(#illustration-airport-transfery)" transform="translate(6.025 1.008)"/><path d="M9.64 1.109L8.335 3.226c-.1.202 0 .404.2.404h2.41c.201 0 .402-.202.302-.404L10.042 1.11c0-.202-.301-.202-.402 0z" fill="url(#illustration-airport-transferz)" transform="translate(2.008 2.016)"/><path d="M1.908 8.771l1.305-2.117c.1-.202 0-.403-.2-.403H.603c-.201 0-.402.201-.302.403l1.205 2.117c0 .202.201.202.402 0z" fill="url(#illustration-airport-transferA)" transform="translate(2.008 2.016)"/><path d="M10.845 6.755l-2.41-.202c-.2 0-.402.202-.301.404l1.104 2.218c.1.201.402.201.503 0l1.405-2.017c.1-.1-.1-.403-.3-.403z" fill="url(#illustration-airport-transferB)" transform="translate(2.008 2.016)"/><path d="M.603 3.125l2.41.202c.2 0 .401-.202.3-.403L2.21.706a.284.284 0 0 0-.502 0L.301 2.722c0 .101.1.403.302.403z" fill="url(#illustration-airport-transferC)" transform="translate(2.008 2.016)"/></g><path d="M24.2 96.585c5.122-3.125 17.674-2.42 20.085 2.117 2.41 4.537 4.418 11.696 4.418 11.696s.2 2.117 2.41 2.117c2.41 0 52.72-.202 52.72-.202s1.707-.302 1.908-2.52c.1-2.218.3-6.856 4.217-11.292 3.816-4.436 11.147-3.226 14.762-3.126 3.615.101 7.933 2.823 9.74 9.88v1.916l-3.615.101.603 3.63 6.326.1s1.607-.604 1.908-1.713h.1c-.401-2.118-1.205-4.94-2.61-8.47-3.616-9.073-8.636-9.174-11.147-9.174-2.51 0-6.125-.907-11.146 0-5.021.907-6.528 2.218-8.536 5.041-2.008 2.823-3.816 10.284-3.816 10.284-.401 1.714-1.606 2.117-1.606 2.117l-48.402.302L48.2 98.602c-3.214-7.562-9.038-7.159-17.272-6.957-8.335.202-10.343 4.033-10.343 4.033-4.419 5.242-5.724 13.711-5.824 13.812 0 0 2.209.403 3.414.101-.1-.1.903-9.88 6.025-13.006z" fill="url(#illustration-airport-transferD)"/><path d="M146.61 88.923s-2.51.202-3.012 1.613v7.46l5.523-.604-2.51-8.469z" fill="#EF4849"/><path d="M83.146 87.814c-.401-.403-1.004-.605-1.707-.605-.703 0-1.305.302-1.606.605h-1.607c-.301 0-.603.302-.603.605 0 .302.302.605.603.605h1.607c.3.403.903.605 1.606.605.703 0 1.306-.303 1.607-.605.301 0 .603-.303.603-.605.1-.303-.201-.605-.503-.605z" fill="url(#illustration-airport-transferE)"/><ellipse fill="url(#illustration-airport-transferF)" cx="120.201" cy="110.7" rx="12.05" ry="12.098"/><path d="M86.661 69.162h-2.61s-15.967 0-17.976 1.916L51.113 84.487l-15.967.706-.803.806-13.958 2.621s22.594-2.016 64.97-2.117h.101l1.205-17.34zm-3.816 16.131s-22.895.101-24.301 0c-1.506-.1 0-1.31 0-1.31s5.623-5.848 8.535-9.477c2.31-2.823 6.126-2.924 6.126-2.924s11.347-.1 11.548-.202l-1.908 13.913z" fill="url(#illustration-airport-transferG)" fill-rule="nonzero"/><g transform="translate(112.469 103.844)"><ellipse fill="#7DA5D4" cx="7.732" cy="6.856" rx="6.828" ry="6.856"/><g transform="translate(5.02 4.033)"><ellipse fill="#DFE9F5" cx="2.711" cy="2.823" rx="2.31" ry="2.319"/><ellipse fill="#485861" cx="2.611" cy="2.823" rx="1.506" ry="1.512"/><ellipse fill="#8B9FA7" cx="3.113" cy="2.218" rx="1" ry="1"/><ellipse fill="#D1E0E3" cx="2.912" cy="2.218" rx="1" ry="1"/></g><ellipse fill="url(#illustration-airport-transferH)" cx="7.732" cy="6.856" rx="5.724" ry="5.747"/><path d="M.301.504l1.205 2.117c.1.202.402.202.502 0L3.213.504c.1-.202 0-.403-.2-.403H.603C.3.1.2.302.3.504z" fill="url(#illustration-airport-transferI)" transform="translate(6.025 1.008)"/><path d="M3.013 11.09L1.808 8.973a.284.284 0 0 0-.503 0L.1 11.09c-.1.202 0 .403.201.403h2.41c.302 0 .402-.201.302-.403z" fill="url(#illustration-airport-transferJ)" transform="translate(6.025 1.008)"/><path d="M9.54.907L8.234 3.025c-.1.201 0 .403.201.403h2.41c.201 0 .402-.202.301-.403L9.941.907c0-.1-.3-.1-.401 0z" fill="url(#illustration-airport-transferK)" transform="translate(2.008 2.016)"/><path d="M1.808 8.67l1.305-2.117c.1-.201 0-.403-.2-.403H.502C.3 6.15.1 6.352.2 6.553L1.406 8.67c0 .202.301.202.402 0z" fill="url(#illustration-airport-transferL)" transform="translate(2.008 2.016)"/><path d="M10.845 6.654l-2.41-.202c-.2 0-.402.202-.301.404l1.104 2.218c.1.201.402.201.503 0l1.405-2.017c0-.201-.1-.403-.3-.403z" fill="url(#illustration-airport-transferM)" transform="translate(2.008 2.016)"/><path d="M.502 2.924l2.41.201c.201 0 .402-.201.301-.403L2.11.504a.284.284 0 0 0-.502 0L.2 2.52c0 .202.1.404.301.404z" fill="url(#illustration-airport-transferN)" transform="translate(2.008 2.016)"/></g><path d="M65.372 71.784h1.306c.301 0 .401.302.2.504l-11.246 11.19s-2.31 1.916-4.519 1.11l14.26-12.804z" fill="url(#illustration-airport-transferO)"/><path d="M63.264 80.152h-1.808c-.703 0-1.205.605-1.205 1.21-.301-.101-2.812 1.814-2.812 1.814s-1.205 1.008-.3 1.815c0 0 .602.202 1.104-.403.3-.404 1.406-1.21 2.008-1.714v.1c0 .706.603 1.21 1.205 1.21h1.808c.703 0 1.205-.604 1.205-1.21v-1.613c0-.604-.603-1.21-1.205-1.21z" fill="url(#illustration-airport-transferP)"/><path d="M48.603 13.711h3.213l7.531 16.333s2.41 3.63-1.004 6.957l-2.21 2.621-3.413-2.621-4.117-23.29z" fill="url(#illustration-airport-transferQ)" opacity=".75"/><path d="M56.134 30.448L43.883 2.016A3.09 3.09 0 0 0 41.07.202H6.828c-1.707 0-3.113 1.411-3.113 3.125v30.85c0 1.715 1.406 3.126 3.113 3.126h44.988c3.414-.1 5.724-3.63 4.318-6.855zM31.43 2.118v7.359H17.272v-7.46l14.159.1zM5.423 9.476V4.134c0-1.21.903-2.118 2.108-2.118h8.034v7.461H5.423zm27.615 0v-7.36h6.627c.703 0 1.406.403 1.808 1.11l3.113 6.25H33.038z" fill="url(#illustration-airport-transferR)" fill-rule="nonzero"/></g></svg>