<svg viewBox="0 0 143 119" xmlns="http://www.w3.org/2000/svg"><defs><linearGradient x1="0%" y1="50%" y2="50%" id="payment-error-numbera"><stop stop-color="#F6B2B3" offset="16.3%"/><stop stop-color="#F48F90" offset="50%"/><stop stop-color="#F06B6C" offset="89.8%"/></linearGradient><linearGradient x1="10.7%" y1="-13.2%" x2="89.2%" y2="113.3%" id="payment-error-numberb"><stop stop-color="#BFD3EA" offset="0%"/><stop stop-color="#B3CAE6" offset="21.3%"/><stop stop-color="#93B4DB" offset="59.9%"/><stop stop-color="#7DA5D4" offset="82.1%"/></linearGradient><linearGradient x1="0%" y1="50%" y2="50%" id="payment-error-numberc"><stop stop-color="#717FA2" offset="12.8%"/><stop stop-color="#242F65" offset="100%"/></linearGradient></defs><g fill="none" fill-rule="evenodd"><path d="M139.5 67.6l-96 50.7a5.2 5.2 0 0 1-7-2.3L7.2 59.4a5.3 5.3 0 0 1 2.3-7.2l96-50.7a5.2 5.2 0 0 1 7 2.3l29.3 56.6c1.3 2.6.4 5.9-2.3 7.2z" fill="url(#payment-error-numbera)"/><path d="M118.5 33.7H44.6L9.5 52.3a5.4 5.4 0 0 0-2.3 7.2l25.1 48.8h30.5l60.3-31.9-.3-37.6c0-3-1.3-5.1-4.3-5.1z" fill="#425685"/><path d="M114.4 105H6.1c-2.9 0-5.2-2.5-5.2-5.3v-64c0-3 2.4-5.3 5.2-5.3h108.3c3 0 5.2 2.5 5.2 5.3v64c0 3-2.4 5.2-5.2 5.2z" fill="url(#payment-error-numberb)"/><path fill="url(#payment-error-numberc)" d="M.8 48.1h118.8v16H.8z"/><path d="M52.3 76.1l-.6-.5c-.5-.4-1-1-1.3-1.6l-.3-.7s1.5-.8-.4-3.4c-.5-.4-1.6 0-1.9.7-.6 1.6 1.2 7.8 6.5 8.5.6.1 1.4-1 1.2-1.8-2-2.4-3.2-1.2-3.2-1.2z" fill="#252E65"/><g fill="#252E65"><path d="M58.1 72.2v-1.5H61v6h1.2v1.5H58v-1.5h1.2v-4.5zm6.5.7h-1.7c0-1.5 1-2.4 2.5-2.4 2 0 2.9 2 1.7 3.7 0 0 0 .2-1.5 2h2.2V78h-4.9v-.4l2.6-3.8c.5-.8.7-1.6-.3-1.7-.2.1-.6.4-.6.8zm5.8 3c0 .5.3.6.8.6.6 0 .8-.4.8-1 0-1-1-1-1.8-.9v-.2l1-2.2H69v-1.6h4.6v.3l-1.3 2.5c1.2.3 1.5 1.2 1.5 2.2 0 1.2-1 2.6-2.6 2.6-1.4 0-2.5-1-2.5-2.5h1.7v.2z"/><path d="M79.5 78.2h-1.7v-1.4h-3.2V76l3-5.3h2v4.5h.6v1.6h-.7v1.4zM78 72.9l-1.3 2.4H78V73z" fill-rule="nonzero"/><path d="M83 73.2h.5c1.6 0 2.8.5 2.8 2.5 0 1.2-.9 2.6-2.5 2.6-1.5 0-2.5-1-2.5-2.4H83c0 .5.3.6.8.6s.8-.4.8-1c0-.7-.8-.9-1.6-1h-1.6v-4h4.5V72h-3v1z"/><path d="M92 70.6l-1.7 2.7h.2c1.4-.1 2.5.8 2.5 2.4 0 1.8-1.2 2.6-2.8 2.6-1.6 0-2.8-.8-2.8-2.6 0-.5.3-1.2.5-1.6l2-3.5h2zm-.9 5.1c0-.6-.2-1-.9-1s-1 .4-1 1 .3 1 1 1 1-.4 1-1z" fill-rule="nonzero"/><path d="M99 71l-3 7.2h-2l2.5-5.9h-2.8v-1.7h5.5v.4z"/><path d="M105.2 75.7c0 1.2-1 2.6-2.8 2.6-1.9 0-2.8-1.2-2.8-2.4 0-.7.2-1.5.9-2-.3-.3-.5-.7-.5-1.1 0-1.1.8-2 2.4-2 1.6 0 2.4 1 2.4 2 0 .5-.2.9-.6 1.3.7.3 1 1 1 1.6zm-1.9 0c0-.5-.3-1-1-1-.6 0-.9.6-.9 1s.3 1 1 1c.6 0 1-.6 1-1zm-.3-3c0-.4-.2-.8-.6-.8-.6 0-.7.3-.7.7 0 .3.3.7.7.7.4 0 .6-.3.6-.7zm4 5.5l1.7-2.7h-.2c-1.6 0-2.5-.9-2.5-2.5 0-1.7 1.2-2.5 2.8-2.5 1.6 0 2.8.8 2.8 2.5 0 .7-.1 1.2-.5 1.8l-2 3.4h-2zm1-5.2c0 .7.3 1 1 1 .6 0 .9-.3.9-1 0-.5-.3-1-1-1-.6 0-1 .5-1 1z" fill-rule="nonzero"/></g></g></svg>