<svg viewBox="0 0 240 181" xmlns="http://www.w3.org/2000/svg"><defs><linearGradient x1="7.71%" y1="259.3%" x2="94.14%" y2="-156.3%" id="seat-reservations-soldouta"><stop stop-color="#A1A8C3" offset="0%"/><stop stop-color="#A1A8C3" stop-opacity=".15" offset="85.48%"/><stop stop-color="#A1A8C3" stop-opacity="0" offset="100%"/></linearGradient><linearGradient x1="50.06%" y1="-.01%" x2="50.06%" y2="99.99%" id="seat-reservations-soldoutb"><stop stop-color="#5E8FCA" offset="17.65%"/><stop stop-color="#5E8FCA" offset="79.68%"/></linearGradient><linearGradient x1="50.18%" y1="-.01%" x2="50.18%" y2="99.99%" id="seat-reservations-soldoutc"><stop stop-color="#5E8FCA" offset="17.65%"/><stop stop-color="#5E8FCA" offset="79.68%"/></linearGradient><linearGradient x1="50%" y1=".08%" x2="50%" y2="99.98%" id="seat-reservations-soldoutd"><stop stop-color="#425585" offset="59.89%"/><stop stop-color="#486295" offset="64.72%"/><stop stop-color="#5985BE" offset="74.11%"/><stop stop-color="#5E8FCA" offset="76.47%"/></linearGradient><linearGradient x1="50.01%" y1="-.01%" x2="50.01%" y2="99.99%" id="seat-reservations-soldoute"><stop stop-color="#BFD3EA" offset="0%"/><stop stop-color="#B9CFE8" offset="25.67%"/><stop stop-color="#B4CBE6" offset="37.61%"/><stop stop-color="#A5C1E1" offset="52.09%"/><stop stop-color="#8DB0D9" offset="67.88%"/><stop stop-color="#6B98CE" offset="84.51%"/><stop stop-color="#5E8FCA" offset="89.84%"/></linearGradient><linearGradient x1="50.04%" y1="0%" x2="50.04%" y2="100.02%" id="seat-reservations-soldoutf"><stop stop-color="#BFD3EA" offset="0%"/><stop stop-color="#BACFE8" offset="2.9%"/><stop stop-color="#9FBDDF" offset="20.76%"/><stop stop-color="#8CB0D9" offset="38.98%"/><stop stop-color="#81A8D5" offset="57.62%"/><stop stop-color="#7DA5D4" offset="77.33%"/><stop stop-color="#425585" offset="85.56%"/></linearGradient><linearGradient x1="50.04%" y1="-.05%" x2="50.04%" y2="99.97%" id="seat-reservations-soldoutg"><stop stop-color="#7DA5D4" offset="0%"/><stop stop-color="#9DBBDE" offset="14.44%"/><stop stop-color="#9DBBDE" offset="39.13%"/><stop stop-color="#9DBBDE" offset="43.32%"/><stop stop-color="#96B3D7" offset="45.33%"/><stop stop-color="#829DC4" offset="48.47%"/><stop stop-color="#6279A5" offset="52.3%"/><stop stop-color="#425585" offset="55.61%"/><stop stop-color="#5E8FCA" offset="100%"/></linearGradient><linearGradient x1="50.01%" y1="-.12%" x2="50.01%" y2="99.94%" id="seat-reservations-soldouth"><stop stop-color="#7DA5D4" offset="0%"/><stop stop-color="#7DA5D4" stop-opacity="0" offset="64.17%"/></linearGradient><linearGradient x1="50.09%" y1=".07%" x2="50.09%" y2="100.05%" id="seat-reservations-soldouti"><stop stop-color="#425585" offset="64.17%"/><stop stop-color="#5E8FCA" offset="100%"/></linearGradient><linearGradient x1="50.06%" y1=".02%" x2="50.06%" y2="99.98%" id="seat-reservations-soldoutj"><stop stop-color="#F48F90" offset="12.3%"/><stop stop-color="#F38384" offset="15.49%"/><stop stop-color="#F26D6E" offset="22.91%"/><stop stop-color="#F05C5D" offset="31.68%"/><stop stop-color="#F05152" offset="42.53%"/><stop stop-color="#EF4A4B" offset="57.75%"/><stop stop-color="#EF4849" offset="100%"/></linearGradient><linearGradient x1="50.01%" y1="-.01%" x2="50.01%" y2="99.99%" id="seat-reservations-soldoutk"><stop stop-color="#BFD3EA" offset="0%"/><stop stop-color="#B9CFE8" offset="25.67%"/><stop stop-color="#B4CBE6" offset="37.61%"/><stop stop-color="#A5C1E1" offset="52.09%"/><stop stop-color="#8DB0D9" offset="67.88%"/><stop stop-color="#6B98CE" offset="84.51%"/><stop stop-color="#5E8FCA" offset="89.84%"/></linearGradient><linearGradient x1="50.03%" y1="0%" x2="50.03%" y2="100.02%" id="seat-reservations-soldoutl"><stop stop-color="#BFD3EA" offset="0%"/><stop stop-color="#BACFE8" offset="2.9%"/><stop stop-color="#9FBDDF" offset="20.76%"/><stop stop-color="#8CB0D9" offset="38.98%"/><stop stop-color="#81A8D5" offset="57.62%"/><stop stop-color="#7DA5D4" offset="77.33%"/><stop stop-color="#425585" offset="85.56%"/></linearGradient><linearGradient x1="50%" y1="-.05%" x2="50%" y2="99.97%" id="seat-reservations-soldoutm"><stop stop-color="#7DA5D4" offset="0%"/><stop stop-color="#9DBBDE" offset="14.44%"/><stop stop-color="#9DBBDE" offset="39.13%"/><stop stop-color="#9DBBDE" offset="43.32%"/><stop stop-color="#96B3D7" offset="45.33%"/><stop stop-color="#829DC4" offset="48.47%"/><stop stop-color="#6279A5" offset="52.3%"/><stop stop-color="#425585" offset="55.61%"/><stop stop-color="#5E8FCA" offset="100%"/></linearGradient><linearGradient x1="50.01%" y1="-.12%" x2="50.01%" y2="99.94%" id="seat-reservations-soldoutn"><stop stop-color="#7DA5D4" offset="0%"/><stop stop-color="#7DA5D4" stop-opacity="0" offset="64.17%"/></linearGradient><linearGradient x1="50.08%" y1=".07%" x2="50.08%" y2="100.05%" id="seat-reservations-soldouto"><stop stop-color="#425585" offset="64.17%"/><stop stop-color="#5E8FCA" offset="100%"/></linearGradient><linearGradient x1="50.05%" y1=".02%" x2="50.05%" y2="99.98%" id="seat-reservations-soldoutp"><stop stop-color="#F48F90" offset="12.3%"/><stop stop-color="#F38384" offset="15.49%"/><stop stop-color="#F26D6E" offset="22.91%"/><stop stop-color="#F05C5D" offset="31.68%"/><stop stop-color="#F05152" offset="42.53%"/><stop stop-color="#EF4A4B" offset="57.75%"/><stop stop-color="#EF4849" offset="100%"/></linearGradient><linearGradient x1="49.87%" y1="-.05%" x2="49.87%" y2="99.93%" id="seat-reservations-soldoutq"><stop stop-color="#5E8FCA" offset="0%"/><stop stop-color="#557CB3" offset="10.93%"/><stop stop-color="#4C6B9F" offset="24.61%"/><stop stop-color="#475E90" offset="40.03%"/><stop stop-color="#435788" offset="58.44%"/><stop stop-color="#425585" offset="87.7%"/></linearGradient><linearGradient x1="50.18%" y1="-.03%" x2="50.18%" y2="100.1%" id="seat-reservations-soldoutr"><stop stop-color="#BFD3EA" offset="0%"/><stop stop-color="#B9CFE8" offset="76.47%"/><stop stop-color="#9EBCDF" offset="78.65%"/><stop stop-color="#82A8D6" offset="81.42%"/><stop stop-color="#6E9ACF" offset="84.22%"/><stop stop-color="#6292CB" offset="87.02%"/><stop stop-color="#5E8FCA" offset="89.84%"/></linearGradient><linearGradient x1="49.99%" y1="-.01%" x2="49.99%" y2="99.99%" id="seat-reservations-soldouts"><stop stop-color="#BFD3EA" offset="0%"/><stop stop-color="#B9CFE8" offset="25.67%"/><stop stop-color="#B4CBE6" offset="37.61%"/><stop stop-color="#A5C1E1" offset="52.09%"/><stop stop-color="#8DB0D9" offset="67.88%"/><stop stop-color="#6B98CE" offset="84.51%"/><stop stop-color="#5E8FCA" offset="89.84%"/></linearGradient><linearGradient x1="50.05%" y1="0%" x2="50.05%" y2="100.02%" id="seat-reservations-soldoutt"><stop stop-color="#BFD3EA" offset="0%"/><stop stop-color="#BACFE8" offset="2.9%"/><stop stop-color="#9FBDDF" offset="20.76%"/><stop stop-color="#8CB0D9" offset="38.98%"/><stop stop-color="#81A8D5" offset="57.62%"/><stop stop-color="#7DA5D4" offset="77.33%"/><stop stop-color="#425585" offset="85.56%"/></linearGradient><linearGradient x1="50.05%" y1="-.05%" x2="50.05%" y2="99.97%" id="seat-reservations-soldoutu"><stop stop-color="#7DA5D4" offset="0%"/><stop stop-color="#9DBBDE" offset="14.44%"/><stop stop-color="#9DBBDE" offset="39.13%"/><stop stop-color="#9DBBDE" offset="43.32%"/><stop stop-color="#96B3D7" offset="45.33%"/><stop stop-color="#829DC4" offset="48.47%"/><stop stop-color="#6279A5" offset="52.3%"/><stop stop-color="#425585" offset="55.61%"/><stop stop-color="#5E8FCA" offset="100%"/></linearGradient><linearGradient x1="50.03%" y1=".03%" x2="50.03%" y2="100.02%" id="seat-reservations-soldoutv"><stop stop-color="#7DA5D4" stop-opacity="0" offset="0%"/><stop stop-color="#6B98CE" stop-opacity=".64" offset="63.78%"/><stop stop-color="#5E8FCA" offset="100%"/></linearGradient><linearGradient x1="50%" y1=".03%" x2="50%" y2="100.02%" id="seat-reservations-soldoutw"><stop stop-color="#7DA5D4" stop-opacity="0" offset="0%"/><stop stop-color="#6B98CE" stop-opacity=".64" offset="63.78%"/><stop stop-color="#5E8FCA" offset="100%"/></linearGradient><linearGradient x1="49.96%" y1=".03%" x2="49.96%" y2="100.02%" id="seat-reservations-soldoutx"><stop stop-color="#7DA5D4" stop-opacity="0" offset="0%"/><stop stop-color="#6B98CE" stop-opacity=".64" offset="63.78%"/><stop stop-color="#5E8FCA" offset="100%"/></linearGradient><linearGradient x1="49.95%" y1="-.12%" x2="49.95%" y2="99.94%" id="seat-reservations-soldouty"><stop stop-color="#7DA5D4" offset="0%"/><stop stop-color="#7DA5D4" stop-opacity="0" offset="64.17%"/></linearGradient><linearGradient x1="49.97%" y1=".07%" x2="49.97%" y2="100.05%" id="seat-reservations-soldoutz"><stop stop-color="#425585" offset="64.17%"/><stop stop-color="#5E8FCA" offset="100%"/></linearGradient><linearGradient x1="50.08%" y1=".02%" x2="50.08%" y2="99.98%" id="seat-reservations-soldoutA"><stop stop-color="#F48F90" offset="12.3%"/><stop stop-color="#F38384" offset="15.49%"/><stop stop-color="#F26D6E" offset="22.91%"/><stop stop-color="#F05C5D" offset="31.68%"/><stop stop-color="#F05152" offset="42.53%"/><stop stop-color="#EF4A4B" offset="57.75%"/><stop stop-color="#EF4849" offset="100%"/></linearGradient><linearGradient x1="49.78%" y1=".04%" x2="49.78%" y2="100.02%" id="seat-reservations-soldoutB"><stop stop-color="#5E8FCA" offset="0%"/><stop stop-color="#557CB3" offset="10.93%"/><stop stop-color="#4C6B9F" offset="24.61%"/><stop stop-color="#475E90" offset="40.03%"/><stop stop-color="#435788" offset="58.44%"/><stop stop-color="#425585" offset="87.7%"/></linearGradient><linearGradient x1="49.93%" y1="-.02%" x2="49.93%" y2="100.12%" id="seat-reservations-soldoutC"><stop stop-color="#BFD3EA" offset="0%"/><stop stop-color="#B9CFE8" offset="76.47%"/><stop stop-color="#9EBCDF" offset="78.65%"/><stop stop-color="#82A8D6" offset="81.42%"/><stop stop-color="#6E9ACF" offset="84.22%"/><stop stop-color="#6292CB" offset="87.02%"/><stop stop-color="#5E8FCA" offset="89.84%"/></linearGradient><linearGradient x1="-.01%" y1="50.27%" x2="99.96%" y2="50.27%" id="seat-reservations-soldoutD"><stop stop-color="#425585" stop-opacity="0" offset="0%"/><stop stop-color="#425585" stop-opacity=".14" offset="8.09%"/><stop stop-color="#425585" offset="57.22%"/><stop stop-color="#445889" stop-opacity=".75" offset="67.6%"/><stop stop-color="#486294" stop-opacity=".51" offset="77.46%"/><stop stop-color="#5072A7" stop-opacity=".28" offset="87.11%"/><stop stop-color="#5B88C2" stop-opacity=".06" offset="96.58%"/><stop stop-color="#5E8FCA" stop-opacity="0" offset="98.93%"/></linearGradient><linearGradient x1="50.02%" y1=".14%" x2="50.02%" y2="100.03%" id="seat-reservations-soldoutE"><stop stop-color="#5E8FCA" offset="0%"/><stop stop-color="#4B679A" offset="64.68%"/><stop stop-color="#425585" offset="100%"/></linearGradient><linearGradient x1="50.01%" y1="-.02%" x2="50.01%" y2="99.95%" id="seat-reservations-soldoutF"><stop stop-color="#5E8FCA" offset="0%"/><stop stop-color="#5D8CC7" offset="19.13%"/><stop stop-color="#5984BD" offset="33.97%"/><stop stop-color="#5276AD" offset="47.38%"/><stop stop-color="#496396" offset="59.87%"/><stop stop-color="#425585" offset="66.84%"/></linearGradient><linearGradient x1="49.83%" y1="-.02%" x2="49.83%" y2="99.95%" id="seat-reservations-soldoutG"><stop stop-color="#7DA5D4" offset="0%"/><stop stop-color="#7DA5D4" stop-opacity="0" offset="100%"/></linearGradient><linearGradient x1="49.98%" y1="-.06%" x2="49.98%" y2="99.92%" id="seat-reservations-soldoutH"><stop stop-color="#425585" offset="77.01%"/><stop stop-color="#425585" offset="91.98%"/></linearGradient><linearGradient x1="50.56%" y1="-.06%" x2="50.56%" y2="99.92%" id="seat-reservations-soldoutI"><stop stop-color="#425585" offset="77.01%"/><stop stop-color="#425585" offset="91.98%"/></linearGradient><linearGradient x1="50.02%" y1=".12%" x2="50.02%" y2="100.06%" id="seat-reservations-soldoutJ"><stop stop-color="#5E8FCA" offset="0%"/><stop stop-color="#4B679A" offset="64.68%"/><stop stop-color="#425585" offset="100%"/></linearGradient><linearGradient x1=".02%" y1="50.21%" x2="100.01%" y2="50.21%" id="seat-reservations-soldoutK"><stop stop-color="#425585" stop-opacity="0" offset="0%"/><stop stop-color="#425585" stop-opacity=".14" offset="7.03%"/><stop stop-color="#425585" offset="49.73%"/><stop stop-color="#435787" stop-opacity=".52" offset="73.57%"/><stop stop-color="#465C8E" stop-opacity=".34" offset="82.16%"/><stop stop-color="#4A6699" stop-opacity=".22" offset="88.28%"/><stop stop-color="#5174AA" stop-opacity=".12" offset="93.22%"/><stop stop-color="#5A87C0" stop-opacity=".03" offset="97.41%"/><stop stop-color="#5E8FCA" stop-opacity="0" offset="98.93%"/></linearGradient><linearGradient x1="49.79%" y1="-.05%" x2="49.79%" y2="99.92%" id="seat-reservations-soldoutL"><stop stop-color="#F48F90" offset="14.44%"/><stop stop-color="#EE6A6C" offset="45.99%"/><stop stop-color="#EF4849" offset="100%"/></linearGradient><linearGradient x1="50.02%" y1="-.19%" x2="50.02%" y2="99.81%" id="seat-reservations-soldoutM"><stop stop-color="#EF4849" offset="71.66%"/><stop stop-color="#EF4849" offset="83.42%"/></linearGradient><linearGradient x1=".05%" y1="50.05%" x2="100.06%" y2="50.05%" id="seat-reservations-soldoutN"><stop stop-color="#425585" offset="87.7%"/><stop stop-color="#425585" offset="95.72%"/></linearGradient><linearGradient x1="-.01%" y1="50.07%" x2="99.89%" y2="50.07%" id="seat-reservations-soldoutO"><stop stop-color="#EF4849" offset="79.14%"/><stop stop-color="#EF4849" offset="91.53%"/><stop stop-color="#EF4849" offset="92.51%"/></linearGradient><linearGradient x1=".02%" y1="49.2%" x2="100.05%" y2="49.2%" id="seat-reservations-soldoutP"><stop stop-color="#425585" offset="25.13%"/><stop stop-color="#445889" stop-opacity=".75" offset="43.5%"/><stop stop-color="#486294" stop-opacity=".51" offset="60.95%"/><stop stop-color="#5072A7" stop-opacity=".28" offset="78.02%"/><stop stop-color="#5B88C2" stop-opacity=".06" offset="94.77%"/><stop stop-color="#5E8FCA" stop-opacity="0" offset="98.93%"/></linearGradient><linearGradient x1="14.64%" y1="14.58%" x2="85.38%" y2="85.33%" id="seat-reservations-soldoutQ"><stop stop-color="#F7F9FA" offset="0%"/><stop stop-color="#F4F6F8" offset="17.39%"/><stop stop-color="#EBEEF2" offset="29.71%"/><stop stop-color="#DBE0E8" offset="40.45%"/><stop stop-color="#C5CCDA" offset="50.3%"/><stop stop-color="#A9B2C7" offset="59.54%"/><stop stop-color="#8692B1" offset="68.19%"/><stop stop-color="#717FA3" offset="72.73%"/><stop stop-color="#A1A8C3" offset="100%"/></linearGradient><linearGradient x1=".03%" y1="49.98%" x2="99.83%" y2="49.98%" id="seat-reservations-soldoutR"><stop stop-color="#7DA5D4" stop-opacity="0" offset="0%"/><stop stop-color="#7DA5D4" stop-opacity=".14" offset="14.2%"/><stop stop-color="#7DA5D4" offset="100%"/></linearGradient><linearGradient x1="-.08%" y1="50.12%" x2="99.77%" y2="50.12%" id="seat-reservations-soldoutS"><stop stop-color="#7DA5D4" stop-opacity="0" offset="0%"/><stop stop-color="#7DA5D4" stop-opacity=".14" offset="14.2%"/><stop stop-color="#7DA5D4" offset="100%"/></linearGradient><linearGradient x1="-4.23%" y1="50.78%" x2="98.38%" y2="50.78%" id="seat-reservations-soldoutT"><stop stop-color="#7DA5D4" stop-opacity="0" offset="0%"/><stop stop-color="#7DA5D4" offset="100%"/></linearGradient><linearGradient x1="15.41%" y1="18.14%" x2="84.15%" y2="86.3%" id="seat-reservations-soldoutU"><stop stop-color="#5E8FCA" offset="0%"/><stop stop-color="#5D8CC7" offset="19.13%"/><stop stop-color="#5984BD" offset="33.97%"/><stop stop-color="#5276AD" offset="47.38%"/><stop stop-color="#496396" offset="59.87%"/><stop stop-color="#425585" offset="66.84%"/><stop stop-color="#252E65" offset="88.24%"/></linearGradient></defs><g fill="none" fill-rule="evenodd"><path fill="url(#seat-reservations-soldouta)" d="M239.6 179.82H9.95L4.1 170.2l5.85-11.16H239.6z"/><path fill="url(#seat-reservations-soldoutb)" d="M72.31 126.02h5.13v52.73h-5.13z"/><path fill="url(#seat-reservations-soldoutc)" d="M144.8 126.02h5.13v52.73h-5.13z"/><path d="M209.13 180.31H13.43A11.44 11.44 0 0 1 2 168.9v-.04l5.66-13.47v-.05l-.62-41.35h208.41l-.17 41.3 5.26 13.52c0 6.38-5.13 11.51-11.42 11.51zm-197.8-62.05L12 156v.04l-5.75 12.8v.05a7.18 7.18 0 0 0 7.18 7.18h195.7a7.18 7.18 0 0 0 7.18-7.18l-5-13.51-.08-37.08H11.33v-.04z" fill="url(#seat-reservations-soldoutd)" fill-rule="nonzero"/><path d="M141.19 109.25H80.57V34.04a3.73 3.73 0 0 1 3.7-3.75h53.17c2.05 0 3.7 1.7 3.7 3.75v75.2h.05z" fill="url(#seat-reservations-soldoute)"/><path d="M139.23 31.85h-56.7c-.98 0-1.74-.8-1.6-1.74l2.71-23.06A7.56 7.56 0 0 1 91.27.54h39.17a7.56 7.56 0 0 1 7.63 6.5l2.72 23.07c.18.94-.58 1.74-1.56 1.74z" fill="url(#seat-reservations-soldoutf)"/><path d="M147.08 138.47H74.72a2.34 2.34 0 0 1-2.4-2.28v-9.81l3.7-14.37a4.98 4.98 0 0 1 5.08-4.86h59.51a4.98 4.98 0 0 1 5.09 4.86l3.7 14.37v9.81c.04 1.25-1.03 2.28-2.32 2.28z" fill="url(#seat-reservations-soldoutg)"/><path d="M80.57 34.04v19.54h60.62V34.04c0-1.3-.62-2.41-1.6-3.08H82.21a3.66 3.66 0 0 0-1.65 3.08z" fill="url(#seat-reservations-soldouth)"/><path fill="url(#seat-reservations-soldouti)" d="M95.96.36h30.56v22.13H95.96z"/><path fill="url(#seat-reservations-soldoutj)" d="M95.15.4h30.56v21.59H95.15z"/><path d="M213.32 109.25H152.7V34.04a3.73 3.73 0 0 1 3.7-3.75h53.18c2.05 0 3.7 1.7 3.7 3.75v75.2h.04z" fill="url(#seat-reservations-soldoutk)"/><path d="M211.36 31.85h-56.7c-.98 0-1.74-.8-1.6-1.74l2.72-23.06A7.56 7.56 0 0 1 163.4.54h39.16a7.56 7.56 0 0 1 7.63 6.5l2.72 23.07c.18.94-.58 1.74-1.56 1.74z" fill="url(#seat-reservations-soldoutl)"/><path d="M219.17 138.47h-72.31a2.34 2.34 0 0 1-2.41-2.28v-9.81l3.7-14.37a4.98 4.98 0 0 1 5.08-4.86h59.56a4.98 4.98 0 0 1 5.08 4.86l3.7 14.37v9.81a2.34 2.34 0 0 1-2.4 2.28z" fill="url(#seat-reservations-soldoutm)"/><path d="M152.7 34.04v19.54h60.62V34.04c0-1.3-.62-2.41-1.6-3.08h-57.37a3.66 3.66 0 0 0-1.65 3.08z" fill="url(#seat-reservations-soldoutn)"/><path fill="url(#seat-reservations-soldouto)" d="M168.09.36h30.56v22.13h-30.56z"/><path fill="url(#seat-reservations-soldoutp)" d="M167.29.4h30.56v21.59h-30.56z"/><path fill="url(#seat-reservations-soldoutq)" d="M144.04 97.34h6.33v40.91h-6.33z"/><path fill="url(#seat-reservations-soldoutr)" d="M141.01 95.78h11.64v15.26h-11.64z"/><path d="M69.28 109.25H8.7V34.04a3.73 3.73 0 0 1 3.7-3.75h53.18c2.05 0 3.7 1.7 3.7 3.75v75.2z" fill="url(#seat-reservations-soldouts)"/><path d="M67.32 31.85h-56.7c-.98 0-1.74-.8-1.6-1.74l2.71-23.06A7.56 7.56 0 0 1 19.36.54h39.17a7.56 7.56 0 0 1 7.63 6.5l2.72 23.07c.18.94-.58 1.74-1.56 1.74z" fill="url(#seat-reservations-soldoutt)"/><path d="M75.17 138.47H2.8a2.34 2.34 0 0 1-2.4-2.28v-9.81L4.1 112a4.98 4.98 0 0 1 5.08-4.86h59.5a4.98 4.98 0 0 1 5.1 4.86l3.7 14.37v9.81c.04 1.25-1.03 2.28-2.32 2.28z" fill="url(#seat-reservations-soldoutu)"/><path fill="url(#seat-reservations-soldoutv)" d="M17.58 31.45h42.78v74.9H17.58z"/><path fill="url(#seat-reservations-soldoutw)" d="M89.49 31.45h42.78v74.9H89.49z"/><path fill="url(#seat-reservations-soldoutx)" d="M161.4 31.45h42.78v74.9H161.4z"/><path d="M8.7 34.04v19.54h60.62V34.04c0-1.3-.62-2.41-1.6-3.08H10.3a3.62 3.62 0 0 0-1.6 3.08z" fill="url(#seat-reservations-soldouty)"/><path fill="url(#seat-reservations-soldoutz)" d="M24.09.36h30.56v22.13H24.09z"/><path fill="url(#seat-reservations-soldoutA)" d="M23.24.4H53.8v21.59H23.24z"/><path fill="url(#seat-reservations-soldoutB)" d="M72.36 97.29h6.33v40.91h-6.33z"/><path fill="url(#seat-reservations-soldoutC)" d="M69.46 95.69H81.1v15.26H69.46z"/><path d="M54.78 65.44c0 1.12-1.87 2.01-4.15 2.01H4.33c-2.28 0-4.15-.9-4.15-2 0-1.12 1.87-2.02 4.15-2.02h46.3c2.28.05 4.15.94 4.15 2.01z" fill="url(#seat-reservations-soldoutD)" transform="translate(87.43 47.29)"/><path d="M24.04 17.53H22.3c-3.03 0-5.48-2.85-5.48-6.33V6.47c0-3.48 2.45-6.34 5.48-6.34h1.74c3.04 0 5.5 2.86 5.5 6.34v4.73c.04 3.52-2.46 6.33-5.5 6.33zM22.3 2.73c-1.6 0-2.94 1.69-2.94 3.74v4.73c0 2.1 1.34 3.74 2.94 3.74h1.74c1.61 0 2.95-1.7 2.95-3.74V6.47c0-2.1-1.34-3.75-2.95-3.75H22.3z" fill="url(#seat-reservations-soldoutE)" fill-rule="nonzero" transform="translate(88.33 47.29)"/><path d="M45.37 54.74c.98 8.2-3.44 11.28-6.83 11.28H6.83c-3.4 0-7.14-4.68-5.13-11.69l5.13-40.46a6.17 6.17 0 0 1 6.15-6.15h20.48c3.39 0 5.13 1.74 6.15 6.15l5.76 40.87z" fill="url(#seat-reservations-soldoutF)" transform="translate(88.33 47.29)"/><path d="M31.85 65.98V9.19c0-.5-.09-.98-.18-1.47H15.03c-.13.49-.17.98-.17 1.47v56.83h17v-.04z" fill="url(#seat-reservations-soldoutG)" transform="translate(88.33 47.29)"/><path d="M3.3 63.97l-.18-20.16H.13c-.04 0-.62 20.16 3.17 20.16z" fill="url(#seat-reservations-soldoutH)" transform="translate(88.33 47.29)"/><path d="M43.45 63.97l.18-20.16h2.99c.04 0 .67 20.16-3.17 20.16z" fill="url(#seat-reservations-soldoutI)" transform="translate(88.33 47.29)"/><path d="M42.51 34.57l-2.94-20.74c-1.03-4.37-2.77-6.16-6.16-6.16H12.98a6.17 6.17 0 0 0-6.15 6.16L4.19 34.57h2.37l3.08-21.1s.75-3.21 4.32-3.34c2.86-.1 7.32-.05 8.97 0h.62c1.65-.05 6.07-.1 8.97 0a4.56 4.56 0 0 1 4.33 3.34l3.08 21.1h2.58z" fill="url(#seat-reservations-soldoutJ)" transform="translate(88.33 47.29)"/><path d="M40.01 32.16c0 .9-1.33 1.65-3.03 1.65H3.21c-1.65 0-3.03-.71-3.03-1.65 0-.89 1.34-1.65 3.03-1.65h33.77c1.7 0 3.03.76 3.03 1.65z" fill="url(#seat-reservations-soldoutK)" transform="translate(163.27 80.3)"/><g fill-rule="nonzero"><path d="M32.2 10.75a3.27 3.27 0 0 0-3.25-3.26h-4.24V4.15A3.98 3.98 0 0 0 20.74.18h-5.3a3.98 3.98 0 0 0-3.98 3.97v3.34H7.27a3.27 3.27 0 0 0-3.26 3.26L.22 28.86a3.27 3.27 0 0 0 3.26 3.26H33.9a3.27 3.27 0 0 0 3.26-3.26l-4.95-18.1zm-18.1-6.6c0-.4.3-.72.71-.72h6.51c.4 0 .72.32.72.72v3.34h-7.99V4.15h.05z" fill="url(#seat-reservations-soldoutL)" transform="translate(164.16 80.3)"/><path d="M31.9 9.41a3.27 3.27 0 0 0-3-1.92h-4.23V4.15A3.98 3.98 0 0 0 20.7.18h-5.31a3.98 3.98 0 0 0-3.97 3.97v3.34h-4.2c-1.33 0-2.45.8-2.98 1.92H31.9zM14.1 4.15c0-.4.3-.72.71-.72h6.51c.4 0 .72.32.72.72v3.34h-7.99V4.15h.05z" fill="url(#seat-reservations-soldoutM)" transform="translate(164.16 80.3)"/></g><path d="M41.04 41.67c-.58 0-1.11 0-1.6-.05-4.06-.27-9.42-1.6-11.83-6.78-.22-.5-.44-.98-.62-1.47-4.06-.85-7.8-2.37-11.1-5.22-3.35-2.9-6.52-6.34-6.92-12.05-.14-1.82 0-6.96 2.14-8.87.71-.63.31-.94 1.25-.76l.22.53c-.54-.09.27.18-.13.5-1.92 1.6-2.28 6.6-2.15 8.51.36 5.22 3.3 8.44 6.47 11.11 2.9 2.5 6.2 3.88 9.77 4.73-1.02-3.84-.98-8.12-.93-12v-2.14c0-1.74-.05-3.61-.14-5.98 0-.4 0-1.02.05-1.7.04-.75.13-2 .04-2.27 0 0 0 .05.1.14l.26-.63c.36.4.67-.13.8 2.41.05.62.05 1.6.09 1.96.09 2.41.13 4.29.13 6.07v2.14c-.04 4.02-.08 8.48 1.07 12.27 3.04.58 6.2.8 9.46.98 3.53.18 11.87.9 12.9 3.52.22.54.26 1.34-.67 2.28-2.1 2.32-5.85 2.77-8.66 2.77zM28.6 33.68l.27.58c2.14 4.55 7 5.75 10.7 6.02 2.02.14 6.92.14 9.24-2.23.36-.35.5-.67.4-.85-.49-1.2-5.4-2.32-11.73-2.67a70.47 70.47 0 0 1-8.88-.85z" fill="url(#seat-reservations-soldoutN)" fill-rule="nonzero" transform="translate(163.27 80.3)"/><path d="M40.37 41.4c-.58 0-1.11 0-1.6-.05-4.06-.26-9.42-1.6-11.83-6.78-.22-.49-.44-.98-.62-1.47-4.06-.85-7.8-2.36-11.1-5.22-3.35-2.9-6.52-6.33-6.92-12.04-.14-1.83 0-6.96 2.14-8.88.71-.63 1.56-.9 2.5-.71l-.23 1.33c-.53-.09-.98.05-1.38.4-1.6 1.43-1.83 5.9-1.7 7.81.36 5.22 3.3 8.43 6.47 11.11 2.9 2.5 6.2 3.88 9.77 4.73-1.02-3.84-.89-23.78-.98-24.05 0 0 0-.17.1-.09L26 7.45c.35.4.22 20.7 1.38 24.5 3.03.57 6.2.8 9.46.97 3.52.18 11.86.9 12.89 3.53.22.53.27 1.33-.67 2.27-2.19 2.23-5.93 2.68-8.7 2.68zm-12.49-8c.09.23.18.4.27.58 2.14 4.55 7 5.76 10.7 6.02 2.01.14 6.92.14 9.24-2.23.36-.35.49-.66.4-.84-.49-1.2-5.4-2.32-11.73-2.68a71.28 71.28 0 0 1-8.88-.85z" fill="url(#seat-reservations-soldoutO)" fill-rule="nonzero" transform="translate(163.27 80.3)"/><g transform="translate(22.3 78.96)"><path d="M34.88 33.86c.1.67-5.84 1.25-13.02 1.25s-13.03-.54-13.03-1.25c0-.67 5.85-.85 13.03-1.25 7-.36 12.94.36 13.02 1.25z" fill="url(#seat-reservations-soldoutP)"/><circle fill="url(#seat-reservations-soldoutQ)" cx="16.82" cy="17.04" r="16.82"/><path d="M29.84 7.85c-2.98-4.42-6.1-5.84-6.24-5.89h-.05l-5.08.72-1.07 9.28-6.25 3.25-6.78-4.2.72-6.77L12.58.62l-.13-.3-7.68 3.7-.76 7.18 7.14 4.37 6.6-3.44 1.08-9.19 4.72-.66c.4.17 3.3 1.69 6.07 5.75.94 1.38 1.3 2.72 1.07 3.97-.31 1.6-1.56 2.5-1.7 2.63-2.45.76-6.5 2-6.6 2.05-.22.14-3.52 5.4-3.56 5.76 0 .09.04.13.04.18.13.18 1.6 2.76 2.54 4.5l.31-.18c-.66-1.2-2.18-3.97-2.54-4.46.23-.62 3.08-5.04 3.4-5.44.44-.13 4.85-1.52 6.55-2h.04c.05-.05 1.52-1.03 1.88-2.86a6.16 6.16 0 0 0-1.2-4.33z" fill="url(#seat-reservations-soldoutR)" transform="translate(1.78 4.46)"/><path d="M7.32 25.16l-.5.54c-.66-.32-3.96-2.01-4.95-4.24C.8 19 .45 13.34.45 13.29H.09c0 .23.36 5.76 1.47 8.3 1.12 2.54 5.09 4.37 5.27 4.46l.13.05.58-.67c.62-.36 5.17-2.9 5.4-4.2l-.36-.04c-.18.98-3.88 3.21-5.26 3.97z" fill="url(#seat-reservations-soldoutS)" transform="translate(1.78 4.46)"/><path d="M1.83 4.95c-.13-.85.27-3.12.27-3.17l-.36.54c0 .09-.4 1.78-.22 2.68l.3-.05z" fill="url(#seat-reservations-soldoutT)" transform="translate(1.78 4.46)"/><path d="M20.03 1.25l3.26 1.38c1.16.9 2.23 4.1 2.23 4.1L20.16 8.4l-5.88-3.5c.22-1.6 1.82-3.53 1.82-3.53.85-.09 3.93-.13 3.93-.13zm-16.55 7l-2.45 3.4c-.58.84-.76 2.8-.63 3.7.14.89 1.74 3.3 1.74 3.3l3.84-3.08.71-7s-1.38-.54-3.21-.32zm15.88 8.26s-4.73 1.78-6.42 3.34c0 0-.05 4.82 1.11 6.47 0 0 3.35 1.3 6.74.98 0 0 2.72-2.68 3.52-5.93 0 0-2.54-3.57-4.95-4.86zm13.56-4.15l-1.43.04s-.75 6.51-.7 6.87c.04.36 1.64 3.75 1.64 3.75s1.96-4.73.5-10.66zM10.97 32.92L9.2 29.8c-1.7-.58-5.71-3.66-5.71-3.8 0-.13-.45.72-.45.72 2.9 4.15 8.12 6.47 7.94 6.2zm16.1-2.76l-3.78 1.29-3.13 2.14c-.04.05 4.5-.9 6.92-3.43zM13.35.58l2.72.54s3.66-.36 3.8-.32l4.18 1.65.4-.49c-.04.05-3.3-2.76-11.1-1.38z" fill="url(#seat-reservations-soldoutU)" fill-rule="nonzero"/></g></g></svg>