<svg viewBox="0 0 46 46" xmlns="http://www.w3.org/2000/svg"><defs><mask id="state-signed-outb" x="-1" y="-1" width="46" height="46"><path fill="#fff" d="M-1-1h46v46H-1z"/><rect width="44" height="44" rx="22"/></mask></defs><g transform="translate(1 1)" fill="none"><mask id="state-signed-outa" fill="#fff"><rect x="2" y="2" width="40" height="40" rx="20"/></mask><rect x="2" y="2" width="40" height="40" rx="20"/><path d="M8 35.2c1-4.1 5.2-7.4 9.4-7.4h9.2a10 10 0 0 1 9.3 7.4l1 4.3c.2.5-.1 1-.7 1.2 0 0-9.8 2.3-14.2 2.3-4 0-14.3-2.3-14.3-2.3a1 1 0 0 1-.7-1.2l1-4.3zm14-9A7.6 7.6 0 1 0 22 11a7.6 7.6 0 0 0 0 15.2z" fill="#CCC" mask="url(#state-signed-outa)"/><rect width="44" height="44" rx="22" stroke="#CCC" mask="url(#state-signed-outb)"/></g></svg>