<svg viewBox="0 0 10 20" xmlns="http://www.w3.org/2000/svg" xmlns:xlink="http://www.w3.org/1999/xlink"><defs><path fill="currentColor" d="M0 6.25A.25.25 0 0 1 .25 6h9.5a.25.25 0 0 1 .25.25V18a2 2 0 0 1-2 2h-.75c-.138 0-.248-.113-.265-.25a2 2 0 0 0-3.97 0c-.017.137-.127.25-.265.25H2a2 2 0 0 1-2-2V6.25zM.25 5A.25.25 0 0 1 0 4.75V2a2 2 0 0 1 2-2h.75c.138 0 .248.112.265.25a2 2 0 0 0 3.97 0C7.002.112 7.112 0 7.25 0H8a2 2 0 0 1 2 2v2.75a.25.25 0 0 1-.25.25H.25z" id="ticketsa"/></defs><use xlink:href="#ticketsa"/></svg>