<svg viewBox="0 0 174 92" xmlns="http://www.w3.org/2000/svg" xmlns:xlink="http://www.w3.org/1999/xlink"><defs><path id="train-without-seata" d="M.174.217h44.9v8.708H.174z"/><path d="M9.654 12.833h9.124c.584 0 1.057.523 1.057 1.167s-.473 1.167-1.057 1.167h-8.549l.428 1.733a.125.125 0 0 0 .121.095h10.755a1.75 1.75 0 0 1 0 3.5h-9.314l-1.071 2.684a.125.125 0 0 0 .116.171h9.753a1.167 1.167 0 1 1 0 2.334H9.357c-.825 0-1.39-.833-1.083-1.6l1.433-3.59H9.31a1.75 1.75 0 0 1-1.7-1.33L5.3 9.8a1.75 1.75 0 0 1-.05-.419v-5.29a1.75 1.75 0 0 1 3.5 0v5.063c0 .01.001.02.004.03l.9 3.648z" id="train-without-seatc"/><path d="M9.654 12.833h9.124c.584 0 1.057.523 1.057 1.167s-.473 1.167-1.057 1.167h-8.549l.428 1.733a.125.125 0 0 0 .121.095h10.755a1.75 1.75 0 0 1 0 3.5h-9.314l-1.071 2.684a.125.125 0 0 0 .116.171h9.753a1.167 1.167 0 1 1 0 2.334H9.357c-.825 0-1.39-.833-1.083-1.6l1.433-3.59H9.31a1.75 1.75 0 0 1-1.7-1.33L5.3 9.8a1.75 1.75 0 0 1-.05-.419v-5.29a1.75 1.75 0 0 1 3.5 0v5.063c0 .01.001.02.004.03l.9 3.648z" id="train-without-seate"/><path d="M9.654 12.833h9.124c.584 0 1.057.523 1.057 1.167s-.473 1.167-1.057 1.167h-8.549l.428 1.733a.125.125 0 0 0 .121.095h10.755a1.75 1.75 0 0 1 0 3.5h-9.314l-1.071 2.684a.125.125 0 0 0 .116.171h9.753a1.167 1.167 0 1 1 0 2.334H9.357c-.825 0-1.39-.833-1.083-1.6l1.433-3.59H9.31a1.75 1.75 0 0 1-1.7-1.33L5.3 9.8a1.75 1.75 0 0 1-.05-.419v-5.29a1.75 1.75 0 0 1 3.5 0v5.063c0 .01.001.02.004.03l.9 3.648z" id="train-without-seatg"/><path d="M4.397 3.926l1.886 1.886a.333.333 0 1 1-.471.471L3.926 4.397 2.04 6.283a.333.333 0 1 1-.471-.471l1.886-1.886L1.569 2.04a.333.333 0 0 1 .471-.471l1.886 1.886 1.886-1.886a.333.333 0 0 1 .471.471L4.397 3.926z" id="train-without-seati"/></defs><g fill="none" fill-rule="evenodd"><circle fill="#EAF4FF" cx="128" cy="46" r="46"/><g transform="translate(0 25)"><g transform="translate(77 32)"><mask id="train-without-seatb" fill="#fff"><use xlink:href="#train-without-seata"/></mask><path d="M4.093 1.945h21.274c.244.461.382.986.382 1.546h3.204V5.04H4.093V1.945" fill="#424240" mask="url(#train-without-seatb)"/><path d="M23.01.256a5.536 5.536 0 0 0-1.038 3.235c0 3.043 2.44 5.509 5.45 5.509 3.01 0 5.449-2.466 5.449-5.509h-7.122A3.263 3.263 0 0 0 23.01.256M1.241.217A5.519 5.519 0 0 0 .174 3.491C.174 6.534 2.614 9 5.624 9c3.009 0 5.45-2.466 5.45-5.509A5.519 5.519 0 0 0 10.007.217H1.24" fill="#30322E" mask="url(#train-without-seatb)"/><path d="M22.598.93a5.566 5.566 0 0 0-.407 1.015H10.855A5.651 5.651 0 0 0 10.45.93l-.01-.016-.046-.088-.002-.003a5.298 5.298 0 0 0-.28-.454L10.104.35l-.056-.077-.008-.009-.032-.048H22.51c.17 0 .339.016.5.04l-.005.008-.005.01-.055.077-.01.018a5.298 5.298 0 0 0-.28.454l-.002.003-.047.088-.008.016zm9.543 5.315c.465-.811.73-1.751.73-2.754h12.203c0 3.043-2.44 5.509-5.449 5.509a5.437 5.437 0 0 1-4.72-2.755h-2.764zm-19.035 0h-2.76l.007-.016.012-.019.039-.07.01-.019.012-.021.036-.069.008-.018.01-.014v-.005l.009-.018.026-.056.01-.019.009-.016.008-.019.009-.02.027-.055.008-.019.016-.036.008-.02.016-.038.008-.018.008-.019.01-.019.006-.018.025-.058.005-.019.008-.018.008-.02.009-.02.006-.019.014-.039.006-.02.009-.02.006-.016.008-.023.007-.018.006-.02.006-.019.007-.018v-.002l.005-.019.027-.079.005-.02.007-.018v-.003l.006-.02.017-.057h11.333c.125.425.298.829.514 1.206h-.155A5.438 5.438 0 0 1 17.827 9c-2.02 0-3.78-1.11-4.72-2.755z" fill="#1A1B19" mask="url(#train-without-seatb)"/></g><g transform="translate(24 7)"><mask id="train-without-seatd" fill="#fff"><use xlink:href="#train-without-seatc"/></mask><use fill="#979797" fill-rule="nonzero" xlink:href="#train-without-seatc"/><g mask="url(#train-without-seatd)" fill="#F7A600"><path d="M0 0h28v28H0z"/></g></g><g transform="translate(43 7)"><mask id="train-without-seatf" fill="#fff"><use xlink:href="#train-without-seate"/></mask><use fill="#979797" fill-rule="nonzero" xlink:href="#train-without-seate"/><g mask="url(#train-without-seatf)" fill="#F7A600"><path d="M0 0h28v28H0z"/></g></g><g transform="translate(6 7)"><mask id="train-without-seath" fill="#fff"><use xlink:href="#train-without-seatg"/></mask><use fill="#979797" fill-rule="nonzero" xlink:href="#train-without-seatg"/><g mask="url(#train-without-seath)" fill="#F7A600"><path d="M0 0h28v28H0z"/></g></g><path d="M68.308 3.333H0V0h76.542c4.42 0 8.47 1.24 11.857 3.89l17.228 13.96c4.691 3.664 10.443 6.15 16.929 6.15h46.778c6.973 9.333 1.581 12-32.001 12h-33.83c0-1.333-1.456-1.333-3.252-1.333H78.363c-1.796 0-3.253 0-3.253 1.333H7.3C3.901 36 0 33.37 0 29.954v-.62h86.174c3.946 0 4.852-2.895 2.613-5.782L74.772 4.672c-1.56-2.009-3.265-1.34-6.464-1.34z" fill="#2A7098"/><circle fill="#F7A600" cx="39" cy="11" r="4"/><g transform="translate(35 7)"><mask id="train-without-seatj" fill="#fff"><use xlink:href="#train-without-seati"/></mask><use fill="#D8D8D8" xlink:href="#train-without-seati"/><g mask="url(#train-without-seatj)" fill="#FFF"><path d="M0 0h8v8H0z"/></g></g><path d="M161 13h-30.936a3.215 3.215 0 0 1-1.629-.443l-10.79-6.317c-1.81-1.059-2.2-3.551-.803-5.134A3.244 3.244 0 0 1 119.275 0h14.312S149.566 4.96 161 13" fill="#2A7098"/><path d="M76 1.6h56.7c24.738 8.525 36.355 16.299 34.851 23.32" stroke="#2A7098" stroke-width="3"/></g></g></svg>