<svg viewBox="0 0 100 91" xmlns="http://www.w3.org/2000/svg"><title>Missing Train</title><g stroke="currentColor" stroke-width="2" fill="none" fill-rule="evenodd" stroke-linecap="round" stroke-dasharray="5,6"><path d="M74.57 36.238c0 5.525-3.105 5.785-23.943 5.785-21.023 0-24.627-.26-24.627-5.785v-9.246C26 20.318 36.876 16 50.287 16c13.419 0 24.283 4.318 24.283 10.992v9.246zM66.511 57.16c-2.49 0-4.511-2.05-4.511-4.58 0-2.53 2.02-4.58 4.511-4.58s4.51 2.05 4.51 4.58c0 2.53-2.019 4.58-4.51 4.58zm-33 0c-2.49 0-4.511-2.05-4.511-4.58 0-2.53 2.02-4.58 4.511-4.58s4.51 2.05 4.51 4.58c0 2.53-2.019 4.58-4.51 4.58z"/><path d="M79.268 25.953h-.046c-.37-7.766-8.745-12.967-20.156-14.764v-5.3S55.036 5 50.35 5s-9 .888-9 .888v5.184c-11.705 1.682-20.188 6.943-20.56 14.88h-.037S20 32.126 20 41.494c0 9.606.752 16.074.752 16.074h.029c.182 5.498 3.486 10.453 8.71 14.048 0 0 .712.528 2.207 1.21-1.636 3.1-7.873 12.162-8.425 14.153 1.514 0 6.115.07 7.392-.04.333-.026.809-.404.972-.885.39-1.157 4.599-7.224 6.973-11.07 2.974.61 6.682.699 11.343.699 4.748 0 8.589-.15 11.63-.81 2.315 3.899 6.247 10.204 6.904 11.464.159.304.428.601.662.608 1.377.058 6.148.024 7.595.024-3.392-6.192-6.98-11.513-8.42-14.203 1.434-.643 2.198-1.15 2.198-1.15 5.227-3.595 8.53-8.55 8.718-14.048h.028S80 49.42 80 41.132c0-7.924-.732-15.18-.732-15.18z"/></g></svg>