<svg viewBox="0 0 102 91" xmlns="http://www.w3.org/2000/svg" xmlns:xlink="http://www.w3.org/1999/xlink"><defs><rect id="two-cards-sadb" x="17.6" y="11" width="54.9" height="87.3" rx="3.1"/><filter x="-1.8%" y="-1.1%" width="103.6%" height="104.6%" filterUnits="objectBoundingBox" id="two-cards-sada"><feOffset dy="2" in="SourceAlpha" result="shadowOffsetOuter1"/><feColorMatrix values="0 0 0 0 0.075 0 0 0 0 0.161 0 0 0 0 0.408 0 0 0 0.126245471 0" in="shadowOffsetOuter1"/></filter></defs><g transform="translate(-1 -1)" fill="none" fill-rule="evenodd"><path d="M2.9 44.6l68.8-43c1.4-.9 3.3-.4 4.2 1L101.7 44c1 1.5.5 3.4-1 4.3L32 91.2c-1.5.8-3.4.4-4.3-1L1.9 48.9c-.9-1.5-.5-3.4 1-4.3z" fill="#9EBCE0" fill-rule="nonzero"/><g fill-rule="nonzero" transform="rotate(-89.8 45 54.6)"><use fill="#000" filter="url(#two-cards-sada)" xlink:href="#two-cards-sadb"/><use fill="#DEEBF9" xlink:href="#two-cards-sadb"/></g><path fill="#BFD3EB" fill-rule="nonzero" d="M1.4 48.2v-14l87.4.4v14z"/><circle fill="#4E90BA" cx="37" cy="59" r="3"/><circle fill="#4E90BA" cx="51" cy="59" r="3"/><path d="M37 68c4.4-4 9-4 14 0" stroke="#4E90BA" stroke-width="3" stroke-linecap="round"/></g></svg>