<svg xmlns="http://www.w3.org/2000/svg" viewBox="0 0 101 34"><g fill="none" fill-rule="evenodd"><path fill="#0066B2" d="M43.957 32.533h-8.094L40.923.867h8.096m-19.97 0l-7.717 21.78-.915-4.69v.002L17.7 3.72S17.37.866 13.858.866H1.102l-.148.537s3.903.825 8.47 3.62l7.03 27.51h8.434L37.766.866h-8.713zm54.763 20.466L88.07 9.48l2.393 11.853h-6.646zm8.907 11.2h7.433L93.673.867H87.17c-3.006 0-3.74 2.36-3.74 2.36L71.36 32.53h8.435l1.69-4.702h10.29l.95 4.702zM71.99 8.483l1.155-6.8S69.58.3 65.865.3C61.85.3 52.31 2.09 52.31 10.785c0 8.182 11.198 8.284 11.198 12.58 0 4.293-10.043 3.526-13.36.817l-1.202 7.11s3.614 1.788 9.138 1.788c5.522 0 13.858-2.914 13.858-10.84 0-8.233-11.297-9-11.297-12.58s7.883-3.12 11.347-1.176"/><path fill="#F9A533" d="M20.422 17.96L17.698 3.72S17.37.866 13.858.866H1.103l-.15.537s6.134 1.294 12.015 6.142c5.624 4.635 7.455 10.413 7.455 10.413"/></g></svg>